G04 #@! TF.GenerationSoftware,KiCad,Pcbnew,5.0.2+dfsg1-1*
G04 #@! TF.CreationDate,2020-09-22T13:16:50+02:00*
G04 #@! TF.ProjectId,lipo_power,6c69706f-5f70-46f7-9765-722e6b696361,rev?*
G04 #@! TF.SameCoordinates,Original*
G04 #@! TF.FileFunction,Legend,Top*
G04 #@! TF.FilePolarity,Positive*
%FSLAX46Y46*%
G04 Gerber Fmt 4.6, Leading zero omitted, Abs format (unit mm)*
G04 Created by KiCad (PCBNEW 5.0.2+dfsg1-1) date Tue 22 Sep 2020 01:16:50 PM CEST*
%MOMM*%
%LPD*%
G01*
G04 APERTURE LIST*
%ADD10C,0.120000*%
%ADD11C,0.150000*%
G04 APERTURE END LIST*
D10*
G04 #@! TO.C,D3*
X134000000Y-91750000D02*
X136000000Y-91750000D01*
X136000000Y-91750000D02*
X136000000Y-87850000D01*
X134000000Y-91750000D02*
X134000000Y-87850000D01*
G04 #@! TO.C,Q5*
X147575000Y-92200000D02*
X147575000Y-93110000D01*
X147575000Y-89900000D02*
X147575000Y-90800000D01*
X144500000Y-89890000D02*
X147575000Y-89890000D01*
X145425000Y-93110000D02*
X147575000Y-93110000D01*
G04 #@! TO.C,Q4*
X145425000Y-86300000D02*
X145425000Y-85390000D01*
X145425000Y-88600000D02*
X145425000Y-87700000D01*
X148500000Y-88610000D02*
X145425000Y-88610000D01*
X147575000Y-85390000D02*
X145425000Y-85390000D01*
G04 #@! TO.C,D1*
X146602064Y-53410000D02*
X145397936Y-53410000D01*
X146602064Y-51590000D02*
X145397936Y-51590000D01*
G04 #@! TO.C,R10*
X147290000Y-79786252D02*
X147290000Y-79263748D01*
X148710000Y-79786252D02*
X148710000Y-79263748D01*
G04 #@! TO.C,R7*
X144261252Y-95710000D02*
X143738748Y-95710000D01*
X144261252Y-94290000D02*
X143738748Y-94290000D01*
G04 #@! TO.C,R8*
X137736252Y-95710000D02*
X137213748Y-95710000D01*
X137736252Y-94290000D02*
X137213748Y-94290000D01*
G04 #@! TO.C,R1*
X140790000Y-53786252D02*
X140790000Y-53263748D01*
X142210000Y-53786252D02*
X142210000Y-53263748D01*
G04 #@! TO.C,U5*
X142160000Y-90750000D02*
X142160000Y-88950000D01*
X138940000Y-88950000D02*
X138940000Y-91900000D01*
G04 #@! TO.C,J1*
X160550000Y-49700000D02*
X168350000Y-49700000D01*
X166560000Y-57410000D02*
X166560000Y-57840000D01*
X160550000Y-52400000D02*
X160550000Y-55100000D01*
X162340000Y-57410000D02*
X161260000Y-57410000D01*
X167640000Y-57410000D02*
X166560000Y-57410000D01*
X168350000Y-52400000D02*
X168350000Y-55100000D01*
G04 #@! TO.C,U1*
X129440000Y-54450000D02*
X129440000Y-56250000D01*
X132660000Y-56250000D02*
X132660000Y-53800000D01*
G04 #@! TO.C,R9*
X132761252Y-95710000D02*
X132238748Y-95710000D01*
X132761252Y-94290000D02*
X132238748Y-94290000D01*
G04 #@! TO.C,C5*
X130602064Y-87910000D02*
X129397936Y-87910000D01*
X130602064Y-86090000D02*
X129397936Y-86090000D01*
G04 #@! TO.C,U6*
X154110000Y-88400000D02*
X154110000Y-86600000D01*
X150890000Y-86600000D02*
X150890000Y-89550000D01*
G04 #@! TO.C,U4*
X166560001Y-88275001D02*
X166560001Y-86475001D01*
X163340001Y-86475001D02*
X163340001Y-89425001D01*
G04 #@! TO.C,C2*
X155910000Y-56885436D02*
X155910000Y-58089564D01*
X154090000Y-56885436D02*
X154090000Y-58089564D01*
G04 #@! TO.C,C3*
X160102064Y-83885000D02*
X158897936Y-83885000D01*
X160102064Y-82065000D02*
X158897936Y-82065000D01*
G04 #@! TO.C,R4*
X137238748Y-60290000D02*
X137761252Y-60290000D01*
X137238748Y-61710000D02*
X137761252Y-61710000D01*
G04 #@! TO.C,R11*
X151790000Y-92786252D02*
X151790000Y-92263748D01*
X153210000Y-92786252D02*
X153210000Y-92263748D01*
G04 #@! TO.C,R12*
X155710000Y-81713748D02*
X155710000Y-82236252D01*
X154290000Y-81713748D02*
X154290000Y-82236252D01*
G04 #@! TO.C,C4*
X130602064Y-91910000D02*
X129397936Y-91910000D01*
X130602064Y-90090000D02*
X129397936Y-90090000D01*
G04 #@! TO.C,L1*
X134100000Y-80600000D02*
X134100000Y-78300000D01*
X134100000Y-78300000D02*
X141500000Y-78300000D01*
X141500000Y-78300000D02*
X141500000Y-80600000D01*
X141500000Y-83400000D02*
X141500000Y-85700000D01*
X141500000Y-85700000D02*
X134100000Y-85700000D01*
X134100000Y-85700000D02*
X134100000Y-83400000D01*
G04 #@! TO.C,Q2*
X158425000Y-86325000D02*
X158425000Y-85415000D01*
X158425000Y-88625000D02*
X158425000Y-87725000D01*
X161500000Y-88635000D02*
X158425000Y-88635000D01*
X160575000Y-85415000D02*
X158425000Y-85415000D01*
G04 #@! TO.C,D2*
X136397936Y-51590000D02*
X137602064Y-51590000D01*
X136397936Y-53410000D02*
X137602064Y-53410000D01*
G04 #@! TO.C,C6*
X130602064Y-83910000D02*
X129397936Y-83910000D01*
X130602064Y-82090000D02*
X129397936Y-82090000D01*
G04 #@! TO.C,R2*
X142210000Y-58263748D02*
X142210000Y-58786252D01*
X140790000Y-58263748D02*
X140790000Y-58786252D01*
G04 #@! TO.C,Q1*
X146700000Y-58125000D02*
X147610000Y-58125000D01*
X144400000Y-58125000D02*
X145300000Y-58125000D01*
X144390000Y-61200000D02*
X144390000Y-58125000D01*
X147610000Y-60275000D02*
X147610000Y-58125000D01*
G04 #@! TO.C,C1*
X152410000Y-56885436D02*
X152410000Y-58089564D01*
X150590000Y-56885436D02*
X150590000Y-58089564D01*
G04 #@! TO.C,R3*
X132763748Y-60290000D02*
X133286252Y-60290000D01*
X132763748Y-61710000D02*
X133286252Y-61710000D01*
G04 #@! TO.C,R5*
X160290000Y-79761252D02*
X160290000Y-79238748D01*
X161710000Y-79761252D02*
X161710000Y-79238748D01*
G04 #@! TO.C,Q3*
X160575000Y-92175000D02*
X160575000Y-93085000D01*
X160575000Y-89875000D02*
X160575000Y-90775000D01*
X157500000Y-89865000D02*
X160575000Y-89865000D01*
X158425000Y-93085000D02*
X160575000Y-93085000D01*
G04 #@! TO.C,C7*
X147102064Y-83910000D02*
X145897936Y-83910000D01*
X147102064Y-82090000D02*
X145897936Y-82090000D01*
G04 #@! TO.C,R6*
X164240001Y-92786252D02*
X164240001Y-92263748D01*
X165660001Y-92786252D02*
X165660001Y-92263748D01*
G04 #@! TO.C,C7*
X147102064Y-133090000D02*
X145897936Y-133090000D01*
X147102064Y-134910000D02*
X145897936Y-134910000D01*
G04 #@! TO.C,C2*
X154090000Y-107885436D02*
X154090000Y-109089564D01*
X155910000Y-107885436D02*
X155910000Y-109089564D01*
G04 #@! TO.C,C3*
X160102064Y-133065000D02*
X158897936Y-133065000D01*
X160102064Y-134885000D02*
X158897936Y-134885000D01*
G04 #@! TO.C,C4*
X130602064Y-141090000D02*
X129397936Y-141090000D01*
X130602064Y-142910000D02*
X129397936Y-142910000D01*
G04 #@! TO.C,C5*
X130602064Y-137090000D02*
X129397936Y-137090000D01*
X130602064Y-138910000D02*
X129397936Y-138910000D01*
G04 #@! TO.C,C6*
X130602064Y-133090000D02*
X129397936Y-133090000D01*
X130602064Y-134910000D02*
X129397936Y-134910000D01*
G04 #@! TO.C,D1*
X146602064Y-102590000D02*
X145397936Y-102590000D01*
X146602064Y-104410000D02*
X145397936Y-104410000D01*
G04 #@! TO.C,D2*
X136397936Y-104410000D02*
X137602064Y-104410000D01*
X136397936Y-102590000D02*
X137602064Y-102590000D01*
G04 #@! TO.C,C1*
X150590000Y-107885436D02*
X150590000Y-109089564D01*
X152410000Y-107885436D02*
X152410000Y-109089564D01*
G04 #@! TO.C,D3*
X134000000Y-142750000D02*
X134000000Y-138850000D01*
X136000000Y-142750000D02*
X136000000Y-138850000D01*
X134000000Y-142750000D02*
X136000000Y-142750000D01*
G04 #@! TO.C,L1*
X134100000Y-136700000D02*
X134100000Y-134400000D01*
X141500000Y-136700000D02*
X134100000Y-136700000D01*
X141500000Y-134400000D02*
X141500000Y-136700000D01*
X141500000Y-129300000D02*
X141500000Y-131600000D01*
X134100000Y-129300000D02*
X141500000Y-129300000D01*
X134100000Y-131600000D02*
X134100000Y-129300000D01*
G04 #@! TO.C,U1*
X132660000Y-107250000D02*
X132660000Y-104800000D01*
X129440000Y-105450000D02*
X129440000Y-107250000D01*
G04 #@! TO.C,U4*
X163340001Y-137475001D02*
X163340001Y-140425001D01*
X166560001Y-139275001D02*
X166560001Y-137475001D01*
G04 #@! TO.C,U5*
X138940000Y-139950000D02*
X138940000Y-142900000D01*
X142160000Y-141750000D02*
X142160000Y-139950000D01*
G04 #@! TO.C,U6*
X150890000Y-137600000D02*
X150890000Y-140550000D01*
X154110000Y-139400000D02*
X154110000Y-137600000D01*
G04 #@! TO.C,Q2*
X160575000Y-136415000D02*
X158425000Y-136415000D01*
X161500000Y-139635000D02*
X158425000Y-139635000D01*
X158425000Y-139625000D02*
X158425000Y-138725000D01*
X158425000Y-137325000D02*
X158425000Y-136415000D01*
G04 #@! TO.C,Q4*
X147575000Y-136390000D02*
X145425000Y-136390000D01*
X148500000Y-139610000D02*
X145425000Y-139610000D01*
X145425000Y-139600000D02*
X145425000Y-138700000D01*
X145425000Y-137300000D02*
X145425000Y-136390000D01*
G04 #@! TO.C,Q1*
X147610000Y-111275000D02*
X147610000Y-109125000D01*
X144390000Y-112200000D02*
X144390000Y-109125000D01*
X144400000Y-109125000D02*
X145300000Y-109125000D01*
X146700000Y-109125000D02*
X147610000Y-109125000D01*
G04 #@! TO.C,Q5*
X145425000Y-144110000D02*
X147575000Y-144110000D01*
X144500000Y-140890000D02*
X147575000Y-140890000D01*
X147575000Y-140900000D02*
X147575000Y-141800000D01*
X147575000Y-143200000D02*
X147575000Y-144110000D01*
G04 #@! TO.C,Q3*
X158425000Y-144085000D02*
X160575000Y-144085000D01*
X157500000Y-140865000D02*
X160575000Y-140865000D01*
X160575000Y-140875000D02*
X160575000Y-141775000D01*
X160575000Y-143175000D02*
X160575000Y-144085000D01*
G04 #@! TO.C,R2*
X140790000Y-109263748D02*
X140790000Y-109786252D01*
X142210000Y-109263748D02*
X142210000Y-109786252D01*
G04 #@! TO.C,R1*
X142210000Y-104786252D02*
X142210000Y-104263748D01*
X140790000Y-104786252D02*
X140790000Y-104263748D01*
G04 #@! TO.C,R3*
X132763748Y-112710000D02*
X133286252Y-112710000D01*
X132763748Y-111290000D02*
X133286252Y-111290000D01*
G04 #@! TO.C,R4*
X137238748Y-112710000D02*
X137761252Y-112710000D01*
X137238748Y-111290000D02*
X137761252Y-111290000D01*
G04 #@! TO.C,R5*
X161710000Y-130761252D02*
X161710000Y-130238748D01*
X160290000Y-130761252D02*
X160290000Y-130238748D01*
G04 #@! TO.C,R7*
X144261252Y-145290000D02*
X143738748Y-145290000D01*
X144261252Y-146710000D02*
X143738748Y-146710000D01*
G04 #@! TO.C,R8*
X137736252Y-145290000D02*
X137213748Y-145290000D01*
X137736252Y-146710000D02*
X137213748Y-146710000D01*
G04 #@! TO.C,R9*
X132761252Y-145290000D02*
X132238748Y-145290000D01*
X132761252Y-146710000D02*
X132238748Y-146710000D01*
G04 #@! TO.C,R10*
X148710000Y-130786252D02*
X148710000Y-130263748D01*
X147290000Y-130786252D02*
X147290000Y-130263748D01*
G04 #@! TO.C,R11*
X153210000Y-143786252D02*
X153210000Y-143263748D01*
X151790000Y-143786252D02*
X151790000Y-143263748D01*
G04 #@! TO.C,R12*
X154290000Y-132713748D02*
X154290000Y-133236252D01*
X155710000Y-132713748D02*
X155710000Y-133236252D01*
G04 #@! TO.C,R6*
X165660001Y-143786252D02*
X165660001Y-143263748D01*
X164240001Y-143786252D02*
X164240001Y-143263748D01*
G04 #@! TO.C,J1*
X168350000Y-103400000D02*
X168350000Y-106100000D01*
X167640000Y-108410000D02*
X166560000Y-108410000D01*
X162340000Y-108410000D02*
X161260000Y-108410000D01*
X160550000Y-103400000D02*
X160550000Y-106100000D01*
X166560000Y-108410000D02*
X166560000Y-108840000D01*
X160550000Y-100700000D02*
X168350000Y-100700000D01*
G04 #@! TO.C,D3*
D11*
X133452380Y-90238095D02*
X132452380Y-90238095D01*
X132452380Y-90000000D01*
X132500000Y-89857142D01*
X132595238Y-89761904D01*
X132690476Y-89714285D01*
X132880952Y-89666666D01*
X133023809Y-89666666D01*
X133214285Y-89714285D01*
X133309523Y-89761904D01*
X133404761Y-89857142D01*
X133452380Y-90000000D01*
X133452380Y-90238095D01*
X132452380Y-89333333D02*
X132452380Y-88714285D01*
X132833333Y-89047619D01*
X132833333Y-88904761D01*
X132880952Y-88809523D01*
X132928571Y-88761904D01*
X133023809Y-88714285D01*
X133261904Y-88714285D01*
X133357142Y-88761904D01*
X133404761Y-88809523D01*
X133452380Y-88904761D01*
X133452380Y-89190476D01*
X133404761Y-89285714D01*
X133357142Y-89333333D01*
G04 #@! TO.C,Q5*
X146404761Y-89547619D02*
X146309523Y-89500000D01*
X146214285Y-89404761D01*
X146071428Y-89261904D01*
X145976190Y-89214285D01*
X145880952Y-89214285D01*
X145928571Y-89452380D02*
X145833333Y-89404761D01*
X145738095Y-89309523D01*
X145690476Y-89119047D01*
X145690476Y-88785714D01*
X145738095Y-88595238D01*
X145833333Y-88500000D01*
X145928571Y-88452380D01*
X146119047Y-88452380D01*
X146214285Y-88500000D01*
X146309523Y-88595238D01*
X146357142Y-88785714D01*
X146357142Y-89119047D01*
X146309523Y-89309523D01*
X146214285Y-89404761D01*
X146119047Y-89452380D01*
X145928571Y-89452380D01*
X147261904Y-88452380D02*
X146785714Y-88452380D01*
X146738095Y-88928571D01*
X146785714Y-88880952D01*
X146880952Y-88833333D01*
X147119047Y-88833333D01*
X147214285Y-88880952D01*
X147261904Y-88928571D01*
X147309523Y-89023809D01*
X147309523Y-89261904D01*
X147261904Y-89357142D01*
X147214285Y-89404761D01*
X147119047Y-89452380D01*
X146880952Y-89452380D01*
X146785714Y-89404761D01*
X146738095Y-89357142D01*
G04 #@! TO.C,Q4*
X146404761Y-90047619D02*
X146309523Y-90000000D01*
X146214285Y-89904761D01*
X146071428Y-89761904D01*
X145976190Y-89714285D01*
X145880952Y-89714285D01*
X145928571Y-89952380D02*
X145833333Y-89904761D01*
X145738095Y-89809523D01*
X145690476Y-89619047D01*
X145690476Y-89285714D01*
X145738095Y-89095238D01*
X145833333Y-89000000D01*
X145928571Y-88952380D01*
X146119047Y-88952380D01*
X146214285Y-89000000D01*
X146309523Y-89095238D01*
X146357142Y-89285714D01*
X146357142Y-89619047D01*
X146309523Y-89809523D01*
X146214285Y-89904761D01*
X146119047Y-89952380D01*
X145928571Y-89952380D01*
X147214285Y-89285714D02*
X147214285Y-89952380D01*
X146976190Y-88904761D02*
X146738095Y-89619047D01*
X147357142Y-89619047D01*
G04 #@! TO.C,D1*
X145261904Y-54772380D02*
X145261904Y-53772380D01*
X145500000Y-53772380D01*
X145642857Y-53820000D01*
X145738095Y-53915238D01*
X145785714Y-54010476D01*
X145833333Y-54200952D01*
X145833333Y-54343809D01*
X145785714Y-54534285D01*
X145738095Y-54629523D01*
X145642857Y-54724761D01*
X145500000Y-54772380D01*
X145261904Y-54772380D01*
X146785714Y-54772380D02*
X146214285Y-54772380D01*
X146500000Y-54772380D02*
X146500000Y-53772380D01*
X146404761Y-53915238D01*
X146309523Y-54010476D01*
X146214285Y-54058095D01*
G04 #@! TO.C,R10*
X146802380Y-80167857D02*
X146326190Y-80501190D01*
X146802380Y-80739285D02*
X145802380Y-80739285D01*
X145802380Y-80358333D01*
X145850000Y-80263095D01*
X145897619Y-80215476D01*
X145992857Y-80167857D01*
X146135714Y-80167857D01*
X146230952Y-80215476D01*
X146278571Y-80263095D01*
X146326190Y-80358333D01*
X146326190Y-80739285D01*
X146802380Y-79215476D02*
X146802380Y-79786904D01*
X146802380Y-79501190D02*
X145802380Y-79501190D01*
X145945238Y-79596428D01*
X146040476Y-79691666D01*
X146088095Y-79786904D01*
X145802380Y-78596428D02*
X145802380Y-78501190D01*
X145850000Y-78405952D01*
X145897619Y-78358333D01*
X145992857Y-78310714D01*
X146183333Y-78263095D01*
X146421428Y-78263095D01*
X146611904Y-78310714D01*
X146707142Y-78358333D01*
X146754761Y-78405952D01*
X146802380Y-78501190D01*
X146802380Y-78596428D01*
X146754761Y-78691666D01*
X146707142Y-78739285D01*
X146611904Y-78786904D01*
X146421428Y-78834523D01*
X146183333Y-78834523D01*
X145992857Y-78786904D01*
X145897619Y-78739285D01*
X145850000Y-78691666D01*
X145802380Y-78596428D01*
G04 #@! TO.C,R7*
X143833333Y-97102380D02*
X143500000Y-96626190D01*
X143261904Y-97102380D02*
X143261904Y-96102380D01*
X143642857Y-96102380D01*
X143738095Y-96150000D01*
X143785714Y-96197619D01*
X143833333Y-96292857D01*
X143833333Y-96435714D01*
X143785714Y-96530952D01*
X143738095Y-96578571D01*
X143642857Y-96626190D01*
X143261904Y-96626190D01*
X144166666Y-96102380D02*
X144833333Y-96102380D01*
X144404761Y-97102380D01*
G04 #@! TO.C,R8*
X137308333Y-97102380D02*
X136975000Y-96626190D01*
X136736904Y-97102380D02*
X136736904Y-96102380D01*
X137117857Y-96102380D01*
X137213095Y-96150000D01*
X137260714Y-96197619D01*
X137308333Y-96292857D01*
X137308333Y-96435714D01*
X137260714Y-96530952D01*
X137213095Y-96578571D01*
X137117857Y-96626190D01*
X136736904Y-96626190D01*
X137879761Y-96530952D02*
X137784523Y-96483333D01*
X137736904Y-96435714D01*
X137689285Y-96340476D01*
X137689285Y-96292857D01*
X137736904Y-96197619D01*
X137784523Y-96150000D01*
X137879761Y-96102380D01*
X138070238Y-96102380D01*
X138165476Y-96150000D01*
X138213095Y-96197619D01*
X138260714Y-96292857D01*
X138260714Y-96340476D01*
X138213095Y-96435714D01*
X138165476Y-96483333D01*
X138070238Y-96530952D01*
X137879761Y-96530952D01*
X137784523Y-96578571D01*
X137736904Y-96626190D01*
X137689285Y-96721428D01*
X137689285Y-96911904D01*
X137736904Y-97007142D01*
X137784523Y-97054761D01*
X137879761Y-97102380D01*
X138070238Y-97102380D01*
X138165476Y-97054761D01*
X138213095Y-97007142D01*
X138260714Y-96911904D01*
X138260714Y-96721428D01*
X138213095Y-96626190D01*
X138165476Y-96578571D01*
X138070238Y-96530952D01*
G04 #@! TO.C,R1*
X140302380Y-53691666D02*
X139826190Y-54025000D01*
X140302380Y-54263095D02*
X139302380Y-54263095D01*
X139302380Y-53882142D01*
X139350000Y-53786904D01*
X139397619Y-53739285D01*
X139492857Y-53691666D01*
X139635714Y-53691666D01*
X139730952Y-53739285D01*
X139778571Y-53786904D01*
X139826190Y-53882142D01*
X139826190Y-54263095D01*
X140302380Y-52739285D02*
X140302380Y-53310714D01*
X140302380Y-53025000D02*
X139302380Y-53025000D01*
X139445238Y-53120238D01*
X139540476Y-53215476D01*
X139588095Y-53310714D01*
G04 #@! TO.C,J3*
X102702380Y-65583333D02*
X103416666Y-65583333D01*
X103559523Y-65630952D01*
X103654761Y-65726190D01*
X103702380Y-65869047D01*
X103702380Y-65964285D01*
X102702380Y-65202380D02*
X102702380Y-64583333D01*
X103083333Y-64916666D01*
X103083333Y-64773809D01*
X103130952Y-64678571D01*
X103178571Y-64630952D01*
X103273809Y-64583333D01*
X103511904Y-64583333D01*
X103607142Y-64630952D01*
X103654761Y-64678571D01*
X103702380Y-64773809D01*
X103702380Y-65059523D01*
X103654761Y-65154761D01*
X103607142Y-65202380D01*
G04 #@! TO.C,U3*
X149238095Y-87952380D02*
X149238095Y-88761904D01*
X149285714Y-88857142D01*
X149333333Y-88904761D01*
X149428571Y-88952380D01*
X149619047Y-88952380D01*
X149714285Y-88904761D01*
X149761904Y-88857142D01*
X149809523Y-88761904D01*
X149809523Y-87952380D01*
X150190476Y-87952380D02*
X150809523Y-87952380D01*
X150476190Y-88333333D01*
X150619047Y-88333333D01*
X150714285Y-88380952D01*
X150761904Y-88428571D01*
X150809523Y-88523809D01*
X150809523Y-88761904D01*
X150761904Y-88857142D01*
X150714285Y-88904761D01*
X150619047Y-88952380D01*
X150333333Y-88952380D01*
X150238095Y-88904761D01*
X150190476Y-88857142D01*
G04 #@! TO.C,U2*
X149238095Y-59952380D02*
X149238095Y-60761904D01*
X149285714Y-60857142D01*
X149333333Y-60904761D01*
X149428571Y-60952380D01*
X149619047Y-60952380D01*
X149714285Y-60904761D01*
X149761904Y-60857142D01*
X149809523Y-60761904D01*
X149809523Y-59952380D01*
X150238095Y-60047619D02*
X150285714Y-60000000D01*
X150380952Y-59952380D01*
X150619047Y-59952380D01*
X150714285Y-60000000D01*
X150761904Y-60047619D01*
X150809523Y-60142857D01*
X150809523Y-60238095D01*
X150761904Y-60380952D01*
X150190476Y-60952380D01*
X150809523Y-60952380D01*
G04 #@! TO.C,U5*
X137102380Y-90611904D02*
X137911904Y-90611904D01*
X138007142Y-90564285D01*
X138054761Y-90516666D01*
X138102380Y-90421428D01*
X138102380Y-90230952D01*
X138054761Y-90135714D01*
X138007142Y-90088095D01*
X137911904Y-90040476D01*
X137102380Y-90040476D01*
X137102380Y-89088095D02*
X137102380Y-89564285D01*
X137578571Y-89611904D01*
X137530952Y-89564285D01*
X137483333Y-89469047D01*
X137483333Y-89230952D01*
X137530952Y-89135714D01*
X137578571Y-89088095D01*
X137673809Y-89040476D01*
X137911904Y-89040476D01*
X138007142Y-89088095D01*
X138054761Y-89135714D01*
X138102380Y-89230952D01*
X138102380Y-89469047D01*
X138054761Y-89564285D01*
X138007142Y-89611904D01*
G04 #@! TO.C,J1*
X164116666Y-58452380D02*
X164116666Y-59166666D01*
X164069047Y-59309523D01*
X163973809Y-59404761D01*
X163830952Y-59452380D01*
X163735714Y-59452380D01*
X165116666Y-59452380D02*
X164545238Y-59452380D01*
X164830952Y-59452380D02*
X164830952Y-58452380D01*
X164735714Y-58595238D01*
X164640476Y-58690476D01*
X164545238Y-58738095D01*
G04 #@! TO.C,U1*
X133402380Y-56111904D02*
X134211904Y-56111904D01*
X134307142Y-56064285D01*
X134354761Y-56016666D01*
X134402380Y-55921428D01*
X134402380Y-55730952D01*
X134354761Y-55635714D01*
X134307142Y-55588095D01*
X134211904Y-55540476D01*
X133402380Y-55540476D01*
X134402380Y-54540476D02*
X134402380Y-55111904D01*
X134402380Y-54826190D02*
X133402380Y-54826190D01*
X133545238Y-54921428D01*
X133640476Y-55016666D01*
X133688095Y-55111904D01*
G04 #@! TO.C,R9*
X132333333Y-97102380D02*
X132000000Y-96626190D01*
X131761904Y-97102380D02*
X131761904Y-96102380D01*
X132142857Y-96102380D01*
X132238095Y-96150000D01*
X132285714Y-96197619D01*
X132333333Y-96292857D01*
X132333333Y-96435714D01*
X132285714Y-96530952D01*
X132238095Y-96578571D01*
X132142857Y-96626190D01*
X131761904Y-96626190D01*
X132809523Y-97102380D02*
X133000000Y-97102380D01*
X133095238Y-97054761D01*
X133142857Y-97007142D01*
X133238095Y-96864285D01*
X133285714Y-96673809D01*
X133285714Y-96292857D01*
X133238095Y-96197619D01*
X133190476Y-96150000D01*
X133095238Y-96102380D01*
X132904761Y-96102380D01*
X132809523Y-96150000D01*
X132761904Y-96197619D01*
X132714285Y-96292857D01*
X132714285Y-96530952D01*
X132761904Y-96626190D01*
X132809523Y-96673809D01*
X132904761Y-96721428D01*
X133095238Y-96721428D01*
X133190476Y-96673809D01*
X133238095Y-96626190D01*
X133285714Y-96530952D01*
G04 #@! TO.C,C5*
X129833333Y-89177142D02*
X129785714Y-89224761D01*
X129642857Y-89272380D01*
X129547619Y-89272380D01*
X129404761Y-89224761D01*
X129309523Y-89129523D01*
X129261904Y-89034285D01*
X129214285Y-88843809D01*
X129214285Y-88700952D01*
X129261904Y-88510476D01*
X129309523Y-88415238D01*
X129404761Y-88320000D01*
X129547619Y-88272380D01*
X129642857Y-88272380D01*
X129785714Y-88320000D01*
X129833333Y-88367619D01*
X130738095Y-88272380D02*
X130261904Y-88272380D01*
X130214285Y-88748571D01*
X130261904Y-88700952D01*
X130357142Y-88653333D01*
X130595238Y-88653333D01*
X130690476Y-88700952D01*
X130738095Y-88748571D01*
X130785714Y-88843809D01*
X130785714Y-89081904D01*
X130738095Y-89177142D01*
X130690476Y-89224761D01*
X130595238Y-89272380D01*
X130357142Y-89272380D01*
X130261904Y-89224761D01*
X130214285Y-89177142D01*
G04 #@! TO.C,U6*
X149052380Y-88261904D02*
X149861904Y-88261904D01*
X149957142Y-88214285D01*
X150004761Y-88166666D01*
X150052380Y-88071428D01*
X150052380Y-87880952D01*
X150004761Y-87785714D01*
X149957142Y-87738095D01*
X149861904Y-87690476D01*
X149052380Y-87690476D01*
X149052380Y-86785714D02*
X149052380Y-86976190D01*
X149100000Y-87071428D01*
X149147619Y-87119047D01*
X149290476Y-87214285D01*
X149480952Y-87261904D01*
X149861904Y-87261904D01*
X149957142Y-87214285D01*
X150004761Y-87166666D01*
X150052380Y-87071428D01*
X150052380Y-86880952D01*
X150004761Y-86785714D01*
X149957142Y-86738095D01*
X149861904Y-86690476D01*
X149623809Y-86690476D01*
X149528571Y-86738095D01*
X149480952Y-86785714D01*
X149433333Y-86880952D01*
X149433333Y-87071428D01*
X149480952Y-87166666D01*
X149528571Y-87214285D01*
X149623809Y-87261904D01*
G04 #@! TO.C,U4*
X161502381Y-88136905D02*
X162311905Y-88136905D01*
X162407143Y-88089286D01*
X162454762Y-88041667D01*
X162502381Y-87946429D01*
X162502381Y-87755953D01*
X162454762Y-87660715D01*
X162407143Y-87613096D01*
X162311905Y-87565477D01*
X161502381Y-87565477D01*
X161835715Y-86660715D02*
X162502381Y-86660715D01*
X161454762Y-86898810D02*
X162169048Y-87136905D01*
X162169048Y-86517858D01*
G04 #@! TO.C,U7*
X106452380Y-66011904D02*
X107261904Y-66011904D01*
X107357142Y-65964285D01*
X107404761Y-65916666D01*
X107452380Y-65821428D01*
X107452380Y-65630952D01*
X107404761Y-65535714D01*
X107357142Y-65488095D01*
X107261904Y-65440476D01*
X106452380Y-65440476D01*
X106452380Y-65059523D02*
X106452380Y-64392857D01*
X107452380Y-64821428D01*
G04 #@! TO.C,C2*
X157177142Y-57654166D02*
X157224761Y-57701785D01*
X157272380Y-57844642D01*
X157272380Y-57939880D01*
X157224761Y-58082738D01*
X157129523Y-58177976D01*
X157034285Y-58225595D01*
X156843809Y-58273214D01*
X156700952Y-58273214D01*
X156510476Y-58225595D01*
X156415238Y-58177976D01*
X156320000Y-58082738D01*
X156272380Y-57939880D01*
X156272380Y-57844642D01*
X156320000Y-57701785D01*
X156367619Y-57654166D01*
X156367619Y-57273214D02*
X156320000Y-57225595D01*
X156272380Y-57130357D01*
X156272380Y-56892261D01*
X156320000Y-56797023D01*
X156367619Y-56749404D01*
X156462857Y-56701785D01*
X156558095Y-56701785D01*
X156700952Y-56749404D01*
X157272380Y-57320833D01*
X157272380Y-56701785D01*
G04 #@! TO.C,C3*
X159333333Y-85152142D02*
X159285714Y-85199761D01*
X159142857Y-85247380D01*
X159047619Y-85247380D01*
X158904761Y-85199761D01*
X158809523Y-85104523D01*
X158761904Y-85009285D01*
X158714285Y-84818809D01*
X158714285Y-84675952D01*
X158761904Y-84485476D01*
X158809523Y-84390238D01*
X158904761Y-84295000D01*
X159047619Y-84247380D01*
X159142857Y-84247380D01*
X159285714Y-84295000D01*
X159333333Y-84342619D01*
X159666666Y-84247380D02*
X160285714Y-84247380D01*
X159952380Y-84628333D01*
X160095238Y-84628333D01*
X160190476Y-84675952D01*
X160238095Y-84723571D01*
X160285714Y-84818809D01*
X160285714Y-85056904D01*
X160238095Y-85152142D01*
X160190476Y-85199761D01*
X160095238Y-85247380D01*
X159809523Y-85247380D01*
X159714285Y-85199761D01*
X159666666Y-85152142D01*
G04 #@! TO.C,R4*
X137333333Y-59802380D02*
X137000000Y-59326190D01*
X136761904Y-59802380D02*
X136761904Y-58802380D01*
X137142857Y-58802380D01*
X137238095Y-58850000D01*
X137285714Y-58897619D01*
X137333333Y-58992857D01*
X137333333Y-59135714D01*
X137285714Y-59230952D01*
X137238095Y-59278571D01*
X137142857Y-59326190D01*
X136761904Y-59326190D01*
X138190476Y-59135714D02*
X138190476Y-59802380D01*
X137952380Y-58754761D02*
X137714285Y-59469047D01*
X138333333Y-59469047D01*
G04 #@! TO.C,R11*
X151302380Y-93167857D02*
X150826190Y-93501190D01*
X151302380Y-93739285D02*
X150302380Y-93739285D01*
X150302380Y-93358333D01*
X150350000Y-93263095D01*
X150397619Y-93215476D01*
X150492857Y-93167857D01*
X150635714Y-93167857D01*
X150730952Y-93215476D01*
X150778571Y-93263095D01*
X150826190Y-93358333D01*
X150826190Y-93739285D01*
X151302380Y-92215476D02*
X151302380Y-92786904D01*
X151302380Y-92501190D02*
X150302380Y-92501190D01*
X150445238Y-92596428D01*
X150540476Y-92691666D01*
X150588095Y-92786904D01*
X151302380Y-91263095D02*
X151302380Y-91834523D01*
X151302380Y-91548809D02*
X150302380Y-91548809D01*
X150445238Y-91644047D01*
X150540476Y-91739285D01*
X150588095Y-91834523D01*
G04 #@! TO.C,R12*
X157102380Y-82617857D02*
X156626190Y-82951190D01*
X157102380Y-83189285D02*
X156102380Y-83189285D01*
X156102380Y-82808333D01*
X156150000Y-82713095D01*
X156197619Y-82665476D01*
X156292857Y-82617857D01*
X156435714Y-82617857D01*
X156530952Y-82665476D01*
X156578571Y-82713095D01*
X156626190Y-82808333D01*
X156626190Y-83189285D01*
X157102380Y-81665476D02*
X157102380Y-82236904D01*
X157102380Y-81951190D02*
X156102380Y-81951190D01*
X156245238Y-82046428D01*
X156340476Y-82141666D01*
X156388095Y-82236904D01*
X156197619Y-81284523D02*
X156150000Y-81236904D01*
X156102380Y-81141666D01*
X156102380Y-80903571D01*
X156150000Y-80808333D01*
X156197619Y-80760714D01*
X156292857Y-80713095D01*
X156388095Y-80713095D01*
X156530952Y-80760714D01*
X157102380Y-81332142D01*
X157102380Y-80713095D01*
G04 #@! TO.C,C4*
X129833333Y-93177142D02*
X129785714Y-93224761D01*
X129642857Y-93272380D01*
X129547619Y-93272380D01*
X129404761Y-93224761D01*
X129309523Y-93129523D01*
X129261904Y-93034285D01*
X129214285Y-92843809D01*
X129214285Y-92700952D01*
X129261904Y-92510476D01*
X129309523Y-92415238D01*
X129404761Y-92320000D01*
X129547619Y-92272380D01*
X129642857Y-92272380D01*
X129785714Y-92320000D01*
X129833333Y-92367619D01*
X130690476Y-92605714D02*
X130690476Y-93272380D01*
X130452380Y-92224761D02*
X130214285Y-92939047D01*
X130833333Y-92939047D01*
G04 #@! TO.C,L1*
X137633333Y-86902380D02*
X137157142Y-86902380D01*
X137157142Y-85902380D01*
X138490476Y-86902380D02*
X137919047Y-86902380D01*
X138204761Y-86902380D02*
X138204761Y-85902380D01*
X138109523Y-86045238D01*
X138014285Y-86140476D01*
X137919047Y-86188095D01*
G04 #@! TO.C,J2*
X102452380Y-81833333D02*
X103166666Y-81833333D01*
X103309523Y-81880952D01*
X103404761Y-81976190D01*
X103452380Y-82119047D01*
X103452380Y-82214285D01*
X102547619Y-81404761D02*
X102500000Y-81357142D01*
X102452380Y-81261904D01*
X102452380Y-81023809D01*
X102500000Y-80928571D01*
X102547619Y-80880952D01*
X102642857Y-80833333D01*
X102738095Y-80833333D01*
X102880952Y-80880952D01*
X103452380Y-81452380D01*
X103452380Y-80833333D01*
G04 #@! TO.C,Q2*
X159404761Y-90072619D02*
X159309523Y-90025000D01*
X159214285Y-89929761D01*
X159071428Y-89786904D01*
X158976190Y-89739285D01*
X158880952Y-89739285D01*
X158928571Y-89977380D02*
X158833333Y-89929761D01*
X158738095Y-89834523D01*
X158690476Y-89644047D01*
X158690476Y-89310714D01*
X158738095Y-89120238D01*
X158833333Y-89025000D01*
X158928571Y-88977380D01*
X159119047Y-88977380D01*
X159214285Y-89025000D01*
X159309523Y-89120238D01*
X159357142Y-89310714D01*
X159357142Y-89644047D01*
X159309523Y-89834523D01*
X159214285Y-89929761D01*
X159119047Y-89977380D01*
X158928571Y-89977380D01*
X159738095Y-89072619D02*
X159785714Y-89025000D01*
X159880952Y-88977380D01*
X160119047Y-88977380D01*
X160214285Y-89025000D01*
X160261904Y-89072619D01*
X160309523Y-89167857D01*
X160309523Y-89263095D01*
X160261904Y-89405952D01*
X159690476Y-89977380D01*
X160309523Y-89977380D01*
G04 #@! TO.C,D2*
X136261904Y-51132380D02*
X136261904Y-50132380D01*
X136500000Y-50132380D01*
X136642857Y-50180000D01*
X136738095Y-50275238D01*
X136785714Y-50370476D01*
X136833333Y-50560952D01*
X136833333Y-50703809D01*
X136785714Y-50894285D01*
X136738095Y-50989523D01*
X136642857Y-51084761D01*
X136500000Y-51132380D01*
X136261904Y-51132380D01*
X137214285Y-50227619D02*
X137261904Y-50180000D01*
X137357142Y-50132380D01*
X137595238Y-50132380D01*
X137690476Y-50180000D01*
X137738095Y-50227619D01*
X137785714Y-50322857D01*
X137785714Y-50418095D01*
X137738095Y-50560952D01*
X137166666Y-51132380D01*
X137785714Y-51132380D01*
G04 #@! TO.C,C6*
X129833333Y-85177142D02*
X129785714Y-85224761D01*
X129642857Y-85272380D01*
X129547619Y-85272380D01*
X129404761Y-85224761D01*
X129309523Y-85129523D01*
X129261904Y-85034285D01*
X129214285Y-84843809D01*
X129214285Y-84700952D01*
X129261904Y-84510476D01*
X129309523Y-84415238D01*
X129404761Y-84320000D01*
X129547619Y-84272380D01*
X129642857Y-84272380D01*
X129785714Y-84320000D01*
X129833333Y-84367619D01*
X130690476Y-84272380D02*
X130500000Y-84272380D01*
X130404761Y-84320000D01*
X130357142Y-84367619D01*
X130261904Y-84510476D01*
X130214285Y-84700952D01*
X130214285Y-85081904D01*
X130261904Y-85177142D01*
X130309523Y-85224761D01*
X130404761Y-85272380D01*
X130595238Y-85272380D01*
X130690476Y-85224761D01*
X130738095Y-85177142D01*
X130785714Y-85081904D01*
X130785714Y-84843809D01*
X130738095Y-84748571D01*
X130690476Y-84700952D01*
X130595238Y-84653333D01*
X130404761Y-84653333D01*
X130309523Y-84700952D01*
X130261904Y-84748571D01*
X130214285Y-84843809D01*
G04 #@! TO.C,R2*
X143602380Y-58691666D02*
X143126190Y-59025000D01*
X143602380Y-59263095D02*
X142602380Y-59263095D01*
X142602380Y-58882142D01*
X142650000Y-58786904D01*
X142697619Y-58739285D01*
X142792857Y-58691666D01*
X142935714Y-58691666D01*
X143030952Y-58739285D01*
X143078571Y-58786904D01*
X143126190Y-58882142D01*
X143126190Y-59263095D01*
X142697619Y-58310714D02*
X142650000Y-58263095D01*
X142602380Y-58167857D01*
X142602380Y-57929761D01*
X142650000Y-57834523D01*
X142697619Y-57786904D01*
X142792857Y-57739285D01*
X142888095Y-57739285D01*
X143030952Y-57786904D01*
X143602380Y-58358333D01*
X143602380Y-57739285D01*
G04 #@! TO.C,Q1*
X144047619Y-59295238D02*
X144000000Y-59390476D01*
X143904761Y-59485714D01*
X143761904Y-59628571D01*
X143714285Y-59723809D01*
X143714285Y-59819047D01*
X143952380Y-59771428D02*
X143904761Y-59866666D01*
X143809523Y-59961904D01*
X143619047Y-60009523D01*
X143285714Y-60009523D01*
X143095238Y-59961904D01*
X143000000Y-59866666D01*
X142952380Y-59771428D01*
X142952380Y-59580952D01*
X143000000Y-59485714D01*
X143095238Y-59390476D01*
X143285714Y-59342857D01*
X143619047Y-59342857D01*
X143809523Y-59390476D01*
X143904761Y-59485714D01*
X143952380Y-59580952D01*
X143952380Y-59771428D01*
X143952380Y-58390476D02*
X143952380Y-58961904D01*
X143952380Y-58676190D02*
X142952380Y-58676190D01*
X143095238Y-58771428D01*
X143190476Y-58866666D01*
X143238095Y-58961904D01*
G04 #@! TO.C,C1*
X153677142Y-57654166D02*
X153724761Y-57701785D01*
X153772380Y-57844642D01*
X153772380Y-57939880D01*
X153724761Y-58082738D01*
X153629523Y-58177976D01*
X153534285Y-58225595D01*
X153343809Y-58273214D01*
X153200952Y-58273214D01*
X153010476Y-58225595D01*
X152915238Y-58177976D01*
X152820000Y-58082738D01*
X152772380Y-57939880D01*
X152772380Y-57844642D01*
X152820000Y-57701785D01*
X152867619Y-57654166D01*
X153772380Y-56701785D02*
X153772380Y-57273214D01*
X153772380Y-56987500D02*
X152772380Y-56987500D01*
X152915238Y-57082738D01*
X153010476Y-57177976D01*
X153058095Y-57273214D01*
G04 #@! TO.C,R3*
X132858333Y-59802380D02*
X132525000Y-59326190D01*
X132286904Y-59802380D02*
X132286904Y-58802380D01*
X132667857Y-58802380D01*
X132763095Y-58850000D01*
X132810714Y-58897619D01*
X132858333Y-58992857D01*
X132858333Y-59135714D01*
X132810714Y-59230952D01*
X132763095Y-59278571D01*
X132667857Y-59326190D01*
X132286904Y-59326190D01*
X133191666Y-58802380D02*
X133810714Y-58802380D01*
X133477380Y-59183333D01*
X133620238Y-59183333D01*
X133715476Y-59230952D01*
X133763095Y-59278571D01*
X133810714Y-59373809D01*
X133810714Y-59611904D01*
X133763095Y-59707142D01*
X133715476Y-59754761D01*
X133620238Y-59802380D01*
X133334523Y-59802380D01*
X133239285Y-59754761D01*
X133191666Y-59707142D01*
G04 #@! TO.C,R5*
X159802380Y-79666666D02*
X159326190Y-80000000D01*
X159802380Y-80238095D02*
X158802380Y-80238095D01*
X158802380Y-79857142D01*
X158850000Y-79761904D01*
X158897619Y-79714285D01*
X158992857Y-79666666D01*
X159135714Y-79666666D01*
X159230952Y-79714285D01*
X159278571Y-79761904D01*
X159326190Y-79857142D01*
X159326190Y-80238095D01*
X158802380Y-78761904D02*
X158802380Y-79238095D01*
X159278571Y-79285714D01*
X159230952Y-79238095D01*
X159183333Y-79142857D01*
X159183333Y-78904761D01*
X159230952Y-78809523D01*
X159278571Y-78761904D01*
X159373809Y-78714285D01*
X159611904Y-78714285D01*
X159707142Y-78761904D01*
X159754761Y-78809523D01*
X159802380Y-78904761D01*
X159802380Y-79142857D01*
X159754761Y-79238095D01*
X159707142Y-79285714D01*
G04 #@! TO.C,Q3*
X159404761Y-89522619D02*
X159309523Y-89475000D01*
X159214285Y-89379761D01*
X159071428Y-89236904D01*
X158976190Y-89189285D01*
X158880952Y-89189285D01*
X158928571Y-89427380D02*
X158833333Y-89379761D01*
X158738095Y-89284523D01*
X158690476Y-89094047D01*
X158690476Y-88760714D01*
X158738095Y-88570238D01*
X158833333Y-88475000D01*
X158928571Y-88427380D01*
X159119047Y-88427380D01*
X159214285Y-88475000D01*
X159309523Y-88570238D01*
X159357142Y-88760714D01*
X159357142Y-89094047D01*
X159309523Y-89284523D01*
X159214285Y-89379761D01*
X159119047Y-89427380D01*
X158928571Y-89427380D01*
X159690476Y-88427380D02*
X160309523Y-88427380D01*
X159976190Y-88808333D01*
X160119047Y-88808333D01*
X160214285Y-88855952D01*
X160261904Y-88903571D01*
X160309523Y-88998809D01*
X160309523Y-89236904D01*
X160261904Y-89332142D01*
X160214285Y-89379761D01*
X160119047Y-89427380D01*
X159833333Y-89427380D01*
X159738095Y-89379761D01*
X159690476Y-89332142D01*
G04 #@! TO.C,C7*
X146333333Y-85177142D02*
X146285714Y-85224761D01*
X146142857Y-85272380D01*
X146047619Y-85272380D01*
X145904761Y-85224761D01*
X145809523Y-85129523D01*
X145761904Y-85034285D01*
X145714285Y-84843809D01*
X145714285Y-84700952D01*
X145761904Y-84510476D01*
X145809523Y-84415238D01*
X145904761Y-84320000D01*
X146047619Y-84272380D01*
X146142857Y-84272380D01*
X146285714Y-84320000D01*
X146333333Y-84367619D01*
X146666666Y-84272380D02*
X147333333Y-84272380D01*
X146904761Y-85272380D01*
G04 #@! TO.C,R6*
X163752381Y-92691666D02*
X163276191Y-93025000D01*
X163752381Y-93263095D02*
X162752381Y-93263095D01*
X162752381Y-92882142D01*
X162800001Y-92786904D01*
X162847620Y-92739285D01*
X162942858Y-92691666D01*
X163085715Y-92691666D01*
X163180953Y-92739285D01*
X163228572Y-92786904D01*
X163276191Y-92882142D01*
X163276191Y-93263095D01*
X162752381Y-91834523D02*
X162752381Y-92025000D01*
X162800001Y-92120238D01*
X162847620Y-92167857D01*
X162990477Y-92263095D01*
X163180953Y-92310714D01*
X163561905Y-92310714D01*
X163657143Y-92263095D01*
X163704762Y-92215476D01*
X163752381Y-92120238D01*
X163752381Y-91929761D01*
X163704762Y-91834523D01*
X163657143Y-91786904D01*
X163561905Y-91739285D01*
X163323810Y-91739285D01*
X163228572Y-91786904D01*
X163180953Y-91834523D01*
X163133334Y-91929761D01*
X163133334Y-92120238D01*
X163180953Y-92215476D01*
X163228572Y-92263095D01*
X163323810Y-92310714D01*
G04 #@! TO.C,J3*
X102702380Y-116583333D02*
X103416666Y-116583333D01*
X103559523Y-116630952D01*
X103654761Y-116726190D01*
X103702380Y-116869047D01*
X103702380Y-116964285D01*
X102702380Y-116202380D02*
X102702380Y-115583333D01*
X103083333Y-115916666D01*
X103083333Y-115773809D01*
X103130952Y-115678571D01*
X103178571Y-115630952D01*
X103273809Y-115583333D01*
X103511904Y-115583333D01*
X103607142Y-115630952D01*
X103654761Y-115678571D01*
X103702380Y-115773809D01*
X103702380Y-116059523D01*
X103654761Y-116154761D01*
X103607142Y-116202380D01*
G04 #@! TO.C,C7*
X146333333Y-136177142D02*
X146285714Y-136224761D01*
X146142857Y-136272380D01*
X146047619Y-136272380D01*
X145904761Y-136224761D01*
X145809523Y-136129523D01*
X145761904Y-136034285D01*
X145714285Y-135843809D01*
X145714285Y-135700952D01*
X145761904Y-135510476D01*
X145809523Y-135415238D01*
X145904761Y-135320000D01*
X146047619Y-135272380D01*
X146142857Y-135272380D01*
X146285714Y-135320000D01*
X146333333Y-135367619D01*
X146666666Y-135272380D02*
X147333333Y-135272380D01*
X146904761Y-136272380D01*
G04 #@! TO.C,C2*
X157177142Y-108654166D02*
X157224761Y-108701785D01*
X157272380Y-108844642D01*
X157272380Y-108939880D01*
X157224761Y-109082738D01*
X157129523Y-109177976D01*
X157034285Y-109225595D01*
X156843809Y-109273214D01*
X156700952Y-109273214D01*
X156510476Y-109225595D01*
X156415238Y-109177976D01*
X156320000Y-109082738D01*
X156272380Y-108939880D01*
X156272380Y-108844642D01*
X156320000Y-108701785D01*
X156367619Y-108654166D01*
X156367619Y-108273214D02*
X156320000Y-108225595D01*
X156272380Y-108130357D01*
X156272380Y-107892261D01*
X156320000Y-107797023D01*
X156367619Y-107749404D01*
X156462857Y-107701785D01*
X156558095Y-107701785D01*
X156700952Y-107749404D01*
X157272380Y-108320833D01*
X157272380Y-107701785D01*
G04 #@! TO.C,C3*
X159333333Y-136152142D02*
X159285714Y-136199761D01*
X159142857Y-136247380D01*
X159047619Y-136247380D01*
X158904761Y-136199761D01*
X158809523Y-136104523D01*
X158761904Y-136009285D01*
X158714285Y-135818809D01*
X158714285Y-135675952D01*
X158761904Y-135485476D01*
X158809523Y-135390238D01*
X158904761Y-135295000D01*
X159047619Y-135247380D01*
X159142857Y-135247380D01*
X159285714Y-135295000D01*
X159333333Y-135342619D01*
X159666666Y-135247380D02*
X160285714Y-135247380D01*
X159952380Y-135628333D01*
X160095238Y-135628333D01*
X160190476Y-135675952D01*
X160238095Y-135723571D01*
X160285714Y-135818809D01*
X160285714Y-136056904D01*
X160238095Y-136152142D01*
X160190476Y-136199761D01*
X160095238Y-136247380D01*
X159809523Y-136247380D01*
X159714285Y-136199761D01*
X159666666Y-136152142D01*
G04 #@! TO.C,C4*
X129833333Y-144177142D02*
X129785714Y-144224761D01*
X129642857Y-144272380D01*
X129547619Y-144272380D01*
X129404761Y-144224761D01*
X129309523Y-144129523D01*
X129261904Y-144034285D01*
X129214285Y-143843809D01*
X129214285Y-143700952D01*
X129261904Y-143510476D01*
X129309523Y-143415238D01*
X129404761Y-143320000D01*
X129547619Y-143272380D01*
X129642857Y-143272380D01*
X129785714Y-143320000D01*
X129833333Y-143367619D01*
X130690476Y-143605714D02*
X130690476Y-144272380D01*
X130452380Y-143224761D02*
X130214285Y-143939047D01*
X130833333Y-143939047D01*
G04 #@! TO.C,C5*
X129833333Y-140177142D02*
X129785714Y-140224761D01*
X129642857Y-140272380D01*
X129547619Y-140272380D01*
X129404761Y-140224761D01*
X129309523Y-140129523D01*
X129261904Y-140034285D01*
X129214285Y-139843809D01*
X129214285Y-139700952D01*
X129261904Y-139510476D01*
X129309523Y-139415238D01*
X129404761Y-139320000D01*
X129547619Y-139272380D01*
X129642857Y-139272380D01*
X129785714Y-139320000D01*
X129833333Y-139367619D01*
X130738095Y-139272380D02*
X130261904Y-139272380D01*
X130214285Y-139748571D01*
X130261904Y-139700952D01*
X130357142Y-139653333D01*
X130595238Y-139653333D01*
X130690476Y-139700952D01*
X130738095Y-139748571D01*
X130785714Y-139843809D01*
X130785714Y-140081904D01*
X130738095Y-140177142D01*
X130690476Y-140224761D01*
X130595238Y-140272380D01*
X130357142Y-140272380D01*
X130261904Y-140224761D01*
X130214285Y-140177142D01*
G04 #@! TO.C,C6*
X129833333Y-136177142D02*
X129785714Y-136224761D01*
X129642857Y-136272380D01*
X129547619Y-136272380D01*
X129404761Y-136224761D01*
X129309523Y-136129523D01*
X129261904Y-136034285D01*
X129214285Y-135843809D01*
X129214285Y-135700952D01*
X129261904Y-135510476D01*
X129309523Y-135415238D01*
X129404761Y-135320000D01*
X129547619Y-135272380D01*
X129642857Y-135272380D01*
X129785714Y-135320000D01*
X129833333Y-135367619D01*
X130690476Y-135272380D02*
X130500000Y-135272380D01*
X130404761Y-135320000D01*
X130357142Y-135367619D01*
X130261904Y-135510476D01*
X130214285Y-135700952D01*
X130214285Y-136081904D01*
X130261904Y-136177142D01*
X130309523Y-136224761D01*
X130404761Y-136272380D01*
X130595238Y-136272380D01*
X130690476Y-136224761D01*
X130738095Y-136177142D01*
X130785714Y-136081904D01*
X130785714Y-135843809D01*
X130738095Y-135748571D01*
X130690476Y-135700952D01*
X130595238Y-135653333D01*
X130404761Y-135653333D01*
X130309523Y-135700952D01*
X130261904Y-135748571D01*
X130214285Y-135843809D01*
G04 #@! TO.C,D1*
X145261904Y-105772380D02*
X145261904Y-104772380D01*
X145500000Y-104772380D01*
X145642857Y-104820000D01*
X145738095Y-104915238D01*
X145785714Y-105010476D01*
X145833333Y-105200952D01*
X145833333Y-105343809D01*
X145785714Y-105534285D01*
X145738095Y-105629523D01*
X145642857Y-105724761D01*
X145500000Y-105772380D01*
X145261904Y-105772380D01*
X146785714Y-105772380D02*
X146214285Y-105772380D01*
X146500000Y-105772380D02*
X146500000Y-104772380D01*
X146404761Y-104915238D01*
X146309523Y-105010476D01*
X146214285Y-105058095D01*
G04 #@! TO.C,D2*
X136261904Y-102132380D02*
X136261904Y-101132380D01*
X136500000Y-101132380D01*
X136642857Y-101180000D01*
X136738095Y-101275238D01*
X136785714Y-101370476D01*
X136833333Y-101560952D01*
X136833333Y-101703809D01*
X136785714Y-101894285D01*
X136738095Y-101989523D01*
X136642857Y-102084761D01*
X136500000Y-102132380D01*
X136261904Y-102132380D01*
X137214285Y-101227619D02*
X137261904Y-101180000D01*
X137357142Y-101132380D01*
X137595238Y-101132380D01*
X137690476Y-101180000D01*
X137738095Y-101227619D01*
X137785714Y-101322857D01*
X137785714Y-101418095D01*
X137738095Y-101560952D01*
X137166666Y-102132380D01*
X137785714Y-102132380D01*
G04 #@! TO.C,C1*
X153677142Y-108654166D02*
X153724761Y-108701785D01*
X153772380Y-108844642D01*
X153772380Y-108939880D01*
X153724761Y-109082738D01*
X153629523Y-109177976D01*
X153534285Y-109225595D01*
X153343809Y-109273214D01*
X153200952Y-109273214D01*
X153010476Y-109225595D01*
X152915238Y-109177976D01*
X152820000Y-109082738D01*
X152772380Y-108939880D01*
X152772380Y-108844642D01*
X152820000Y-108701785D01*
X152867619Y-108654166D01*
X153772380Y-107701785D02*
X153772380Y-108273214D01*
X153772380Y-107987500D02*
X152772380Y-107987500D01*
X152915238Y-108082738D01*
X153010476Y-108177976D01*
X153058095Y-108273214D01*
G04 #@! TO.C,D3*
X133452380Y-141238095D02*
X132452380Y-141238095D01*
X132452380Y-141000000D01*
X132500000Y-140857142D01*
X132595238Y-140761904D01*
X132690476Y-140714285D01*
X132880952Y-140666666D01*
X133023809Y-140666666D01*
X133214285Y-140714285D01*
X133309523Y-140761904D01*
X133404761Y-140857142D01*
X133452380Y-141000000D01*
X133452380Y-141238095D01*
X132452380Y-140333333D02*
X132452380Y-139714285D01*
X132833333Y-140047619D01*
X132833333Y-139904761D01*
X132880952Y-139809523D01*
X132928571Y-139761904D01*
X133023809Y-139714285D01*
X133261904Y-139714285D01*
X133357142Y-139761904D01*
X133404761Y-139809523D01*
X133452380Y-139904761D01*
X133452380Y-140190476D01*
X133404761Y-140285714D01*
X133357142Y-140333333D01*
G04 #@! TO.C,L1*
X137633333Y-137902380D02*
X137157142Y-137902380D01*
X137157142Y-136902380D01*
X138490476Y-137902380D02*
X137919047Y-137902380D01*
X138204761Y-137902380D02*
X138204761Y-136902380D01*
X138109523Y-137045238D01*
X138014285Y-137140476D01*
X137919047Y-137188095D01*
G04 #@! TO.C,U1*
X133402380Y-107111904D02*
X134211904Y-107111904D01*
X134307142Y-107064285D01*
X134354761Y-107016666D01*
X134402380Y-106921428D01*
X134402380Y-106730952D01*
X134354761Y-106635714D01*
X134307142Y-106588095D01*
X134211904Y-106540476D01*
X133402380Y-106540476D01*
X134402380Y-105540476D02*
X134402380Y-106111904D01*
X134402380Y-105826190D02*
X133402380Y-105826190D01*
X133545238Y-105921428D01*
X133640476Y-106016666D01*
X133688095Y-106111904D01*
G04 #@! TO.C,U4*
X161502381Y-139136905D02*
X162311905Y-139136905D01*
X162407143Y-139089286D01*
X162454762Y-139041667D01*
X162502381Y-138946429D01*
X162502381Y-138755953D01*
X162454762Y-138660715D01*
X162407143Y-138613096D01*
X162311905Y-138565477D01*
X161502381Y-138565477D01*
X161835715Y-137660715D02*
X162502381Y-137660715D01*
X161454762Y-137898810D02*
X162169048Y-138136905D01*
X162169048Y-137517858D01*
G04 #@! TO.C,U5*
X137102380Y-141611904D02*
X137911904Y-141611904D01*
X138007142Y-141564285D01*
X138054761Y-141516666D01*
X138102380Y-141421428D01*
X138102380Y-141230952D01*
X138054761Y-141135714D01*
X138007142Y-141088095D01*
X137911904Y-141040476D01*
X137102380Y-141040476D01*
X137102380Y-140088095D02*
X137102380Y-140564285D01*
X137578571Y-140611904D01*
X137530952Y-140564285D01*
X137483333Y-140469047D01*
X137483333Y-140230952D01*
X137530952Y-140135714D01*
X137578571Y-140088095D01*
X137673809Y-140040476D01*
X137911904Y-140040476D01*
X138007142Y-140088095D01*
X138054761Y-140135714D01*
X138102380Y-140230952D01*
X138102380Y-140469047D01*
X138054761Y-140564285D01*
X138007142Y-140611904D01*
G04 #@! TO.C,U6*
X149052380Y-139261904D02*
X149861904Y-139261904D01*
X149957142Y-139214285D01*
X150004761Y-139166666D01*
X150052380Y-139071428D01*
X150052380Y-138880952D01*
X150004761Y-138785714D01*
X149957142Y-138738095D01*
X149861904Y-138690476D01*
X149052380Y-138690476D01*
X149052380Y-137785714D02*
X149052380Y-137976190D01*
X149100000Y-138071428D01*
X149147619Y-138119047D01*
X149290476Y-138214285D01*
X149480952Y-138261904D01*
X149861904Y-138261904D01*
X149957142Y-138214285D01*
X150004761Y-138166666D01*
X150052380Y-138071428D01*
X150052380Y-137880952D01*
X150004761Y-137785714D01*
X149957142Y-137738095D01*
X149861904Y-137690476D01*
X149623809Y-137690476D01*
X149528571Y-137738095D01*
X149480952Y-137785714D01*
X149433333Y-137880952D01*
X149433333Y-138071428D01*
X149480952Y-138166666D01*
X149528571Y-138214285D01*
X149623809Y-138261904D01*
G04 #@! TO.C,Q2*
X159404761Y-141072619D02*
X159309523Y-141025000D01*
X159214285Y-140929761D01*
X159071428Y-140786904D01*
X158976190Y-140739285D01*
X158880952Y-140739285D01*
X158928571Y-140977380D02*
X158833333Y-140929761D01*
X158738095Y-140834523D01*
X158690476Y-140644047D01*
X158690476Y-140310714D01*
X158738095Y-140120238D01*
X158833333Y-140025000D01*
X158928571Y-139977380D01*
X159119047Y-139977380D01*
X159214285Y-140025000D01*
X159309523Y-140120238D01*
X159357142Y-140310714D01*
X159357142Y-140644047D01*
X159309523Y-140834523D01*
X159214285Y-140929761D01*
X159119047Y-140977380D01*
X158928571Y-140977380D01*
X159738095Y-140072619D02*
X159785714Y-140025000D01*
X159880952Y-139977380D01*
X160119047Y-139977380D01*
X160214285Y-140025000D01*
X160261904Y-140072619D01*
X160309523Y-140167857D01*
X160309523Y-140263095D01*
X160261904Y-140405952D01*
X159690476Y-140977380D01*
X160309523Y-140977380D01*
G04 #@! TO.C,Q4*
X146404761Y-141047619D02*
X146309523Y-141000000D01*
X146214285Y-140904761D01*
X146071428Y-140761904D01*
X145976190Y-140714285D01*
X145880952Y-140714285D01*
X145928571Y-140952380D02*
X145833333Y-140904761D01*
X145738095Y-140809523D01*
X145690476Y-140619047D01*
X145690476Y-140285714D01*
X145738095Y-140095238D01*
X145833333Y-140000000D01*
X145928571Y-139952380D01*
X146119047Y-139952380D01*
X146214285Y-140000000D01*
X146309523Y-140095238D01*
X146357142Y-140285714D01*
X146357142Y-140619047D01*
X146309523Y-140809523D01*
X146214285Y-140904761D01*
X146119047Y-140952380D01*
X145928571Y-140952380D01*
X147214285Y-140285714D02*
X147214285Y-140952380D01*
X146976190Y-139904761D02*
X146738095Y-140619047D01*
X147357142Y-140619047D01*
G04 #@! TO.C,Q1*
X144047619Y-110295238D02*
X144000000Y-110390476D01*
X143904761Y-110485714D01*
X143761904Y-110628571D01*
X143714285Y-110723809D01*
X143714285Y-110819047D01*
X143952380Y-110771428D02*
X143904761Y-110866666D01*
X143809523Y-110961904D01*
X143619047Y-111009523D01*
X143285714Y-111009523D01*
X143095238Y-110961904D01*
X143000000Y-110866666D01*
X142952380Y-110771428D01*
X142952380Y-110580952D01*
X143000000Y-110485714D01*
X143095238Y-110390476D01*
X143285714Y-110342857D01*
X143619047Y-110342857D01*
X143809523Y-110390476D01*
X143904761Y-110485714D01*
X143952380Y-110580952D01*
X143952380Y-110771428D01*
X143952380Y-109390476D02*
X143952380Y-109961904D01*
X143952380Y-109676190D02*
X142952380Y-109676190D01*
X143095238Y-109771428D01*
X143190476Y-109866666D01*
X143238095Y-109961904D01*
G04 #@! TO.C,Q5*
X146404761Y-140547619D02*
X146309523Y-140500000D01*
X146214285Y-140404761D01*
X146071428Y-140261904D01*
X145976190Y-140214285D01*
X145880952Y-140214285D01*
X145928571Y-140452380D02*
X145833333Y-140404761D01*
X145738095Y-140309523D01*
X145690476Y-140119047D01*
X145690476Y-139785714D01*
X145738095Y-139595238D01*
X145833333Y-139500000D01*
X145928571Y-139452380D01*
X146119047Y-139452380D01*
X146214285Y-139500000D01*
X146309523Y-139595238D01*
X146357142Y-139785714D01*
X146357142Y-140119047D01*
X146309523Y-140309523D01*
X146214285Y-140404761D01*
X146119047Y-140452380D01*
X145928571Y-140452380D01*
X147261904Y-139452380D02*
X146785714Y-139452380D01*
X146738095Y-139928571D01*
X146785714Y-139880952D01*
X146880952Y-139833333D01*
X147119047Y-139833333D01*
X147214285Y-139880952D01*
X147261904Y-139928571D01*
X147309523Y-140023809D01*
X147309523Y-140261904D01*
X147261904Y-140357142D01*
X147214285Y-140404761D01*
X147119047Y-140452380D01*
X146880952Y-140452380D01*
X146785714Y-140404761D01*
X146738095Y-140357142D01*
G04 #@! TO.C,Q3*
X159404761Y-140522619D02*
X159309523Y-140475000D01*
X159214285Y-140379761D01*
X159071428Y-140236904D01*
X158976190Y-140189285D01*
X158880952Y-140189285D01*
X158928571Y-140427380D02*
X158833333Y-140379761D01*
X158738095Y-140284523D01*
X158690476Y-140094047D01*
X158690476Y-139760714D01*
X158738095Y-139570238D01*
X158833333Y-139475000D01*
X158928571Y-139427380D01*
X159119047Y-139427380D01*
X159214285Y-139475000D01*
X159309523Y-139570238D01*
X159357142Y-139760714D01*
X159357142Y-140094047D01*
X159309523Y-140284523D01*
X159214285Y-140379761D01*
X159119047Y-140427380D01*
X158928571Y-140427380D01*
X159690476Y-139427380D02*
X160309523Y-139427380D01*
X159976190Y-139808333D01*
X160119047Y-139808333D01*
X160214285Y-139855952D01*
X160261904Y-139903571D01*
X160309523Y-139998809D01*
X160309523Y-140236904D01*
X160261904Y-140332142D01*
X160214285Y-140379761D01*
X160119047Y-140427380D01*
X159833333Y-140427380D01*
X159738095Y-140379761D01*
X159690476Y-140332142D01*
G04 #@! TO.C,R2*
X143602380Y-109691666D02*
X143126190Y-110025000D01*
X143602380Y-110263095D02*
X142602380Y-110263095D01*
X142602380Y-109882142D01*
X142650000Y-109786904D01*
X142697619Y-109739285D01*
X142792857Y-109691666D01*
X142935714Y-109691666D01*
X143030952Y-109739285D01*
X143078571Y-109786904D01*
X143126190Y-109882142D01*
X143126190Y-110263095D01*
X142697619Y-109310714D02*
X142650000Y-109263095D01*
X142602380Y-109167857D01*
X142602380Y-108929761D01*
X142650000Y-108834523D01*
X142697619Y-108786904D01*
X142792857Y-108739285D01*
X142888095Y-108739285D01*
X143030952Y-108786904D01*
X143602380Y-109358333D01*
X143602380Y-108739285D01*
G04 #@! TO.C,R1*
X140302380Y-104691666D02*
X139826190Y-105025000D01*
X140302380Y-105263095D02*
X139302380Y-105263095D01*
X139302380Y-104882142D01*
X139350000Y-104786904D01*
X139397619Y-104739285D01*
X139492857Y-104691666D01*
X139635714Y-104691666D01*
X139730952Y-104739285D01*
X139778571Y-104786904D01*
X139826190Y-104882142D01*
X139826190Y-105263095D01*
X140302380Y-103739285D02*
X140302380Y-104310714D01*
X140302380Y-104025000D02*
X139302380Y-104025000D01*
X139445238Y-104120238D01*
X139540476Y-104215476D01*
X139588095Y-104310714D01*
G04 #@! TO.C,R3*
X132858333Y-110802380D02*
X132525000Y-110326190D01*
X132286904Y-110802380D02*
X132286904Y-109802380D01*
X132667857Y-109802380D01*
X132763095Y-109850000D01*
X132810714Y-109897619D01*
X132858333Y-109992857D01*
X132858333Y-110135714D01*
X132810714Y-110230952D01*
X132763095Y-110278571D01*
X132667857Y-110326190D01*
X132286904Y-110326190D01*
X133191666Y-109802380D02*
X133810714Y-109802380D01*
X133477380Y-110183333D01*
X133620238Y-110183333D01*
X133715476Y-110230952D01*
X133763095Y-110278571D01*
X133810714Y-110373809D01*
X133810714Y-110611904D01*
X133763095Y-110707142D01*
X133715476Y-110754761D01*
X133620238Y-110802380D01*
X133334523Y-110802380D01*
X133239285Y-110754761D01*
X133191666Y-110707142D01*
G04 #@! TO.C,R4*
X137333333Y-110802380D02*
X137000000Y-110326190D01*
X136761904Y-110802380D02*
X136761904Y-109802380D01*
X137142857Y-109802380D01*
X137238095Y-109850000D01*
X137285714Y-109897619D01*
X137333333Y-109992857D01*
X137333333Y-110135714D01*
X137285714Y-110230952D01*
X137238095Y-110278571D01*
X137142857Y-110326190D01*
X136761904Y-110326190D01*
X138190476Y-110135714D02*
X138190476Y-110802380D01*
X137952380Y-109754761D02*
X137714285Y-110469047D01*
X138333333Y-110469047D01*
G04 #@! TO.C,R5*
X159802380Y-130666666D02*
X159326190Y-131000000D01*
X159802380Y-131238095D02*
X158802380Y-131238095D01*
X158802380Y-130857142D01*
X158850000Y-130761904D01*
X158897619Y-130714285D01*
X158992857Y-130666666D01*
X159135714Y-130666666D01*
X159230952Y-130714285D01*
X159278571Y-130761904D01*
X159326190Y-130857142D01*
X159326190Y-131238095D01*
X158802380Y-129761904D02*
X158802380Y-130238095D01*
X159278571Y-130285714D01*
X159230952Y-130238095D01*
X159183333Y-130142857D01*
X159183333Y-129904761D01*
X159230952Y-129809523D01*
X159278571Y-129761904D01*
X159373809Y-129714285D01*
X159611904Y-129714285D01*
X159707142Y-129761904D01*
X159754761Y-129809523D01*
X159802380Y-129904761D01*
X159802380Y-130142857D01*
X159754761Y-130238095D01*
X159707142Y-130285714D01*
G04 #@! TO.C,R7*
X143833333Y-148102380D02*
X143500000Y-147626190D01*
X143261904Y-148102380D02*
X143261904Y-147102380D01*
X143642857Y-147102380D01*
X143738095Y-147150000D01*
X143785714Y-147197619D01*
X143833333Y-147292857D01*
X143833333Y-147435714D01*
X143785714Y-147530952D01*
X143738095Y-147578571D01*
X143642857Y-147626190D01*
X143261904Y-147626190D01*
X144166666Y-147102380D02*
X144833333Y-147102380D01*
X144404761Y-148102380D01*
G04 #@! TO.C,R8*
X137308333Y-148102380D02*
X136975000Y-147626190D01*
X136736904Y-148102380D02*
X136736904Y-147102380D01*
X137117857Y-147102380D01*
X137213095Y-147150000D01*
X137260714Y-147197619D01*
X137308333Y-147292857D01*
X137308333Y-147435714D01*
X137260714Y-147530952D01*
X137213095Y-147578571D01*
X137117857Y-147626190D01*
X136736904Y-147626190D01*
X137879761Y-147530952D02*
X137784523Y-147483333D01*
X137736904Y-147435714D01*
X137689285Y-147340476D01*
X137689285Y-147292857D01*
X137736904Y-147197619D01*
X137784523Y-147150000D01*
X137879761Y-147102380D01*
X138070238Y-147102380D01*
X138165476Y-147150000D01*
X138213095Y-147197619D01*
X138260714Y-147292857D01*
X138260714Y-147340476D01*
X138213095Y-147435714D01*
X138165476Y-147483333D01*
X138070238Y-147530952D01*
X137879761Y-147530952D01*
X137784523Y-147578571D01*
X137736904Y-147626190D01*
X137689285Y-147721428D01*
X137689285Y-147911904D01*
X137736904Y-148007142D01*
X137784523Y-148054761D01*
X137879761Y-148102380D01*
X138070238Y-148102380D01*
X138165476Y-148054761D01*
X138213095Y-148007142D01*
X138260714Y-147911904D01*
X138260714Y-147721428D01*
X138213095Y-147626190D01*
X138165476Y-147578571D01*
X138070238Y-147530952D01*
G04 #@! TO.C,R9*
X132333333Y-148102380D02*
X132000000Y-147626190D01*
X131761904Y-148102380D02*
X131761904Y-147102380D01*
X132142857Y-147102380D01*
X132238095Y-147150000D01*
X132285714Y-147197619D01*
X132333333Y-147292857D01*
X132333333Y-147435714D01*
X132285714Y-147530952D01*
X132238095Y-147578571D01*
X132142857Y-147626190D01*
X131761904Y-147626190D01*
X132809523Y-148102380D02*
X133000000Y-148102380D01*
X133095238Y-148054761D01*
X133142857Y-148007142D01*
X133238095Y-147864285D01*
X133285714Y-147673809D01*
X133285714Y-147292857D01*
X133238095Y-147197619D01*
X133190476Y-147150000D01*
X133095238Y-147102380D01*
X132904761Y-147102380D01*
X132809523Y-147150000D01*
X132761904Y-147197619D01*
X132714285Y-147292857D01*
X132714285Y-147530952D01*
X132761904Y-147626190D01*
X132809523Y-147673809D01*
X132904761Y-147721428D01*
X133095238Y-147721428D01*
X133190476Y-147673809D01*
X133238095Y-147626190D01*
X133285714Y-147530952D01*
G04 #@! TO.C,R10*
X146802380Y-131167857D02*
X146326190Y-131501190D01*
X146802380Y-131739285D02*
X145802380Y-131739285D01*
X145802380Y-131358333D01*
X145850000Y-131263095D01*
X145897619Y-131215476D01*
X145992857Y-131167857D01*
X146135714Y-131167857D01*
X146230952Y-131215476D01*
X146278571Y-131263095D01*
X146326190Y-131358333D01*
X146326190Y-131739285D01*
X146802380Y-130215476D02*
X146802380Y-130786904D01*
X146802380Y-130501190D02*
X145802380Y-130501190D01*
X145945238Y-130596428D01*
X146040476Y-130691666D01*
X146088095Y-130786904D01*
X145802380Y-129596428D02*
X145802380Y-129501190D01*
X145850000Y-129405952D01*
X145897619Y-129358333D01*
X145992857Y-129310714D01*
X146183333Y-129263095D01*
X146421428Y-129263095D01*
X146611904Y-129310714D01*
X146707142Y-129358333D01*
X146754761Y-129405952D01*
X146802380Y-129501190D01*
X146802380Y-129596428D01*
X146754761Y-129691666D01*
X146707142Y-129739285D01*
X146611904Y-129786904D01*
X146421428Y-129834523D01*
X146183333Y-129834523D01*
X145992857Y-129786904D01*
X145897619Y-129739285D01*
X145850000Y-129691666D01*
X145802380Y-129596428D01*
G04 #@! TO.C,R11*
X151302380Y-144167857D02*
X150826190Y-144501190D01*
X151302380Y-144739285D02*
X150302380Y-144739285D01*
X150302380Y-144358333D01*
X150350000Y-144263095D01*
X150397619Y-144215476D01*
X150492857Y-144167857D01*
X150635714Y-144167857D01*
X150730952Y-144215476D01*
X150778571Y-144263095D01*
X150826190Y-144358333D01*
X150826190Y-144739285D01*
X151302380Y-143215476D02*
X151302380Y-143786904D01*
X151302380Y-143501190D02*
X150302380Y-143501190D01*
X150445238Y-143596428D01*
X150540476Y-143691666D01*
X150588095Y-143786904D01*
X151302380Y-142263095D02*
X151302380Y-142834523D01*
X151302380Y-142548809D02*
X150302380Y-142548809D01*
X150445238Y-142644047D01*
X150540476Y-142739285D01*
X150588095Y-142834523D01*
G04 #@! TO.C,R12*
X157102380Y-133617857D02*
X156626190Y-133951190D01*
X157102380Y-134189285D02*
X156102380Y-134189285D01*
X156102380Y-133808333D01*
X156150000Y-133713095D01*
X156197619Y-133665476D01*
X156292857Y-133617857D01*
X156435714Y-133617857D01*
X156530952Y-133665476D01*
X156578571Y-133713095D01*
X156626190Y-133808333D01*
X156626190Y-134189285D01*
X157102380Y-132665476D02*
X157102380Y-133236904D01*
X157102380Y-132951190D02*
X156102380Y-132951190D01*
X156245238Y-133046428D01*
X156340476Y-133141666D01*
X156388095Y-133236904D01*
X156197619Y-132284523D02*
X156150000Y-132236904D01*
X156102380Y-132141666D01*
X156102380Y-131903571D01*
X156150000Y-131808333D01*
X156197619Y-131760714D01*
X156292857Y-131713095D01*
X156388095Y-131713095D01*
X156530952Y-131760714D01*
X157102380Y-132332142D01*
X157102380Y-131713095D01*
G04 #@! TO.C,R6*
X163752381Y-143691666D02*
X163276191Y-144025000D01*
X163752381Y-144263095D02*
X162752381Y-144263095D01*
X162752381Y-143882142D01*
X162800001Y-143786904D01*
X162847620Y-143739285D01*
X162942858Y-143691666D01*
X163085715Y-143691666D01*
X163180953Y-143739285D01*
X163228572Y-143786904D01*
X163276191Y-143882142D01*
X163276191Y-144263095D01*
X162752381Y-142834523D02*
X162752381Y-143025000D01*
X162800001Y-143120238D01*
X162847620Y-143167857D01*
X162990477Y-143263095D01*
X163180953Y-143310714D01*
X163561905Y-143310714D01*
X163657143Y-143263095D01*
X163704762Y-143215476D01*
X163752381Y-143120238D01*
X163752381Y-142929761D01*
X163704762Y-142834523D01*
X163657143Y-142786904D01*
X163561905Y-142739285D01*
X163323810Y-142739285D01*
X163228572Y-142786904D01*
X163180953Y-142834523D01*
X163133334Y-142929761D01*
X163133334Y-143120238D01*
X163180953Y-143215476D01*
X163228572Y-143263095D01*
X163323810Y-143310714D01*
G04 #@! TO.C,J1*
X164116666Y-109452380D02*
X164116666Y-110166666D01*
X164069047Y-110309523D01*
X163973809Y-110404761D01*
X163830952Y-110452380D01*
X163735714Y-110452380D01*
X165116666Y-110452380D02*
X164545238Y-110452380D01*
X164830952Y-110452380D02*
X164830952Y-109452380D01*
X164735714Y-109595238D01*
X164640476Y-109690476D01*
X164545238Y-109738095D01*
G04 #@! TO.C,U2*
X149238095Y-110952380D02*
X149238095Y-111761904D01*
X149285714Y-111857142D01*
X149333333Y-111904761D01*
X149428571Y-111952380D01*
X149619047Y-111952380D01*
X149714285Y-111904761D01*
X149761904Y-111857142D01*
X149809523Y-111761904D01*
X149809523Y-110952380D01*
X150238095Y-111047619D02*
X150285714Y-111000000D01*
X150380952Y-110952380D01*
X150619047Y-110952380D01*
X150714285Y-111000000D01*
X150761904Y-111047619D01*
X150809523Y-111142857D01*
X150809523Y-111238095D01*
X150761904Y-111380952D01*
X150190476Y-111952380D01*
X150809523Y-111952380D01*
G04 #@! TO.C,U3*
X149238095Y-138952380D02*
X149238095Y-139761904D01*
X149285714Y-139857142D01*
X149333333Y-139904761D01*
X149428571Y-139952380D01*
X149619047Y-139952380D01*
X149714285Y-139904761D01*
X149761904Y-139857142D01*
X149809523Y-139761904D01*
X149809523Y-138952380D01*
X150190476Y-138952380D02*
X150809523Y-138952380D01*
X150476190Y-139333333D01*
X150619047Y-139333333D01*
X150714285Y-139380952D01*
X150761904Y-139428571D01*
X150809523Y-139523809D01*
X150809523Y-139761904D01*
X150761904Y-139857142D01*
X150714285Y-139904761D01*
X150619047Y-139952380D01*
X150333333Y-139952380D01*
X150238095Y-139904761D01*
X150190476Y-139857142D01*
G04 #@! TO.C,J2*
X102452380Y-132833333D02*
X103166666Y-132833333D01*
X103309523Y-132880952D01*
X103404761Y-132976190D01*
X103452380Y-133119047D01*
X103452380Y-133214285D01*
X102547619Y-132404761D02*
X102500000Y-132357142D01*
X102452380Y-132261904D01*
X102452380Y-132023809D01*
X102500000Y-131928571D01*
X102547619Y-131880952D01*
X102642857Y-131833333D01*
X102738095Y-131833333D01*
X102880952Y-131880952D01*
X103452380Y-132452380D01*
X103452380Y-131833333D01*
G04 #@! TO.C,U7*
X106452380Y-117011904D02*
X107261904Y-117011904D01*
X107357142Y-116964285D01*
X107404761Y-116916666D01*
X107452380Y-116821428D01*
X107452380Y-116630952D01*
X107404761Y-116535714D01*
X107357142Y-116488095D01*
X107261904Y-116440476D01*
X106452380Y-116440476D01*
X106452380Y-116059523D02*
X106452380Y-115392857D01*
X107452380Y-115821428D01*
G04 #@! TO.C,REF\002A\002A*
X123666666Y-100452380D02*
X123333333Y-99976190D01*
X123095238Y-100452380D02*
X123095238Y-99452380D01*
X123476190Y-99452380D01*
X123571428Y-99500000D01*
X123619047Y-99547619D01*
X123666666Y-99642857D01*
X123666666Y-99785714D01*
X123619047Y-99880952D01*
X123571428Y-99928571D01*
X123476190Y-99976190D01*
X123095238Y-99976190D01*
X124095238Y-99928571D02*
X124428571Y-99928571D01*
X124571428Y-100452380D02*
X124095238Y-100452380D01*
X124095238Y-99452380D01*
X124571428Y-99452380D01*
X125333333Y-99928571D02*
X125000000Y-99928571D01*
X125000000Y-100452380D02*
X125000000Y-99452380D01*
X125476190Y-99452380D01*
X126000000Y-99452380D02*
X126000000Y-99690476D01*
X125761904Y-99595238D02*
X126000000Y-99690476D01*
X126238095Y-99595238D01*
X125857142Y-99880952D02*
X126000000Y-99690476D01*
X126142857Y-99880952D01*
X126761904Y-99452380D02*
X126761904Y-99690476D01*
X126523809Y-99595238D02*
X126761904Y-99690476D01*
X127000000Y-99595238D01*
X126619047Y-99880952D02*
X126761904Y-99690476D01*
X126904761Y-99880952D01*
X173666666Y-100452380D02*
X173333333Y-99976190D01*
X173095238Y-100452380D02*
X173095238Y-99452380D01*
X173476190Y-99452380D01*
X173571428Y-99500000D01*
X173619047Y-99547619D01*
X173666666Y-99642857D01*
X173666666Y-99785714D01*
X173619047Y-99880952D01*
X173571428Y-99928571D01*
X173476190Y-99976190D01*
X173095238Y-99976190D01*
X174095238Y-99928571D02*
X174428571Y-99928571D01*
X174571428Y-100452380D02*
X174095238Y-100452380D01*
X174095238Y-99452380D01*
X174571428Y-99452380D01*
X175333333Y-99928571D02*
X175000000Y-99928571D01*
X175000000Y-100452380D02*
X175000000Y-99452380D01*
X175476190Y-99452380D01*
X176000000Y-99452380D02*
X176000000Y-99690476D01*
X175761904Y-99595238D02*
X176000000Y-99690476D01*
X176238095Y-99595238D01*
X175857142Y-99880952D02*
X176000000Y-99690476D01*
X176142857Y-99880952D01*
X176761904Y-99452380D02*
X176761904Y-99690476D01*
X176523809Y-99595238D02*
X176761904Y-99690476D01*
X177000000Y-99595238D01*
X176619047Y-99880952D02*
X176761904Y-99690476D01*
X176904761Y-99880952D01*
G04 #@! TD*
M02*
