G04 #@! TF.GenerationSoftware,KiCad,Pcbnew,5.0.2+dfsg1-1*
G04 #@! TF.CreationDate,2020-09-22T13:16:51+02:00*
G04 #@! TF.ProjectId,lipo_power,6c69706f-5f70-46f7-9765-722e6b696361,rev?*
G04 #@! TF.SameCoordinates,Original*
G04 #@! TF.FileFunction,Soldermask,Bot*
G04 #@! TF.FilePolarity,Negative*
%FSLAX46Y46*%
G04 Gerber Fmt 4.6, Leading zero omitted, Abs format (unit mm)*
G04 Created by KiCad (PCBNEW 5.0.2+dfsg1-1) date Tue 22 Sep 2020 01:16:51 PM CEST*
%MOMM*%
%LPD*%
G01*
G04 APERTURE LIST*
%ADD10C,0.100000*%
G04 APERTURE END LIST*
D10*
G36*
X186525331Y-137268211D02*
X186853092Y-137403974D01*
X187148073Y-137601074D01*
X187398926Y-137851927D01*
X187596026Y-138146908D01*
X187731789Y-138474669D01*
X187801000Y-138822616D01*
X187801000Y-139177384D01*
X187731789Y-139525331D01*
X187596026Y-139853092D01*
X187398926Y-140148073D01*
X187148073Y-140398926D01*
X186853092Y-140596026D01*
X186525331Y-140731789D01*
X186177384Y-140801000D01*
X185822616Y-140801000D01*
X185474669Y-140731789D01*
X185146908Y-140596026D01*
X184851927Y-140398926D01*
X184601074Y-140148073D01*
X184403974Y-139853092D01*
X184268211Y-139525331D01*
X184199000Y-139177384D01*
X184199000Y-138822616D01*
X184268211Y-138474669D01*
X184403974Y-138146908D01*
X184601074Y-137851927D01*
X184851927Y-137601074D01*
X185146908Y-137403974D01*
X185474669Y-137268211D01*
X185822616Y-137199000D01*
X186177384Y-137199000D01*
X186525331Y-137268211D01*
X186525331Y-137268211D01*
G37*
G36*
X114525331Y-137268211D02*
X114853092Y-137403974D01*
X115148073Y-137601074D01*
X115398926Y-137851927D01*
X115596026Y-138146908D01*
X115731789Y-138474669D01*
X115801000Y-138822616D01*
X115801000Y-139177384D01*
X115731789Y-139525331D01*
X115596026Y-139853092D01*
X115398926Y-140148073D01*
X115148073Y-140398926D01*
X114853092Y-140596026D01*
X114525331Y-140731789D01*
X114177384Y-140801000D01*
X113822616Y-140801000D01*
X113474669Y-140731789D01*
X113146908Y-140596026D01*
X112851927Y-140398926D01*
X112601074Y-140148073D01*
X112403974Y-139853092D01*
X112268211Y-139525331D01*
X112199000Y-139177384D01*
X112199000Y-138822616D01*
X112268211Y-138474669D01*
X112403974Y-138146908D01*
X112601074Y-137851927D01*
X112851927Y-137601074D01*
X113146908Y-137403974D01*
X113474669Y-137268211D01*
X113822616Y-137199000D01*
X114177384Y-137199000D01*
X114525331Y-137268211D01*
X114525331Y-137268211D01*
G37*
G36*
X178175256Y-137391298D02*
X178281579Y-137412447D01*
X178582042Y-137536903D01*
X178678077Y-137601072D01*
X178852454Y-137717587D01*
X179082413Y-137947546D01*
X179263098Y-138217960D01*
X179387553Y-138518422D01*
X179451000Y-138837389D01*
X179451000Y-139162611D01*
X179387553Y-139481578D01*
X179263098Y-139782040D01*
X179082413Y-140052454D01*
X178852454Y-140282413D01*
X178852451Y-140282415D01*
X178582042Y-140463097D01*
X178281579Y-140587553D01*
X178238987Y-140596025D01*
X177962611Y-140651000D01*
X177637389Y-140651000D01*
X177361013Y-140596025D01*
X177318421Y-140587553D01*
X177017958Y-140463097D01*
X176747549Y-140282415D01*
X176747546Y-140282413D01*
X176517587Y-140052454D01*
X176336902Y-139782040D01*
X176212447Y-139481578D01*
X176149000Y-139162611D01*
X176149000Y-138837389D01*
X176212447Y-138518422D01*
X176336902Y-138217960D01*
X176517587Y-137947546D01*
X176747546Y-137717587D01*
X176921923Y-137601072D01*
X177017958Y-137536903D01*
X177318421Y-137412447D01*
X177424744Y-137391298D01*
X177637389Y-137349000D01*
X177962611Y-137349000D01*
X178175256Y-137391298D01*
X178175256Y-137391298D01*
G37*
G36*
X122575256Y-137391298D02*
X122681579Y-137412447D01*
X122982042Y-137536903D01*
X123078077Y-137601072D01*
X123252454Y-137717587D01*
X123482413Y-137947546D01*
X123663098Y-138217960D01*
X123787553Y-138518422D01*
X123851000Y-138837389D01*
X123851000Y-139162611D01*
X123787553Y-139481578D01*
X123663098Y-139782040D01*
X123482413Y-140052454D01*
X123252454Y-140282413D01*
X123252451Y-140282415D01*
X122982042Y-140463097D01*
X122681579Y-140587553D01*
X122638987Y-140596025D01*
X122362611Y-140651000D01*
X122037389Y-140651000D01*
X121761013Y-140596025D01*
X121718421Y-140587553D01*
X121417958Y-140463097D01*
X121147549Y-140282415D01*
X121147546Y-140282413D01*
X120917587Y-140052454D01*
X120736902Y-139782040D01*
X120612447Y-139481578D01*
X120549000Y-139162611D01*
X120549000Y-138837389D01*
X120612447Y-138518422D01*
X120736902Y-138217960D01*
X120917587Y-137947546D01*
X121147546Y-137717587D01*
X121321923Y-137601072D01*
X121417958Y-137536903D01*
X121718421Y-137412447D01*
X121824744Y-137391298D01*
X122037389Y-137349000D01*
X122362611Y-137349000D01*
X122575256Y-137391298D01*
X122575256Y-137391298D01*
G37*
G36*
X104082510Y-132722041D02*
X104206032Y-132734207D01*
X104404146Y-132794305D01*
X104586729Y-132891897D01*
X104746765Y-133023235D01*
X104878103Y-133183271D01*
X104975695Y-133365854D01*
X105035793Y-133563968D01*
X105056085Y-133770000D01*
X105035793Y-133976032D01*
X104975695Y-134174146D01*
X104878103Y-134356729D01*
X104746765Y-134516765D01*
X104586729Y-134648103D01*
X104404146Y-134745695D01*
X104206032Y-134805793D01*
X104082510Y-134817959D01*
X104051631Y-134821000D01*
X102948369Y-134821000D01*
X102917490Y-134817959D01*
X102793968Y-134805793D01*
X102595854Y-134745695D01*
X102413271Y-134648103D01*
X102253235Y-134516765D01*
X102121897Y-134356729D01*
X102024305Y-134174146D01*
X101964207Y-133976032D01*
X101943915Y-133770000D01*
X101964207Y-133563968D01*
X102024305Y-133365854D01*
X102121897Y-133183271D01*
X102253235Y-133023235D01*
X102413271Y-132891897D01*
X102595854Y-132794305D01*
X102793968Y-132734207D01*
X102917490Y-132722041D01*
X102948369Y-132719000D01*
X104051631Y-132719000D01*
X104082510Y-132722041D01*
X104082510Y-132722041D01*
G37*
G36*
X104082510Y-130182041D02*
X104206032Y-130194207D01*
X104404146Y-130254305D01*
X104586729Y-130351897D01*
X104746765Y-130483235D01*
X104878103Y-130643271D01*
X104975695Y-130825854D01*
X105035793Y-131023968D01*
X105056085Y-131230000D01*
X105035793Y-131436032D01*
X104975695Y-131634146D01*
X104878103Y-131816729D01*
X104746765Y-131976765D01*
X104586729Y-132108103D01*
X104404146Y-132205695D01*
X104206032Y-132265793D01*
X104082510Y-132277959D01*
X104051631Y-132281000D01*
X102948369Y-132281000D01*
X102917490Y-132277959D01*
X102793968Y-132265793D01*
X102595854Y-132205695D01*
X102413271Y-132108103D01*
X102253235Y-131976765D01*
X102121897Y-131816729D01*
X102024305Y-131634146D01*
X101964207Y-131436032D01*
X101943915Y-131230000D01*
X101964207Y-131023968D01*
X102024305Y-130825854D01*
X102121897Y-130643271D01*
X102253235Y-130483235D01*
X102413271Y-130351897D01*
X102595854Y-130254305D01*
X102793968Y-130194207D01*
X102917490Y-130182041D01*
X102948369Y-130179000D01*
X104051631Y-130179000D01*
X104082510Y-130182041D01*
X104082510Y-130182041D01*
G37*
G36*
X104260443Y-119555519D02*
X104326627Y-119562037D01*
X104439853Y-119596384D01*
X104496467Y-119613557D01*
X104635087Y-119687652D01*
X104652991Y-119697222D01*
X104688729Y-119726552D01*
X104790186Y-119809814D01*
X104873448Y-119911271D01*
X104902778Y-119947009D01*
X104902779Y-119947011D01*
X104986443Y-120103533D01*
X105005382Y-120165968D01*
X105014760Y-120188607D01*
X105028374Y-120208982D01*
X105045701Y-120226309D01*
X105066075Y-120239923D01*
X105088714Y-120249300D01*
X105112748Y-120254081D01*
X105137252Y-120254081D01*
X105161285Y-120249301D01*
X105183924Y-120239923D01*
X105204299Y-120226309D01*
X105221626Y-120208982D01*
X105235240Y-120188608D01*
X105244618Y-120165968D01*
X105263557Y-120103533D01*
X105347221Y-119947011D01*
X105347222Y-119947009D01*
X105376552Y-119911271D01*
X105459814Y-119809814D01*
X105561271Y-119726552D01*
X105597009Y-119697222D01*
X105614913Y-119687652D01*
X105753533Y-119613557D01*
X105810147Y-119596384D01*
X105923373Y-119562037D01*
X105989557Y-119555519D01*
X106055740Y-119549000D01*
X106944260Y-119549000D01*
X107010443Y-119555519D01*
X107076627Y-119562037D01*
X107189853Y-119596384D01*
X107246467Y-119613557D01*
X107385087Y-119687652D01*
X107402991Y-119697222D01*
X107438729Y-119726552D01*
X107540186Y-119809814D01*
X107623448Y-119911271D01*
X107652778Y-119947009D01*
X107652779Y-119947011D01*
X107736443Y-120103533D01*
X107736443Y-120103534D01*
X107787963Y-120273373D01*
X107805359Y-120450000D01*
X107787963Y-120626627D01*
X107755382Y-120734032D01*
X107736443Y-120796467D01*
X107662348Y-120935087D01*
X107652778Y-120952991D01*
X107623448Y-120988729D01*
X107540186Y-121090186D01*
X107438729Y-121173448D01*
X107402991Y-121202778D01*
X107402989Y-121202779D01*
X107246467Y-121286443D01*
X107189853Y-121303616D01*
X107076627Y-121337963D01*
X107010442Y-121344482D01*
X106944260Y-121351000D01*
X106055740Y-121351000D01*
X105989558Y-121344482D01*
X105923373Y-121337963D01*
X105810147Y-121303616D01*
X105753533Y-121286443D01*
X105597011Y-121202779D01*
X105597009Y-121202778D01*
X105561271Y-121173448D01*
X105459814Y-121090186D01*
X105376552Y-120988729D01*
X105347222Y-120952991D01*
X105337652Y-120935087D01*
X105263557Y-120796467D01*
X105244618Y-120734032D01*
X105235240Y-120711393D01*
X105221626Y-120691018D01*
X105204299Y-120673691D01*
X105183925Y-120660077D01*
X105161286Y-120650700D01*
X105137252Y-120645919D01*
X105112748Y-120645919D01*
X105088715Y-120650699D01*
X105066076Y-120660077D01*
X105045701Y-120673691D01*
X105028374Y-120691018D01*
X105014760Y-120711392D01*
X105005382Y-120734032D01*
X104986443Y-120796467D01*
X104912348Y-120935087D01*
X104902778Y-120952991D01*
X104873448Y-120988729D01*
X104790186Y-121090186D01*
X104688729Y-121173448D01*
X104652991Y-121202778D01*
X104652989Y-121202779D01*
X104496467Y-121286443D01*
X104439853Y-121303616D01*
X104326627Y-121337963D01*
X104260442Y-121344482D01*
X104194260Y-121351000D01*
X103305740Y-121351000D01*
X103239558Y-121344482D01*
X103173373Y-121337963D01*
X103060147Y-121303616D01*
X103003533Y-121286443D01*
X102847011Y-121202779D01*
X102847009Y-121202778D01*
X102811271Y-121173448D01*
X102709814Y-121090186D01*
X102626552Y-120988729D01*
X102597222Y-120952991D01*
X102587652Y-120935087D01*
X102513557Y-120796467D01*
X102494618Y-120734032D01*
X102462037Y-120626627D01*
X102444641Y-120450000D01*
X102462037Y-120273373D01*
X102513557Y-120103534D01*
X102513557Y-120103533D01*
X102597221Y-119947011D01*
X102597222Y-119947009D01*
X102626552Y-119911271D01*
X102709814Y-119809814D01*
X102811271Y-119726552D01*
X102847009Y-119697222D01*
X102864913Y-119687652D01*
X103003533Y-119613557D01*
X103060147Y-119596384D01*
X103173373Y-119562037D01*
X103239557Y-119555519D01*
X103305740Y-119549000D01*
X104194260Y-119549000D01*
X104260443Y-119555519D01*
X104260443Y-119555519D01*
G37*
G36*
X104260443Y-117455519D02*
X104326627Y-117462037D01*
X104439853Y-117496384D01*
X104496467Y-117513557D01*
X104635087Y-117587652D01*
X104652991Y-117597222D01*
X104688729Y-117626552D01*
X104790186Y-117709814D01*
X104873448Y-117811271D01*
X104902778Y-117847009D01*
X104902779Y-117847011D01*
X104986443Y-118003533D01*
X105005382Y-118065968D01*
X105014760Y-118088607D01*
X105028374Y-118108982D01*
X105045701Y-118126309D01*
X105066075Y-118139923D01*
X105088714Y-118149300D01*
X105112748Y-118154081D01*
X105137252Y-118154081D01*
X105161285Y-118149301D01*
X105183924Y-118139923D01*
X105204299Y-118126309D01*
X105221626Y-118108982D01*
X105235240Y-118088608D01*
X105244618Y-118065968D01*
X105263557Y-118003533D01*
X105347221Y-117847011D01*
X105347222Y-117847009D01*
X105376552Y-117811271D01*
X105459814Y-117709814D01*
X105561271Y-117626552D01*
X105597009Y-117597222D01*
X105614913Y-117587652D01*
X105753533Y-117513557D01*
X105810147Y-117496384D01*
X105923373Y-117462037D01*
X105989557Y-117455519D01*
X106055740Y-117449000D01*
X106944260Y-117449000D01*
X107010443Y-117455519D01*
X107076627Y-117462037D01*
X107189853Y-117496384D01*
X107246467Y-117513557D01*
X107385087Y-117587652D01*
X107402991Y-117597222D01*
X107438729Y-117626552D01*
X107540186Y-117709814D01*
X107623448Y-117811271D01*
X107652778Y-117847009D01*
X107652779Y-117847011D01*
X107736443Y-118003533D01*
X107736443Y-118003534D01*
X107787963Y-118173373D01*
X107805359Y-118350000D01*
X107787963Y-118526627D01*
X107755382Y-118634032D01*
X107736443Y-118696467D01*
X107662348Y-118835087D01*
X107652778Y-118852991D01*
X107623448Y-118888729D01*
X107540186Y-118990186D01*
X107438729Y-119073448D01*
X107402991Y-119102778D01*
X107402989Y-119102779D01*
X107246467Y-119186443D01*
X107189853Y-119203616D01*
X107076627Y-119237963D01*
X107010443Y-119244481D01*
X106944260Y-119251000D01*
X106055740Y-119251000D01*
X105989557Y-119244481D01*
X105923373Y-119237963D01*
X105810147Y-119203616D01*
X105753533Y-119186443D01*
X105597011Y-119102779D01*
X105597009Y-119102778D01*
X105561271Y-119073448D01*
X105459814Y-118990186D01*
X105376552Y-118888729D01*
X105347222Y-118852991D01*
X105337652Y-118835087D01*
X105263557Y-118696467D01*
X105244618Y-118634032D01*
X105235240Y-118611393D01*
X105221626Y-118591018D01*
X105204299Y-118573691D01*
X105183925Y-118560077D01*
X105161286Y-118550700D01*
X105137252Y-118545919D01*
X105112748Y-118545919D01*
X105088715Y-118550699D01*
X105066076Y-118560077D01*
X105045701Y-118573691D01*
X105028374Y-118591018D01*
X105014760Y-118611392D01*
X105005382Y-118634032D01*
X104986443Y-118696467D01*
X104912348Y-118835087D01*
X104902778Y-118852991D01*
X104873448Y-118888729D01*
X104790186Y-118990186D01*
X104688729Y-119073448D01*
X104652991Y-119102778D01*
X104652989Y-119102779D01*
X104496467Y-119186443D01*
X104439853Y-119203616D01*
X104326627Y-119237963D01*
X104260443Y-119244481D01*
X104194260Y-119251000D01*
X103305740Y-119251000D01*
X103239557Y-119244481D01*
X103173373Y-119237963D01*
X103060147Y-119203616D01*
X103003533Y-119186443D01*
X102847011Y-119102779D01*
X102847009Y-119102778D01*
X102811271Y-119073448D01*
X102709814Y-118990186D01*
X102626552Y-118888729D01*
X102597222Y-118852991D01*
X102587652Y-118835087D01*
X102513557Y-118696467D01*
X102494618Y-118634032D01*
X102462037Y-118526627D01*
X102444641Y-118350000D01*
X102462037Y-118173373D01*
X102513557Y-118003534D01*
X102513557Y-118003533D01*
X102597221Y-117847011D01*
X102597222Y-117847009D01*
X102626552Y-117811271D01*
X102709814Y-117709814D01*
X102811271Y-117626552D01*
X102847009Y-117597222D01*
X102864913Y-117587652D01*
X103003533Y-117513557D01*
X103060147Y-117496384D01*
X103173373Y-117462037D01*
X103239557Y-117455519D01*
X103305740Y-117449000D01*
X104194260Y-117449000D01*
X104260443Y-117455519D01*
X104260443Y-117455519D01*
G37*
G36*
X104260442Y-115355518D02*
X104326627Y-115362037D01*
X104439853Y-115396384D01*
X104496467Y-115413557D01*
X104635087Y-115487652D01*
X104652991Y-115497222D01*
X104688729Y-115526552D01*
X104790186Y-115609814D01*
X104873448Y-115711271D01*
X104902778Y-115747009D01*
X104902779Y-115747011D01*
X104986443Y-115903533D01*
X105005382Y-115965968D01*
X105014760Y-115988607D01*
X105028374Y-116008982D01*
X105045701Y-116026309D01*
X105066075Y-116039923D01*
X105088714Y-116049300D01*
X105112748Y-116054081D01*
X105137252Y-116054081D01*
X105161285Y-116049301D01*
X105183924Y-116039923D01*
X105204299Y-116026309D01*
X105221626Y-116008982D01*
X105235240Y-115988608D01*
X105244618Y-115965968D01*
X105263557Y-115903533D01*
X105347221Y-115747011D01*
X105347222Y-115747009D01*
X105376552Y-115711271D01*
X105459814Y-115609814D01*
X105561271Y-115526552D01*
X105597009Y-115497222D01*
X105614913Y-115487652D01*
X105753533Y-115413557D01*
X105810147Y-115396384D01*
X105923373Y-115362037D01*
X105989558Y-115355518D01*
X106055740Y-115349000D01*
X106944260Y-115349000D01*
X107010442Y-115355518D01*
X107076627Y-115362037D01*
X107189853Y-115396384D01*
X107246467Y-115413557D01*
X107385087Y-115487652D01*
X107402991Y-115497222D01*
X107438729Y-115526552D01*
X107540186Y-115609814D01*
X107623448Y-115711271D01*
X107652778Y-115747009D01*
X107652779Y-115747011D01*
X107736443Y-115903533D01*
X107736443Y-115903534D01*
X107787963Y-116073373D01*
X107805359Y-116250000D01*
X107787963Y-116426627D01*
X107755382Y-116534032D01*
X107736443Y-116596467D01*
X107662348Y-116735087D01*
X107652778Y-116752991D01*
X107623448Y-116788729D01*
X107540186Y-116890186D01*
X107438729Y-116973448D01*
X107402991Y-117002778D01*
X107402989Y-117002779D01*
X107246467Y-117086443D01*
X107189853Y-117103616D01*
X107076627Y-117137963D01*
X107010443Y-117144481D01*
X106944260Y-117151000D01*
X106055740Y-117151000D01*
X105989557Y-117144481D01*
X105923373Y-117137963D01*
X105810147Y-117103616D01*
X105753533Y-117086443D01*
X105597011Y-117002779D01*
X105597009Y-117002778D01*
X105561271Y-116973448D01*
X105459814Y-116890186D01*
X105376552Y-116788729D01*
X105347222Y-116752991D01*
X105337652Y-116735087D01*
X105263557Y-116596467D01*
X105244618Y-116534032D01*
X105235240Y-116511393D01*
X105221626Y-116491018D01*
X105204299Y-116473691D01*
X105183925Y-116460077D01*
X105161286Y-116450700D01*
X105137252Y-116445919D01*
X105112748Y-116445919D01*
X105088715Y-116450699D01*
X105066076Y-116460077D01*
X105045701Y-116473691D01*
X105028374Y-116491018D01*
X105014760Y-116511392D01*
X105005382Y-116534032D01*
X104986443Y-116596467D01*
X104912348Y-116735087D01*
X104902778Y-116752991D01*
X104873448Y-116788729D01*
X104790186Y-116890186D01*
X104688729Y-116973448D01*
X104652991Y-117002778D01*
X104652989Y-117002779D01*
X104496467Y-117086443D01*
X104439853Y-117103616D01*
X104326627Y-117137963D01*
X104260443Y-117144481D01*
X104194260Y-117151000D01*
X103305740Y-117151000D01*
X103239557Y-117144481D01*
X103173373Y-117137963D01*
X103060147Y-117103616D01*
X103003533Y-117086443D01*
X102847011Y-117002779D01*
X102847009Y-117002778D01*
X102811271Y-116973448D01*
X102709814Y-116890186D01*
X102626552Y-116788729D01*
X102597222Y-116752991D01*
X102587652Y-116735087D01*
X102513557Y-116596467D01*
X102494618Y-116534032D01*
X102462037Y-116426627D01*
X102444641Y-116250000D01*
X102462037Y-116073373D01*
X102513557Y-115903534D01*
X102513557Y-115903533D01*
X102597221Y-115747011D01*
X102597222Y-115747009D01*
X102626552Y-115711271D01*
X102709814Y-115609814D01*
X102811271Y-115526552D01*
X102847009Y-115497222D01*
X102864913Y-115487652D01*
X103003533Y-115413557D01*
X103060147Y-115396384D01*
X103173373Y-115362037D01*
X103239558Y-115355518D01*
X103305740Y-115349000D01*
X104194260Y-115349000D01*
X104260442Y-115355518D01*
X104260442Y-115355518D01*
G37*
G36*
X104260442Y-113255518D02*
X104326627Y-113262037D01*
X104439853Y-113296384D01*
X104496467Y-113313557D01*
X104635087Y-113387652D01*
X104652991Y-113397222D01*
X104688729Y-113426552D01*
X104790186Y-113509814D01*
X104873448Y-113611271D01*
X104902778Y-113647009D01*
X104902779Y-113647011D01*
X104986443Y-113803533D01*
X105005382Y-113865968D01*
X105014760Y-113888607D01*
X105028374Y-113908982D01*
X105045701Y-113926309D01*
X105066075Y-113939923D01*
X105088714Y-113949300D01*
X105112748Y-113954081D01*
X105137252Y-113954081D01*
X105161285Y-113949301D01*
X105183924Y-113939923D01*
X105204299Y-113926309D01*
X105221626Y-113908982D01*
X105235240Y-113888608D01*
X105244618Y-113865968D01*
X105263557Y-113803533D01*
X105347221Y-113647011D01*
X105347222Y-113647009D01*
X105376552Y-113611271D01*
X105459814Y-113509814D01*
X105561271Y-113426552D01*
X105597009Y-113397222D01*
X105614913Y-113387652D01*
X105753533Y-113313557D01*
X105810147Y-113296384D01*
X105923373Y-113262037D01*
X105989558Y-113255518D01*
X106055740Y-113249000D01*
X106944260Y-113249000D01*
X107010442Y-113255518D01*
X107076627Y-113262037D01*
X107189853Y-113296384D01*
X107246467Y-113313557D01*
X107385087Y-113387652D01*
X107402991Y-113397222D01*
X107438729Y-113426552D01*
X107540186Y-113509814D01*
X107623448Y-113611271D01*
X107652778Y-113647009D01*
X107652779Y-113647011D01*
X107736443Y-113803533D01*
X107736443Y-113803534D01*
X107787963Y-113973373D01*
X107805359Y-114150000D01*
X107787963Y-114326627D01*
X107755382Y-114434032D01*
X107736443Y-114496467D01*
X107662348Y-114635087D01*
X107652778Y-114652991D01*
X107623448Y-114688729D01*
X107540186Y-114790186D01*
X107438729Y-114873448D01*
X107402991Y-114902778D01*
X107402989Y-114902779D01*
X107246467Y-114986443D01*
X107189853Y-115003616D01*
X107076627Y-115037963D01*
X107010442Y-115044482D01*
X106944260Y-115051000D01*
X106055740Y-115051000D01*
X105989558Y-115044482D01*
X105923373Y-115037963D01*
X105810147Y-115003616D01*
X105753533Y-114986443D01*
X105597011Y-114902779D01*
X105597009Y-114902778D01*
X105561271Y-114873448D01*
X105459814Y-114790186D01*
X105376552Y-114688729D01*
X105347222Y-114652991D01*
X105337652Y-114635087D01*
X105263557Y-114496467D01*
X105244618Y-114434032D01*
X105235240Y-114411393D01*
X105221626Y-114391018D01*
X105204299Y-114373691D01*
X105183925Y-114360077D01*
X105161286Y-114350700D01*
X105137252Y-114345919D01*
X105112748Y-114345919D01*
X105088715Y-114350699D01*
X105066076Y-114360077D01*
X105045701Y-114373691D01*
X105028374Y-114391018D01*
X105014760Y-114411392D01*
X105005382Y-114434032D01*
X104986443Y-114496467D01*
X104912348Y-114635087D01*
X104902778Y-114652991D01*
X104873448Y-114688729D01*
X104790186Y-114790186D01*
X104688729Y-114873448D01*
X104652991Y-114902778D01*
X104652989Y-114902779D01*
X104496467Y-114986443D01*
X104439853Y-115003616D01*
X104326627Y-115037963D01*
X104260442Y-115044482D01*
X104194260Y-115051000D01*
X103305740Y-115051000D01*
X103239558Y-115044482D01*
X103173373Y-115037963D01*
X103060147Y-115003616D01*
X103003533Y-114986443D01*
X102847011Y-114902779D01*
X102847009Y-114902778D01*
X102811271Y-114873448D01*
X102709814Y-114790186D01*
X102626552Y-114688729D01*
X102597222Y-114652991D01*
X102587652Y-114635087D01*
X102513557Y-114496467D01*
X102494618Y-114434032D01*
X102462037Y-114326627D01*
X102444641Y-114150000D01*
X102462037Y-113973373D01*
X102513557Y-113803534D01*
X102513557Y-113803533D01*
X102597221Y-113647011D01*
X102597222Y-113647009D01*
X102626552Y-113611271D01*
X102709814Y-113509814D01*
X102811271Y-113426552D01*
X102847009Y-113397222D01*
X102864913Y-113387652D01*
X103003533Y-113313557D01*
X103060147Y-113296384D01*
X103173373Y-113262037D01*
X103239558Y-113255518D01*
X103305740Y-113249000D01*
X104194260Y-113249000D01*
X104260442Y-113255518D01*
X104260442Y-113255518D01*
G37*
G36*
X104260442Y-111155518D02*
X104326627Y-111162037D01*
X104439853Y-111196384D01*
X104496467Y-111213557D01*
X104635087Y-111287652D01*
X104652991Y-111297222D01*
X104688729Y-111326552D01*
X104790186Y-111409814D01*
X104849080Y-111481578D01*
X104902778Y-111547009D01*
X104902779Y-111547011D01*
X104986443Y-111703533D01*
X105005382Y-111765968D01*
X105014760Y-111788607D01*
X105028374Y-111808982D01*
X105045701Y-111826309D01*
X105066075Y-111839923D01*
X105088714Y-111849300D01*
X105112748Y-111854081D01*
X105137252Y-111854081D01*
X105161285Y-111849301D01*
X105183924Y-111839923D01*
X105204299Y-111826309D01*
X105221626Y-111808982D01*
X105235240Y-111788608D01*
X105244618Y-111765968D01*
X105263557Y-111703533D01*
X105347221Y-111547011D01*
X105347222Y-111547009D01*
X105400920Y-111481578D01*
X105459814Y-111409814D01*
X105561271Y-111326552D01*
X105597009Y-111297222D01*
X105614913Y-111287652D01*
X105753533Y-111213557D01*
X105810147Y-111196384D01*
X105923373Y-111162037D01*
X105989558Y-111155518D01*
X106055740Y-111149000D01*
X106944260Y-111149000D01*
X107010442Y-111155518D01*
X107076627Y-111162037D01*
X107189853Y-111196384D01*
X107246467Y-111213557D01*
X107385087Y-111287652D01*
X107402991Y-111297222D01*
X107438729Y-111326552D01*
X107540186Y-111409814D01*
X107599080Y-111481578D01*
X107652778Y-111547009D01*
X107652779Y-111547011D01*
X107736443Y-111703533D01*
X107736443Y-111703534D01*
X107787963Y-111873373D01*
X107805359Y-112050000D01*
X107787963Y-112226627D01*
X107755382Y-112334032D01*
X107736443Y-112396467D01*
X107700828Y-112463097D01*
X107652778Y-112552991D01*
X107624413Y-112587553D01*
X107540186Y-112690186D01*
X107438729Y-112773448D01*
X107402991Y-112802778D01*
X107402989Y-112802779D01*
X107246467Y-112886443D01*
X107189853Y-112903616D01*
X107076627Y-112937963D01*
X107010442Y-112944482D01*
X106944260Y-112951000D01*
X106055740Y-112951000D01*
X105989558Y-112944482D01*
X105923373Y-112937963D01*
X105810147Y-112903616D01*
X105753533Y-112886443D01*
X105597011Y-112802779D01*
X105597009Y-112802778D01*
X105561271Y-112773448D01*
X105459814Y-112690186D01*
X105375587Y-112587553D01*
X105347222Y-112552991D01*
X105299172Y-112463097D01*
X105263557Y-112396467D01*
X105244618Y-112334032D01*
X105235240Y-112311393D01*
X105221626Y-112291018D01*
X105204299Y-112273691D01*
X105183925Y-112260077D01*
X105161286Y-112250700D01*
X105137252Y-112245919D01*
X105112748Y-112245919D01*
X105088715Y-112250699D01*
X105066076Y-112260077D01*
X105045701Y-112273691D01*
X105028374Y-112291018D01*
X105014760Y-112311392D01*
X105005382Y-112334032D01*
X104986443Y-112396467D01*
X104950828Y-112463097D01*
X104902778Y-112552991D01*
X104874413Y-112587553D01*
X104790186Y-112690186D01*
X104688729Y-112773448D01*
X104652991Y-112802778D01*
X104652989Y-112802779D01*
X104496467Y-112886443D01*
X104439853Y-112903616D01*
X104326627Y-112937963D01*
X104260442Y-112944482D01*
X104194260Y-112951000D01*
X103305740Y-112951000D01*
X103239558Y-112944482D01*
X103173373Y-112937963D01*
X103060147Y-112903616D01*
X103003533Y-112886443D01*
X102847011Y-112802779D01*
X102847009Y-112802778D01*
X102811271Y-112773448D01*
X102709814Y-112690186D01*
X102625587Y-112587553D01*
X102597222Y-112552991D01*
X102549172Y-112463097D01*
X102513557Y-112396467D01*
X102494618Y-112334032D01*
X102462037Y-112226627D01*
X102444641Y-112050000D01*
X102462037Y-111873373D01*
X102513557Y-111703534D01*
X102513557Y-111703533D01*
X102597221Y-111547011D01*
X102597222Y-111547009D01*
X102650920Y-111481578D01*
X102709814Y-111409814D01*
X102811271Y-111326552D01*
X102847009Y-111297222D01*
X102864913Y-111287652D01*
X103003533Y-111213557D01*
X103060147Y-111196384D01*
X103173373Y-111162037D01*
X103239558Y-111155518D01*
X103305740Y-111149000D01*
X104194260Y-111149000D01*
X104260442Y-111155518D01*
X104260442Y-111155518D01*
G37*
G36*
X186525331Y-109268211D02*
X186853092Y-109403974D01*
X187148073Y-109601074D01*
X187398926Y-109851927D01*
X187596026Y-110146908D01*
X187731789Y-110474669D01*
X187801000Y-110822616D01*
X187801000Y-111177384D01*
X187731789Y-111525331D01*
X187596026Y-111853092D01*
X187398926Y-112148073D01*
X187148073Y-112398926D01*
X186853092Y-112596026D01*
X186525331Y-112731789D01*
X186177384Y-112801000D01*
X185822616Y-112801000D01*
X185474669Y-112731789D01*
X185146908Y-112596026D01*
X184851927Y-112398926D01*
X184601074Y-112148073D01*
X184403974Y-111853092D01*
X184268211Y-111525331D01*
X184199000Y-111177384D01*
X184199000Y-110822616D01*
X184268211Y-110474669D01*
X184403974Y-110146908D01*
X184601074Y-109851927D01*
X184851927Y-109601074D01*
X185146908Y-109403974D01*
X185474669Y-109268211D01*
X185822616Y-109199000D01*
X186177384Y-109199000D01*
X186525331Y-109268211D01*
X186525331Y-109268211D01*
G37*
G36*
X114525331Y-109268211D02*
X114853092Y-109403974D01*
X115148073Y-109601074D01*
X115398926Y-109851927D01*
X115596026Y-110146908D01*
X115731789Y-110474669D01*
X115801000Y-110822616D01*
X115801000Y-111177384D01*
X115731789Y-111525331D01*
X115596026Y-111853092D01*
X115398926Y-112148073D01*
X115148073Y-112398926D01*
X114853092Y-112596026D01*
X114525331Y-112731789D01*
X114177384Y-112801000D01*
X113822616Y-112801000D01*
X113474669Y-112731789D01*
X113146908Y-112596026D01*
X112851927Y-112398926D01*
X112601074Y-112148073D01*
X112403974Y-111853092D01*
X112268211Y-111525331D01*
X112199000Y-111177384D01*
X112199000Y-110822616D01*
X112268211Y-110474669D01*
X112403974Y-110146908D01*
X112601074Y-109851927D01*
X112851927Y-109601074D01*
X113146908Y-109403974D01*
X113474669Y-109268211D01*
X113822616Y-109199000D01*
X114177384Y-109199000D01*
X114525331Y-109268211D01*
X114525331Y-109268211D01*
G37*
G36*
X122575256Y-109391298D02*
X122681579Y-109412447D01*
X122982042Y-109536903D01*
X123078077Y-109601072D01*
X123252454Y-109717587D01*
X123482413Y-109947546D01*
X123663098Y-110217960D01*
X123787553Y-110518422D01*
X123851000Y-110837389D01*
X123851000Y-111162611D01*
X123848061Y-111177384D01*
X123787553Y-111481579D01*
X123663097Y-111782042D01*
X123618156Y-111849301D01*
X123482413Y-112052454D01*
X123252454Y-112282413D01*
X123252451Y-112282415D01*
X122982042Y-112463097D01*
X122681579Y-112587553D01*
X122638987Y-112596025D01*
X122362611Y-112651000D01*
X122037389Y-112651000D01*
X121761013Y-112596025D01*
X121718421Y-112587553D01*
X121417958Y-112463097D01*
X121147549Y-112282415D01*
X121147546Y-112282413D01*
X120917587Y-112052454D01*
X120781844Y-111849301D01*
X120736903Y-111782042D01*
X120612447Y-111481579D01*
X120551939Y-111177384D01*
X120549000Y-111162611D01*
X120549000Y-110837389D01*
X120612447Y-110518422D01*
X120736902Y-110217960D01*
X120917587Y-109947546D01*
X121147546Y-109717587D01*
X121321923Y-109601072D01*
X121417958Y-109536903D01*
X121718421Y-109412447D01*
X121824744Y-109391298D01*
X122037389Y-109349000D01*
X122362611Y-109349000D01*
X122575256Y-109391298D01*
X122575256Y-109391298D01*
G37*
G36*
X178175256Y-109391298D02*
X178281579Y-109412447D01*
X178582042Y-109536903D01*
X178678077Y-109601072D01*
X178852454Y-109717587D01*
X179082413Y-109947546D01*
X179263098Y-110217960D01*
X179387553Y-110518422D01*
X179451000Y-110837389D01*
X179451000Y-111162611D01*
X179448061Y-111177384D01*
X179387553Y-111481579D01*
X179263097Y-111782042D01*
X179218156Y-111849301D01*
X179082413Y-112052454D01*
X178852454Y-112282413D01*
X178852451Y-112282415D01*
X178582042Y-112463097D01*
X178281579Y-112587553D01*
X178238987Y-112596025D01*
X177962611Y-112651000D01*
X177637389Y-112651000D01*
X177361013Y-112596025D01*
X177318421Y-112587553D01*
X177017958Y-112463097D01*
X176747549Y-112282415D01*
X176747546Y-112282413D01*
X176517587Y-112052454D01*
X176381844Y-111849301D01*
X176336903Y-111782042D01*
X176212447Y-111481579D01*
X176151939Y-111177384D01*
X176149000Y-111162611D01*
X176149000Y-110837389D01*
X176212447Y-110518422D01*
X176336902Y-110217960D01*
X176517587Y-109947546D01*
X176747546Y-109717587D01*
X176921923Y-109601072D01*
X177017958Y-109536903D01*
X177318421Y-109412447D01*
X177424744Y-109391298D01*
X177637389Y-109349000D01*
X177962611Y-109349000D01*
X178175256Y-109391298D01*
X178175256Y-109391298D01*
G37*
G36*
X162381552Y-104566331D02*
X162463625Y-104600327D01*
X162463626Y-104600328D01*
X162463629Y-104600329D01*
X162537496Y-104649686D01*
X162537500Y-104649689D01*
X162600311Y-104712500D01*
X162600313Y-104712503D01*
X162600314Y-104712504D01*
X162649671Y-104786371D01*
X162649672Y-104786374D01*
X162649673Y-104786375D01*
X162683669Y-104868448D01*
X162701000Y-104955579D01*
X162701000Y-105044421D01*
X162683669Y-105131552D01*
X162649673Y-105213625D01*
X162649671Y-105213629D01*
X162600314Y-105287496D01*
X162600311Y-105287500D01*
X162537500Y-105350311D01*
X162537497Y-105350313D01*
X162537496Y-105350314D01*
X162463629Y-105399671D01*
X162463626Y-105399672D01*
X162463625Y-105399673D01*
X162381552Y-105433669D01*
X162294421Y-105451000D01*
X162205579Y-105451000D01*
X162118448Y-105433669D01*
X162036375Y-105399673D01*
X162036374Y-105399672D01*
X162036371Y-105399671D01*
X161962504Y-105350314D01*
X161962503Y-105350313D01*
X161962500Y-105350311D01*
X161899689Y-105287500D01*
X161899686Y-105287496D01*
X161850329Y-105213629D01*
X161850327Y-105213625D01*
X161816331Y-105131552D01*
X161799000Y-105044421D01*
X161799000Y-104955579D01*
X161816331Y-104868448D01*
X161850327Y-104786375D01*
X161850328Y-104786374D01*
X161850329Y-104786371D01*
X161899686Y-104712504D01*
X161899687Y-104712503D01*
X161899689Y-104712500D01*
X161962500Y-104649689D01*
X161962504Y-104649686D01*
X162036371Y-104600329D01*
X162036374Y-104600328D01*
X162036375Y-104600327D01*
X162118448Y-104566331D01*
X162205579Y-104549000D01*
X162294421Y-104549000D01*
X162381552Y-104566331D01*
X162381552Y-104566331D01*
G37*
G36*
X166781552Y-104566331D02*
X166863625Y-104600327D01*
X166863626Y-104600328D01*
X166863629Y-104600329D01*
X166937496Y-104649686D01*
X166937500Y-104649689D01*
X167000311Y-104712500D01*
X167000313Y-104712503D01*
X167000314Y-104712504D01*
X167049671Y-104786371D01*
X167049672Y-104786374D01*
X167049673Y-104786375D01*
X167083669Y-104868448D01*
X167101000Y-104955579D01*
X167101000Y-105044421D01*
X167083669Y-105131552D01*
X167049673Y-105213625D01*
X167049671Y-105213629D01*
X167000314Y-105287496D01*
X167000311Y-105287500D01*
X166937500Y-105350311D01*
X166937497Y-105350313D01*
X166937496Y-105350314D01*
X166863629Y-105399671D01*
X166863626Y-105399672D01*
X166863625Y-105399673D01*
X166781552Y-105433669D01*
X166694421Y-105451000D01*
X166605579Y-105451000D01*
X166518448Y-105433669D01*
X166436375Y-105399673D01*
X166436374Y-105399672D01*
X166436371Y-105399671D01*
X166362504Y-105350314D01*
X166362503Y-105350313D01*
X166362500Y-105350311D01*
X166299689Y-105287500D01*
X166299686Y-105287496D01*
X166250329Y-105213629D01*
X166250327Y-105213625D01*
X166216331Y-105131552D01*
X166199000Y-105044421D01*
X166199000Y-104955579D01*
X166216331Y-104868448D01*
X166250327Y-104786375D01*
X166250328Y-104786374D01*
X166250329Y-104786371D01*
X166299686Y-104712504D01*
X166299687Y-104712503D01*
X166299689Y-104712500D01*
X166362500Y-104649689D01*
X166362504Y-104649686D01*
X166436371Y-104600329D01*
X166436374Y-104600328D01*
X166436375Y-104600327D01*
X166518448Y-104566331D01*
X166605579Y-104549000D01*
X166694421Y-104549000D01*
X166781552Y-104566331D01*
X166781552Y-104566331D01*
G37*
G36*
X121626007Y-98584601D02*
X121626009Y-98584602D01*
X121626010Y-98584602D01*
X121704629Y-98617167D01*
X121775387Y-98664446D01*
X121835554Y-98724613D01*
X121882833Y-98795371D01*
X121884515Y-98799432D01*
X121896066Y-98821042D01*
X121911612Y-98839984D01*
X121930554Y-98855530D01*
X121952165Y-98867081D01*
X121975614Y-98874194D01*
X122000000Y-98876596D01*
X122024386Y-98874194D01*
X122047836Y-98867081D01*
X122069446Y-98855530D01*
X122088388Y-98839984D01*
X122103934Y-98821042D01*
X122115485Y-98799432D01*
X122117167Y-98795371D01*
X122164446Y-98724613D01*
X122224613Y-98664446D01*
X122295371Y-98617167D01*
X122373990Y-98584602D01*
X122373991Y-98584602D01*
X122373993Y-98584601D01*
X122457450Y-98568000D01*
X122542550Y-98568000D01*
X122626007Y-98584601D01*
X122626009Y-98584602D01*
X122626010Y-98584602D01*
X122704629Y-98617167D01*
X122775387Y-98664446D01*
X122835554Y-98724613D01*
X122882833Y-98795371D01*
X122884515Y-98799432D01*
X122896066Y-98821042D01*
X122911612Y-98839984D01*
X122930554Y-98855530D01*
X122952165Y-98867081D01*
X122975614Y-98874194D01*
X123000000Y-98876596D01*
X123024386Y-98874194D01*
X123047836Y-98867081D01*
X123069446Y-98855530D01*
X123088388Y-98839984D01*
X123103934Y-98821042D01*
X123115485Y-98799432D01*
X123117167Y-98795371D01*
X123164446Y-98724613D01*
X123224613Y-98664446D01*
X123295371Y-98617167D01*
X123373990Y-98584602D01*
X123373991Y-98584602D01*
X123373993Y-98584601D01*
X123457450Y-98568000D01*
X123542550Y-98568000D01*
X123626007Y-98584601D01*
X123626009Y-98584602D01*
X123626010Y-98584602D01*
X123704629Y-98617167D01*
X123775387Y-98664446D01*
X123835554Y-98724613D01*
X123882833Y-98795371D01*
X123884515Y-98799432D01*
X123896066Y-98821042D01*
X123911612Y-98839984D01*
X123930554Y-98855530D01*
X123952165Y-98867081D01*
X123975614Y-98874194D01*
X124000000Y-98876596D01*
X124024386Y-98874194D01*
X124047836Y-98867081D01*
X124069446Y-98855530D01*
X124088388Y-98839984D01*
X124103934Y-98821042D01*
X124115485Y-98799432D01*
X124117167Y-98795371D01*
X124164446Y-98724613D01*
X124224613Y-98664446D01*
X124295371Y-98617167D01*
X124373990Y-98584602D01*
X124373991Y-98584602D01*
X124373993Y-98584601D01*
X124457450Y-98568000D01*
X124542550Y-98568000D01*
X124626007Y-98584601D01*
X124626009Y-98584602D01*
X124626010Y-98584602D01*
X124704629Y-98617167D01*
X124775387Y-98664446D01*
X124835554Y-98724613D01*
X124882833Y-98795371D01*
X124884515Y-98799432D01*
X124896066Y-98821042D01*
X124911612Y-98839984D01*
X124930554Y-98855530D01*
X124952165Y-98867081D01*
X124975614Y-98874194D01*
X125000000Y-98876596D01*
X125024386Y-98874194D01*
X125047836Y-98867081D01*
X125069446Y-98855530D01*
X125088388Y-98839984D01*
X125103934Y-98821042D01*
X125115485Y-98799432D01*
X125117167Y-98795371D01*
X125164446Y-98724613D01*
X125224613Y-98664446D01*
X125295371Y-98617167D01*
X125373990Y-98584602D01*
X125373991Y-98584602D01*
X125373993Y-98584601D01*
X125457450Y-98568000D01*
X125542550Y-98568000D01*
X125626007Y-98584601D01*
X125626009Y-98584602D01*
X125626010Y-98584602D01*
X125704629Y-98617167D01*
X125775387Y-98664446D01*
X125835554Y-98724613D01*
X125882833Y-98795371D01*
X125884515Y-98799432D01*
X125896066Y-98821042D01*
X125911612Y-98839984D01*
X125930554Y-98855530D01*
X125952165Y-98867081D01*
X125975614Y-98874194D01*
X126000000Y-98876596D01*
X126024386Y-98874194D01*
X126047836Y-98867081D01*
X126069446Y-98855530D01*
X126088388Y-98839984D01*
X126103934Y-98821042D01*
X126115485Y-98799432D01*
X126117167Y-98795371D01*
X126164446Y-98724613D01*
X126224613Y-98664446D01*
X126295371Y-98617167D01*
X126373990Y-98584602D01*
X126373991Y-98584602D01*
X126373993Y-98584601D01*
X126457450Y-98568000D01*
X126542550Y-98568000D01*
X126626007Y-98584601D01*
X126626009Y-98584602D01*
X126626010Y-98584602D01*
X126704629Y-98617167D01*
X126775387Y-98664446D01*
X126835554Y-98724613D01*
X126882833Y-98795371D01*
X126884515Y-98799432D01*
X126896066Y-98821042D01*
X126911612Y-98839984D01*
X126930554Y-98855530D01*
X126952165Y-98867081D01*
X126975614Y-98874194D01*
X127000000Y-98876596D01*
X127024386Y-98874194D01*
X127047836Y-98867081D01*
X127069446Y-98855530D01*
X127088388Y-98839984D01*
X127103934Y-98821042D01*
X127115485Y-98799432D01*
X127117167Y-98795371D01*
X127164446Y-98724613D01*
X127224613Y-98664446D01*
X127295371Y-98617167D01*
X127373990Y-98584602D01*
X127373991Y-98584602D01*
X127373993Y-98584601D01*
X127457450Y-98568000D01*
X127542550Y-98568000D01*
X127626007Y-98584601D01*
X127626009Y-98584602D01*
X127626010Y-98584602D01*
X127704629Y-98617167D01*
X127775387Y-98664446D01*
X127835554Y-98724613D01*
X127882833Y-98795371D01*
X127884515Y-98799432D01*
X127896066Y-98821042D01*
X127911612Y-98839984D01*
X127930554Y-98855530D01*
X127952165Y-98867081D01*
X127975614Y-98874194D01*
X128000000Y-98876596D01*
X128024386Y-98874194D01*
X128047836Y-98867081D01*
X128069446Y-98855530D01*
X128088388Y-98839984D01*
X128103934Y-98821042D01*
X128115485Y-98799432D01*
X128117167Y-98795371D01*
X128164446Y-98724613D01*
X128224613Y-98664446D01*
X128295371Y-98617167D01*
X128373990Y-98584602D01*
X128373991Y-98584602D01*
X128373993Y-98584601D01*
X128457450Y-98568000D01*
X128542550Y-98568000D01*
X128626007Y-98584601D01*
X128626009Y-98584602D01*
X128626010Y-98584602D01*
X128704629Y-98617167D01*
X128775387Y-98664446D01*
X128835554Y-98724613D01*
X128835556Y-98724616D01*
X128882833Y-98795371D01*
X128907752Y-98855530D01*
X128915399Y-98873993D01*
X128932000Y-98957450D01*
X128932000Y-99042550D01*
X128915917Y-99123404D01*
X128915398Y-99126010D01*
X128901312Y-99160016D01*
X128882833Y-99204629D01*
X128835554Y-99275387D01*
X128775387Y-99335554D01*
X128704629Y-99382833D01*
X128700568Y-99384515D01*
X128678958Y-99396066D01*
X128660016Y-99411612D01*
X128644470Y-99430554D01*
X128632919Y-99452165D01*
X128625806Y-99475614D01*
X128623404Y-99500000D01*
X128625806Y-99524386D01*
X128632919Y-99547836D01*
X128644470Y-99569446D01*
X128660016Y-99588388D01*
X128678958Y-99603934D01*
X128700568Y-99615485D01*
X128704629Y-99617167D01*
X128775387Y-99664446D01*
X128835554Y-99724613D01*
X128835556Y-99724616D01*
X128882833Y-99795371D01*
X128907752Y-99855530D01*
X128915399Y-99873993D01*
X128932000Y-99957450D01*
X128932000Y-100042550D01*
X128915917Y-100123404D01*
X128915398Y-100126010D01*
X128901312Y-100160016D01*
X128882833Y-100204629D01*
X128835554Y-100275387D01*
X128775387Y-100335554D01*
X128775384Y-100335556D01*
X128704629Y-100382833D01*
X128626010Y-100415398D01*
X128626009Y-100415398D01*
X128626007Y-100415399D01*
X128542550Y-100432000D01*
X128457450Y-100432000D01*
X128373993Y-100415399D01*
X128373991Y-100415398D01*
X128373990Y-100415398D01*
X128295371Y-100382833D01*
X128224616Y-100335556D01*
X128224613Y-100335554D01*
X128164446Y-100275387D01*
X128117167Y-100204629D01*
X128115485Y-100200568D01*
X128103934Y-100178958D01*
X128088388Y-100160016D01*
X128069446Y-100144470D01*
X128047835Y-100132919D01*
X128024386Y-100125806D01*
X128000000Y-100123404D01*
X127975614Y-100125806D01*
X127952164Y-100132919D01*
X127930554Y-100144470D01*
X127911612Y-100160016D01*
X127896066Y-100178958D01*
X127884515Y-100200568D01*
X127882833Y-100204629D01*
X127835554Y-100275387D01*
X127775387Y-100335554D01*
X127775384Y-100335556D01*
X127704629Y-100382833D01*
X127626010Y-100415398D01*
X127626009Y-100415398D01*
X127626007Y-100415399D01*
X127542550Y-100432000D01*
X127457450Y-100432000D01*
X127373993Y-100415399D01*
X127373991Y-100415398D01*
X127373990Y-100415398D01*
X127295371Y-100382833D01*
X127224616Y-100335556D01*
X127224613Y-100335554D01*
X127164446Y-100275387D01*
X127117167Y-100204629D01*
X127115485Y-100200568D01*
X127103934Y-100178958D01*
X127088388Y-100160016D01*
X127069446Y-100144470D01*
X127047835Y-100132919D01*
X127024386Y-100125806D01*
X127000000Y-100123404D01*
X126975614Y-100125806D01*
X126952164Y-100132919D01*
X126930554Y-100144470D01*
X126911612Y-100160016D01*
X126896066Y-100178958D01*
X126884515Y-100200568D01*
X126882833Y-100204629D01*
X126835554Y-100275387D01*
X126775387Y-100335554D01*
X126775384Y-100335556D01*
X126704629Y-100382833D01*
X126626010Y-100415398D01*
X126626009Y-100415398D01*
X126626007Y-100415399D01*
X126542550Y-100432000D01*
X126457450Y-100432000D01*
X126373993Y-100415399D01*
X126373991Y-100415398D01*
X126373990Y-100415398D01*
X126295371Y-100382833D01*
X126224616Y-100335556D01*
X126224613Y-100335554D01*
X126164446Y-100275387D01*
X126117167Y-100204629D01*
X126115485Y-100200568D01*
X126103934Y-100178958D01*
X126088388Y-100160016D01*
X126069446Y-100144470D01*
X126047835Y-100132919D01*
X126024386Y-100125806D01*
X126000000Y-100123404D01*
X125975614Y-100125806D01*
X125952164Y-100132919D01*
X125930554Y-100144470D01*
X125911612Y-100160016D01*
X125896066Y-100178958D01*
X125884515Y-100200568D01*
X125882833Y-100204629D01*
X125835554Y-100275387D01*
X125775387Y-100335554D01*
X125775384Y-100335556D01*
X125704629Y-100382833D01*
X125626010Y-100415398D01*
X125626009Y-100415398D01*
X125626007Y-100415399D01*
X125542550Y-100432000D01*
X125457450Y-100432000D01*
X125373993Y-100415399D01*
X125373991Y-100415398D01*
X125373990Y-100415398D01*
X125295371Y-100382833D01*
X125224616Y-100335556D01*
X125224613Y-100335554D01*
X125164446Y-100275387D01*
X125117167Y-100204629D01*
X125115485Y-100200568D01*
X125103934Y-100178958D01*
X125088388Y-100160016D01*
X125069446Y-100144470D01*
X125047835Y-100132919D01*
X125024386Y-100125806D01*
X125000000Y-100123404D01*
X124975614Y-100125806D01*
X124952164Y-100132919D01*
X124930554Y-100144470D01*
X124911612Y-100160016D01*
X124896066Y-100178958D01*
X124884515Y-100200568D01*
X124882833Y-100204629D01*
X124835554Y-100275387D01*
X124775387Y-100335554D01*
X124775384Y-100335556D01*
X124704629Y-100382833D01*
X124626010Y-100415398D01*
X124626009Y-100415398D01*
X124626007Y-100415399D01*
X124542550Y-100432000D01*
X124457450Y-100432000D01*
X124373993Y-100415399D01*
X124373991Y-100415398D01*
X124373990Y-100415398D01*
X124295371Y-100382833D01*
X124224616Y-100335556D01*
X124224613Y-100335554D01*
X124164446Y-100275387D01*
X124117167Y-100204629D01*
X124115485Y-100200568D01*
X124103934Y-100178958D01*
X124088388Y-100160016D01*
X124069446Y-100144470D01*
X124047835Y-100132919D01*
X124024386Y-100125806D01*
X124000000Y-100123404D01*
X123975614Y-100125806D01*
X123952164Y-100132919D01*
X123930554Y-100144470D01*
X123911612Y-100160016D01*
X123896066Y-100178958D01*
X123884515Y-100200568D01*
X123882833Y-100204629D01*
X123835554Y-100275387D01*
X123775387Y-100335554D01*
X123775384Y-100335556D01*
X123704629Y-100382833D01*
X123626010Y-100415398D01*
X123626009Y-100415398D01*
X123626007Y-100415399D01*
X123542550Y-100432000D01*
X123457450Y-100432000D01*
X123373993Y-100415399D01*
X123373991Y-100415398D01*
X123373990Y-100415398D01*
X123295371Y-100382833D01*
X123224616Y-100335556D01*
X123224613Y-100335554D01*
X123164446Y-100275387D01*
X123117167Y-100204629D01*
X123115485Y-100200568D01*
X123103934Y-100178958D01*
X123088388Y-100160016D01*
X123069446Y-100144470D01*
X123047835Y-100132919D01*
X123024386Y-100125806D01*
X123000000Y-100123404D01*
X122975614Y-100125806D01*
X122952164Y-100132919D01*
X122930554Y-100144470D01*
X122911612Y-100160016D01*
X122896066Y-100178958D01*
X122884515Y-100200568D01*
X122882833Y-100204629D01*
X122835554Y-100275387D01*
X122775387Y-100335554D01*
X122775384Y-100335556D01*
X122704629Y-100382833D01*
X122626010Y-100415398D01*
X122626009Y-100415398D01*
X122626007Y-100415399D01*
X122542550Y-100432000D01*
X122457450Y-100432000D01*
X122373993Y-100415399D01*
X122373991Y-100415398D01*
X122373990Y-100415398D01*
X122295371Y-100382833D01*
X122224616Y-100335556D01*
X122224613Y-100335554D01*
X122164446Y-100275387D01*
X122117167Y-100204629D01*
X122115485Y-100200568D01*
X122103934Y-100178958D01*
X122088388Y-100160016D01*
X122069446Y-100144470D01*
X122047835Y-100132919D01*
X122024386Y-100125806D01*
X122000000Y-100123404D01*
X121975614Y-100125806D01*
X121952164Y-100132919D01*
X121930554Y-100144470D01*
X121911612Y-100160016D01*
X121896066Y-100178958D01*
X121884515Y-100200568D01*
X121882833Y-100204629D01*
X121835554Y-100275387D01*
X121775387Y-100335554D01*
X121775384Y-100335556D01*
X121704629Y-100382833D01*
X121626010Y-100415398D01*
X121626009Y-100415398D01*
X121626007Y-100415399D01*
X121542550Y-100432000D01*
X121457450Y-100432000D01*
X121373993Y-100415399D01*
X121373991Y-100415398D01*
X121373990Y-100415398D01*
X121295371Y-100382833D01*
X121224616Y-100335556D01*
X121224613Y-100335554D01*
X121164446Y-100275387D01*
X121117167Y-100204629D01*
X121098688Y-100160016D01*
X121084602Y-100126010D01*
X121084084Y-100123404D01*
X121068000Y-100042550D01*
X121068000Y-99957450D01*
X121084601Y-99873993D01*
X121092249Y-99855530D01*
X121117167Y-99795371D01*
X121164444Y-99724616D01*
X121164446Y-99724613D01*
X121224613Y-99664446D01*
X121295371Y-99617167D01*
X121299432Y-99615485D01*
X121321042Y-99603934D01*
X121339984Y-99588388D01*
X121355530Y-99569446D01*
X121367081Y-99547835D01*
X121374194Y-99524386D01*
X121376596Y-99500000D01*
X121623404Y-99500000D01*
X121625806Y-99524386D01*
X121632919Y-99547836D01*
X121644470Y-99569446D01*
X121660016Y-99588388D01*
X121678958Y-99603934D01*
X121700568Y-99615485D01*
X121704629Y-99617167D01*
X121775387Y-99664446D01*
X121835554Y-99724613D01*
X121882833Y-99795371D01*
X121884515Y-99799432D01*
X121896066Y-99821042D01*
X121911612Y-99839984D01*
X121930554Y-99855530D01*
X121952165Y-99867081D01*
X121975614Y-99874194D01*
X122000000Y-99876596D01*
X122024386Y-99874194D01*
X122047836Y-99867081D01*
X122069446Y-99855530D01*
X122088388Y-99839984D01*
X122103934Y-99821042D01*
X122115485Y-99799432D01*
X122117167Y-99795371D01*
X122164446Y-99724613D01*
X122224613Y-99664446D01*
X122295371Y-99617167D01*
X122299432Y-99615485D01*
X122321042Y-99603934D01*
X122339984Y-99588388D01*
X122355530Y-99569446D01*
X122367081Y-99547835D01*
X122374194Y-99524386D01*
X122376596Y-99500000D01*
X122623404Y-99500000D01*
X122625806Y-99524386D01*
X122632919Y-99547836D01*
X122644470Y-99569446D01*
X122660016Y-99588388D01*
X122678958Y-99603934D01*
X122700568Y-99615485D01*
X122704629Y-99617167D01*
X122775387Y-99664446D01*
X122835554Y-99724613D01*
X122882833Y-99795371D01*
X122884515Y-99799432D01*
X122896066Y-99821042D01*
X122911612Y-99839984D01*
X122930554Y-99855530D01*
X122952165Y-99867081D01*
X122975614Y-99874194D01*
X123000000Y-99876596D01*
X123024386Y-99874194D01*
X123047836Y-99867081D01*
X123069446Y-99855530D01*
X123088388Y-99839984D01*
X123103934Y-99821042D01*
X123115485Y-99799432D01*
X123117167Y-99795371D01*
X123164446Y-99724613D01*
X123224613Y-99664446D01*
X123295371Y-99617167D01*
X123299432Y-99615485D01*
X123321042Y-99603934D01*
X123339984Y-99588388D01*
X123355530Y-99569446D01*
X123367081Y-99547835D01*
X123374194Y-99524386D01*
X123376596Y-99500000D01*
X123623404Y-99500000D01*
X123625806Y-99524386D01*
X123632919Y-99547836D01*
X123644470Y-99569446D01*
X123660016Y-99588388D01*
X123678958Y-99603934D01*
X123700568Y-99615485D01*
X123704629Y-99617167D01*
X123775387Y-99664446D01*
X123835554Y-99724613D01*
X123882833Y-99795371D01*
X123884515Y-99799432D01*
X123896066Y-99821042D01*
X123911612Y-99839984D01*
X123930554Y-99855530D01*
X123952165Y-99867081D01*
X123975614Y-99874194D01*
X124000000Y-99876596D01*
X124024386Y-99874194D01*
X124047836Y-99867081D01*
X124069446Y-99855530D01*
X124088388Y-99839984D01*
X124103934Y-99821042D01*
X124115485Y-99799432D01*
X124117167Y-99795371D01*
X124164446Y-99724613D01*
X124224613Y-99664446D01*
X124295371Y-99617167D01*
X124299432Y-99615485D01*
X124321042Y-99603934D01*
X124339984Y-99588388D01*
X124355530Y-99569446D01*
X124367081Y-99547835D01*
X124374194Y-99524386D01*
X124376596Y-99500000D01*
X124623404Y-99500000D01*
X124625806Y-99524386D01*
X124632919Y-99547836D01*
X124644470Y-99569446D01*
X124660016Y-99588388D01*
X124678958Y-99603934D01*
X124700568Y-99615485D01*
X124704629Y-99617167D01*
X124775387Y-99664446D01*
X124835554Y-99724613D01*
X124882833Y-99795371D01*
X124884515Y-99799432D01*
X124896066Y-99821042D01*
X124911612Y-99839984D01*
X124930554Y-99855530D01*
X124952165Y-99867081D01*
X124975614Y-99874194D01*
X125000000Y-99876596D01*
X125024386Y-99874194D01*
X125047836Y-99867081D01*
X125069446Y-99855530D01*
X125088388Y-99839984D01*
X125103934Y-99821042D01*
X125115485Y-99799432D01*
X125117167Y-99795371D01*
X125164446Y-99724613D01*
X125224613Y-99664446D01*
X125295371Y-99617167D01*
X125299432Y-99615485D01*
X125321042Y-99603934D01*
X125339984Y-99588388D01*
X125355530Y-99569446D01*
X125367081Y-99547835D01*
X125374194Y-99524386D01*
X125376596Y-99500000D01*
X125623404Y-99500000D01*
X125625806Y-99524386D01*
X125632919Y-99547836D01*
X125644470Y-99569446D01*
X125660016Y-99588388D01*
X125678958Y-99603934D01*
X125700568Y-99615485D01*
X125704629Y-99617167D01*
X125775387Y-99664446D01*
X125835554Y-99724613D01*
X125882833Y-99795371D01*
X125884515Y-99799432D01*
X125896066Y-99821042D01*
X125911612Y-99839984D01*
X125930554Y-99855530D01*
X125952165Y-99867081D01*
X125975614Y-99874194D01*
X126000000Y-99876596D01*
X126024386Y-99874194D01*
X126047836Y-99867081D01*
X126069446Y-99855530D01*
X126088388Y-99839984D01*
X126103934Y-99821042D01*
X126115485Y-99799432D01*
X126117167Y-99795371D01*
X126164446Y-99724613D01*
X126224613Y-99664446D01*
X126295371Y-99617167D01*
X126299432Y-99615485D01*
X126321042Y-99603934D01*
X126339984Y-99588388D01*
X126355530Y-99569446D01*
X126367081Y-99547835D01*
X126374194Y-99524386D01*
X126376596Y-99500000D01*
X126623404Y-99500000D01*
X126625806Y-99524386D01*
X126632919Y-99547836D01*
X126644470Y-99569446D01*
X126660016Y-99588388D01*
X126678958Y-99603934D01*
X126700568Y-99615485D01*
X126704629Y-99617167D01*
X126775387Y-99664446D01*
X126835554Y-99724613D01*
X126882833Y-99795371D01*
X126884515Y-99799432D01*
X126896066Y-99821042D01*
X126911612Y-99839984D01*
X126930554Y-99855530D01*
X126952165Y-99867081D01*
X126975614Y-99874194D01*
X127000000Y-99876596D01*
X127024386Y-99874194D01*
X127047836Y-99867081D01*
X127069446Y-99855530D01*
X127088388Y-99839984D01*
X127103934Y-99821042D01*
X127115485Y-99799432D01*
X127117167Y-99795371D01*
X127164446Y-99724613D01*
X127224613Y-99664446D01*
X127295371Y-99617167D01*
X127299432Y-99615485D01*
X127321042Y-99603934D01*
X127339984Y-99588388D01*
X127355530Y-99569446D01*
X127367081Y-99547835D01*
X127374194Y-99524386D01*
X127376596Y-99500000D01*
X127623404Y-99500000D01*
X127625806Y-99524386D01*
X127632919Y-99547836D01*
X127644470Y-99569446D01*
X127660016Y-99588388D01*
X127678958Y-99603934D01*
X127700568Y-99615485D01*
X127704629Y-99617167D01*
X127775387Y-99664446D01*
X127835554Y-99724613D01*
X127882833Y-99795371D01*
X127884515Y-99799432D01*
X127896066Y-99821042D01*
X127911612Y-99839984D01*
X127930554Y-99855530D01*
X127952165Y-99867081D01*
X127975614Y-99874194D01*
X128000000Y-99876596D01*
X128024386Y-99874194D01*
X128047836Y-99867081D01*
X128069446Y-99855530D01*
X128088388Y-99839984D01*
X128103934Y-99821042D01*
X128115485Y-99799432D01*
X128117167Y-99795371D01*
X128164446Y-99724613D01*
X128224613Y-99664446D01*
X128295371Y-99617167D01*
X128299432Y-99615485D01*
X128321042Y-99603934D01*
X128339984Y-99588388D01*
X128355530Y-99569446D01*
X128367081Y-99547835D01*
X128374194Y-99524386D01*
X128376596Y-99500000D01*
X128374194Y-99475614D01*
X128367081Y-99452164D01*
X128355530Y-99430554D01*
X128339984Y-99411612D01*
X128321042Y-99396066D01*
X128299432Y-99384515D01*
X128295371Y-99382833D01*
X128224613Y-99335554D01*
X128164446Y-99275387D01*
X128117167Y-99204629D01*
X128115485Y-99200568D01*
X128103934Y-99178958D01*
X128088388Y-99160016D01*
X128069446Y-99144470D01*
X128047835Y-99132919D01*
X128024386Y-99125806D01*
X128000000Y-99123404D01*
X127975614Y-99125806D01*
X127952164Y-99132919D01*
X127930554Y-99144470D01*
X127911612Y-99160016D01*
X127896066Y-99178958D01*
X127884515Y-99200568D01*
X127882833Y-99204629D01*
X127835554Y-99275387D01*
X127775387Y-99335554D01*
X127704629Y-99382833D01*
X127700568Y-99384515D01*
X127678958Y-99396066D01*
X127660016Y-99411612D01*
X127644470Y-99430554D01*
X127632919Y-99452165D01*
X127625806Y-99475614D01*
X127623404Y-99500000D01*
X127376596Y-99500000D01*
X127374194Y-99475614D01*
X127367081Y-99452164D01*
X127355530Y-99430554D01*
X127339984Y-99411612D01*
X127321042Y-99396066D01*
X127299432Y-99384515D01*
X127295371Y-99382833D01*
X127224613Y-99335554D01*
X127164446Y-99275387D01*
X127117167Y-99204629D01*
X127115485Y-99200568D01*
X127103934Y-99178958D01*
X127088388Y-99160016D01*
X127069446Y-99144470D01*
X127047835Y-99132919D01*
X127024386Y-99125806D01*
X127000000Y-99123404D01*
X126975614Y-99125806D01*
X126952164Y-99132919D01*
X126930554Y-99144470D01*
X126911612Y-99160016D01*
X126896066Y-99178958D01*
X126884515Y-99200568D01*
X126882833Y-99204629D01*
X126835554Y-99275387D01*
X126775387Y-99335554D01*
X126704629Y-99382833D01*
X126700568Y-99384515D01*
X126678958Y-99396066D01*
X126660016Y-99411612D01*
X126644470Y-99430554D01*
X126632919Y-99452165D01*
X126625806Y-99475614D01*
X126623404Y-99500000D01*
X126376596Y-99500000D01*
X126374194Y-99475614D01*
X126367081Y-99452164D01*
X126355530Y-99430554D01*
X126339984Y-99411612D01*
X126321042Y-99396066D01*
X126299432Y-99384515D01*
X126295371Y-99382833D01*
X126224613Y-99335554D01*
X126164446Y-99275387D01*
X126117167Y-99204629D01*
X126115485Y-99200568D01*
X126103934Y-99178958D01*
X126088388Y-99160016D01*
X126069446Y-99144470D01*
X126047835Y-99132919D01*
X126024386Y-99125806D01*
X126000000Y-99123404D01*
X125975614Y-99125806D01*
X125952164Y-99132919D01*
X125930554Y-99144470D01*
X125911612Y-99160016D01*
X125896066Y-99178958D01*
X125884515Y-99200568D01*
X125882833Y-99204629D01*
X125835554Y-99275387D01*
X125775387Y-99335554D01*
X125704629Y-99382833D01*
X125700568Y-99384515D01*
X125678958Y-99396066D01*
X125660016Y-99411612D01*
X125644470Y-99430554D01*
X125632919Y-99452165D01*
X125625806Y-99475614D01*
X125623404Y-99500000D01*
X125376596Y-99500000D01*
X125374194Y-99475614D01*
X125367081Y-99452164D01*
X125355530Y-99430554D01*
X125339984Y-99411612D01*
X125321042Y-99396066D01*
X125299432Y-99384515D01*
X125295371Y-99382833D01*
X125224613Y-99335554D01*
X125164446Y-99275387D01*
X125117167Y-99204629D01*
X125115485Y-99200568D01*
X125103934Y-99178958D01*
X125088388Y-99160016D01*
X125069446Y-99144470D01*
X125047835Y-99132919D01*
X125024386Y-99125806D01*
X125000000Y-99123404D01*
X124975614Y-99125806D01*
X124952164Y-99132919D01*
X124930554Y-99144470D01*
X124911612Y-99160016D01*
X124896066Y-99178958D01*
X124884515Y-99200568D01*
X124882833Y-99204629D01*
X124835554Y-99275387D01*
X124775387Y-99335554D01*
X124704629Y-99382833D01*
X124700568Y-99384515D01*
X124678958Y-99396066D01*
X124660016Y-99411612D01*
X124644470Y-99430554D01*
X124632919Y-99452165D01*
X124625806Y-99475614D01*
X124623404Y-99500000D01*
X124376596Y-99500000D01*
X124374194Y-99475614D01*
X124367081Y-99452164D01*
X124355530Y-99430554D01*
X124339984Y-99411612D01*
X124321042Y-99396066D01*
X124299432Y-99384515D01*
X124295371Y-99382833D01*
X124224613Y-99335554D01*
X124164446Y-99275387D01*
X124117167Y-99204629D01*
X124115485Y-99200568D01*
X124103934Y-99178958D01*
X124088388Y-99160016D01*
X124069446Y-99144470D01*
X124047835Y-99132919D01*
X124024386Y-99125806D01*
X124000000Y-99123404D01*
X123975614Y-99125806D01*
X123952164Y-99132919D01*
X123930554Y-99144470D01*
X123911612Y-99160016D01*
X123896066Y-99178958D01*
X123884515Y-99200568D01*
X123882833Y-99204629D01*
X123835554Y-99275387D01*
X123775387Y-99335554D01*
X123704629Y-99382833D01*
X123700568Y-99384515D01*
X123678958Y-99396066D01*
X123660016Y-99411612D01*
X123644470Y-99430554D01*
X123632919Y-99452165D01*
X123625806Y-99475614D01*
X123623404Y-99500000D01*
X123376596Y-99500000D01*
X123374194Y-99475614D01*
X123367081Y-99452164D01*
X123355530Y-99430554D01*
X123339984Y-99411612D01*
X123321042Y-99396066D01*
X123299432Y-99384515D01*
X123295371Y-99382833D01*
X123224613Y-99335554D01*
X123164446Y-99275387D01*
X123117167Y-99204629D01*
X123115485Y-99200568D01*
X123103934Y-99178958D01*
X123088388Y-99160016D01*
X123069446Y-99144470D01*
X123047835Y-99132919D01*
X123024386Y-99125806D01*
X123000000Y-99123404D01*
X122975614Y-99125806D01*
X122952164Y-99132919D01*
X122930554Y-99144470D01*
X122911612Y-99160016D01*
X122896066Y-99178958D01*
X122884515Y-99200568D01*
X122882833Y-99204629D01*
X122835554Y-99275387D01*
X122775387Y-99335554D01*
X122704629Y-99382833D01*
X122700568Y-99384515D01*
X122678958Y-99396066D01*
X122660016Y-99411612D01*
X122644470Y-99430554D01*
X122632919Y-99452165D01*
X122625806Y-99475614D01*
X122623404Y-99500000D01*
X122376596Y-99500000D01*
X122374194Y-99475614D01*
X122367081Y-99452164D01*
X122355530Y-99430554D01*
X122339984Y-99411612D01*
X122321042Y-99396066D01*
X122299432Y-99384515D01*
X122295371Y-99382833D01*
X122224613Y-99335554D01*
X122164446Y-99275387D01*
X122117167Y-99204629D01*
X122115485Y-99200568D01*
X122103934Y-99178958D01*
X122088388Y-99160016D01*
X122069446Y-99144470D01*
X122047835Y-99132919D01*
X122024386Y-99125806D01*
X122000000Y-99123404D01*
X121975614Y-99125806D01*
X121952164Y-99132919D01*
X121930554Y-99144470D01*
X121911612Y-99160016D01*
X121896066Y-99178958D01*
X121884515Y-99200568D01*
X121882833Y-99204629D01*
X121835554Y-99275387D01*
X121775387Y-99335554D01*
X121704629Y-99382833D01*
X121700568Y-99384515D01*
X121678958Y-99396066D01*
X121660016Y-99411612D01*
X121644470Y-99430554D01*
X121632919Y-99452165D01*
X121625806Y-99475614D01*
X121623404Y-99500000D01*
X121376596Y-99500000D01*
X121374194Y-99475614D01*
X121367081Y-99452164D01*
X121355530Y-99430554D01*
X121339984Y-99411612D01*
X121321042Y-99396066D01*
X121299432Y-99384515D01*
X121295371Y-99382833D01*
X121224613Y-99335554D01*
X121164446Y-99275387D01*
X121117167Y-99204629D01*
X121098688Y-99160016D01*
X121084602Y-99126010D01*
X121084084Y-99123404D01*
X121068000Y-99042550D01*
X121068000Y-98957450D01*
X121084601Y-98873993D01*
X121092249Y-98855530D01*
X121117167Y-98795371D01*
X121164444Y-98724616D01*
X121164446Y-98724613D01*
X121224613Y-98664446D01*
X121295371Y-98617167D01*
X121373990Y-98584602D01*
X121373991Y-98584602D01*
X121373993Y-98584601D01*
X121457450Y-98568000D01*
X121542550Y-98568000D01*
X121626007Y-98584601D01*
X121626007Y-98584601D01*
G37*
G36*
X171626007Y-98584601D02*
X171626009Y-98584602D01*
X171626010Y-98584602D01*
X171704629Y-98617167D01*
X171775387Y-98664446D01*
X171835554Y-98724613D01*
X171882833Y-98795371D01*
X171884515Y-98799432D01*
X171896066Y-98821042D01*
X171911612Y-98839984D01*
X171930554Y-98855530D01*
X171952165Y-98867081D01*
X171975614Y-98874194D01*
X172000000Y-98876596D01*
X172024386Y-98874194D01*
X172047836Y-98867081D01*
X172069446Y-98855530D01*
X172088388Y-98839984D01*
X172103934Y-98821042D01*
X172115485Y-98799432D01*
X172117167Y-98795371D01*
X172164446Y-98724613D01*
X172224613Y-98664446D01*
X172295371Y-98617167D01*
X172373990Y-98584602D01*
X172373991Y-98584602D01*
X172373993Y-98584601D01*
X172457450Y-98568000D01*
X172542550Y-98568000D01*
X172626007Y-98584601D01*
X172626009Y-98584602D01*
X172626010Y-98584602D01*
X172704629Y-98617167D01*
X172775387Y-98664446D01*
X172835554Y-98724613D01*
X172882833Y-98795371D01*
X172884515Y-98799432D01*
X172896066Y-98821042D01*
X172911612Y-98839984D01*
X172930554Y-98855530D01*
X172952165Y-98867081D01*
X172975614Y-98874194D01*
X173000000Y-98876596D01*
X173024386Y-98874194D01*
X173047836Y-98867081D01*
X173069446Y-98855530D01*
X173088388Y-98839984D01*
X173103934Y-98821042D01*
X173115485Y-98799432D01*
X173117167Y-98795371D01*
X173164446Y-98724613D01*
X173224613Y-98664446D01*
X173295371Y-98617167D01*
X173373990Y-98584602D01*
X173373991Y-98584602D01*
X173373993Y-98584601D01*
X173457450Y-98568000D01*
X173542550Y-98568000D01*
X173626007Y-98584601D01*
X173626009Y-98584602D01*
X173626010Y-98584602D01*
X173704629Y-98617167D01*
X173775387Y-98664446D01*
X173835554Y-98724613D01*
X173882833Y-98795371D01*
X173884515Y-98799432D01*
X173896066Y-98821042D01*
X173911612Y-98839984D01*
X173930554Y-98855530D01*
X173952165Y-98867081D01*
X173975614Y-98874194D01*
X174000000Y-98876596D01*
X174024386Y-98874194D01*
X174047836Y-98867081D01*
X174069446Y-98855530D01*
X174088388Y-98839984D01*
X174103934Y-98821042D01*
X174115485Y-98799432D01*
X174117167Y-98795371D01*
X174164446Y-98724613D01*
X174224613Y-98664446D01*
X174295371Y-98617167D01*
X174373990Y-98584602D01*
X174373991Y-98584602D01*
X174373993Y-98584601D01*
X174457450Y-98568000D01*
X174542550Y-98568000D01*
X174626007Y-98584601D01*
X174626009Y-98584602D01*
X174626010Y-98584602D01*
X174704629Y-98617167D01*
X174775387Y-98664446D01*
X174835554Y-98724613D01*
X174882833Y-98795371D01*
X174884515Y-98799432D01*
X174896066Y-98821042D01*
X174911612Y-98839984D01*
X174930554Y-98855530D01*
X174952165Y-98867081D01*
X174975614Y-98874194D01*
X175000000Y-98876596D01*
X175024386Y-98874194D01*
X175047836Y-98867081D01*
X175069446Y-98855530D01*
X175088388Y-98839984D01*
X175103934Y-98821042D01*
X175115485Y-98799432D01*
X175117167Y-98795371D01*
X175164446Y-98724613D01*
X175224613Y-98664446D01*
X175295371Y-98617167D01*
X175373990Y-98584602D01*
X175373991Y-98584602D01*
X175373993Y-98584601D01*
X175457450Y-98568000D01*
X175542550Y-98568000D01*
X175626007Y-98584601D01*
X175626009Y-98584602D01*
X175626010Y-98584602D01*
X175704629Y-98617167D01*
X175775387Y-98664446D01*
X175835554Y-98724613D01*
X175882833Y-98795371D01*
X175884515Y-98799432D01*
X175896066Y-98821042D01*
X175911612Y-98839984D01*
X175930554Y-98855530D01*
X175952165Y-98867081D01*
X175975614Y-98874194D01*
X176000000Y-98876596D01*
X176024386Y-98874194D01*
X176047836Y-98867081D01*
X176069446Y-98855530D01*
X176088388Y-98839984D01*
X176103934Y-98821042D01*
X176115485Y-98799432D01*
X176117167Y-98795371D01*
X176164446Y-98724613D01*
X176224613Y-98664446D01*
X176295371Y-98617167D01*
X176373990Y-98584602D01*
X176373991Y-98584602D01*
X176373993Y-98584601D01*
X176457450Y-98568000D01*
X176542550Y-98568000D01*
X176626007Y-98584601D01*
X176626009Y-98584602D01*
X176626010Y-98584602D01*
X176704629Y-98617167D01*
X176775387Y-98664446D01*
X176835554Y-98724613D01*
X176882833Y-98795371D01*
X176884515Y-98799432D01*
X176896066Y-98821042D01*
X176911612Y-98839984D01*
X176930554Y-98855530D01*
X176952165Y-98867081D01*
X176975614Y-98874194D01*
X177000000Y-98876596D01*
X177024386Y-98874194D01*
X177047836Y-98867081D01*
X177069446Y-98855530D01*
X177088388Y-98839984D01*
X177103934Y-98821042D01*
X177115485Y-98799432D01*
X177117167Y-98795371D01*
X177164446Y-98724613D01*
X177224613Y-98664446D01*
X177295371Y-98617167D01*
X177373990Y-98584602D01*
X177373991Y-98584602D01*
X177373993Y-98584601D01*
X177457450Y-98568000D01*
X177542550Y-98568000D01*
X177626007Y-98584601D01*
X177626009Y-98584602D01*
X177626010Y-98584602D01*
X177704629Y-98617167D01*
X177775387Y-98664446D01*
X177835554Y-98724613D01*
X177882833Y-98795371D01*
X177884515Y-98799432D01*
X177896066Y-98821042D01*
X177911612Y-98839984D01*
X177930554Y-98855530D01*
X177952165Y-98867081D01*
X177975614Y-98874194D01*
X178000000Y-98876596D01*
X178024386Y-98874194D01*
X178047836Y-98867081D01*
X178069446Y-98855530D01*
X178088388Y-98839984D01*
X178103934Y-98821042D01*
X178115485Y-98799432D01*
X178117167Y-98795371D01*
X178164446Y-98724613D01*
X178224613Y-98664446D01*
X178295371Y-98617167D01*
X178373990Y-98584602D01*
X178373991Y-98584602D01*
X178373993Y-98584601D01*
X178457450Y-98568000D01*
X178542550Y-98568000D01*
X178626007Y-98584601D01*
X178626009Y-98584602D01*
X178626010Y-98584602D01*
X178704629Y-98617167D01*
X178775387Y-98664446D01*
X178835554Y-98724613D01*
X178835556Y-98724616D01*
X178882833Y-98795371D01*
X178907752Y-98855530D01*
X178915399Y-98873993D01*
X178932000Y-98957450D01*
X178932000Y-99042550D01*
X178915917Y-99123404D01*
X178915398Y-99126010D01*
X178901312Y-99160016D01*
X178882833Y-99204629D01*
X178835554Y-99275387D01*
X178775387Y-99335554D01*
X178704629Y-99382833D01*
X178700568Y-99384515D01*
X178678958Y-99396066D01*
X178660016Y-99411612D01*
X178644470Y-99430554D01*
X178632919Y-99452165D01*
X178625806Y-99475614D01*
X178623404Y-99500000D01*
X178625806Y-99524386D01*
X178632919Y-99547836D01*
X178644470Y-99569446D01*
X178660016Y-99588388D01*
X178678958Y-99603934D01*
X178700568Y-99615485D01*
X178704629Y-99617167D01*
X178775387Y-99664446D01*
X178835554Y-99724613D01*
X178835556Y-99724616D01*
X178882833Y-99795371D01*
X178907752Y-99855530D01*
X178915399Y-99873993D01*
X178932000Y-99957450D01*
X178932000Y-100042550D01*
X178915917Y-100123404D01*
X178915398Y-100126010D01*
X178901312Y-100160016D01*
X178882833Y-100204629D01*
X178835554Y-100275387D01*
X178775387Y-100335554D01*
X178775384Y-100335556D01*
X178704629Y-100382833D01*
X178626010Y-100415398D01*
X178626009Y-100415398D01*
X178626007Y-100415399D01*
X178542550Y-100432000D01*
X178457450Y-100432000D01*
X178373993Y-100415399D01*
X178373991Y-100415398D01*
X178373990Y-100415398D01*
X178295371Y-100382833D01*
X178224616Y-100335556D01*
X178224613Y-100335554D01*
X178164446Y-100275387D01*
X178117167Y-100204629D01*
X178115485Y-100200568D01*
X178103934Y-100178958D01*
X178088388Y-100160016D01*
X178069446Y-100144470D01*
X178047835Y-100132919D01*
X178024386Y-100125806D01*
X178000000Y-100123404D01*
X177975614Y-100125806D01*
X177952164Y-100132919D01*
X177930554Y-100144470D01*
X177911612Y-100160016D01*
X177896066Y-100178958D01*
X177884515Y-100200568D01*
X177882833Y-100204629D01*
X177835554Y-100275387D01*
X177775387Y-100335554D01*
X177775384Y-100335556D01*
X177704629Y-100382833D01*
X177626010Y-100415398D01*
X177626009Y-100415398D01*
X177626007Y-100415399D01*
X177542550Y-100432000D01*
X177457450Y-100432000D01*
X177373993Y-100415399D01*
X177373991Y-100415398D01*
X177373990Y-100415398D01*
X177295371Y-100382833D01*
X177224616Y-100335556D01*
X177224613Y-100335554D01*
X177164446Y-100275387D01*
X177117167Y-100204629D01*
X177115485Y-100200568D01*
X177103934Y-100178958D01*
X177088388Y-100160016D01*
X177069446Y-100144470D01*
X177047835Y-100132919D01*
X177024386Y-100125806D01*
X177000000Y-100123404D01*
X176975614Y-100125806D01*
X176952164Y-100132919D01*
X176930554Y-100144470D01*
X176911612Y-100160016D01*
X176896066Y-100178958D01*
X176884515Y-100200568D01*
X176882833Y-100204629D01*
X176835554Y-100275387D01*
X176775387Y-100335554D01*
X176775384Y-100335556D01*
X176704629Y-100382833D01*
X176626010Y-100415398D01*
X176626009Y-100415398D01*
X176626007Y-100415399D01*
X176542550Y-100432000D01*
X176457450Y-100432000D01*
X176373993Y-100415399D01*
X176373991Y-100415398D01*
X176373990Y-100415398D01*
X176295371Y-100382833D01*
X176224616Y-100335556D01*
X176224613Y-100335554D01*
X176164446Y-100275387D01*
X176117167Y-100204629D01*
X176115485Y-100200568D01*
X176103934Y-100178958D01*
X176088388Y-100160016D01*
X176069446Y-100144470D01*
X176047835Y-100132919D01*
X176024386Y-100125806D01*
X176000000Y-100123404D01*
X175975614Y-100125806D01*
X175952164Y-100132919D01*
X175930554Y-100144470D01*
X175911612Y-100160016D01*
X175896066Y-100178958D01*
X175884515Y-100200568D01*
X175882833Y-100204629D01*
X175835554Y-100275387D01*
X175775387Y-100335554D01*
X175775384Y-100335556D01*
X175704629Y-100382833D01*
X175626010Y-100415398D01*
X175626009Y-100415398D01*
X175626007Y-100415399D01*
X175542550Y-100432000D01*
X175457450Y-100432000D01*
X175373993Y-100415399D01*
X175373991Y-100415398D01*
X175373990Y-100415398D01*
X175295371Y-100382833D01*
X175224616Y-100335556D01*
X175224613Y-100335554D01*
X175164446Y-100275387D01*
X175117167Y-100204629D01*
X175115485Y-100200568D01*
X175103934Y-100178958D01*
X175088388Y-100160016D01*
X175069446Y-100144470D01*
X175047835Y-100132919D01*
X175024386Y-100125806D01*
X175000000Y-100123404D01*
X174975614Y-100125806D01*
X174952164Y-100132919D01*
X174930554Y-100144470D01*
X174911612Y-100160016D01*
X174896066Y-100178958D01*
X174884515Y-100200568D01*
X174882833Y-100204629D01*
X174835554Y-100275387D01*
X174775387Y-100335554D01*
X174775384Y-100335556D01*
X174704629Y-100382833D01*
X174626010Y-100415398D01*
X174626009Y-100415398D01*
X174626007Y-100415399D01*
X174542550Y-100432000D01*
X174457450Y-100432000D01*
X174373993Y-100415399D01*
X174373991Y-100415398D01*
X174373990Y-100415398D01*
X174295371Y-100382833D01*
X174224616Y-100335556D01*
X174224613Y-100335554D01*
X174164446Y-100275387D01*
X174117167Y-100204629D01*
X174115485Y-100200568D01*
X174103934Y-100178958D01*
X174088388Y-100160016D01*
X174069446Y-100144470D01*
X174047835Y-100132919D01*
X174024386Y-100125806D01*
X174000000Y-100123404D01*
X173975614Y-100125806D01*
X173952164Y-100132919D01*
X173930554Y-100144470D01*
X173911612Y-100160016D01*
X173896066Y-100178958D01*
X173884515Y-100200568D01*
X173882833Y-100204629D01*
X173835554Y-100275387D01*
X173775387Y-100335554D01*
X173775384Y-100335556D01*
X173704629Y-100382833D01*
X173626010Y-100415398D01*
X173626009Y-100415398D01*
X173626007Y-100415399D01*
X173542550Y-100432000D01*
X173457450Y-100432000D01*
X173373993Y-100415399D01*
X173373991Y-100415398D01*
X173373990Y-100415398D01*
X173295371Y-100382833D01*
X173224616Y-100335556D01*
X173224613Y-100335554D01*
X173164446Y-100275387D01*
X173117167Y-100204629D01*
X173115485Y-100200568D01*
X173103934Y-100178958D01*
X173088388Y-100160016D01*
X173069446Y-100144470D01*
X173047835Y-100132919D01*
X173024386Y-100125806D01*
X173000000Y-100123404D01*
X172975614Y-100125806D01*
X172952164Y-100132919D01*
X172930554Y-100144470D01*
X172911612Y-100160016D01*
X172896066Y-100178958D01*
X172884515Y-100200568D01*
X172882833Y-100204629D01*
X172835554Y-100275387D01*
X172775387Y-100335554D01*
X172775384Y-100335556D01*
X172704629Y-100382833D01*
X172626010Y-100415398D01*
X172626009Y-100415398D01*
X172626007Y-100415399D01*
X172542550Y-100432000D01*
X172457450Y-100432000D01*
X172373993Y-100415399D01*
X172373991Y-100415398D01*
X172373990Y-100415398D01*
X172295371Y-100382833D01*
X172224616Y-100335556D01*
X172224613Y-100335554D01*
X172164446Y-100275387D01*
X172117167Y-100204629D01*
X172115485Y-100200568D01*
X172103934Y-100178958D01*
X172088388Y-100160016D01*
X172069446Y-100144470D01*
X172047835Y-100132919D01*
X172024386Y-100125806D01*
X172000000Y-100123404D01*
X171975614Y-100125806D01*
X171952164Y-100132919D01*
X171930554Y-100144470D01*
X171911612Y-100160016D01*
X171896066Y-100178958D01*
X171884515Y-100200568D01*
X171882833Y-100204629D01*
X171835554Y-100275387D01*
X171775387Y-100335554D01*
X171775384Y-100335556D01*
X171704629Y-100382833D01*
X171626010Y-100415398D01*
X171626009Y-100415398D01*
X171626007Y-100415399D01*
X171542550Y-100432000D01*
X171457450Y-100432000D01*
X171373993Y-100415399D01*
X171373991Y-100415398D01*
X171373990Y-100415398D01*
X171295371Y-100382833D01*
X171224616Y-100335556D01*
X171224613Y-100335554D01*
X171164446Y-100275387D01*
X171117167Y-100204629D01*
X171098688Y-100160016D01*
X171084602Y-100126010D01*
X171084084Y-100123404D01*
X171068000Y-100042550D01*
X171068000Y-99957450D01*
X171084601Y-99873993D01*
X171092249Y-99855530D01*
X171117167Y-99795371D01*
X171164444Y-99724616D01*
X171164446Y-99724613D01*
X171224613Y-99664446D01*
X171295371Y-99617167D01*
X171299432Y-99615485D01*
X171321042Y-99603934D01*
X171339984Y-99588388D01*
X171355530Y-99569446D01*
X171367081Y-99547835D01*
X171374194Y-99524386D01*
X171376596Y-99500000D01*
X171623404Y-99500000D01*
X171625806Y-99524386D01*
X171632919Y-99547836D01*
X171644470Y-99569446D01*
X171660016Y-99588388D01*
X171678958Y-99603934D01*
X171700568Y-99615485D01*
X171704629Y-99617167D01*
X171775387Y-99664446D01*
X171835554Y-99724613D01*
X171882833Y-99795371D01*
X171884515Y-99799432D01*
X171896066Y-99821042D01*
X171911612Y-99839984D01*
X171930554Y-99855530D01*
X171952165Y-99867081D01*
X171975614Y-99874194D01*
X172000000Y-99876596D01*
X172024386Y-99874194D01*
X172047836Y-99867081D01*
X172069446Y-99855530D01*
X172088388Y-99839984D01*
X172103934Y-99821042D01*
X172115485Y-99799432D01*
X172117167Y-99795371D01*
X172164446Y-99724613D01*
X172224613Y-99664446D01*
X172295371Y-99617167D01*
X172299432Y-99615485D01*
X172321042Y-99603934D01*
X172339984Y-99588388D01*
X172355530Y-99569446D01*
X172367081Y-99547835D01*
X172374194Y-99524386D01*
X172376596Y-99500000D01*
X172623404Y-99500000D01*
X172625806Y-99524386D01*
X172632919Y-99547836D01*
X172644470Y-99569446D01*
X172660016Y-99588388D01*
X172678958Y-99603934D01*
X172700568Y-99615485D01*
X172704629Y-99617167D01*
X172775387Y-99664446D01*
X172835554Y-99724613D01*
X172882833Y-99795371D01*
X172884515Y-99799432D01*
X172896066Y-99821042D01*
X172911612Y-99839984D01*
X172930554Y-99855530D01*
X172952165Y-99867081D01*
X172975614Y-99874194D01*
X173000000Y-99876596D01*
X173024386Y-99874194D01*
X173047836Y-99867081D01*
X173069446Y-99855530D01*
X173088388Y-99839984D01*
X173103934Y-99821042D01*
X173115485Y-99799432D01*
X173117167Y-99795371D01*
X173164446Y-99724613D01*
X173224613Y-99664446D01*
X173295371Y-99617167D01*
X173299432Y-99615485D01*
X173321042Y-99603934D01*
X173339984Y-99588388D01*
X173355530Y-99569446D01*
X173367081Y-99547835D01*
X173374194Y-99524386D01*
X173376596Y-99500000D01*
X173623404Y-99500000D01*
X173625806Y-99524386D01*
X173632919Y-99547836D01*
X173644470Y-99569446D01*
X173660016Y-99588388D01*
X173678958Y-99603934D01*
X173700568Y-99615485D01*
X173704629Y-99617167D01*
X173775387Y-99664446D01*
X173835554Y-99724613D01*
X173882833Y-99795371D01*
X173884515Y-99799432D01*
X173896066Y-99821042D01*
X173911612Y-99839984D01*
X173930554Y-99855530D01*
X173952165Y-99867081D01*
X173975614Y-99874194D01*
X174000000Y-99876596D01*
X174024386Y-99874194D01*
X174047836Y-99867081D01*
X174069446Y-99855530D01*
X174088388Y-99839984D01*
X174103934Y-99821042D01*
X174115485Y-99799432D01*
X174117167Y-99795371D01*
X174164446Y-99724613D01*
X174224613Y-99664446D01*
X174295371Y-99617167D01*
X174299432Y-99615485D01*
X174321042Y-99603934D01*
X174339984Y-99588388D01*
X174355530Y-99569446D01*
X174367081Y-99547835D01*
X174374194Y-99524386D01*
X174376596Y-99500000D01*
X174623404Y-99500000D01*
X174625806Y-99524386D01*
X174632919Y-99547836D01*
X174644470Y-99569446D01*
X174660016Y-99588388D01*
X174678958Y-99603934D01*
X174700568Y-99615485D01*
X174704629Y-99617167D01*
X174775387Y-99664446D01*
X174835554Y-99724613D01*
X174882833Y-99795371D01*
X174884515Y-99799432D01*
X174896066Y-99821042D01*
X174911612Y-99839984D01*
X174930554Y-99855530D01*
X174952165Y-99867081D01*
X174975614Y-99874194D01*
X175000000Y-99876596D01*
X175024386Y-99874194D01*
X175047836Y-99867081D01*
X175069446Y-99855530D01*
X175088388Y-99839984D01*
X175103934Y-99821042D01*
X175115485Y-99799432D01*
X175117167Y-99795371D01*
X175164446Y-99724613D01*
X175224613Y-99664446D01*
X175295371Y-99617167D01*
X175299432Y-99615485D01*
X175321042Y-99603934D01*
X175339984Y-99588388D01*
X175355530Y-99569446D01*
X175367081Y-99547835D01*
X175374194Y-99524386D01*
X175376596Y-99500000D01*
X175623404Y-99500000D01*
X175625806Y-99524386D01*
X175632919Y-99547836D01*
X175644470Y-99569446D01*
X175660016Y-99588388D01*
X175678958Y-99603934D01*
X175700568Y-99615485D01*
X175704629Y-99617167D01*
X175775387Y-99664446D01*
X175835554Y-99724613D01*
X175882833Y-99795371D01*
X175884515Y-99799432D01*
X175896066Y-99821042D01*
X175911612Y-99839984D01*
X175930554Y-99855530D01*
X175952165Y-99867081D01*
X175975614Y-99874194D01*
X176000000Y-99876596D01*
X176024386Y-99874194D01*
X176047836Y-99867081D01*
X176069446Y-99855530D01*
X176088388Y-99839984D01*
X176103934Y-99821042D01*
X176115485Y-99799432D01*
X176117167Y-99795371D01*
X176164446Y-99724613D01*
X176224613Y-99664446D01*
X176295371Y-99617167D01*
X176299432Y-99615485D01*
X176321042Y-99603934D01*
X176339984Y-99588388D01*
X176355530Y-99569446D01*
X176367081Y-99547835D01*
X176374194Y-99524386D01*
X176376596Y-99500000D01*
X176623404Y-99500000D01*
X176625806Y-99524386D01*
X176632919Y-99547836D01*
X176644470Y-99569446D01*
X176660016Y-99588388D01*
X176678958Y-99603934D01*
X176700568Y-99615485D01*
X176704629Y-99617167D01*
X176775387Y-99664446D01*
X176835554Y-99724613D01*
X176882833Y-99795371D01*
X176884515Y-99799432D01*
X176896066Y-99821042D01*
X176911612Y-99839984D01*
X176930554Y-99855530D01*
X176952165Y-99867081D01*
X176975614Y-99874194D01*
X177000000Y-99876596D01*
X177024386Y-99874194D01*
X177047836Y-99867081D01*
X177069446Y-99855530D01*
X177088388Y-99839984D01*
X177103934Y-99821042D01*
X177115485Y-99799432D01*
X177117167Y-99795371D01*
X177164446Y-99724613D01*
X177224613Y-99664446D01*
X177295371Y-99617167D01*
X177299432Y-99615485D01*
X177321042Y-99603934D01*
X177339984Y-99588388D01*
X177355530Y-99569446D01*
X177367081Y-99547835D01*
X177374194Y-99524386D01*
X177376596Y-99500000D01*
X177623404Y-99500000D01*
X177625806Y-99524386D01*
X177632919Y-99547836D01*
X177644470Y-99569446D01*
X177660016Y-99588388D01*
X177678958Y-99603934D01*
X177700568Y-99615485D01*
X177704629Y-99617167D01*
X177775387Y-99664446D01*
X177835554Y-99724613D01*
X177882833Y-99795371D01*
X177884515Y-99799432D01*
X177896066Y-99821042D01*
X177911612Y-99839984D01*
X177930554Y-99855530D01*
X177952165Y-99867081D01*
X177975614Y-99874194D01*
X178000000Y-99876596D01*
X178024386Y-99874194D01*
X178047836Y-99867081D01*
X178069446Y-99855530D01*
X178088388Y-99839984D01*
X178103934Y-99821042D01*
X178115485Y-99799432D01*
X178117167Y-99795371D01*
X178164446Y-99724613D01*
X178224613Y-99664446D01*
X178295371Y-99617167D01*
X178299432Y-99615485D01*
X178321042Y-99603934D01*
X178339984Y-99588388D01*
X178355530Y-99569446D01*
X178367081Y-99547835D01*
X178374194Y-99524386D01*
X178376596Y-99500000D01*
X178374194Y-99475614D01*
X178367081Y-99452164D01*
X178355530Y-99430554D01*
X178339984Y-99411612D01*
X178321042Y-99396066D01*
X178299432Y-99384515D01*
X178295371Y-99382833D01*
X178224613Y-99335554D01*
X178164446Y-99275387D01*
X178117167Y-99204629D01*
X178115485Y-99200568D01*
X178103934Y-99178958D01*
X178088388Y-99160016D01*
X178069446Y-99144470D01*
X178047835Y-99132919D01*
X178024386Y-99125806D01*
X178000000Y-99123404D01*
X177975614Y-99125806D01*
X177952164Y-99132919D01*
X177930554Y-99144470D01*
X177911612Y-99160016D01*
X177896066Y-99178958D01*
X177884515Y-99200568D01*
X177882833Y-99204629D01*
X177835554Y-99275387D01*
X177775387Y-99335554D01*
X177704629Y-99382833D01*
X177700568Y-99384515D01*
X177678958Y-99396066D01*
X177660016Y-99411612D01*
X177644470Y-99430554D01*
X177632919Y-99452165D01*
X177625806Y-99475614D01*
X177623404Y-99500000D01*
X177376596Y-99500000D01*
X177374194Y-99475614D01*
X177367081Y-99452164D01*
X177355530Y-99430554D01*
X177339984Y-99411612D01*
X177321042Y-99396066D01*
X177299432Y-99384515D01*
X177295371Y-99382833D01*
X177224613Y-99335554D01*
X177164446Y-99275387D01*
X177117167Y-99204629D01*
X177115485Y-99200568D01*
X177103934Y-99178958D01*
X177088388Y-99160016D01*
X177069446Y-99144470D01*
X177047835Y-99132919D01*
X177024386Y-99125806D01*
X177000000Y-99123404D01*
X176975614Y-99125806D01*
X176952164Y-99132919D01*
X176930554Y-99144470D01*
X176911612Y-99160016D01*
X176896066Y-99178958D01*
X176884515Y-99200568D01*
X176882833Y-99204629D01*
X176835554Y-99275387D01*
X176775387Y-99335554D01*
X176704629Y-99382833D01*
X176700568Y-99384515D01*
X176678958Y-99396066D01*
X176660016Y-99411612D01*
X176644470Y-99430554D01*
X176632919Y-99452165D01*
X176625806Y-99475614D01*
X176623404Y-99500000D01*
X176376596Y-99500000D01*
X176374194Y-99475614D01*
X176367081Y-99452164D01*
X176355530Y-99430554D01*
X176339984Y-99411612D01*
X176321042Y-99396066D01*
X176299432Y-99384515D01*
X176295371Y-99382833D01*
X176224613Y-99335554D01*
X176164446Y-99275387D01*
X176117167Y-99204629D01*
X176115485Y-99200568D01*
X176103934Y-99178958D01*
X176088388Y-99160016D01*
X176069446Y-99144470D01*
X176047835Y-99132919D01*
X176024386Y-99125806D01*
X176000000Y-99123404D01*
X175975614Y-99125806D01*
X175952164Y-99132919D01*
X175930554Y-99144470D01*
X175911612Y-99160016D01*
X175896066Y-99178958D01*
X175884515Y-99200568D01*
X175882833Y-99204629D01*
X175835554Y-99275387D01*
X175775387Y-99335554D01*
X175704629Y-99382833D01*
X175700568Y-99384515D01*
X175678958Y-99396066D01*
X175660016Y-99411612D01*
X175644470Y-99430554D01*
X175632919Y-99452165D01*
X175625806Y-99475614D01*
X175623404Y-99500000D01*
X175376596Y-99500000D01*
X175374194Y-99475614D01*
X175367081Y-99452164D01*
X175355530Y-99430554D01*
X175339984Y-99411612D01*
X175321042Y-99396066D01*
X175299432Y-99384515D01*
X175295371Y-99382833D01*
X175224613Y-99335554D01*
X175164446Y-99275387D01*
X175117167Y-99204629D01*
X175115485Y-99200568D01*
X175103934Y-99178958D01*
X175088388Y-99160016D01*
X175069446Y-99144470D01*
X175047835Y-99132919D01*
X175024386Y-99125806D01*
X175000000Y-99123404D01*
X174975614Y-99125806D01*
X174952164Y-99132919D01*
X174930554Y-99144470D01*
X174911612Y-99160016D01*
X174896066Y-99178958D01*
X174884515Y-99200568D01*
X174882833Y-99204629D01*
X174835554Y-99275387D01*
X174775387Y-99335554D01*
X174704629Y-99382833D01*
X174700568Y-99384515D01*
X174678958Y-99396066D01*
X174660016Y-99411612D01*
X174644470Y-99430554D01*
X174632919Y-99452165D01*
X174625806Y-99475614D01*
X174623404Y-99500000D01*
X174376596Y-99500000D01*
X174374194Y-99475614D01*
X174367081Y-99452164D01*
X174355530Y-99430554D01*
X174339984Y-99411612D01*
X174321042Y-99396066D01*
X174299432Y-99384515D01*
X174295371Y-99382833D01*
X174224613Y-99335554D01*
X174164446Y-99275387D01*
X174117167Y-99204629D01*
X174115485Y-99200568D01*
X174103934Y-99178958D01*
X174088388Y-99160016D01*
X174069446Y-99144470D01*
X174047835Y-99132919D01*
X174024386Y-99125806D01*
X174000000Y-99123404D01*
X173975614Y-99125806D01*
X173952164Y-99132919D01*
X173930554Y-99144470D01*
X173911612Y-99160016D01*
X173896066Y-99178958D01*
X173884515Y-99200568D01*
X173882833Y-99204629D01*
X173835554Y-99275387D01*
X173775387Y-99335554D01*
X173704629Y-99382833D01*
X173700568Y-99384515D01*
X173678958Y-99396066D01*
X173660016Y-99411612D01*
X173644470Y-99430554D01*
X173632919Y-99452165D01*
X173625806Y-99475614D01*
X173623404Y-99500000D01*
X173376596Y-99500000D01*
X173374194Y-99475614D01*
X173367081Y-99452164D01*
X173355530Y-99430554D01*
X173339984Y-99411612D01*
X173321042Y-99396066D01*
X173299432Y-99384515D01*
X173295371Y-99382833D01*
X173224613Y-99335554D01*
X173164446Y-99275387D01*
X173117167Y-99204629D01*
X173115485Y-99200568D01*
X173103934Y-99178958D01*
X173088388Y-99160016D01*
X173069446Y-99144470D01*
X173047835Y-99132919D01*
X173024386Y-99125806D01*
X173000000Y-99123404D01*
X172975614Y-99125806D01*
X172952164Y-99132919D01*
X172930554Y-99144470D01*
X172911612Y-99160016D01*
X172896066Y-99178958D01*
X172884515Y-99200568D01*
X172882833Y-99204629D01*
X172835554Y-99275387D01*
X172775387Y-99335554D01*
X172704629Y-99382833D01*
X172700568Y-99384515D01*
X172678958Y-99396066D01*
X172660016Y-99411612D01*
X172644470Y-99430554D01*
X172632919Y-99452165D01*
X172625806Y-99475614D01*
X172623404Y-99500000D01*
X172376596Y-99500000D01*
X172374194Y-99475614D01*
X172367081Y-99452164D01*
X172355530Y-99430554D01*
X172339984Y-99411612D01*
X172321042Y-99396066D01*
X172299432Y-99384515D01*
X172295371Y-99382833D01*
X172224613Y-99335554D01*
X172164446Y-99275387D01*
X172117167Y-99204629D01*
X172115485Y-99200568D01*
X172103934Y-99178958D01*
X172088388Y-99160016D01*
X172069446Y-99144470D01*
X172047835Y-99132919D01*
X172024386Y-99125806D01*
X172000000Y-99123404D01*
X171975614Y-99125806D01*
X171952164Y-99132919D01*
X171930554Y-99144470D01*
X171911612Y-99160016D01*
X171896066Y-99178958D01*
X171884515Y-99200568D01*
X171882833Y-99204629D01*
X171835554Y-99275387D01*
X171775387Y-99335554D01*
X171704629Y-99382833D01*
X171700568Y-99384515D01*
X171678958Y-99396066D01*
X171660016Y-99411612D01*
X171644470Y-99430554D01*
X171632919Y-99452165D01*
X171625806Y-99475614D01*
X171623404Y-99500000D01*
X171376596Y-99500000D01*
X171374194Y-99475614D01*
X171367081Y-99452164D01*
X171355530Y-99430554D01*
X171339984Y-99411612D01*
X171321042Y-99396066D01*
X171299432Y-99384515D01*
X171295371Y-99382833D01*
X171224613Y-99335554D01*
X171164446Y-99275387D01*
X171117167Y-99204629D01*
X171098688Y-99160016D01*
X171084602Y-99126010D01*
X171084084Y-99123404D01*
X171068000Y-99042550D01*
X171068000Y-98957450D01*
X171084601Y-98873993D01*
X171092249Y-98855530D01*
X171117167Y-98795371D01*
X171164444Y-98724616D01*
X171164446Y-98724613D01*
X171224613Y-98664446D01*
X171295371Y-98617167D01*
X171373990Y-98584602D01*
X171373991Y-98584602D01*
X171373993Y-98584601D01*
X171457450Y-98568000D01*
X171542550Y-98568000D01*
X171626007Y-98584601D01*
X171626007Y-98584601D01*
G37*
G36*
X186525331Y-86268211D02*
X186853092Y-86403974D01*
X187148073Y-86601074D01*
X187398926Y-86851927D01*
X187596026Y-87146908D01*
X187731789Y-87474669D01*
X187801000Y-87822616D01*
X187801000Y-88177384D01*
X187731789Y-88525331D01*
X187596026Y-88853092D01*
X187398926Y-89148073D01*
X187148073Y-89398926D01*
X186853092Y-89596026D01*
X186525331Y-89731789D01*
X186177384Y-89801000D01*
X185822616Y-89801000D01*
X185474669Y-89731789D01*
X185146908Y-89596026D01*
X184851927Y-89398926D01*
X184601074Y-89148073D01*
X184403974Y-88853092D01*
X184268211Y-88525331D01*
X184199000Y-88177384D01*
X184199000Y-87822616D01*
X184268211Y-87474669D01*
X184403974Y-87146908D01*
X184601074Y-86851927D01*
X184851927Y-86601074D01*
X185146908Y-86403974D01*
X185474669Y-86268211D01*
X185822616Y-86199000D01*
X186177384Y-86199000D01*
X186525331Y-86268211D01*
X186525331Y-86268211D01*
G37*
G36*
X114525331Y-86268211D02*
X114853092Y-86403974D01*
X115148073Y-86601074D01*
X115398926Y-86851927D01*
X115596026Y-87146908D01*
X115731789Y-87474669D01*
X115801000Y-87822616D01*
X115801000Y-88177384D01*
X115731789Y-88525331D01*
X115596026Y-88853092D01*
X115398926Y-89148073D01*
X115148073Y-89398926D01*
X114853092Y-89596026D01*
X114525331Y-89731789D01*
X114177384Y-89801000D01*
X113822616Y-89801000D01*
X113474669Y-89731789D01*
X113146908Y-89596026D01*
X112851927Y-89398926D01*
X112601074Y-89148073D01*
X112403974Y-88853092D01*
X112268211Y-88525331D01*
X112199000Y-88177384D01*
X112199000Y-87822616D01*
X112268211Y-87474669D01*
X112403974Y-87146908D01*
X112601074Y-86851927D01*
X112851927Y-86601074D01*
X113146908Y-86403974D01*
X113474669Y-86268211D01*
X113822616Y-86199000D01*
X114177384Y-86199000D01*
X114525331Y-86268211D01*
X114525331Y-86268211D01*
G37*
G36*
X122575256Y-86391298D02*
X122681579Y-86412447D01*
X122982042Y-86536903D01*
X123078077Y-86601072D01*
X123252454Y-86717587D01*
X123482413Y-86947546D01*
X123663098Y-87217960D01*
X123787553Y-87518422D01*
X123851000Y-87837389D01*
X123851000Y-88162611D01*
X123787553Y-88481578D01*
X123663098Y-88782040D01*
X123482413Y-89052454D01*
X123252454Y-89282413D01*
X123252451Y-89282415D01*
X122982042Y-89463097D01*
X122681579Y-89587553D01*
X122638987Y-89596025D01*
X122362611Y-89651000D01*
X122037389Y-89651000D01*
X121761013Y-89596025D01*
X121718421Y-89587553D01*
X121417958Y-89463097D01*
X121147549Y-89282415D01*
X121147546Y-89282413D01*
X120917587Y-89052454D01*
X120736902Y-88782040D01*
X120612447Y-88481578D01*
X120549000Y-88162611D01*
X120549000Y-87837389D01*
X120612447Y-87518422D01*
X120736902Y-87217960D01*
X120917587Y-86947546D01*
X121147546Y-86717587D01*
X121321923Y-86601072D01*
X121417958Y-86536903D01*
X121718421Y-86412447D01*
X121824744Y-86391298D01*
X122037389Y-86349000D01*
X122362611Y-86349000D01*
X122575256Y-86391298D01*
X122575256Y-86391298D01*
G37*
G36*
X178175256Y-86391298D02*
X178281579Y-86412447D01*
X178582042Y-86536903D01*
X178678077Y-86601072D01*
X178852454Y-86717587D01*
X179082413Y-86947546D01*
X179263098Y-87217960D01*
X179387553Y-87518422D01*
X179451000Y-87837389D01*
X179451000Y-88162611D01*
X179387553Y-88481578D01*
X179263098Y-88782040D01*
X179082413Y-89052454D01*
X178852454Y-89282413D01*
X178852451Y-89282415D01*
X178582042Y-89463097D01*
X178281579Y-89587553D01*
X178238987Y-89596025D01*
X177962611Y-89651000D01*
X177637389Y-89651000D01*
X177361013Y-89596025D01*
X177318421Y-89587553D01*
X177017958Y-89463097D01*
X176747549Y-89282415D01*
X176747546Y-89282413D01*
X176517587Y-89052454D01*
X176336902Y-88782040D01*
X176212447Y-88481578D01*
X176149000Y-88162611D01*
X176149000Y-87837389D01*
X176212447Y-87518422D01*
X176336902Y-87217960D01*
X176517587Y-86947546D01*
X176747546Y-86717587D01*
X176921923Y-86601072D01*
X177017958Y-86536903D01*
X177318421Y-86412447D01*
X177424744Y-86391298D01*
X177637389Y-86349000D01*
X177962611Y-86349000D01*
X178175256Y-86391298D01*
X178175256Y-86391298D01*
G37*
G36*
X104082510Y-81722041D02*
X104206032Y-81734207D01*
X104404146Y-81794305D01*
X104586729Y-81891897D01*
X104746765Y-82023235D01*
X104878103Y-82183271D01*
X104975695Y-82365854D01*
X105035793Y-82563968D01*
X105056085Y-82770000D01*
X105035793Y-82976032D01*
X104975695Y-83174146D01*
X104878103Y-83356729D01*
X104746765Y-83516765D01*
X104586729Y-83648103D01*
X104404146Y-83745695D01*
X104206032Y-83805793D01*
X104082510Y-83817959D01*
X104051631Y-83821000D01*
X102948369Y-83821000D01*
X102917490Y-83817959D01*
X102793968Y-83805793D01*
X102595854Y-83745695D01*
X102413271Y-83648103D01*
X102253235Y-83516765D01*
X102121897Y-83356729D01*
X102024305Y-83174146D01*
X101964207Y-82976032D01*
X101943915Y-82770000D01*
X101964207Y-82563968D01*
X102024305Y-82365854D01*
X102121897Y-82183271D01*
X102253235Y-82023235D01*
X102413271Y-81891897D01*
X102595854Y-81794305D01*
X102793968Y-81734207D01*
X102917490Y-81722041D01*
X102948369Y-81719000D01*
X104051631Y-81719000D01*
X104082510Y-81722041D01*
X104082510Y-81722041D01*
G37*
G36*
X104082510Y-79182041D02*
X104206032Y-79194207D01*
X104404146Y-79254305D01*
X104586729Y-79351897D01*
X104746765Y-79483235D01*
X104878103Y-79643271D01*
X104975695Y-79825854D01*
X105035793Y-80023968D01*
X105056085Y-80230000D01*
X105035793Y-80436032D01*
X104975695Y-80634146D01*
X104878103Y-80816729D01*
X104746765Y-80976765D01*
X104586729Y-81108103D01*
X104404146Y-81205695D01*
X104206032Y-81265793D01*
X104082510Y-81277959D01*
X104051631Y-81281000D01*
X102948369Y-81281000D01*
X102917490Y-81277959D01*
X102793968Y-81265793D01*
X102595854Y-81205695D01*
X102413271Y-81108103D01*
X102253235Y-80976765D01*
X102121897Y-80816729D01*
X102024305Y-80634146D01*
X101964207Y-80436032D01*
X101943915Y-80230000D01*
X101964207Y-80023968D01*
X102024305Y-79825854D01*
X102121897Y-79643271D01*
X102253235Y-79483235D01*
X102413271Y-79351897D01*
X102595854Y-79254305D01*
X102793968Y-79194207D01*
X102917490Y-79182041D01*
X102948369Y-79179000D01*
X104051631Y-79179000D01*
X104082510Y-79182041D01*
X104082510Y-79182041D01*
G37*
G36*
X104260442Y-68555518D02*
X104326627Y-68562037D01*
X104439853Y-68596384D01*
X104496467Y-68613557D01*
X104635087Y-68687652D01*
X104652991Y-68697222D01*
X104688729Y-68726552D01*
X104790186Y-68809814D01*
X104873448Y-68911271D01*
X104902778Y-68947009D01*
X104902779Y-68947011D01*
X104986443Y-69103533D01*
X105005382Y-69165968D01*
X105014760Y-69188607D01*
X105028374Y-69208982D01*
X105045701Y-69226309D01*
X105066075Y-69239923D01*
X105088714Y-69249300D01*
X105112748Y-69254081D01*
X105137252Y-69254081D01*
X105161285Y-69249301D01*
X105183924Y-69239923D01*
X105204299Y-69226309D01*
X105221626Y-69208982D01*
X105235240Y-69188608D01*
X105244618Y-69165968D01*
X105263557Y-69103533D01*
X105347221Y-68947011D01*
X105347222Y-68947009D01*
X105376552Y-68911271D01*
X105459814Y-68809814D01*
X105561271Y-68726552D01*
X105597009Y-68697222D01*
X105614913Y-68687652D01*
X105753533Y-68613557D01*
X105810147Y-68596384D01*
X105923373Y-68562037D01*
X105989558Y-68555518D01*
X106055740Y-68549000D01*
X106944260Y-68549000D01*
X107010442Y-68555518D01*
X107076627Y-68562037D01*
X107189853Y-68596384D01*
X107246467Y-68613557D01*
X107385087Y-68687652D01*
X107402991Y-68697222D01*
X107438729Y-68726552D01*
X107540186Y-68809814D01*
X107623448Y-68911271D01*
X107652778Y-68947009D01*
X107652779Y-68947011D01*
X107736443Y-69103533D01*
X107736443Y-69103534D01*
X107787963Y-69273373D01*
X107805359Y-69450000D01*
X107787963Y-69626627D01*
X107755382Y-69734032D01*
X107736443Y-69796467D01*
X107662348Y-69935087D01*
X107652778Y-69952991D01*
X107623448Y-69988729D01*
X107540186Y-70090186D01*
X107438729Y-70173448D01*
X107402991Y-70202778D01*
X107402989Y-70202779D01*
X107246467Y-70286443D01*
X107189853Y-70303616D01*
X107076627Y-70337963D01*
X107010442Y-70344482D01*
X106944260Y-70351000D01*
X106055740Y-70351000D01*
X105989558Y-70344482D01*
X105923373Y-70337963D01*
X105810147Y-70303616D01*
X105753533Y-70286443D01*
X105597011Y-70202779D01*
X105597009Y-70202778D01*
X105561271Y-70173448D01*
X105459814Y-70090186D01*
X105376552Y-69988729D01*
X105347222Y-69952991D01*
X105337652Y-69935087D01*
X105263557Y-69796467D01*
X105244618Y-69734032D01*
X105235240Y-69711393D01*
X105221626Y-69691018D01*
X105204299Y-69673691D01*
X105183925Y-69660077D01*
X105161286Y-69650700D01*
X105137252Y-69645919D01*
X105112748Y-69645919D01*
X105088715Y-69650699D01*
X105066076Y-69660077D01*
X105045701Y-69673691D01*
X105028374Y-69691018D01*
X105014760Y-69711392D01*
X105005382Y-69734032D01*
X104986443Y-69796467D01*
X104912348Y-69935087D01*
X104902778Y-69952991D01*
X104873448Y-69988729D01*
X104790186Y-70090186D01*
X104688729Y-70173448D01*
X104652991Y-70202778D01*
X104652989Y-70202779D01*
X104496467Y-70286443D01*
X104439853Y-70303616D01*
X104326627Y-70337963D01*
X104260442Y-70344482D01*
X104194260Y-70351000D01*
X103305740Y-70351000D01*
X103239558Y-70344482D01*
X103173373Y-70337963D01*
X103060147Y-70303616D01*
X103003533Y-70286443D01*
X102847011Y-70202779D01*
X102847009Y-70202778D01*
X102811271Y-70173448D01*
X102709814Y-70090186D01*
X102626552Y-69988729D01*
X102597222Y-69952991D01*
X102587652Y-69935087D01*
X102513557Y-69796467D01*
X102494618Y-69734032D01*
X102462037Y-69626627D01*
X102444641Y-69450000D01*
X102462037Y-69273373D01*
X102513557Y-69103534D01*
X102513557Y-69103533D01*
X102597221Y-68947011D01*
X102597222Y-68947009D01*
X102626552Y-68911271D01*
X102709814Y-68809814D01*
X102811271Y-68726552D01*
X102847009Y-68697222D01*
X102864913Y-68687652D01*
X103003533Y-68613557D01*
X103060147Y-68596384D01*
X103173373Y-68562037D01*
X103239558Y-68555518D01*
X103305740Y-68549000D01*
X104194260Y-68549000D01*
X104260442Y-68555518D01*
X104260442Y-68555518D01*
G37*
G36*
X104260443Y-66455519D02*
X104326627Y-66462037D01*
X104439853Y-66496384D01*
X104496467Y-66513557D01*
X104635087Y-66587652D01*
X104652991Y-66597222D01*
X104688729Y-66626552D01*
X104790186Y-66709814D01*
X104873448Y-66811271D01*
X104902778Y-66847009D01*
X104902779Y-66847011D01*
X104986443Y-67003533D01*
X105005382Y-67065968D01*
X105014760Y-67088607D01*
X105028374Y-67108982D01*
X105045701Y-67126309D01*
X105066075Y-67139923D01*
X105088714Y-67149300D01*
X105112748Y-67154081D01*
X105137252Y-67154081D01*
X105161285Y-67149301D01*
X105183924Y-67139923D01*
X105204299Y-67126309D01*
X105221626Y-67108982D01*
X105235240Y-67088608D01*
X105244618Y-67065968D01*
X105263557Y-67003533D01*
X105347221Y-66847011D01*
X105347222Y-66847009D01*
X105376552Y-66811271D01*
X105459814Y-66709814D01*
X105561271Y-66626552D01*
X105597009Y-66597222D01*
X105614913Y-66587652D01*
X105753533Y-66513557D01*
X105810147Y-66496384D01*
X105923373Y-66462037D01*
X105989557Y-66455519D01*
X106055740Y-66449000D01*
X106944260Y-66449000D01*
X107010443Y-66455519D01*
X107076627Y-66462037D01*
X107189853Y-66496384D01*
X107246467Y-66513557D01*
X107385087Y-66587652D01*
X107402991Y-66597222D01*
X107438729Y-66626552D01*
X107540186Y-66709814D01*
X107623448Y-66811271D01*
X107652778Y-66847009D01*
X107652779Y-66847011D01*
X107736443Y-67003533D01*
X107736443Y-67003534D01*
X107787963Y-67173373D01*
X107805359Y-67350000D01*
X107787963Y-67526627D01*
X107755382Y-67634032D01*
X107736443Y-67696467D01*
X107662348Y-67835087D01*
X107652778Y-67852991D01*
X107623448Y-67888729D01*
X107540186Y-67990186D01*
X107438729Y-68073448D01*
X107402991Y-68102778D01*
X107402989Y-68102779D01*
X107246467Y-68186443D01*
X107189853Y-68203616D01*
X107076627Y-68237963D01*
X107010442Y-68244482D01*
X106944260Y-68251000D01*
X106055740Y-68251000D01*
X105989558Y-68244482D01*
X105923373Y-68237963D01*
X105810147Y-68203616D01*
X105753533Y-68186443D01*
X105597011Y-68102779D01*
X105597009Y-68102778D01*
X105561271Y-68073448D01*
X105459814Y-67990186D01*
X105376552Y-67888729D01*
X105347222Y-67852991D01*
X105337652Y-67835087D01*
X105263557Y-67696467D01*
X105244618Y-67634032D01*
X105235240Y-67611393D01*
X105221626Y-67591018D01*
X105204299Y-67573691D01*
X105183925Y-67560077D01*
X105161286Y-67550700D01*
X105137252Y-67545919D01*
X105112748Y-67545919D01*
X105088715Y-67550699D01*
X105066076Y-67560077D01*
X105045701Y-67573691D01*
X105028374Y-67591018D01*
X105014760Y-67611392D01*
X105005382Y-67634032D01*
X104986443Y-67696467D01*
X104912348Y-67835087D01*
X104902778Y-67852991D01*
X104873448Y-67888729D01*
X104790186Y-67990186D01*
X104688729Y-68073448D01*
X104652991Y-68102778D01*
X104652989Y-68102779D01*
X104496467Y-68186443D01*
X104439853Y-68203616D01*
X104326627Y-68237963D01*
X104260442Y-68244482D01*
X104194260Y-68251000D01*
X103305740Y-68251000D01*
X103239558Y-68244482D01*
X103173373Y-68237963D01*
X103060147Y-68203616D01*
X103003533Y-68186443D01*
X102847011Y-68102779D01*
X102847009Y-68102778D01*
X102811271Y-68073448D01*
X102709814Y-67990186D01*
X102626552Y-67888729D01*
X102597222Y-67852991D01*
X102587652Y-67835087D01*
X102513557Y-67696467D01*
X102494618Y-67634032D01*
X102462037Y-67526627D01*
X102444641Y-67350000D01*
X102462037Y-67173373D01*
X102513557Y-67003534D01*
X102513557Y-67003533D01*
X102597221Y-66847011D01*
X102597222Y-66847009D01*
X102626552Y-66811271D01*
X102709814Y-66709814D01*
X102811271Y-66626552D01*
X102847009Y-66597222D01*
X102864913Y-66587652D01*
X103003533Y-66513557D01*
X103060147Y-66496384D01*
X103173373Y-66462037D01*
X103239557Y-66455519D01*
X103305740Y-66449000D01*
X104194260Y-66449000D01*
X104260443Y-66455519D01*
X104260443Y-66455519D01*
G37*
G36*
X104260442Y-64355518D02*
X104326627Y-64362037D01*
X104439853Y-64396384D01*
X104496467Y-64413557D01*
X104635087Y-64487652D01*
X104652991Y-64497222D01*
X104688729Y-64526552D01*
X104790186Y-64609814D01*
X104873448Y-64711271D01*
X104902778Y-64747009D01*
X104902779Y-64747011D01*
X104986443Y-64903533D01*
X105005382Y-64965968D01*
X105014760Y-64988607D01*
X105028374Y-65008982D01*
X105045701Y-65026309D01*
X105066075Y-65039923D01*
X105088714Y-65049300D01*
X105112748Y-65054081D01*
X105137252Y-65054081D01*
X105161285Y-65049301D01*
X105183924Y-65039923D01*
X105204299Y-65026309D01*
X105221626Y-65008982D01*
X105235240Y-64988608D01*
X105244618Y-64965968D01*
X105263557Y-64903533D01*
X105347221Y-64747011D01*
X105347222Y-64747009D01*
X105376552Y-64711271D01*
X105459814Y-64609814D01*
X105561271Y-64526552D01*
X105597009Y-64497222D01*
X105614913Y-64487652D01*
X105753533Y-64413557D01*
X105810147Y-64396384D01*
X105923373Y-64362037D01*
X105989558Y-64355518D01*
X106055740Y-64349000D01*
X106944260Y-64349000D01*
X107010442Y-64355518D01*
X107076627Y-64362037D01*
X107189853Y-64396384D01*
X107246467Y-64413557D01*
X107385087Y-64487652D01*
X107402991Y-64497222D01*
X107438729Y-64526552D01*
X107540186Y-64609814D01*
X107623448Y-64711271D01*
X107652778Y-64747009D01*
X107652779Y-64747011D01*
X107736443Y-64903533D01*
X107736443Y-64903534D01*
X107787963Y-65073373D01*
X107805359Y-65250000D01*
X107787963Y-65426627D01*
X107755382Y-65534032D01*
X107736443Y-65596467D01*
X107662348Y-65735087D01*
X107652778Y-65752991D01*
X107623448Y-65788729D01*
X107540186Y-65890186D01*
X107438729Y-65973448D01*
X107402991Y-66002778D01*
X107402989Y-66002779D01*
X107246467Y-66086443D01*
X107189853Y-66103616D01*
X107076627Y-66137963D01*
X107010443Y-66144481D01*
X106944260Y-66151000D01*
X106055740Y-66151000D01*
X105989557Y-66144481D01*
X105923373Y-66137963D01*
X105810147Y-66103616D01*
X105753533Y-66086443D01*
X105597011Y-66002779D01*
X105597009Y-66002778D01*
X105561271Y-65973448D01*
X105459814Y-65890186D01*
X105376552Y-65788729D01*
X105347222Y-65752991D01*
X105337652Y-65735087D01*
X105263557Y-65596467D01*
X105244618Y-65534032D01*
X105235240Y-65511393D01*
X105221626Y-65491018D01*
X105204299Y-65473691D01*
X105183925Y-65460077D01*
X105161286Y-65450700D01*
X105137252Y-65445919D01*
X105112748Y-65445919D01*
X105088715Y-65450699D01*
X105066076Y-65460077D01*
X105045701Y-65473691D01*
X105028374Y-65491018D01*
X105014760Y-65511392D01*
X105005382Y-65534032D01*
X104986443Y-65596467D01*
X104912348Y-65735087D01*
X104902778Y-65752991D01*
X104873448Y-65788729D01*
X104790186Y-65890186D01*
X104688729Y-65973448D01*
X104652991Y-66002778D01*
X104652989Y-66002779D01*
X104496467Y-66086443D01*
X104439853Y-66103616D01*
X104326627Y-66137963D01*
X104260443Y-66144481D01*
X104194260Y-66151000D01*
X103305740Y-66151000D01*
X103239557Y-66144481D01*
X103173373Y-66137963D01*
X103060147Y-66103616D01*
X103003533Y-66086443D01*
X102847011Y-66002779D01*
X102847009Y-66002778D01*
X102811271Y-65973448D01*
X102709814Y-65890186D01*
X102626552Y-65788729D01*
X102597222Y-65752991D01*
X102587652Y-65735087D01*
X102513557Y-65596467D01*
X102494618Y-65534032D01*
X102462037Y-65426627D01*
X102444641Y-65250000D01*
X102462037Y-65073373D01*
X102513557Y-64903534D01*
X102513557Y-64903533D01*
X102597221Y-64747011D01*
X102597222Y-64747009D01*
X102626552Y-64711271D01*
X102709814Y-64609814D01*
X102811271Y-64526552D01*
X102847009Y-64497222D01*
X102864913Y-64487652D01*
X103003533Y-64413557D01*
X103060147Y-64396384D01*
X103173373Y-64362037D01*
X103239558Y-64355518D01*
X103305740Y-64349000D01*
X104194260Y-64349000D01*
X104260442Y-64355518D01*
X104260442Y-64355518D01*
G37*
G36*
X104260443Y-62255519D02*
X104326627Y-62262037D01*
X104439853Y-62296384D01*
X104496467Y-62313557D01*
X104635087Y-62387652D01*
X104652991Y-62397222D01*
X104688729Y-62426552D01*
X104790186Y-62509814D01*
X104873448Y-62611271D01*
X104902778Y-62647009D01*
X104902779Y-62647011D01*
X104986443Y-62803533D01*
X105005382Y-62865968D01*
X105014760Y-62888607D01*
X105028374Y-62908982D01*
X105045701Y-62926309D01*
X105066075Y-62939923D01*
X105088714Y-62949300D01*
X105112748Y-62954081D01*
X105137252Y-62954081D01*
X105161285Y-62949301D01*
X105183924Y-62939923D01*
X105204299Y-62926309D01*
X105221626Y-62908982D01*
X105235240Y-62888608D01*
X105244618Y-62865968D01*
X105263557Y-62803533D01*
X105347221Y-62647011D01*
X105347222Y-62647009D01*
X105376552Y-62611271D01*
X105459814Y-62509814D01*
X105561271Y-62426552D01*
X105597009Y-62397222D01*
X105614913Y-62387652D01*
X105753533Y-62313557D01*
X105810147Y-62296384D01*
X105923373Y-62262037D01*
X105989557Y-62255519D01*
X106055740Y-62249000D01*
X106944260Y-62249000D01*
X107010443Y-62255519D01*
X107076627Y-62262037D01*
X107189853Y-62296384D01*
X107246467Y-62313557D01*
X107385087Y-62387652D01*
X107402991Y-62397222D01*
X107438729Y-62426552D01*
X107540186Y-62509814D01*
X107623448Y-62611271D01*
X107652778Y-62647009D01*
X107652779Y-62647011D01*
X107736443Y-62803533D01*
X107736443Y-62803534D01*
X107787963Y-62973373D01*
X107805359Y-63150000D01*
X107787963Y-63326627D01*
X107755382Y-63434032D01*
X107736443Y-63496467D01*
X107662348Y-63635087D01*
X107652778Y-63652991D01*
X107623448Y-63688729D01*
X107540186Y-63790186D01*
X107438729Y-63873448D01*
X107402991Y-63902778D01*
X107402989Y-63902779D01*
X107246467Y-63986443D01*
X107189853Y-64003616D01*
X107076627Y-64037963D01*
X107010443Y-64044481D01*
X106944260Y-64051000D01*
X106055740Y-64051000D01*
X105989557Y-64044481D01*
X105923373Y-64037963D01*
X105810147Y-64003616D01*
X105753533Y-63986443D01*
X105597011Y-63902779D01*
X105597009Y-63902778D01*
X105561271Y-63873448D01*
X105459814Y-63790186D01*
X105376552Y-63688729D01*
X105347222Y-63652991D01*
X105337652Y-63635087D01*
X105263557Y-63496467D01*
X105244618Y-63434032D01*
X105235240Y-63411393D01*
X105221626Y-63391018D01*
X105204299Y-63373691D01*
X105183925Y-63360077D01*
X105161286Y-63350700D01*
X105137252Y-63345919D01*
X105112748Y-63345919D01*
X105088715Y-63350699D01*
X105066076Y-63360077D01*
X105045701Y-63373691D01*
X105028374Y-63391018D01*
X105014760Y-63411392D01*
X105005382Y-63434032D01*
X104986443Y-63496467D01*
X104912348Y-63635087D01*
X104902778Y-63652991D01*
X104873448Y-63688729D01*
X104790186Y-63790186D01*
X104688729Y-63873448D01*
X104652991Y-63902778D01*
X104652989Y-63902779D01*
X104496467Y-63986443D01*
X104439853Y-64003616D01*
X104326627Y-64037963D01*
X104260443Y-64044481D01*
X104194260Y-64051000D01*
X103305740Y-64051000D01*
X103239557Y-64044481D01*
X103173373Y-64037963D01*
X103060147Y-64003616D01*
X103003533Y-63986443D01*
X102847011Y-63902779D01*
X102847009Y-63902778D01*
X102811271Y-63873448D01*
X102709814Y-63790186D01*
X102626552Y-63688729D01*
X102597222Y-63652991D01*
X102587652Y-63635087D01*
X102513557Y-63496467D01*
X102494618Y-63434032D01*
X102462037Y-63326627D01*
X102444641Y-63150000D01*
X102462037Y-62973373D01*
X102513557Y-62803534D01*
X102513557Y-62803533D01*
X102597221Y-62647011D01*
X102597222Y-62647009D01*
X102626552Y-62611271D01*
X102709814Y-62509814D01*
X102811271Y-62426552D01*
X102847009Y-62397222D01*
X102864913Y-62387652D01*
X103003533Y-62313557D01*
X103060147Y-62296384D01*
X103173373Y-62262037D01*
X103239557Y-62255519D01*
X103305740Y-62249000D01*
X104194260Y-62249000D01*
X104260443Y-62255519D01*
X104260443Y-62255519D01*
G37*
G36*
X104260443Y-60155519D02*
X104326627Y-60162037D01*
X104439853Y-60196384D01*
X104496467Y-60213557D01*
X104635087Y-60287652D01*
X104652991Y-60297222D01*
X104688729Y-60326552D01*
X104790186Y-60409814D01*
X104849080Y-60481578D01*
X104902778Y-60547009D01*
X104902779Y-60547011D01*
X104986443Y-60703533D01*
X105005382Y-60765968D01*
X105014760Y-60788607D01*
X105028374Y-60808982D01*
X105045701Y-60826309D01*
X105066075Y-60839923D01*
X105088714Y-60849300D01*
X105112748Y-60854081D01*
X105137252Y-60854081D01*
X105161285Y-60849301D01*
X105183924Y-60839923D01*
X105204299Y-60826309D01*
X105221626Y-60808982D01*
X105235240Y-60788608D01*
X105244618Y-60765968D01*
X105263557Y-60703533D01*
X105347221Y-60547011D01*
X105347222Y-60547009D01*
X105400920Y-60481578D01*
X105459814Y-60409814D01*
X105561271Y-60326552D01*
X105597009Y-60297222D01*
X105614913Y-60287652D01*
X105753533Y-60213557D01*
X105810147Y-60196384D01*
X105923373Y-60162037D01*
X105989557Y-60155519D01*
X106055740Y-60149000D01*
X106944260Y-60149000D01*
X107010443Y-60155519D01*
X107076627Y-60162037D01*
X107189853Y-60196384D01*
X107246467Y-60213557D01*
X107385087Y-60287652D01*
X107402991Y-60297222D01*
X107438729Y-60326552D01*
X107540186Y-60409814D01*
X107599080Y-60481578D01*
X107652778Y-60547009D01*
X107652779Y-60547011D01*
X107736443Y-60703533D01*
X107736443Y-60703534D01*
X107787963Y-60873373D01*
X107805359Y-61050000D01*
X107787963Y-61226627D01*
X107755382Y-61334032D01*
X107736443Y-61396467D01*
X107700828Y-61463097D01*
X107652778Y-61552991D01*
X107624413Y-61587553D01*
X107540186Y-61690186D01*
X107438729Y-61773448D01*
X107402991Y-61802778D01*
X107402989Y-61802779D01*
X107246467Y-61886443D01*
X107189853Y-61903616D01*
X107076627Y-61937963D01*
X107010442Y-61944482D01*
X106944260Y-61951000D01*
X106055740Y-61951000D01*
X105989558Y-61944482D01*
X105923373Y-61937963D01*
X105810147Y-61903616D01*
X105753533Y-61886443D01*
X105597011Y-61802779D01*
X105597009Y-61802778D01*
X105561271Y-61773448D01*
X105459814Y-61690186D01*
X105375587Y-61587553D01*
X105347222Y-61552991D01*
X105299172Y-61463097D01*
X105263557Y-61396467D01*
X105244618Y-61334032D01*
X105235240Y-61311393D01*
X105221626Y-61291018D01*
X105204299Y-61273691D01*
X105183925Y-61260077D01*
X105161286Y-61250700D01*
X105137252Y-61245919D01*
X105112748Y-61245919D01*
X105088715Y-61250699D01*
X105066076Y-61260077D01*
X105045701Y-61273691D01*
X105028374Y-61291018D01*
X105014760Y-61311392D01*
X105005382Y-61334032D01*
X104986443Y-61396467D01*
X104950828Y-61463097D01*
X104902778Y-61552991D01*
X104874413Y-61587553D01*
X104790186Y-61690186D01*
X104688729Y-61773448D01*
X104652991Y-61802778D01*
X104652989Y-61802779D01*
X104496467Y-61886443D01*
X104439853Y-61903616D01*
X104326627Y-61937963D01*
X104260442Y-61944482D01*
X104194260Y-61951000D01*
X103305740Y-61951000D01*
X103239558Y-61944482D01*
X103173373Y-61937963D01*
X103060147Y-61903616D01*
X103003533Y-61886443D01*
X102847011Y-61802779D01*
X102847009Y-61802778D01*
X102811271Y-61773448D01*
X102709814Y-61690186D01*
X102625587Y-61587553D01*
X102597222Y-61552991D01*
X102549172Y-61463097D01*
X102513557Y-61396467D01*
X102494618Y-61334032D01*
X102462037Y-61226627D01*
X102444641Y-61050000D01*
X102462037Y-60873373D01*
X102513557Y-60703534D01*
X102513557Y-60703533D01*
X102597221Y-60547011D01*
X102597222Y-60547009D01*
X102650920Y-60481578D01*
X102709814Y-60409814D01*
X102811271Y-60326552D01*
X102847009Y-60297222D01*
X102864913Y-60287652D01*
X103003533Y-60213557D01*
X103060147Y-60196384D01*
X103173373Y-60162037D01*
X103239557Y-60155519D01*
X103305740Y-60149000D01*
X104194260Y-60149000D01*
X104260443Y-60155519D01*
X104260443Y-60155519D01*
G37*
G36*
X186525331Y-58268211D02*
X186853092Y-58403974D01*
X187148073Y-58601074D01*
X187398926Y-58851927D01*
X187596026Y-59146908D01*
X187731789Y-59474669D01*
X187801000Y-59822616D01*
X187801000Y-60177384D01*
X187731789Y-60525331D01*
X187596026Y-60853092D01*
X187398926Y-61148073D01*
X187148073Y-61398926D01*
X186853092Y-61596026D01*
X186525331Y-61731789D01*
X186177384Y-61801000D01*
X185822616Y-61801000D01*
X185474669Y-61731789D01*
X185146908Y-61596026D01*
X184851927Y-61398926D01*
X184601074Y-61148073D01*
X184403974Y-60853092D01*
X184268211Y-60525331D01*
X184199000Y-60177384D01*
X184199000Y-59822616D01*
X184268211Y-59474669D01*
X184403974Y-59146908D01*
X184601074Y-58851927D01*
X184851927Y-58601074D01*
X185146908Y-58403974D01*
X185474669Y-58268211D01*
X185822616Y-58199000D01*
X186177384Y-58199000D01*
X186525331Y-58268211D01*
X186525331Y-58268211D01*
G37*
G36*
X114525331Y-58268211D02*
X114853092Y-58403974D01*
X115148073Y-58601074D01*
X115398926Y-58851927D01*
X115596026Y-59146908D01*
X115731789Y-59474669D01*
X115801000Y-59822616D01*
X115801000Y-60177384D01*
X115731789Y-60525331D01*
X115596026Y-60853092D01*
X115398926Y-61148073D01*
X115148073Y-61398926D01*
X114853092Y-61596026D01*
X114525331Y-61731789D01*
X114177384Y-61801000D01*
X113822616Y-61801000D01*
X113474669Y-61731789D01*
X113146908Y-61596026D01*
X112851927Y-61398926D01*
X112601074Y-61148073D01*
X112403974Y-60853092D01*
X112268211Y-60525331D01*
X112199000Y-60177384D01*
X112199000Y-59822616D01*
X112268211Y-59474669D01*
X112403974Y-59146908D01*
X112601074Y-58851927D01*
X112851927Y-58601074D01*
X113146908Y-58403974D01*
X113474669Y-58268211D01*
X113822616Y-58199000D01*
X114177384Y-58199000D01*
X114525331Y-58268211D01*
X114525331Y-58268211D01*
G37*
G36*
X178175256Y-58391298D02*
X178281579Y-58412447D01*
X178582042Y-58536903D01*
X178678077Y-58601072D01*
X178852454Y-58717587D01*
X179082413Y-58947546D01*
X179263098Y-59217960D01*
X179387553Y-59518422D01*
X179451000Y-59837389D01*
X179451000Y-60162611D01*
X179448061Y-60177384D01*
X179387553Y-60481579D01*
X179263097Y-60782042D01*
X179218156Y-60849301D01*
X179082413Y-61052454D01*
X178852454Y-61282413D01*
X178852451Y-61282415D01*
X178582042Y-61463097D01*
X178281579Y-61587553D01*
X178238987Y-61596025D01*
X177962611Y-61651000D01*
X177637389Y-61651000D01*
X177361013Y-61596025D01*
X177318421Y-61587553D01*
X177017958Y-61463097D01*
X176747549Y-61282415D01*
X176747546Y-61282413D01*
X176517587Y-61052454D01*
X176381844Y-60849301D01*
X176336903Y-60782042D01*
X176212447Y-60481579D01*
X176151939Y-60177384D01*
X176149000Y-60162611D01*
X176149000Y-59837389D01*
X176212447Y-59518422D01*
X176336902Y-59217960D01*
X176517587Y-58947546D01*
X176747546Y-58717587D01*
X176921923Y-58601072D01*
X177017958Y-58536903D01*
X177318421Y-58412447D01*
X177424744Y-58391298D01*
X177637389Y-58349000D01*
X177962611Y-58349000D01*
X178175256Y-58391298D01*
X178175256Y-58391298D01*
G37*
G36*
X122575256Y-58391298D02*
X122681579Y-58412447D01*
X122982042Y-58536903D01*
X123078077Y-58601072D01*
X123252454Y-58717587D01*
X123482413Y-58947546D01*
X123663098Y-59217960D01*
X123787553Y-59518422D01*
X123851000Y-59837389D01*
X123851000Y-60162611D01*
X123848061Y-60177384D01*
X123787553Y-60481579D01*
X123663097Y-60782042D01*
X123618156Y-60849301D01*
X123482413Y-61052454D01*
X123252454Y-61282413D01*
X123252451Y-61282415D01*
X122982042Y-61463097D01*
X122681579Y-61587553D01*
X122638987Y-61596025D01*
X122362611Y-61651000D01*
X122037389Y-61651000D01*
X121761013Y-61596025D01*
X121718421Y-61587553D01*
X121417958Y-61463097D01*
X121147549Y-61282415D01*
X121147546Y-61282413D01*
X120917587Y-61052454D01*
X120781844Y-60849301D01*
X120736903Y-60782042D01*
X120612447Y-60481579D01*
X120551939Y-60177384D01*
X120549000Y-60162611D01*
X120549000Y-59837389D01*
X120612447Y-59518422D01*
X120736902Y-59217960D01*
X120917587Y-58947546D01*
X121147546Y-58717587D01*
X121321923Y-58601072D01*
X121417958Y-58536903D01*
X121718421Y-58412447D01*
X121824744Y-58391298D01*
X122037389Y-58349000D01*
X122362611Y-58349000D01*
X122575256Y-58391298D01*
X122575256Y-58391298D01*
G37*
G36*
X162381552Y-53566331D02*
X162463625Y-53600327D01*
X162463626Y-53600328D01*
X162463629Y-53600329D01*
X162537496Y-53649686D01*
X162537500Y-53649689D01*
X162600311Y-53712500D01*
X162600313Y-53712503D01*
X162600314Y-53712504D01*
X162649671Y-53786371D01*
X162649672Y-53786374D01*
X162649673Y-53786375D01*
X162683669Y-53868448D01*
X162701000Y-53955579D01*
X162701000Y-54044421D01*
X162683669Y-54131552D01*
X162649673Y-54213625D01*
X162649671Y-54213629D01*
X162600314Y-54287496D01*
X162600311Y-54287500D01*
X162537500Y-54350311D01*
X162537497Y-54350313D01*
X162537496Y-54350314D01*
X162463629Y-54399671D01*
X162463626Y-54399672D01*
X162463625Y-54399673D01*
X162381552Y-54433669D01*
X162294421Y-54451000D01*
X162205579Y-54451000D01*
X162118448Y-54433669D01*
X162036375Y-54399673D01*
X162036374Y-54399672D01*
X162036371Y-54399671D01*
X161962504Y-54350314D01*
X161962503Y-54350313D01*
X161962500Y-54350311D01*
X161899689Y-54287500D01*
X161899686Y-54287496D01*
X161850329Y-54213629D01*
X161850327Y-54213625D01*
X161816331Y-54131552D01*
X161799000Y-54044421D01*
X161799000Y-53955579D01*
X161816331Y-53868448D01*
X161850327Y-53786375D01*
X161850328Y-53786374D01*
X161850329Y-53786371D01*
X161899686Y-53712504D01*
X161899687Y-53712503D01*
X161899689Y-53712500D01*
X161962500Y-53649689D01*
X161962504Y-53649686D01*
X162036371Y-53600329D01*
X162036374Y-53600328D01*
X162036375Y-53600327D01*
X162118448Y-53566331D01*
X162205579Y-53549000D01*
X162294421Y-53549000D01*
X162381552Y-53566331D01*
X162381552Y-53566331D01*
G37*
G36*
X166781552Y-53566331D02*
X166863625Y-53600327D01*
X166863626Y-53600328D01*
X166863629Y-53600329D01*
X166937496Y-53649686D01*
X166937500Y-53649689D01*
X167000311Y-53712500D01*
X167000313Y-53712503D01*
X167000314Y-53712504D01*
X167049671Y-53786371D01*
X167049672Y-53786374D01*
X167049673Y-53786375D01*
X167083669Y-53868448D01*
X167101000Y-53955579D01*
X167101000Y-54044421D01*
X167083669Y-54131552D01*
X167049673Y-54213625D01*
X167049671Y-54213629D01*
X167000314Y-54287496D01*
X167000311Y-54287500D01*
X166937500Y-54350311D01*
X166937497Y-54350313D01*
X166937496Y-54350314D01*
X166863629Y-54399671D01*
X166863626Y-54399672D01*
X166863625Y-54399673D01*
X166781552Y-54433669D01*
X166694421Y-54451000D01*
X166605579Y-54451000D01*
X166518448Y-54433669D01*
X166436375Y-54399673D01*
X166436374Y-54399672D01*
X166436371Y-54399671D01*
X166362504Y-54350314D01*
X166362503Y-54350313D01*
X166362500Y-54350311D01*
X166299689Y-54287500D01*
X166299686Y-54287496D01*
X166250329Y-54213629D01*
X166250327Y-54213625D01*
X166216331Y-54131552D01*
X166199000Y-54044421D01*
X166199000Y-53955579D01*
X166216331Y-53868448D01*
X166250327Y-53786375D01*
X166250328Y-53786374D01*
X166250329Y-53786371D01*
X166299686Y-53712504D01*
X166299687Y-53712503D01*
X166299689Y-53712500D01*
X166362500Y-53649689D01*
X166362504Y-53649686D01*
X166436371Y-53600329D01*
X166436374Y-53600328D01*
X166436375Y-53600327D01*
X166518448Y-53566331D01*
X166605579Y-53549000D01*
X166694421Y-53549000D01*
X166781552Y-53566331D01*
X166781552Y-53566331D01*
G37*
M02*
