G04 #@! TF.GenerationSoftware,KiCad,Pcbnew,5.0.2+dfsg1-1*
G04 #@! TF.CreationDate,2020-09-22T13:16:50+02:00*
G04 #@! TF.ProjectId,lipo_power,6c69706f-5f70-46f7-9765-722e6b696361,rev?*
G04 #@! TF.SameCoordinates,Original*
G04 #@! TF.FileFunction,Paste,Top*
G04 #@! TF.FilePolarity,Positive*
%FSLAX46Y46*%
G04 Gerber Fmt 4.6, Leading zero omitted, Abs format (unit mm)*
G04 Created by KiCad (PCBNEW 5.0.2+dfsg1-1) date Tue 22 Sep 2020 01:16:50 PM CEST*
%MOMM*%
%LPD*%
G01*
G04 APERTURE LIST*
%ADD10R,1.200000X0.900000*%
%ADD11R,2.000000X0.700000*%
%ADD12C,0.100000*%
%ADD13C,1.425000*%
%ADD14C,1.150000*%
%ADD15R,0.650000X1.560000*%
%ADD16R,0.500000X3.500000*%
%ADD17R,2.000000X2.500000*%
%ADD18R,1.500000X2.200000*%
%ADD19R,0.700000X2.000000*%
G04 APERTURE END LIST*
D10*
G04 #@! TO.C,D3*
X135000000Y-91150000D03*
X135000000Y-87850000D03*
G04 #@! TD*
D11*
G04 #@! TO.C,Q5*
X144800000Y-90550000D03*
X144800000Y-92450000D03*
X148200000Y-91500000D03*
G04 #@! TD*
G04 #@! TO.C,Q4*
X148200000Y-87950000D03*
X148200000Y-86050000D03*
X144800000Y-87000000D03*
G04 #@! TD*
D12*
G04 #@! TO.C,D1*
G36*
X147974504Y-51626204D02*
X147998773Y-51629804D01*
X148022571Y-51635765D01*
X148045671Y-51644030D01*
X148067849Y-51654520D01*
X148088893Y-51667133D01*
X148108598Y-51681747D01*
X148126777Y-51698223D01*
X148143253Y-51716402D01*
X148157867Y-51736107D01*
X148170480Y-51757151D01*
X148180970Y-51779329D01*
X148189235Y-51802429D01*
X148195196Y-51826227D01*
X148198796Y-51850496D01*
X148200000Y-51875000D01*
X148200000Y-53125000D01*
X148198796Y-53149504D01*
X148195196Y-53173773D01*
X148189235Y-53197571D01*
X148180970Y-53220671D01*
X148170480Y-53242849D01*
X148157867Y-53263893D01*
X148143253Y-53283598D01*
X148126777Y-53301777D01*
X148108598Y-53318253D01*
X148088893Y-53332867D01*
X148067849Y-53345480D01*
X148045671Y-53355970D01*
X148022571Y-53364235D01*
X147998773Y-53370196D01*
X147974504Y-53373796D01*
X147950000Y-53375000D01*
X147025000Y-53375000D01*
X147000496Y-53373796D01*
X146976227Y-53370196D01*
X146952429Y-53364235D01*
X146929329Y-53355970D01*
X146907151Y-53345480D01*
X146886107Y-53332867D01*
X146866402Y-53318253D01*
X146848223Y-53301777D01*
X146831747Y-53283598D01*
X146817133Y-53263893D01*
X146804520Y-53242849D01*
X146794030Y-53220671D01*
X146785765Y-53197571D01*
X146779804Y-53173773D01*
X146776204Y-53149504D01*
X146775000Y-53125000D01*
X146775000Y-51875000D01*
X146776204Y-51850496D01*
X146779804Y-51826227D01*
X146785765Y-51802429D01*
X146794030Y-51779329D01*
X146804520Y-51757151D01*
X146817133Y-51736107D01*
X146831747Y-51716402D01*
X146848223Y-51698223D01*
X146866402Y-51681747D01*
X146886107Y-51667133D01*
X146907151Y-51654520D01*
X146929329Y-51644030D01*
X146952429Y-51635765D01*
X146976227Y-51629804D01*
X147000496Y-51626204D01*
X147025000Y-51625000D01*
X147950000Y-51625000D01*
X147974504Y-51626204D01*
X147974504Y-51626204D01*
G37*
D13*
X147487500Y-52500000D03*
D12*
G36*
X144999504Y-51626204D02*
X145023773Y-51629804D01*
X145047571Y-51635765D01*
X145070671Y-51644030D01*
X145092849Y-51654520D01*
X145113893Y-51667133D01*
X145133598Y-51681747D01*
X145151777Y-51698223D01*
X145168253Y-51716402D01*
X145182867Y-51736107D01*
X145195480Y-51757151D01*
X145205970Y-51779329D01*
X145214235Y-51802429D01*
X145220196Y-51826227D01*
X145223796Y-51850496D01*
X145225000Y-51875000D01*
X145225000Y-53125000D01*
X145223796Y-53149504D01*
X145220196Y-53173773D01*
X145214235Y-53197571D01*
X145205970Y-53220671D01*
X145195480Y-53242849D01*
X145182867Y-53263893D01*
X145168253Y-53283598D01*
X145151777Y-53301777D01*
X145133598Y-53318253D01*
X145113893Y-53332867D01*
X145092849Y-53345480D01*
X145070671Y-53355970D01*
X145047571Y-53364235D01*
X145023773Y-53370196D01*
X144999504Y-53373796D01*
X144975000Y-53375000D01*
X144050000Y-53375000D01*
X144025496Y-53373796D01*
X144001227Y-53370196D01*
X143977429Y-53364235D01*
X143954329Y-53355970D01*
X143932151Y-53345480D01*
X143911107Y-53332867D01*
X143891402Y-53318253D01*
X143873223Y-53301777D01*
X143856747Y-53283598D01*
X143842133Y-53263893D01*
X143829520Y-53242849D01*
X143819030Y-53220671D01*
X143810765Y-53197571D01*
X143804804Y-53173773D01*
X143801204Y-53149504D01*
X143800000Y-53125000D01*
X143800000Y-51875000D01*
X143801204Y-51850496D01*
X143804804Y-51826227D01*
X143810765Y-51802429D01*
X143819030Y-51779329D01*
X143829520Y-51757151D01*
X143842133Y-51736107D01*
X143856747Y-51716402D01*
X143873223Y-51698223D01*
X143891402Y-51681747D01*
X143911107Y-51667133D01*
X143932151Y-51654520D01*
X143954329Y-51644030D01*
X143977429Y-51635765D01*
X144001227Y-51629804D01*
X144025496Y-51626204D01*
X144050000Y-51625000D01*
X144975000Y-51625000D01*
X144999504Y-51626204D01*
X144999504Y-51626204D01*
G37*
D13*
X144512500Y-52500000D03*
G04 #@! TD*
D12*
G04 #@! TO.C,R10*
G36*
X148474505Y-79976204D02*
X148498773Y-79979804D01*
X148522572Y-79985765D01*
X148545671Y-79994030D01*
X148567850Y-80004520D01*
X148588893Y-80017132D01*
X148608599Y-80031747D01*
X148626777Y-80048223D01*
X148643253Y-80066401D01*
X148657868Y-80086107D01*
X148670480Y-80107150D01*
X148680970Y-80129329D01*
X148689235Y-80152428D01*
X148695196Y-80176227D01*
X148698796Y-80200495D01*
X148700000Y-80224999D01*
X148700000Y-80875001D01*
X148698796Y-80899505D01*
X148695196Y-80923773D01*
X148689235Y-80947572D01*
X148680970Y-80970671D01*
X148670480Y-80992850D01*
X148657868Y-81013893D01*
X148643253Y-81033599D01*
X148626777Y-81051777D01*
X148608599Y-81068253D01*
X148588893Y-81082868D01*
X148567850Y-81095480D01*
X148545671Y-81105970D01*
X148522572Y-81114235D01*
X148498773Y-81120196D01*
X148474505Y-81123796D01*
X148450001Y-81125000D01*
X147549999Y-81125000D01*
X147525495Y-81123796D01*
X147501227Y-81120196D01*
X147477428Y-81114235D01*
X147454329Y-81105970D01*
X147432150Y-81095480D01*
X147411107Y-81082868D01*
X147391401Y-81068253D01*
X147373223Y-81051777D01*
X147356747Y-81033599D01*
X147342132Y-81013893D01*
X147329520Y-80992850D01*
X147319030Y-80970671D01*
X147310765Y-80947572D01*
X147304804Y-80923773D01*
X147301204Y-80899505D01*
X147300000Y-80875001D01*
X147300000Y-80224999D01*
X147301204Y-80200495D01*
X147304804Y-80176227D01*
X147310765Y-80152428D01*
X147319030Y-80129329D01*
X147329520Y-80107150D01*
X147342132Y-80086107D01*
X147356747Y-80066401D01*
X147373223Y-80048223D01*
X147391401Y-80031747D01*
X147411107Y-80017132D01*
X147432150Y-80004520D01*
X147454329Y-79994030D01*
X147477428Y-79985765D01*
X147501227Y-79979804D01*
X147525495Y-79976204D01*
X147549999Y-79975000D01*
X148450001Y-79975000D01*
X148474505Y-79976204D01*
X148474505Y-79976204D01*
G37*
D14*
X148000000Y-80550000D03*
D12*
G36*
X148474505Y-77926204D02*
X148498773Y-77929804D01*
X148522572Y-77935765D01*
X148545671Y-77944030D01*
X148567850Y-77954520D01*
X148588893Y-77967132D01*
X148608599Y-77981747D01*
X148626777Y-77998223D01*
X148643253Y-78016401D01*
X148657868Y-78036107D01*
X148670480Y-78057150D01*
X148680970Y-78079329D01*
X148689235Y-78102428D01*
X148695196Y-78126227D01*
X148698796Y-78150495D01*
X148700000Y-78174999D01*
X148700000Y-78825001D01*
X148698796Y-78849505D01*
X148695196Y-78873773D01*
X148689235Y-78897572D01*
X148680970Y-78920671D01*
X148670480Y-78942850D01*
X148657868Y-78963893D01*
X148643253Y-78983599D01*
X148626777Y-79001777D01*
X148608599Y-79018253D01*
X148588893Y-79032868D01*
X148567850Y-79045480D01*
X148545671Y-79055970D01*
X148522572Y-79064235D01*
X148498773Y-79070196D01*
X148474505Y-79073796D01*
X148450001Y-79075000D01*
X147549999Y-79075000D01*
X147525495Y-79073796D01*
X147501227Y-79070196D01*
X147477428Y-79064235D01*
X147454329Y-79055970D01*
X147432150Y-79045480D01*
X147411107Y-79032868D01*
X147391401Y-79018253D01*
X147373223Y-79001777D01*
X147356747Y-78983599D01*
X147342132Y-78963893D01*
X147329520Y-78942850D01*
X147319030Y-78920671D01*
X147310765Y-78897572D01*
X147304804Y-78873773D01*
X147301204Y-78849505D01*
X147300000Y-78825001D01*
X147300000Y-78174999D01*
X147301204Y-78150495D01*
X147304804Y-78126227D01*
X147310765Y-78102428D01*
X147319030Y-78079329D01*
X147329520Y-78057150D01*
X147342132Y-78036107D01*
X147356747Y-78016401D01*
X147373223Y-77998223D01*
X147391401Y-77981747D01*
X147411107Y-77967132D01*
X147432150Y-77954520D01*
X147454329Y-77944030D01*
X147477428Y-77935765D01*
X147501227Y-77929804D01*
X147525495Y-77926204D01*
X147549999Y-77925000D01*
X148450001Y-77925000D01*
X148474505Y-77926204D01*
X148474505Y-77926204D01*
G37*
D14*
X148000000Y-78500000D03*
G04 #@! TD*
D12*
G04 #@! TO.C,R7*
G36*
X145374505Y-94301204D02*
X145398773Y-94304804D01*
X145422572Y-94310765D01*
X145445671Y-94319030D01*
X145467850Y-94329520D01*
X145488893Y-94342132D01*
X145508599Y-94356747D01*
X145526777Y-94373223D01*
X145543253Y-94391401D01*
X145557868Y-94411107D01*
X145570480Y-94432150D01*
X145580970Y-94454329D01*
X145589235Y-94477428D01*
X145595196Y-94501227D01*
X145598796Y-94525495D01*
X145600000Y-94549999D01*
X145600000Y-95450001D01*
X145598796Y-95474505D01*
X145595196Y-95498773D01*
X145589235Y-95522572D01*
X145580970Y-95545671D01*
X145570480Y-95567850D01*
X145557868Y-95588893D01*
X145543253Y-95608599D01*
X145526777Y-95626777D01*
X145508599Y-95643253D01*
X145488893Y-95657868D01*
X145467850Y-95670480D01*
X145445671Y-95680970D01*
X145422572Y-95689235D01*
X145398773Y-95695196D01*
X145374505Y-95698796D01*
X145350001Y-95700000D01*
X144699999Y-95700000D01*
X144675495Y-95698796D01*
X144651227Y-95695196D01*
X144627428Y-95689235D01*
X144604329Y-95680970D01*
X144582150Y-95670480D01*
X144561107Y-95657868D01*
X144541401Y-95643253D01*
X144523223Y-95626777D01*
X144506747Y-95608599D01*
X144492132Y-95588893D01*
X144479520Y-95567850D01*
X144469030Y-95545671D01*
X144460765Y-95522572D01*
X144454804Y-95498773D01*
X144451204Y-95474505D01*
X144450000Y-95450001D01*
X144450000Y-94549999D01*
X144451204Y-94525495D01*
X144454804Y-94501227D01*
X144460765Y-94477428D01*
X144469030Y-94454329D01*
X144479520Y-94432150D01*
X144492132Y-94411107D01*
X144506747Y-94391401D01*
X144523223Y-94373223D01*
X144541401Y-94356747D01*
X144561107Y-94342132D01*
X144582150Y-94329520D01*
X144604329Y-94319030D01*
X144627428Y-94310765D01*
X144651227Y-94304804D01*
X144675495Y-94301204D01*
X144699999Y-94300000D01*
X145350001Y-94300000D01*
X145374505Y-94301204D01*
X145374505Y-94301204D01*
G37*
D14*
X145025000Y-95000000D03*
D12*
G36*
X143324505Y-94301204D02*
X143348773Y-94304804D01*
X143372572Y-94310765D01*
X143395671Y-94319030D01*
X143417850Y-94329520D01*
X143438893Y-94342132D01*
X143458599Y-94356747D01*
X143476777Y-94373223D01*
X143493253Y-94391401D01*
X143507868Y-94411107D01*
X143520480Y-94432150D01*
X143530970Y-94454329D01*
X143539235Y-94477428D01*
X143545196Y-94501227D01*
X143548796Y-94525495D01*
X143550000Y-94549999D01*
X143550000Y-95450001D01*
X143548796Y-95474505D01*
X143545196Y-95498773D01*
X143539235Y-95522572D01*
X143530970Y-95545671D01*
X143520480Y-95567850D01*
X143507868Y-95588893D01*
X143493253Y-95608599D01*
X143476777Y-95626777D01*
X143458599Y-95643253D01*
X143438893Y-95657868D01*
X143417850Y-95670480D01*
X143395671Y-95680970D01*
X143372572Y-95689235D01*
X143348773Y-95695196D01*
X143324505Y-95698796D01*
X143300001Y-95700000D01*
X142649999Y-95700000D01*
X142625495Y-95698796D01*
X142601227Y-95695196D01*
X142577428Y-95689235D01*
X142554329Y-95680970D01*
X142532150Y-95670480D01*
X142511107Y-95657868D01*
X142491401Y-95643253D01*
X142473223Y-95626777D01*
X142456747Y-95608599D01*
X142442132Y-95588893D01*
X142429520Y-95567850D01*
X142419030Y-95545671D01*
X142410765Y-95522572D01*
X142404804Y-95498773D01*
X142401204Y-95474505D01*
X142400000Y-95450001D01*
X142400000Y-94549999D01*
X142401204Y-94525495D01*
X142404804Y-94501227D01*
X142410765Y-94477428D01*
X142419030Y-94454329D01*
X142429520Y-94432150D01*
X142442132Y-94411107D01*
X142456747Y-94391401D01*
X142473223Y-94373223D01*
X142491401Y-94356747D01*
X142511107Y-94342132D01*
X142532150Y-94329520D01*
X142554329Y-94319030D01*
X142577428Y-94310765D01*
X142601227Y-94304804D01*
X142625495Y-94301204D01*
X142649999Y-94300000D01*
X143300001Y-94300000D01*
X143324505Y-94301204D01*
X143324505Y-94301204D01*
G37*
D14*
X142975000Y-95000000D03*
G04 #@! TD*
D12*
G04 #@! TO.C,R8*
G36*
X138849505Y-94301204D02*
X138873773Y-94304804D01*
X138897572Y-94310765D01*
X138920671Y-94319030D01*
X138942850Y-94329520D01*
X138963893Y-94342132D01*
X138983599Y-94356747D01*
X139001777Y-94373223D01*
X139018253Y-94391401D01*
X139032868Y-94411107D01*
X139045480Y-94432150D01*
X139055970Y-94454329D01*
X139064235Y-94477428D01*
X139070196Y-94501227D01*
X139073796Y-94525495D01*
X139075000Y-94549999D01*
X139075000Y-95450001D01*
X139073796Y-95474505D01*
X139070196Y-95498773D01*
X139064235Y-95522572D01*
X139055970Y-95545671D01*
X139045480Y-95567850D01*
X139032868Y-95588893D01*
X139018253Y-95608599D01*
X139001777Y-95626777D01*
X138983599Y-95643253D01*
X138963893Y-95657868D01*
X138942850Y-95670480D01*
X138920671Y-95680970D01*
X138897572Y-95689235D01*
X138873773Y-95695196D01*
X138849505Y-95698796D01*
X138825001Y-95700000D01*
X138174999Y-95700000D01*
X138150495Y-95698796D01*
X138126227Y-95695196D01*
X138102428Y-95689235D01*
X138079329Y-95680970D01*
X138057150Y-95670480D01*
X138036107Y-95657868D01*
X138016401Y-95643253D01*
X137998223Y-95626777D01*
X137981747Y-95608599D01*
X137967132Y-95588893D01*
X137954520Y-95567850D01*
X137944030Y-95545671D01*
X137935765Y-95522572D01*
X137929804Y-95498773D01*
X137926204Y-95474505D01*
X137925000Y-95450001D01*
X137925000Y-94549999D01*
X137926204Y-94525495D01*
X137929804Y-94501227D01*
X137935765Y-94477428D01*
X137944030Y-94454329D01*
X137954520Y-94432150D01*
X137967132Y-94411107D01*
X137981747Y-94391401D01*
X137998223Y-94373223D01*
X138016401Y-94356747D01*
X138036107Y-94342132D01*
X138057150Y-94329520D01*
X138079329Y-94319030D01*
X138102428Y-94310765D01*
X138126227Y-94304804D01*
X138150495Y-94301204D01*
X138174999Y-94300000D01*
X138825001Y-94300000D01*
X138849505Y-94301204D01*
X138849505Y-94301204D01*
G37*
D14*
X138500000Y-95000000D03*
D12*
G36*
X136799505Y-94301204D02*
X136823773Y-94304804D01*
X136847572Y-94310765D01*
X136870671Y-94319030D01*
X136892850Y-94329520D01*
X136913893Y-94342132D01*
X136933599Y-94356747D01*
X136951777Y-94373223D01*
X136968253Y-94391401D01*
X136982868Y-94411107D01*
X136995480Y-94432150D01*
X137005970Y-94454329D01*
X137014235Y-94477428D01*
X137020196Y-94501227D01*
X137023796Y-94525495D01*
X137025000Y-94549999D01*
X137025000Y-95450001D01*
X137023796Y-95474505D01*
X137020196Y-95498773D01*
X137014235Y-95522572D01*
X137005970Y-95545671D01*
X136995480Y-95567850D01*
X136982868Y-95588893D01*
X136968253Y-95608599D01*
X136951777Y-95626777D01*
X136933599Y-95643253D01*
X136913893Y-95657868D01*
X136892850Y-95670480D01*
X136870671Y-95680970D01*
X136847572Y-95689235D01*
X136823773Y-95695196D01*
X136799505Y-95698796D01*
X136775001Y-95700000D01*
X136124999Y-95700000D01*
X136100495Y-95698796D01*
X136076227Y-95695196D01*
X136052428Y-95689235D01*
X136029329Y-95680970D01*
X136007150Y-95670480D01*
X135986107Y-95657868D01*
X135966401Y-95643253D01*
X135948223Y-95626777D01*
X135931747Y-95608599D01*
X135917132Y-95588893D01*
X135904520Y-95567850D01*
X135894030Y-95545671D01*
X135885765Y-95522572D01*
X135879804Y-95498773D01*
X135876204Y-95474505D01*
X135875000Y-95450001D01*
X135875000Y-94549999D01*
X135876204Y-94525495D01*
X135879804Y-94501227D01*
X135885765Y-94477428D01*
X135894030Y-94454329D01*
X135904520Y-94432150D01*
X135917132Y-94411107D01*
X135931747Y-94391401D01*
X135948223Y-94373223D01*
X135966401Y-94356747D01*
X135986107Y-94342132D01*
X136007150Y-94329520D01*
X136029329Y-94319030D01*
X136052428Y-94310765D01*
X136076227Y-94304804D01*
X136100495Y-94301204D01*
X136124999Y-94300000D01*
X136775001Y-94300000D01*
X136799505Y-94301204D01*
X136799505Y-94301204D01*
G37*
D14*
X136450000Y-95000000D03*
G04 #@! TD*
D12*
G04 #@! TO.C,R1*
G36*
X141974505Y-53976204D02*
X141998773Y-53979804D01*
X142022572Y-53985765D01*
X142045671Y-53994030D01*
X142067850Y-54004520D01*
X142088893Y-54017132D01*
X142108599Y-54031747D01*
X142126777Y-54048223D01*
X142143253Y-54066401D01*
X142157868Y-54086107D01*
X142170480Y-54107150D01*
X142180970Y-54129329D01*
X142189235Y-54152428D01*
X142195196Y-54176227D01*
X142198796Y-54200495D01*
X142200000Y-54224999D01*
X142200000Y-54875001D01*
X142198796Y-54899505D01*
X142195196Y-54923773D01*
X142189235Y-54947572D01*
X142180970Y-54970671D01*
X142170480Y-54992850D01*
X142157868Y-55013893D01*
X142143253Y-55033599D01*
X142126777Y-55051777D01*
X142108599Y-55068253D01*
X142088893Y-55082868D01*
X142067850Y-55095480D01*
X142045671Y-55105970D01*
X142022572Y-55114235D01*
X141998773Y-55120196D01*
X141974505Y-55123796D01*
X141950001Y-55125000D01*
X141049999Y-55125000D01*
X141025495Y-55123796D01*
X141001227Y-55120196D01*
X140977428Y-55114235D01*
X140954329Y-55105970D01*
X140932150Y-55095480D01*
X140911107Y-55082868D01*
X140891401Y-55068253D01*
X140873223Y-55051777D01*
X140856747Y-55033599D01*
X140842132Y-55013893D01*
X140829520Y-54992850D01*
X140819030Y-54970671D01*
X140810765Y-54947572D01*
X140804804Y-54923773D01*
X140801204Y-54899505D01*
X140800000Y-54875001D01*
X140800000Y-54224999D01*
X140801204Y-54200495D01*
X140804804Y-54176227D01*
X140810765Y-54152428D01*
X140819030Y-54129329D01*
X140829520Y-54107150D01*
X140842132Y-54086107D01*
X140856747Y-54066401D01*
X140873223Y-54048223D01*
X140891401Y-54031747D01*
X140911107Y-54017132D01*
X140932150Y-54004520D01*
X140954329Y-53994030D01*
X140977428Y-53985765D01*
X141001227Y-53979804D01*
X141025495Y-53976204D01*
X141049999Y-53975000D01*
X141950001Y-53975000D01*
X141974505Y-53976204D01*
X141974505Y-53976204D01*
G37*
D14*
X141500000Y-54550000D03*
D12*
G36*
X141974505Y-51926204D02*
X141998773Y-51929804D01*
X142022572Y-51935765D01*
X142045671Y-51944030D01*
X142067850Y-51954520D01*
X142088893Y-51967132D01*
X142108599Y-51981747D01*
X142126777Y-51998223D01*
X142143253Y-52016401D01*
X142157868Y-52036107D01*
X142170480Y-52057150D01*
X142180970Y-52079329D01*
X142189235Y-52102428D01*
X142195196Y-52126227D01*
X142198796Y-52150495D01*
X142200000Y-52174999D01*
X142200000Y-52825001D01*
X142198796Y-52849505D01*
X142195196Y-52873773D01*
X142189235Y-52897572D01*
X142180970Y-52920671D01*
X142170480Y-52942850D01*
X142157868Y-52963893D01*
X142143253Y-52983599D01*
X142126777Y-53001777D01*
X142108599Y-53018253D01*
X142088893Y-53032868D01*
X142067850Y-53045480D01*
X142045671Y-53055970D01*
X142022572Y-53064235D01*
X141998773Y-53070196D01*
X141974505Y-53073796D01*
X141950001Y-53075000D01*
X141049999Y-53075000D01*
X141025495Y-53073796D01*
X141001227Y-53070196D01*
X140977428Y-53064235D01*
X140954329Y-53055970D01*
X140932150Y-53045480D01*
X140911107Y-53032868D01*
X140891401Y-53018253D01*
X140873223Y-53001777D01*
X140856747Y-52983599D01*
X140842132Y-52963893D01*
X140829520Y-52942850D01*
X140819030Y-52920671D01*
X140810765Y-52897572D01*
X140804804Y-52873773D01*
X140801204Y-52849505D01*
X140800000Y-52825001D01*
X140800000Y-52174999D01*
X140801204Y-52150495D01*
X140804804Y-52126227D01*
X140810765Y-52102428D01*
X140819030Y-52079329D01*
X140829520Y-52057150D01*
X140842132Y-52036107D01*
X140856747Y-52016401D01*
X140873223Y-51998223D01*
X140891401Y-51981747D01*
X140911107Y-51967132D01*
X140932150Y-51954520D01*
X140954329Y-51944030D01*
X140977428Y-51935765D01*
X141001227Y-51929804D01*
X141025495Y-51926204D01*
X141049999Y-51925000D01*
X141950001Y-51925000D01*
X141974505Y-51926204D01*
X141974505Y-51926204D01*
G37*
D14*
X141500000Y-52500000D03*
G04 #@! TD*
D15*
G04 #@! TO.C,U5*
X139600000Y-91200000D03*
X140550000Y-91200000D03*
X141500000Y-91200000D03*
X141500000Y-88500000D03*
X139600000Y-88500000D03*
X140550000Y-88500000D03*
G04 #@! TD*
D16*
G04 #@! TO.C,J1*
X166050000Y-57000000D03*
X165250000Y-57000000D03*
X164450000Y-57000000D03*
X163650000Y-57000000D03*
X162850000Y-57000000D03*
D17*
X168900000Y-56500000D03*
X168900000Y-51000000D03*
X160000000Y-56500000D03*
X160000000Y-51000000D03*
G04 #@! TD*
D15*
G04 #@! TO.C,U1*
X132000000Y-54000000D03*
X131050000Y-54000000D03*
X130100000Y-54000000D03*
X130100000Y-56700000D03*
X132000000Y-56700000D03*
G04 #@! TD*
D12*
G04 #@! TO.C,R9*
G36*
X133874505Y-94301204D02*
X133898773Y-94304804D01*
X133922572Y-94310765D01*
X133945671Y-94319030D01*
X133967850Y-94329520D01*
X133988893Y-94342132D01*
X134008599Y-94356747D01*
X134026777Y-94373223D01*
X134043253Y-94391401D01*
X134057868Y-94411107D01*
X134070480Y-94432150D01*
X134080970Y-94454329D01*
X134089235Y-94477428D01*
X134095196Y-94501227D01*
X134098796Y-94525495D01*
X134100000Y-94549999D01*
X134100000Y-95450001D01*
X134098796Y-95474505D01*
X134095196Y-95498773D01*
X134089235Y-95522572D01*
X134080970Y-95545671D01*
X134070480Y-95567850D01*
X134057868Y-95588893D01*
X134043253Y-95608599D01*
X134026777Y-95626777D01*
X134008599Y-95643253D01*
X133988893Y-95657868D01*
X133967850Y-95670480D01*
X133945671Y-95680970D01*
X133922572Y-95689235D01*
X133898773Y-95695196D01*
X133874505Y-95698796D01*
X133850001Y-95700000D01*
X133199999Y-95700000D01*
X133175495Y-95698796D01*
X133151227Y-95695196D01*
X133127428Y-95689235D01*
X133104329Y-95680970D01*
X133082150Y-95670480D01*
X133061107Y-95657868D01*
X133041401Y-95643253D01*
X133023223Y-95626777D01*
X133006747Y-95608599D01*
X132992132Y-95588893D01*
X132979520Y-95567850D01*
X132969030Y-95545671D01*
X132960765Y-95522572D01*
X132954804Y-95498773D01*
X132951204Y-95474505D01*
X132950000Y-95450001D01*
X132950000Y-94549999D01*
X132951204Y-94525495D01*
X132954804Y-94501227D01*
X132960765Y-94477428D01*
X132969030Y-94454329D01*
X132979520Y-94432150D01*
X132992132Y-94411107D01*
X133006747Y-94391401D01*
X133023223Y-94373223D01*
X133041401Y-94356747D01*
X133061107Y-94342132D01*
X133082150Y-94329520D01*
X133104329Y-94319030D01*
X133127428Y-94310765D01*
X133151227Y-94304804D01*
X133175495Y-94301204D01*
X133199999Y-94300000D01*
X133850001Y-94300000D01*
X133874505Y-94301204D01*
X133874505Y-94301204D01*
G37*
D14*
X133525000Y-95000000D03*
D12*
G36*
X131824505Y-94301204D02*
X131848773Y-94304804D01*
X131872572Y-94310765D01*
X131895671Y-94319030D01*
X131917850Y-94329520D01*
X131938893Y-94342132D01*
X131958599Y-94356747D01*
X131976777Y-94373223D01*
X131993253Y-94391401D01*
X132007868Y-94411107D01*
X132020480Y-94432150D01*
X132030970Y-94454329D01*
X132039235Y-94477428D01*
X132045196Y-94501227D01*
X132048796Y-94525495D01*
X132050000Y-94549999D01*
X132050000Y-95450001D01*
X132048796Y-95474505D01*
X132045196Y-95498773D01*
X132039235Y-95522572D01*
X132030970Y-95545671D01*
X132020480Y-95567850D01*
X132007868Y-95588893D01*
X131993253Y-95608599D01*
X131976777Y-95626777D01*
X131958599Y-95643253D01*
X131938893Y-95657868D01*
X131917850Y-95670480D01*
X131895671Y-95680970D01*
X131872572Y-95689235D01*
X131848773Y-95695196D01*
X131824505Y-95698796D01*
X131800001Y-95700000D01*
X131149999Y-95700000D01*
X131125495Y-95698796D01*
X131101227Y-95695196D01*
X131077428Y-95689235D01*
X131054329Y-95680970D01*
X131032150Y-95670480D01*
X131011107Y-95657868D01*
X130991401Y-95643253D01*
X130973223Y-95626777D01*
X130956747Y-95608599D01*
X130942132Y-95588893D01*
X130929520Y-95567850D01*
X130919030Y-95545671D01*
X130910765Y-95522572D01*
X130904804Y-95498773D01*
X130901204Y-95474505D01*
X130900000Y-95450001D01*
X130900000Y-94549999D01*
X130901204Y-94525495D01*
X130904804Y-94501227D01*
X130910765Y-94477428D01*
X130919030Y-94454329D01*
X130929520Y-94432150D01*
X130942132Y-94411107D01*
X130956747Y-94391401D01*
X130973223Y-94373223D01*
X130991401Y-94356747D01*
X131011107Y-94342132D01*
X131032150Y-94329520D01*
X131054329Y-94319030D01*
X131077428Y-94310765D01*
X131101227Y-94304804D01*
X131125495Y-94301204D01*
X131149999Y-94300000D01*
X131800001Y-94300000D01*
X131824505Y-94301204D01*
X131824505Y-94301204D01*
G37*
D14*
X131475000Y-95000000D03*
G04 #@! TD*
D12*
G04 #@! TO.C,C5*
G36*
X131974504Y-86126204D02*
X131998773Y-86129804D01*
X132022571Y-86135765D01*
X132045671Y-86144030D01*
X132067849Y-86154520D01*
X132088893Y-86167133D01*
X132108598Y-86181747D01*
X132126777Y-86198223D01*
X132143253Y-86216402D01*
X132157867Y-86236107D01*
X132170480Y-86257151D01*
X132180970Y-86279329D01*
X132189235Y-86302429D01*
X132195196Y-86326227D01*
X132198796Y-86350496D01*
X132200000Y-86375000D01*
X132200000Y-87625000D01*
X132198796Y-87649504D01*
X132195196Y-87673773D01*
X132189235Y-87697571D01*
X132180970Y-87720671D01*
X132170480Y-87742849D01*
X132157867Y-87763893D01*
X132143253Y-87783598D01*
X132126777Y-87801777D01*
X132108598Y-87818253D01*
X132088893Y-87832867D01*
X132067849Y-87845480D01*
X132045671Y-87855970D01*
X132022571Y-87864235D01*
X131998773Y-87870196D01*
X131974504Y-87873796D01*
X131950000Y-87875000D01*
X131025000Y-87875000D01*
X131000496Y-87873796D01*
X130976227Y-87870196D01*
X130952429Y-87864235D01*
X130929329Y-87855970D01*
X130907151Y-87845480D01*
X130886107Y-87832867D01*
X130866402Y-87818253D01*
X130848223Y-87801777D01*
X130831747Y-87783598D01*
X130817133Y-87763893D01*
X130804520Y-87742849D01*
X130794030Y-87720671D01*
X130785765Y-87697571D01*
X130779804Y-87673773D01*
X130776204Y-87649504D01*
X130775000Y-87625000D01*
X130775000Y-86375000D01*
X130776204Y-86350496D01*
X130779804Y-86326227D01*
X130785765Y-86302429D01*
X130794030Y-86279329D01*
X130804520Y-86257151D01*
X130817133Y-86236107D01*
X130831747Y-86216402D01*
X130848223Y-86198223D01*
X130866402Y-86181747D01*
X130886107Y-86167133D01*
X130907151Y-86154520D01*
X130929329Y-86144030D01*
X130952429Y-86135765D01*
X130976227Y-86129804D01*
X131000496Y-86126204D01*
X131025000Y-86125000D01*
X131950000Y-86125000D01*
X131974504Y-86126204D01*
X131974504Y-86126204D01*
G37*
D13*
X131487500Y-87000000D03*
D12*
G36*
X128999504Y-86126204D02*
X129023773Y-86129804D01*
X129047571Y-86135765D01*
X129070671Y-86144030D01*
X129092849Y-86154520D01*
X129113893Y-86167133D01*
X129133598Y-86181747D01*
X129151777Y-86198223D01*
X129168253Y-86216402D01*
X129182867Y-86236107D01*
X129195480Y-86257151D01*
X129205970Y-86279329D01*
X129214235Y-86302429D01*
X129220196Y-86326227D01*
X129223796Y-86350496D01*
X129225000Y-86375000D01*
X129225000Y-87625000D01*
X129223796Y-87649504D01*
X129220196Y-87673773D01*
X129214235Y-87697571D01*
X129205970Y-87720671D01*
X129195480Y-87742849D01*
X129182867Y-87763893D01*
X129168253Y-87783598D01*
X129151777Y-87801777D01*
X129133598Y-87818253D01*
X129113893Y-87832867D01*
X129092849Y-87845480D01*
X129070671Y-87855970D01*
X129047571Y-87864235D01*
X129023773Y-87870196D01*
X128999504Y-87873796D01*
X128975000Y-87875000D01*
X128050000Y-87875000D01*
X128025496Y-87873796D01*
X128001227Y-87870196D01*
X127977429Y-87864235D01*
X127954329Y-87855970D01*
X127932151Y-87845480D01*
X127911107Y-87832867D01*
X127891402Y-87818253D01*
X127873223Y-87801777D01*
X127856747Y-87783598D01*
X127842133Y-87763893D01*
X127829520Y-87742849D01*
X127819030Y-87720671D01*
X127810765Y-87697571D01*
X127804804Y-87673773D01*
X127801204Y-87649504D01*
X127800000Y-87625000D01*
X127800000Y-86375000D01*
X127801204Y-86350496D01*
X127804804Y-86326227D01*
X127810765Y-86302429D01*
X127819030Y-86279329D01*
X127829520Y-86257151D01*
X127842133Y-86236107D01*
X127856747Y-86216402D01*
X127873223Y-86198223D01*
X127891402Y-86181747D01*
X127911107Y-86167133D01*
X127932151Y-86154520D01*
X127954329Y-86144030D01*
X127977429Y-86135765D01*
X128001227Y-86129804D01*
X128025496Y-86126204D01*
X128050000Y-86125000D01*
X128975000Y-86125000D01*
X128999504Y-86126204D01*
X128999504Y-86126204D01*
G37*
D13*
X128512500Y-87000000D03*
G04 #@! TD*
D15*
G04 #@! TO.C,U6*
X151550000Y-88850000D03*
X152500000Y-88850000D03*
X153450000Y-88850000D03*
X153450000Y-86150000D03*
X151550000Y-86150000D03*
X152500000Y-86150000D03*
G04 #@! TD*
G04 #@! TO.C,U4*
X164000001Y-88725001D03*
X164950001Y-88725001D03*
X165900001Y-88725001D03*
X165900001Y-86025001D03*
X164000001Y-86025001D03*
X164950001Y-86025001D03*
G04 #@! TD*
D12*
G04 #@! TO.C,C2*
G36*
X155649504Y-55288704D02*
X155673773Y-55292304D01*
X155697571Y-55298265D01*
X155720671Y-55306530D01*
X155742849Y-55317020D01*
X155763893Y-55329633D01*
X155783598Y-55344247D01*
X155801777Y-55360723D01*
X155818253Y-55378902D01*
X155832867Y-55398607D01*
X155845480Y-55419651D01*
X155855970Y-55441829D01*
X155864235Y-55464929D01*
X155870196Y-55488727D01*
X155873796Y-55512996D01*
X155875000Y-55537500D01*
X155875000Y-56462500D01*
X155873796Y-56487004D01*
X155870196Y-56511273D01*
X155864235Y-56535071D01*
X155855970Y-56558171D01*
X155845480Y-56580349D01*
X155832867Y-56601393D01*
X155818253Y-56621098D01*
X155801777Y-56639277D01*
X155783598Y-56655753D01*
X155763893Y-56670367D01*
X155742849Y-56682980D01*
X155720671Y-56693470D01*
X155697571Y-56701735D01*
X155673773Y-56707696D01*
X155649504Y-56711296D01*
X155625000Y-56712500D01*
X154375000Y-56712500D01*
X154350496Y-56711296D01*
X154326227Y-56707696D01*
X154302429Y-56701735D01*
X154279329Y-56693470D01*
X154257151Y-56682980D01*
X154236107Y-56670367D01*
X154216402Y-56655753D01*
X154198223Y-56639277D01*
X154181747Y-56621098D01*
X154167133Y-56601393D01*
X154154520Y-56580349D01*
X154144030Y-56558171D01*
X154135765Y-56535071D01*
X154129804Y-56511273D01*
X154126204Y-56487004D01*
X154125000Y-56462500D01*
X154125000Y-55537500D01*
X154126204Y-55512996D01*
X154129804Y-55488727D01*
X154135765Y-55464929D01*
X154144030Y-55441829D01*
X154154520Y-55419651D01*
X154167133Y-55398607D01*
X154181747Y-55378902D01*
X154198223Y-55360723D01*
X154216402Y-55344247D01*
X154236107Y-55329633D01*
X154257151Y-55317020D01*
X154279329Y-55306530D01*
X154302429Y-55298265D01*
X154326227Y-55292304D01*
X154350496Y-55288704D01*
X154375000Y-55287500D01*
X155625000Y-55287500D01*
X155649504Y-55288704D01*
X155649504Y-55288704D01*
G37*
D13*
X155000000Y-56000000D03*
D12*
G36*
X155649504Y-58263704D02*
X155673773Y-58267304D01*
X155697571Y-58273265D01*
X155720671Y-58281530D01*
X155742849Y-58292020D01*
X155763893Y-58304633D01*
X155783598Y-58319247D01*
X155801777Y-58335723D01*
X155818253Y-58353902D01*
X155832867Y-58373607D01*
X155845480Y-58394651D01*
X155855970Y-58416829D01*
X155864235Y-58439929D01*
X155870196Y-58463727D01*
X155873796Y-58487996D01*
X155875000Y-58512500D01*
X155875000Y-59437500D01*
X155873796Y-59462004D01*
X155870196Y-59486273D01*
X155864235Y-59510071D01*
X155855970Y-59533171D01*
X155845480Y-59555349D01*
X155832867Y-59576393D01*
X155818253Y-59596098D01*
X155801777Y-59614277D01*
X155783598Y-59630753D01*
X155763893Y-59645367D01*
X155742849Y-59657980D01*
X155720671Y-59668470D01*
X155697571Y-59676735D01*
X155673773Y-59682696D01*
X155649504Y-59686296D01*
X155625000Y-59687500D01*
X154375000Y-59687500D01*
X154350496Y-59686296D01*
X154326227Y-59682696D01*
X154302429Y-59676735D01*
X154279329Y-59668470D01*
X154257151Y-59657980D01*
X154236107Y-59645367D01*
X154216402Y-59630753D01*
X154198223Y-59614277D01*
X154181747Y-59596098D01*
X154167133Y-59576393D01*
X154154520Y-59555349D01*
X154144030Y-59533171D01*
X154135765Y-59510071D01*
X154129804Y-59486273D01*
X154126204Y-59462004D01*
X154125000Y-59437500D01*
X154125000Y-58512500D01*
X154126204Y-58487996D01*
X154129804Y-58463727D01*
X154135765Y-58439929D01*
X154144030Y-58416829D01*
X154154520Y-58394651D01*
X154167133Y-58373607D01*
X154181747Y-58353902D01*
X154198223Y-58335723D01*
X154216402Y-58319247D01*
X154236107Y-58304633D01*
X154257151Y-58292020D01*
X154279329Y-58281530D01*
X154302429Y-58273265D01*
X154326227Y-58267304D01*
X154350496Y-58263704D01*
X154375000Y-58262500D01*
X155625000Y-58262500D01*
X155649504Y-58263704D01*
X155649504Y-58263704D01*
G37*
D13*
X155000000Y-58975000D03*
G04 #@! TD*
D12*
G04 #@! TO.C,C3*
G36*
X161474504Y-82101204D02*
X161498773Y-82104804D01*
X161522571Y-82110765D01*
X161545671Y-82119030D01*
X161567849Y-82129520D01*
X161588893Y-82142133D01*
X161608598Y-82156747D01*
X161626777Y-82173223D01*
X161643253Y-82191402D01*
X161657867Y-82211107D01*
X161670480Y-82232151D01*
X161680970Y-82254329D01*
X161689235Y-82277429D01*
X161695196Y-82301227D01*
X161698796Y-82325496D01*
X161700000Y-82350000D01*
X161700000Y-83600000D01*
X161698796Y-83624504D01*
X161695196Y-83648773D01*
X161689235Y-83672571D01*
X161680970Y-83695671D01*
X161670480Y-83717849D01*
X161657867Y-83738893D01*
X161643253Y-83758598D01*
X161626777Y-83776777D01*
X161608598Y-83793253D01*
X161588893Y-83807867D01*
X161567849Y-83820480D01*
X161545671Y-83830970D01*
X161522571Y-83839235D01*
X161498773Y-83845196D01*
X161474504Y-83848796D01*
X161450000Y-83850000D01*
X160525000Y-83850000D01*
X160500496Y-83848796D01*
X160476227Y-83845196D01*
X160452429Y-83839235D01*
X160429329Y-83830970D01*
X160407151Y-83820480D01*
X160386107Y-83807867D01*
X160366402Y-83793253D01*
X160348223Y-83776777D01*
X160331747Y-83758598D01*
X160317133Y-83738893D01*
X160304520Y-83717849D01*
X160294030Y-83695671D01*
X160285765Y-83672571D01*
X160279804Y-83648773D01*
X160276204Y-83624504D01*
X160275000Y-83600000D01*
X160275000Y-82350000D01*
X160276204Y-82325496D01*
X160279804Y-82301227D01*
X160285765Y-82277429D01*
X160294030Y-82254329D01*
X160304520Y-82232151D01*
X160317133Y-82211107D01*
X160331747Y-82191402D01*
X160348223Y-82173223D01*
X160366402Y-82156747D01*
X160386107Y-82142133D01*
X160407151Y-82129520D01*
X160429329Y-82119030D01*
X160452429Y-82110765D01*
X160476227Y-82104804D01*
X160500496Y-82101204D01*
X160525000Y-82100000D01*
X161450000Y-82100000D01*
X161474504Y-82101204D01*
X161474504Y-82101204D01*
G37*
D13*
X160987500Y-82975000D03*
D12*
G36*
X158499504Y-82101204D02*
X158523773Y-82104804D01*
X158547571Y-82110765D01*
X158570671Y-82119030D01*
X158592849Y-82129520D01*
X158613893Y-82142133D01*
X158633598Y-82156747D01*
X158651777Y-82173223D01*
X158668253Y-82191402D01*
X158682867Y-82211107D01*
X158695480Y-82232151D01*
X158705970Y-82254329D01*
X158714235Y-82277429D01*
X158720196Y-82301227D01*
X158723796Y-82325496D01*
X158725000Y-82350000D01*
X158725000Y-83600000D01*
X158723796Y-83624504D01*
X158720196Y-83648773D01*
X158714235Y-83672571D01*
X158705970Y-83695671D01*
X158695480Y-83717849D01*
X158682867Y-83738893D01*
X158668253Y-83758598D01*
X158651777Y-83776777D01*
X158633598Y-83793253D01*
X158613893Y-83807867D01*
X158592849Y-83820480D01*
X158570671Y-83830970D01*
X158547571Y-83839235D01*
X158523773Y-83845196D01*
X158499504Y-83848796D01*
X158475000Y-83850000D01*
X157550000Y-83850000D01*
X157525496Y-83848796D01*
X157501227Y-83845196D01*
X157477429Y-83839235D01*
X157454329Y-83830970D01*
X157432151Y-83820480D01*
X157411107Y-83807867D01*
X157391402Y-83793253D01*
X157373223Y-83776777D01*
X157356747Y-83758598D01*
X157342133Y-83738893D01*
X157329520Y-83717849D01*
X157319030Y-83695671D01*
X157310765Y-83672571D01*
X157304804Y-83648773D01*
X157301204Y-83624504D01*
X157300000Y-83600000D01*
X157300000Y-82350000D01*
X157301204Y-82325496D01*
X157304804Y-82301227D01*
X157310765Y-82277429D01*
X157319030Y-82254329D01*
X157329520Y-82232151D01*
X157342133Y-82211107D01*
X157356747Y-82191402D01*
X157373223Y-82173223D01*
X157391402Y-82156747D01*
X157411107Y-82142133D01*
X157432151Y-82129520D01*
X157454329Y-82119030D01*
X157477429Y-82110765D01*
X157501227Y-82104804D01*
X157525496Y-82101204D01*
X157550000Y-82100000D01*
X158475000Y-82100000D01*
X158499504Y-82101204D01*
X158499504Y-82101204D01*
G37*
D13*
X158012500Y-82975000D03*
G04 #@! TD*
D12*
G04 #@! TO.C,R4*
G36*
X136824505Y-60301204D02*
X136848773Y-60304804D01*
X136872572Y-60310765D01*
X136895671Y-60319030D01*
X136917850Y-60329520D01*
X136938893Y-60342132D01*
X136958599Y-60356747D01*
X136976777Y-60373223D01*
X136993253Y-60391401D01*
X137007868Y-60411107D01*
X137020480Y-60432150D01*
X137030970Y-60454329D01*
X137039235Y-60477428D01*
X137045196Y-60501227D01*
X137048796Y-60525495D01*
X137050000Y-60549999D01*
X137050000Y-61450001D01*
X137048796Y-61474505D01*
X137045196Y-61498773D01*
X137039235Y-61522572D01*
X137030970Y-61545671D01*
X137020480Y-61567850D01*
X137007868Y-61588893D01*
X136993253Y-61608599D01*
X136976777Y-61626777D01*
X136958599Y-61643253D01*
X136938893Y-61657868D01*
X136917850Y-61670480D01*
X136895671Y-61680970D01*
X136872572Y-61689235D01*
X136848773Y-61695196D01*
X136824505Y-61698796D01*
X136800001Y-61700000D01*
X136149999Y-61700000D01*
X136125495Y-61698796D01*
X136101227Y-61695196D01*
X136077428Y-61689235D01*
X136054329Y-61680970D01*
X136032150Y-61670480D01*
X136011107Y-61657868D01*
X135991401Y-61643253D01*
X135973223Y-61626777D01*
X135956747Y-61608599D01*
X135942132Y-61588893D01*
X135929520Y-61567850D01*
X135919030Y-61545671D01*
X135910765Y-61522572D01*
X135904804Y-61498773D01*
X135901204Y-61474505D01*
X135900000Y-61450001D01*
X135900000Y-60549999D01*
X135901204Y-60525495D01*
X135904804Y-60501227D01*
X135910765Y-60477428D01*
X135919030Y-60454329D01*
X135929520Y-60432150D01*
X135942132Y-60411107D01*
X135956747Y-60391401D01*
X135973223Y-60373223D01*
X135991401Y-60356747D01*
X136011107Y-60342132D01*
X136032150Y-60329520D01*
X136054329Y-60319030D01*
X136077428Y-60310765D01*
X136101227Y-60304804D01*
X136125495Y-60301204D01*
X136149999Y-60300000D01*
X136800001Y-60300000D01*
X136824505Y-60301204D01*
X136824505Y-60301204D01*
G37*
D14*
X136475000Y-61000000D03*
D12*
G36*
X138874505Y-60301204D02*
X138898773Y-60304804D01*
X138922572Y-60310765D01*
X138945671Y-60319030D01*
X138967850Y-60329520D01*
X138988893Y-60342132D01*
X139008599Y-60356747D01*
X139026777Y-60373223D01*
X139043253Y-60391401D01*
X139057868Y-60411107D01*
X139070480Y-60432150D01*
X139080970Y-60454329D01*
X139089235Y-60477428D01*
X139095196Y-60501227D01*
X139098796Y-60525495D01*
X139100000Y-60549999D01*
X139100000Y-61450001D01*
X139098796Y-61474505D01*
X139095196Y-61498773D01*
X139089235Y-61522572D01*
X139080970Y-61545671D01*
X139070480Y-61567850D01*
X139057868Y-61588893D01*
X139043253Y-61608599D01*
X139026777Y-61626777D01*
X139008599Y-61643253D01*
X138988893Y-61657868D01*
X138967850Y-61670480D01*
X138945671Y-61680970D01*
X138922572Y-61689235D01*
X138898773Y-61695196D01*
X138874505Y-61698796D01*
X138850001Y-61700000D01*
X138199999Y-61700000D01*
X138175495Y-61698796D01*
X138151227Y-61695196D01*
X138127428Y-61689235D01*
X138104329Y-61680970D01*
X138082150Y-61670480D01*
X138061107Y-61657868D01*
X138041401Y-61643253D01*
X138023223Y-61626777D01*
X138006747Y-61608599D01*
X137992132Y-61588893D01*
X137979520Y-61567850D01*
X137969030Y-61545671D01*
X137960765Y-61522572D01*
X137954804Y-61498773D01*
X137951204Y-61474505D01*
X137950000Y-61450001D01*
X137950000Y-60549999D01*
X137951204Y-60525495D01*
X137954804Y-60501227D01*
X137960765Y-60477428D01*
X137969030Y-60454329D01*
X137979520Y-60432150D01*
X137992132Y-60411107D01*
X138006747Y-60391401D01*
X138023223Y-60373223D01*
X138041401Y-60356747D01*
X138061107Y-60342132D01*
X138082150Y-60329520D01*
X138104329Y-60319030D01*
X138127428Y-60310765D01*
X138151227Y-60304804D01*
X138175495Y-60301204D01*
X138199999Y-60300000D01*
X138850001Y-60300000D01*
X138874505Y-60301204D01*
X138874505Y-60301204D01*
G37*
D14*
X138525000Y-61000000D03*
G04 #@! TD*
D12*
G04 #@! TO.C,R11*
G36*
X152974505Y-92976204D02*
X152998773Y-92979804D01*
X153022572Y-92985765D01*
X153045671Y-92994030D01*
X153067850Y-93004520D01*
X153088893Y-93017132D01*
X153108599Y-93031747D01*
X153126777Y-93048223D01*
X153143253Y-93066401D01*
X153157868Y-93086107D01*
X153170480Y-93107150D01*
X153180970Y-93129329D01*
X153189235Y-93152428D01*
X153195196Y-93176227D01*
X153198796Y-93200495D01*
X153200000Y-93224999D01*
X153200000Y-93875001D01*
X153198796Y-93899505D01*
X153195196Y-93923773D01*
X153189235Y-93947572D01*
X153180970Y-93970671D01*
X153170480Y-93992850D01*
X153157868Y-94013893D01*
X153143253Y-94033599D01*
X153126777Y-94051777D01*
X153108599Y-94068253D01*
X153088893Y-94082868D01*
X153067850Y-94095480D01*
X153045671Y-94105970D01*
X153022572Y-94114235D01*
X152998773Y-94120196D01*
X152974505Y-94123796D01*
X152950001Y-94125000D01*
X152049999Y-94125000D01*
X152025495Y-94123796D01*
X152001227Y-94120196D01*
X151977428Y-94114235D01*
X151954329Y-94105970D01*
X151932150Y-94095480D01*
X151911107Y-94082868D01*
X151891401Y-94068253D01*
X151873223Y-94051777D01*
X151856747Y-94033599D01*
X151842132Y-94013893D01*
X151829520Y-93992850D01*
X151819030Y-93970671D01*
X151810765Y-93947572D01*
X151804804Y-93923773D01*
X151801204Y-93899505D01*
X151800000Y-93875001D01*
X151800000Y-93224999D01*
X151801204Y-93200495D01*
X151804804Y-93176227D01*
X151810765Y-93152428D01*
X151819030Y-93129329D01*
X151829520Y-93107150D01*
X151842132Y-93086107D01*
X151856747Y-93066401D01*
X151873223Y-93048223D01*
X151891401Y-93031747D01*
X151911107Y-93017132D01*
X151932150Y-93004520D01*
X151954329Y-92994030D01*
X151977428Y-92985765D01*
X152001227Y-92979804D01*
X152025495Y-92976204D01*
X152049999Y-92975000D01*
X152950001Y-92975000D01*
X152974505Y-92976204D01*
X152974505Y-92976204D01*
G37*
D14*
X152500000Y-93550000D03*
D12*
G36*
X152974505Y-90926204D02*
X152998773Y-90929804D01*
X153022572Y-90935765D01*
X153045671Y-90944030D01*
X153067850Y-90954520D01*
X153088893Y-90967132D01*
X153108599Y-90981747D01*
X153126777Y-90998223D01*
X153143253Y-91016401D01*
X153157868Y-91036107D01*
X153170480Y-91057150D01*
X153180970Y-91079329D01*
X153189235Y-91102428D01*
X153195196Y-91126227D01*
X153198796Y-91150495D01*
X153200000Y-91174999D01*
X153200000Y-91825001D01*
X153198796Y-91849505D01*
X153195196Y-91873773D01*
X153189235Y-91897572D01*
X153180970Y-91920671D01*
X153170480Y-91942850D01*
X153157868Y-91963893D01*
X153143253Y-91983599D01*
X153126777Y-92001777D01*
X153108599Y-92018253D01*
X153088893Y-92032868D01*
X153067850Y-92045480D01*
X153045671Y-92055970D01*
X153022572Y-92064235D01*
X152998773Y-92070196D01*
X152974505Y-92073796D01*
X152950001Y-92075000D01*
X152049999Y-92075000D01*
X152025495Y-92073796D01*
X152001227Y-92070196D01*
X151977428Y-92064235D01*
X151954329Y-92055970D01*
X151932150Y-92045480D01*
X151911107Y-92032868D01*
X151891401Y-92018253D01*
X151873223Y-92001777D01*
X151856747Y-91983599D01*
X151842132Y-91963893D01*
X151829520Y-91942850D01*
X151819030Y-91920671D01*
X151810765Y-91897572D01*
X151804804Y-91873773D01*
X151801204Y-91849505D01*
X151800000Y-91825001D01*
X151800000Y-91174999D01*
X151801204Y-91150495D01*
X151804804Y-91126227D01*
X151810765Y-91102428D01*
X151819030Y-91079329D01*
X151829520Y-91057150D01*
X151842132Y-91036107D01*
X151856747Y-91016401D01*
X151873223Y-90998223D01*
X151891401Y-90981747D01*
X151911107Y-90967132D01*
X151932150Y-90954520D01*
X151954329Y-90944030D01*
X151977428Y-90935765D01*
X152001227Y-90929804D01*
X152025495Y-90926204D01*
X152049999Y-90925000D01*
X152950001Y-90925000D01*
X152974505Y-90926204D01*
X152974505Y-90926204D01*
G37*
D14*
X152500000Y-91500000D03*
G04 #@! TD*
D12*
G04 #@! TO.C,R12*
G36*
X155474505Y-80376204D02*
X155498773Y-80379804D01*
X155522572Y-80385765D01*
X155545671Y-80394030D01*
X155567850Y-80404520D01*
X155588893Y-80417132D01*
X155608599Y-80431747D01*
X155626777Y-80448223D01*
X155643253Y-80466401D01*
X155657868Y-80486107D01*
X155670480Y-80507150D01*
X155680970Y-80529329D01*
X155689235Y-80552428D01*
X155695196Y-80576227D01*
X155698796Y-80600495D01*
X155700000Y-80624999D01*
X155700000Y-81275001D01*
X155698796Y-81299505D01*
X155695196Y-81323773D01*
X155689235Y-81347572D01*
X155680970Y-81370671D01*
X155670480Y-81392850D01*
X155657868Y-81413893D01*
X155643253Y-81433599D01*
X155626777Y-81451777D01*
X155608599Y-81468253D01*
X155588893Y-81482868D01*
X155567850Y-81495480D01*
X155545671Y-81505970D01*
X155522572Y-81514235D01*
X155498773Y-81520196D01*
X155474505Y-81523796D01*
X155450001Y-81525000D01*
X154549999Y-81525000D01*
X154525495Y-81523796D01*
X154501227Y-81520196D01*
X154477428Y-81514235D01*
X154454329Y-81505970D01*
X154432150Y-81495480D01*
X154411107Y-81482868D01*
X154391401Y-81468253D01*
X154373223Y-81451777D01*
X154356747Y-81433599D01*
X154342132Y-81413893D01*
X154329520Y-81392850D01*
X154319030Y-81370671D01*
X154310765Y-81347572D01*
X154304804Y-81323773D01*
X154301204Y-81299505D01*
X154300000Y-81275001D01*
X154300000Y-80624999D01*
X154301204Y-80600495D01*
X154304804Y-80576227D01*
X154310765Y-80552428D01*
X154319030Y-80529329D01*
X154329520Y-80507150D01*
X154342132Y-80486107D01*
X154356747Y-80466401D01*
X154373223Y-80448223D01*
X154391401Y-80431747D01*
X154411107Y-80417132D01*
X154432150Y-80404520D01*
X154454329Y-80394030D01*
X154477428Y-80385765D01*
X154501227Y-80379804D01*
X154525495Y-80376204D01*
X154549999Y-80375000D01*
X155450001Y-80375000D01*
X155474505Y-80376204D01*
X155474505Y-80376204D01*
G37*
D14*
X155000000Y-80950000D03*
D12*
G36*
X155474505Y-82426204D02*
X155498773Y-82429804D01*
X155522572Y-82435765D01*
X155545671Y-82444030D01*
X155567850Y-82454520D01*
X155588893Y-82467132D01*
X155608599Y-82481747D01*
X155626777Y-82498223D01*
X155643253Y-82516401D01*
X155657868Y-82536107D01*
X155670480Y-82557150D01*
X155680970Y-82579329D01*
X155689235Y-82602428D01*
X155695196Y-82626227D01*
X155698796Y-82650495D01*
X155700000Y-82674999D01*
X155700000Y-83325001D01*
X155698796Y-83349505D01*
X155695196Y-83373773D01*
X155689235Y-83397572D01*
X155680970Y-83420671D01*
X155670480Y-83442850D01*
X155657868Y-83463893D01*
X155643253Y-83483599D01*
X155626777Y-83501777D01*
X155608599Y-83518253D01*
X155588893Y-83532868D01*
X155567850Y-83545480D01*
X155545671Y-83555970D01*
X155522572Y-83564235D01*
X155498773Y-83570196D01*
X155474505Y-83573796D01*
X155450001Y-83575000D01*
X154549999Y-83575000D01*
X154525495Y-83573796D01*
X154501227Y-83570196D01*
X154477428Y-83564235D01*
X154454329Y-83555970D01*
X154432150Y-83545480D01*
X154411107Y-83532868D01*
X154391401Y-83518253D01*
X154373223Y-83501777D01*
X154356747Y-83483599D01*
X154342132Y-83463893D01*
X154329520Y-83442850D01*
X154319030Y-83420671D01*
X154310765Y-83397572D01*
X154304804Y-83373773D01*
X154301204Y-83349505D01*
X154300000Y-83325001D01*
X154300000Y-82674999D01*
X154301204Y-82650495D01*
X154304804Y-82626227D01*
X154310765Y-82602428D01*
X154319030Y-82579329D01*
X154329520Y-82557150D01*
X154342132Y-82536107D01*
X154356747Y-82516401D01*
X154373223Y-82498223D01*
X154391401Y-82481747D01*
X154411107Y-82467132D01*
X154432150Y-82454520D01*
X154454329Y-82444030D01*
X154477428Y-82435765D01*
X154501227Y-82429804D01*
X154525495Y-82426204D01*
X154549999Y-82425000D01*
X155450001Y-82425000D01*
X155474505Y-82426204D01*
X155474505Y-82426204D01*
G37*
D14*
X155000000Y-83000000D03*
G04 #@! TD*
D12*
G04 #@! TO.C,C4*
G36*
X131974504Y-90126204D02*
X131998773Y-90129804D01*
X132022571Y-90135765D01*
X132045671Y-90144030D01*
X132067849Y-90154520D01*
X132088893Y-90167133D01*
X132108598Y-90181747D01*
X132126777Y-90198223D01*
X132143253Y-90216402D01*
X132157867Y-90236107D01*
X132170480Y-90257151D01*
X132180970Y-90279329D01*
X132189235Y-90302429D01*
X132195196Y-90326227D01*
X132198796Y-90350496D01*
X132200000Y-90375000D01*
X132200000Y-91625000D01*
X132198796Y-91649504D01*
X132195196Y-91673773D01*
X132189235Y-91697571D01*
X132180970Y-91720671D01*
X132170480Y-91742849D01*
X132157867Y-91763893D01*
X132143253Y-91783598D01*
X132126777Y-91801777D01*
X132108598Y-91818253D01*
X132088893Y-91832867D01*
X132067849Y-91845480D01*
X132045671Y-91855970D01*
X132022571Y-91864235D01*
X131998773Y-91870196D01*
X131974504Y-91873796D01*
X131950000Y-91875000D01*
X131025000Y-91875000D01*
X131000496Y-91873796D01*
X130976227Y-91870196D01*
X130952429Y-91864235D01*
X130929329Y-91855970D01*
X130907151Y-91845480D01*
X130886107Y-91832867D01*
X130866402Y-91818253D01*
X130848223Y-91801777D01*
X130831747Y-91783598D01*
X130817133Y-91763893D01*
X130804520Y-91742849D01*
X130794030Y-91720671D01*
X130785765Y-91697571D01*
X130779804Y-91673773D01*
X130776204Y-91649504D01*
X130775000Y-91625000D01*
X130775000Y-90375000D01*
X130776204Y-90350496D01*
X130779804Y-90326227D01*
X130785765Y-90302429D01*
X130794030Y-90279329D01*
X130804520Y-90257151D01*
X130817133Y-90236107D01*
X130831747Y-90216402D01*
X130848223Y-90198223D01*
X130866402Y-90181747D01*
X130886107Y-90167133D01*
X130907151Y-90154520D01*
X130929329Y-90144030D01*
X130952429Y-90135765D01*
X130976227Y-90129804D01*
X131000496Y-90126204D01*
X131025000Y-90125000D01*
X131950000Y-90125000D01*
X131974504Y-90126204D01*
X131974504Y-90126204D01*
G37*
D13*
X131487500Y-91000000D03*
D12*
G36*
X128999504Y-90126204D02*
X129023773Y-90129804D01*
X129047571Y-90135765D01*
X129070671Y-90144030D01*
X129092849Y-90154520D01*
X129113893Y-90167133D01*
X129133598Y-90181747D01*
X129151777Y-90198223D01*
X129168253Y-90216402D01*
X129182867Y-90236107D01*
X129195480Y-90257151D01*
X129205970Y-90279329D01*
X129214235Y-90302429D01*
X129220196Y-90326227D01*
X129223796Y-90350496D01*
X129225000Y-90375000D01*
X129225000Y-91625000D01*
X129223796Y-91649504D01*
X129220196Y-91673773D01*
X129214235Y-91697571D01*
X129205970Y-91720671D01*
X129195480Y-91742849D01*
X129182867Y-91763893D01*
X129168253Y-91783598D01*
X129151777Y-91801777D01*
X129133598Y-91818253D01*
X129113893Y-91832867D01*
X129092849Y-91845480D01*
X129070671Y-91855970D01*
X129047571Y-91864235D01*
X129023773Y-91870196D01*
X128999504Y-91873796D01*
X128975000Y-91875000D01*
X128050000Y-91875000D01*
X128025496Y-91873796D01*
X128001227Y-91870196D01*
X127977429Y-91864235D01*
X127954329Y-91855970D01*
X127932151Y-91845480D01*
X127911107Y-91832867D01*
X127891402Y-91818253D01*
X127873223Y-91801777D01*
X127856747Y-91783598D01*
X127842133Y-91763893D01*
X127829520Y-91742849D01*
X127819030Y-91720671D01*
X127810765Y-91697571D01*
X127804804Y-91673773D01*
X127801204Y-91649504D01*
X127800000Y-91625000D01*
X127800000Y-90375000D01*
X127801204Y-90350496D01*
X127804804Y-90326227D01*
X127810765Y-90302429D01*
X127819030Y-90279329D01*
X127829520Y-90257151D01*
X127842133Y-90236107D01*
X127856747Y-90216402D01*
X127873223Y-90198223D01*
X127891402Y-90181747D01*
X127911107Y-90167133D01*
X127932151Y-90154520D01*
X127954329Y-90144030D01*
X127977429Y-90135765D01*
X128001227Y-90129804D01*
X128025496Y-90126204D01*
X128050000Y-90125000D01*
X128975000Y-90125000D01*
X128999504Y-90126204D01*
X128999504Y-90126204D01*
G37*
D13*
X128512500Y-91000000D03*
G04 #@! TD*
D18*
G04 #@! TO.C,L1*
X141000000Y-82000000D03*
X134600000Y-82000000D03*
G04 #@! TD*
D11*
G04 #@! TO.C,Q2*
X161200000Y-87975000D03*
X161200000Y-86075000D03*
X157800000Y-87025000D03*
G04 #@! TD*
D12*
G04 #@! TO.C,D2*
G36*
X135999504Y-51626204D02*
X136023773Y-51629804D01*
X136047571Y-51635765D01*
X136070671Y-51644030D01*
X136092849Y-51654520D01*
X136113893Y-51667133D01*
X136133598Y-51681747D01*
X136151777Y-51698223D01*
X136168253Y-51716402D01*
X136182867Y-51736107D01*
X136195480Y-51757151D01*
X136205970Y-51779329D01*
X136214235Y-51802429D01*
X136220196Y-51826227D01*
X136223796Y-51850496D01*
X136225000Y-51875000D01*
X136225000Y-53125000D01*
X136223796Y-53149504D01*
X136220196Y-53173773D01*
X136214235Y-53197571D01*
X136205970Y-53220671D01*
X136195480Y-53242849D01*
X136182867Y-53263893D01*
X136168253Y-53283598D01*
X136151777Y-53301777D01*
X136133598Y-53318253D01*
X136113893Y-53332867D01*
X136092849Y-53345480D01*
X136070671Y-53355970D01*
X136047571Y-53364235D01*
X136023773Y-53370196D01*
X135999504Y-53373796D01*
X135975000Y-53375000D01*
X135050000Y-53375000D01*
X135025496Y-53373796D01*
X135001227Y-53370196D01*
X134977429Y-53364235D01*
X134954329Y-53355970D01*
X134932151Y-53345480D01*
X134911107Y-53332867D01*
X134891402Y-53318253D01*
X134873223Y-53301777D01*
X134856747Y-53283598D01*
X134842133Y-53263893D01*
X134829520Y-53242849D01*
X134819030Y-53220671D01*
X134810765Y-53197571D01*
X134804804Y-53173773D01*
X134801204Y-53149504D01*
X134800000Y-53125000D01*
X134800000Y-51875000D01*
X134801204Y-51850496D01*
X134804804Y-51826227D01*
X134810765Y-51802429D01*
X134819030Y-51779329D01*
X134829520Y-51757151D01*
X134842133Y-51736107D01*
X134856747Y-51716402D01*
X134873223Y-51698223D01*
X134891402Y-51681747D01*
X134911107Y-51667133D01*
X134932151Y-51654520D01*
X134954329Y-51644030D01*
X134977429Y-51635765D01*
X135001227Y-51629804D01*
X135025496Y-51626204D01*
X135050000Y-51625000D01*
X135975000Y-51625000D01*
X135999504Y-51626204D01*
X135999504Y-51626204D01*
G37*
D13*
X135512500Y-52500000D03*
D12*
G36*
X138974504Y-51626204D02*
X138998773Y-51629804D01*
X139022571Y-51635765D01*
X139045671Y-51644030D01*
X139067849Y-51654520D01*
X139088893Y-51667133D01*
X139108598Y-51681747D01*
X139126777Y-51698223D01*
X139143253Y-51716402D01*
X139157867Y-51736107D01*
X139170480Y-51757151D01*
X139180970Y-51779329D01*
X139189235Y-51802429D01*
X139195196Y-51826227D01*
X139198796Y-51850496D01*
X139200000Y-51875000D01*
X139200000Y-53125000D01*
X139198796Y-53149504D01*
X139195196Y-53173773D01*
X139189235Y-53197571D01*
X139180970Y-53220671D01*
X139170480Y-53242849D01*
X139157867Y-53263893D01*
X139143253Y-53283598D01*
X139126777Y-53301777D01*
X139108598Y-53318253D01*
X139088893Y-53332867D01*
X139067849Y-53345480D01*
X139045671Y-53355970D01*
X139022571Y-53364235D01*
X138998773Y-53370196D01*
X138974504Y-53373796D01*
X138950000Y-53375000D01*
X138025000Y-53375000D01*
X138000496Y-53373796D01*
X137976227Y-53370196D01*
X137952429Y-53364235D01*
X137929329Y-53355970D01*
X137907151Y-53345480D01*
X137886107Y-53332867D01*
X137866402Y-53318253D01*
X137848223Y-53301777D01*
X137831747Y-53283598D01*
X137817133Y-53263893D01*
X137804520Y-53242849D01*
X137794030Y-53220671D01*
X137785765Y-53197571D01*
X137779804Y-53173773D01*
X137776204Y-53149504D01*
X137775000Y-53125000D01*
X137775000Y-51875000D01*
X137776204Y-51850496D01*
X137779804Y-51826227D01*
X137785765Y-51802429D01*
X137794030Y-51779329D01*
X137804520Y-51757151D01*
X137817133Y-51736107D01*
X137831747Y-51716402D01*
X137848223Y-51698223D01*
X137866402Y-51681747D01*
X137886107Y-51667133D01*
X137907151Y-51654520D01*
X137929329Y-51644030D01*
X137952429Y-51635765D01*
X137976227Y-51629804D01*
X138000496Y-51626204D01*
X138025000Y-51625000D01*
X138950000Y-51625000D01*
X138974504Y-51626204D01*
X138974504Y-51626204D01*
G37*
D13*
X138487500Y-52500000D03*
G04 #@! TD*
D12*
G04 #@! TO.C,C6*
G36*
X131974504Y-82126204D02*
X131998773Y-82129804D01*
X132022571Y-82135765D01*
X132045671Y-82144030D01*
X132067849Y-82154520D01*
X132088893Y-82167133D01*
X132108598Y-82181747D01*
X132126777Y-82198223D01*
X132143253Y-82216402D01*
X132157867Y-82236107D01*
X132170480Y-82257151D01*
X132180970Y-82279329D01*
X132189235Y-82302429D01*
X132195196Y-82326227D01*
X132198796Y-82350496D01*
X132200000Y-82375000D01*
X132200000Y-83625000D01*
X132198796Y-83649504D01*
X132195196Y-83673773D01*
X132189235Y-83697571D01*
X132180970Y-83720671D01*
X132170480Y-83742849D01*
X132157867Y-83763893D01*
X132143253Y-83783598D01*
X132126777Y-83801777D01*
X132108598Y-83818253D01*
X132088893Y-83832867D01*
X132067849Y-83845480D01*
X132045671Y-83855970D01*
X132022571Y-83864235D01*
X131998773Y-83870196D01*
X131974504Y-83873796D01*
X131950000Y-83875000D01*
X131025000Y-83875000D01*
X131000496Y-83873796D01*
X130976227Y-83870196D01*
X130952429Y-83864235D01*
X130929329Y-83855970D01*
X130907151Y-83845480D01*
X130886107Y-83832867D01*
X130866402Y-83818253D01*
X130848223Y-83801777D01*
X130831747Y-83783598D01*
X130817133Y-83763893D01*
X130804520Y-83742849D01*
X130794030Y-83720671D01*
X130785765Y-83697571D01*
X130779804Y-83673773D01*
X130776204Y-83649504D01*
X130775000Y-83625000D01*
X130775000Y-82375000D01*
X130776204Y-82350496D01*
X130779804Y-82326227D01*
X130785765Y-82302429D01*
X130794030Y-82279329D01*
X130804520Y-82257151D01*
X130817133Y-82236107D01*
X130831747Y-82216402D01*
X130848223Y-82198223D01*
X130866402Y-82181747D01*
X130886107Y-82167133D01*
X130907151Y-82154520D01*
X130929329Y-82144030D01*
X130952429Y-82135765D01*
X130976227Y-82129804D01*
X131000496Y-82126204D01*
X131025000Y-82125000D01*
X131950000Y-82125000D01*
X131974504Y-82126204D01*
X131974504Y-82126204D01*
G37*
D13*
X131487500Y-83000000D03*
D12*
G36*
X128999504Y-82126204D02*
X129023773Y-82129804D01*
X129047571Y-82135765D01*
X129070671Y-82144030D01*
X129092849Y-82154520D01*
X129113893Y-82167133D01*
X129133598Y-82181747D01*
X129151777Y-82198223D01*
X129168253Y-82216402D01*
X129182867Y-82236107D01*
X129195480Y-82257151D01*
X129205970Y-82279329D01*
X129214235Y-82302429D01*
X129220196Y-82326227D01*
X129223796Y-82350496D01*
X129225000Y-82375000D01*
X129225000Y-83625000D01*
X129223796Y-83649504D01*
X129220196Y-83673773D01*
X129214235Y-83697571D01*
X129205970Y-83720671D01*
X129195480Y-83742849D01*
X129182867Y-83763893D01*
X129168253Y-83783598D01*
X129151777Y-83801777D01*
X129133598Y-83818253D01*
X129113893Y-83832867D01*
X129092849Y-83845480D01*
X129070671Y-83855970D01*
X129047571Y-83864235D01*
X129023773Y-83870196D01*
X128999504Y-83873796D01*
X128975000Y-83875000D01*
X128050000Y-83875000D01*
X128025496Y-83873796D01*
X128001227Y-83870196D01*
X127977429Y-83864235D01*
X127954329Y-83855970D01*
X127932151Y-83845480D01*
X127911107Y-83832867D01*
X127891402Y-83818253D01*
X127873223Y-83801777D01*
X127856747Y-83783598D01*
X127842133Y-83763893D01*
X127829520Y-83742849D01*
X127819030Y-83720671D01*
X127810765Y-83697571D01*
X127804804Y-83673773D01*
X127801204Y-83649504D01*
X127800000Y-83625000D01*
X127800000Y-82375000D01*
X127801204Y-82350496D01*
X127804804Y-82326227D01*
X127810765Y-82302429D01*
X127819030Y-82279329D01*
X127829520Y-82257151D01*
X127842133Y-82236107D01*
X127856747Y-82216402D01*
X127873223Y-82198223D01*
X127891402Y-82181747D01*
X127911107Y-82167133D01*
X127932151Y-82154520D01*
X127954329Y-82144030D01*
X127977429Y-82135765D01*
X128001227Y-82129804D01*
X128025496Y-82126204D01*
X128050000Y-82125000D01*
X128975000Y-82125000D01*
X128999504Y-82126204D01*
X128999504Y-82126204D01*
G37*
D13*
X128512500Y-83000000D03*
G04 #@! TD*
D12*
G04 #@! TO.C,R2*
G36*
X141974505Y-56926204D02*
X141998773Y-56929804D01*
X142022572Y-56935765D01*
X142045671Y-56944030D01*
X142067850Y-56954520D01*
X142088893Y-56967132D01*
X142108599Y-56981747D01*
X142126777Y-56998223D01*
X142143253Y-57016401D01*
X142157868Y-57036107D01*
X142170480Y-57057150D01*
X142180970Y-57079329D01*
X142189235Y-57102428D01*
X142195196Y-57126227D01*
X142198796Y-57150495D01*
X142200000Y-57174999D01*
X142200000Y-57825001D01*
X142198796Y-57849505D01*
X142195196Y-57873773D01*
X142189235Y-57897572D01*
X142180970Y-57920671D01*
X142170480Y-57942850D01*
X142157868Y-57963893D01*
X142143253Y-57983599D01*
X142126777Y-58001777D01*
X142108599Y-58018253D01*
X142088893Y-58032868D01*
X142067850Y-58045480D01*
X142045671Y-58055970D01*
X142022572Y-58064235D01*
X141998773Y-58070196D01*
X141974505Y-58073796D01*
X141950001Y-58075000D01*
X141049999Y-58075000D01*
X141025495Y-58073796D01*
X141001227Y-58070196D01*
X140977428Y-58064235D01*
X140954329Y-58055970D01*
X140932150Y-58045480D01*
X140911107Y-58032868D01*
X140891401Y-58018253D01*
X140873223Y-58001777D01*
X140856747Y-57983599D01*
X140842132Y-57963893D01*
X140829520Y-57942850D01*
X140819030Y-57920671D01*
X140810765Y-57897572D01*
X140804804Y-57873773D01*
X140801204Y-57849505D01*
X140800000Y-57825001D01*
X140800000Y-57174999D01*
X140801204Y-57150495D01*
X140804804Y-57126227D01*
X140810765Y-57102428D01*
X140819030Y-57079329D01*
X140829520Y-57057150D01*
X140842132Y-57036107D01*
X140856747Y-57016401D01*
X140873223Y-56998223D01*
X140891401Y-56981747D01*
X140911107Y-56967132D01*
X140932150Y-56954520D01*
X140954329Y-56944030D01*
X140977428Y-56935765D01*
X141001227Y-56929804D01*
X141025495Y-56926204D01*
X141049999Y-56925000D01*
X141950001Y-56925000D01*
X141974505Y-56926204D01*
X141974505Y-56926204D01*
G37*
D14*
X141500000Y-57500000D03*
D12*
G36*
X141974505Y-58976204D02*
X141998773Y-58979804D01*
X142022572Y-58985765D01*
X142045671Y-58994030D01*
X142067850Y-59004520D01*
X142088893Y-59017132D01*
X142108599Y-59031747D01*
X142126777Y-59048223D01*
X142143253Y-59066401D01*
X142157868Y-59086107D01*
X142170480Y-59107150D01*
X142180970Y-59129329D01*
X142189235Y-59152428D01*
X142195196Y-59176227D01*
X142198796Y-59200495D01*
X142200000Y-59224999D01*
X142200000Y-59875001D01*
X142198796Y-59899505D01*
X142195196Y-59923773D01*
X142189235Y-59947572D01*
X142180970Y-59970671D01*
X142170480Y-59992850D01*
X142157868Y-60013893D01*
X142143253Y-60033599D01*
X142126777Y-60051777D01*
X142108599Y-60068253D01*
X142088893Y-60082868D01*
X142067850Y-60095480D01*
X142045671Y-60105970D01*
X142022572Y-60114235D01*
X141998773Y-60120196D01*
X141974505Y-60123796D01*
X141950001Y-60125000D01*
X141049999Y-60125000D01*
X141025495Y-60123796D01*
X141001227Y-60120196D01*
X140977428Y-60114235D01*
X140954329Y-60105970D01*
X140932150Y-60095480D01*
X140911107Y-60082868D01*
X140891401Y-60068253D01*
X140873223Y-60051777D01*
X140856747Y-60033599D01*
X140842132Y-60013893D01*
X140829520Y-59992850D01*
X140819030Y-59970671D01*
X140810765Y-59947572D01*
X140804804Y-59923773D01*
X140801204Y-59899505D01*
X140800000Y-59875001D01*
X140800000Y-59224999D01*
X140801204Y-59200495D01*
X140804804Y-59176227D01*
X140810765Y-59152428D01*
X140819030Y-59129329D01*
X140829520Y-59107150D01*
X140842132Y-59086107D01*
X140856747Y-59066401D01*
X140873223Y-59048223D01*
X140891401Y-59031747D01*
X140911107Y-59017132D01*
X140932150Y-59004520D01*
X140954329Y-58994030D01*
X140977428Y-58985765D01*
X141001227Y-58979804D01*
X141025495Y-58976204D01*
X141049999Y-58975000D01*
X141950001Y-58975000D01*
X141974505Y-58976204D01*
X141974505Y-58976204D01*
G37*
D14*
X141500000Y-59550000D03*
G04 #@! TD*
D19*
G04 #@! TO.C,Q1*
X145050000Y-60900000D03*
X146950000Y-60900000D03*
X146000000Y-57500000D03*
G04 #@! TD*
D12*
G04 #@! TO.C,C1*
G36*
X152149504Y-55288704D02*
X152173773Y-55292304D01*
X152197571Y-55298265D01*
X152220671Y-55306530D01*
X152242849Y-55317020D01*
X152263893Y-55329633D01*
X152283598Y-55344247D01*
X152301777Y-55360723D01*
X152318253Y-55378902D01*
X152332867Y-55398607D01*
X152345480Y-55419651D01*
X152355970Y-55441829D01*
X152364235Y-55464929D01*
X152370196Y-55488727D01*
X152373796Y-55512996D01*
X152375000Y-55537500D01*
X152375000Y-56462500D01*
X152373796Y-56487004D01*
X152370196Y-56511273D01*
X152364235Y-56535071D01*
X152355970Y-56558171D01*
X152345480Y-56580349D01*
X152332867Y-56601393D01*
X152318253Y-56621098D01*
X152301777Y-56639277D01*
X152283598Y-56655753D01*
X152263893Y-56670367D01*
X152242849Y-56682980D01*
X152220671Y-56693470D01*
X152197571Y-56701735D01*
X152173773Y-56707696D01*
X152149504Y-56711296D01*
X152125000Y-56712500D01*
X150875000Y-56712500D01*
X150850496Y-56711296D01*
X150826227Y-56707696D01*
X150802429Y-56701735D01*
X150779329Y-56693470D01*
X150757151Y-56682980D01*
X150736107Y-56670367D01*
X150716402Y-56655753D01*
X150698223Y-56639277D01*
X150681747Y-56621098D01*
X150667133Y-56601393D01*
X150654520Y-56580349D01*
X150644030Y-56558171D01*
X150635765Y-56535071D01*
X150629804Y-56511273D01*
X150626204Y-56487004D01*
X150625000Y-56462500D01*
X150625000Y-55537500D01*
X150626204Y-55512996D01*
X150629804Y-55488727D01*
X150635765Y-55464929D01*
X150644030Y-55441829D01*
X150654520Y-55419651D01*
X150667133Y-55398607D01*
X150681747Y-55378902D01*
X150698223Y-55360723D01*
X150716402Y-55344247D01*
X150736107Y-55329633D01*
X150757151Y-55317020D01*
X150779329Y-55306530D01*
X150802429Y-55298265D01*
X150826227Y-55292304D01*
X150850496Y-55288704D01*
X150875000Y-55287500D01*
X152125000Y-55287500D01*
X152149504Y-55288704D01*
X152149504Y-55288704D01*
G37*
D13*
X151500000Y-56000000D03*
D12*
G36*
X152149504Y-58263704D02*
X152173773Y-58267304D01*
X152197571Y-58273265D01*
X152220671Y-58281530D01*
X152242849Y-58292020D01*
X152263893Y-58304633D01*
X152283598Y-58319247D01*
X152301777Y-58335723D01*
X152318253Y-58353902D01*
X152332867Y-58373607D01*
X152345480Y-58394651D01*
X152355970Y-58416829D01*
X152364235Y-58439929D01*
X152370196Y-58463727D01*
X152373796Y-58487996D01*
X152375000Y-58512500D01*
X152375000Y-59437500D01*
X152373796Y-59462004D01*
X152370196Y-59486273D01*
X152364235Y-59510071D01*
X152355970Y-59533171D01*
X152345480Y-59555349D01*
X152332867Y-59576393D01*
X152318253Y-59596098D01*
X152301777Y-59614277D01*
X152283598Y-59630753D01*
X152263893Y-59645367D01*
X152242849Y-59657980D01*
X152220671Y-59668470D01*
X152197571Y-59676735D01*
X152173773Y-59682696D01*
X152149504Y-59686296D01*
X152125000Y-59687500D01*
X150875000Y-59687500D01*
X150850496Y-59686296D01*
X150826227Y-59682696D01*
X150802429Y-59676735D01*
X150779329Y-59668470D01*
X150757151Y-59657980D01*
X150736107Y-59645367D01*
X150716402Y-59630753D01*
X150698223Y-59614277D01*
X150681747Y-59596098D01*
X150667133Y-59576393D01*
X150654520Y-59555349D01*
X150644030Y-59533171D01*
X150635765Y-59510071D01*
X150629804Y-59486273D01*
X150626204Y-59462004D01*
X150625000Y-59437500D01*
X150625000Y-58512500D01*
X150626204Y-58487996D01*
X150629804Y-58463727D01*
X150635765Y-58439929D01*
X150644030Y-58416829D01*
X150654520Y-58394651D01*
X150667133Y-58373607D01*
X150681747Y-58353902D01*
X150698223Y-58335723D01*
X150716402Y-58319247D01*
X150736107Y-58304633D01*
X150757151Y-58292020D01*
X150779329Y-58281530D01*
X150802429Y-58273265D01*
X150826227Y-58267304D01*
X150850496Y-58263704D01*
X150875000Y-58262500D01*
X152125000Y-58262500D01*
X152149504Y-58263704D01*
X152149504Y-58263704D01*
G37*
D13*
X151500000Y-58975000D03*
G04 #@! TD*
D12*
G04 #@! TO.C,R3*
G36*
X132349505Y-60301204D02*
X132373773Y-60304804D01*
X132397572Y-60310765D01*
X132420671Y-60319030D01*
X132442850Y-60329520D01*
X132463893Y-60342132D01*
X132483599Y-60356747D01*
X132501777Y-60373223D01*
X132518253Y-60391401D01*
X132532868Y-60411107D01*
X132545480Y-60432150D01*
X132555970Y-60454329D01*
X132564235Y-60477428D01*
X132570196Y-60501227D01*
X132573796Y-60525495D01*
X132575000Y-60549999D01*
X132575000Y-61450001D01*
X132573796Y-61474505D01*
X132570196Y-61498773D01*
X132564235Y-61522572D01*
X132555970Y-61545671D01*
X132545480Y-61567850D01*
X132532868Y-61588893D01*
X132518253Y-61608599D01*
X132501777Y-61626777D01*
X132483599Y-61643253D01*
X132463893Y-61657868D01*
X132442850Y-61670480D01*
X132420671Y-61680970D01*
X132397572Y-61689235D01*
X132373773Y-61695196D01*
X132349505Y-61698796D01*
X132325001Y-61700000D01*
X131674999Y-61700000D01*
X131650495Y-61698796D01*
X131626227Y-61695196D01*
X131602428Y-61689235D01*
X131579329Y-61680970D01*
X131557150Y-61670480D01*
X131536107Y-61657868D01*
X131516401Y-61643253D01*
X131498223Y-61626777D01*
X131481747Y-61608599D01*
X131467132Y-61588893D01*
X131454520Y-61567850D01*
X131444030Y-61545671D01*
X131435765Y-61522572D01*
X131429804Y-61498773D01*
X131426204Y-61474505D01*
X131425000Y-61450001D01*
X131425000Y-60549999D01*
X131426204Y-60525495D01*
X131429804Y-60501227D01*
X131435765Y-60477428D01*
X131444030Y-60454329D01*
X131454520Y-60432150D01*
X131467132Y-60411107D01*
X131481747Y-60391401D01*
X131498223Y-60373223D01*
X131516401Y-60356747D01*
X131536107Y-60342132D01*
X131557150Y-60329520D01*
X131579329Y-60319030D01*
X131602428Y-60310765D01*
X131626227Y-60304804D01*
X131650495Y-60301204D01*
X131674999Y-60300000D01*
X132325001Y-60300000D01*
X132349505Y-60301204D01*
X132349505Y-60301204D01*
G37*
D14*
X132000000Y-61000000D03*
D12*
G36*
X134399505Y-60301204D02*
X134423773Y-60304804D01*
X134447572Y-60310765D01*
X134470671Y-60319030D01*
X134492850Y-60329520D01*
X134513893Y-60342132D01*
X134533599Y-60356747D01*
X134551777Y-60373223D01*
X134568253Y-60391401D01*
X134582868Y-60411107D01*
X134595480Y-60432150D01*
X134605970Y-60454329D01*
X134614235Y-60477428D01*
X134620196Y-60501227D01*
X134623796Y-60525495D01*
X134625000Y-60549999D01*
X134625000Y-61450001D01*
X134623796Y-61474505D01*
X134620196Y-61498773D01*
X134614235Y-61522572D01*
X134605970Y-61545671D01*
X134595480Y-61567850D01*
X134582868Y-61588893D01*
X134568253Y-61608599D01*
X134551777Y-61626777D01*
X134533599Y-61643253D01*
X134513893Y-61657868D01*
X134492850Y-61670480D01*
X134470671Y-61680970D01*
X134447572Y-61689235D01*
X134423773Y-61695196D01*
X134399505Y-61698796D01*
X134375001Y-61700000D01*
X133724999Y-61700000D01*
X133700495Y-61698796D01*
X133676227Y-61695196D01*
X133652428Y-61689235D01*
X133629329Y-61680970D01*
X133607150Y-61670480D01*
X133586107Y-61657868D01*
X133566401Y-61643253D01*
X133548223Y-61626777D01*
X133531747Y-61608599D01*
X133517132Y-61588893D01*
X133504520Y-61567850D01*
X133494030Y-61545671D01*
X133485765Y-61522572D01*
X133479804Y-61498773D01*
X133476204Y-61474505D01*
X133475000Y-61450001D01*
X133475000Y-60549999D01*
X133476204Y-60525495D01*
X133479804Y-60501227D01*
X133485765Y-60477428D01*
X133494030Y-60454329D01*
X133504520Y-60432150D01*
X133517132Y-60411107D01*
X133531747Y-60391401D01*
X133548223Y-60373223D01*
X133566401Y-60356747D01*
X133586107Y-60342132D01*
X133607150Y-60329520D01*
X133629329Y-60319030D01*
X133652428Y-60310765D01*
X133676227Y-60304804D01*
X133700495Y-60301204D01*
X133724999Y-60300000D01*
X134375001Y-60300000D01*
X134399505Y-60301204D01*
X134399505Y-60301204D01*
G37*
D14*
X134050000Y-61000000D03*
G04 #@! TD*
D12*
G04 #@! TO.C,R5*
G36*
X161474505Y-79951204D02*
X161498773Y-79954804D01*
X161522572Y-79960765D01*
X161545671Y-79969030D01*
X161567850Y-79979520D01*
X161588893Y-79992132D01*
X161608599Y-80006747D01*
X161626777Y-80023223D01*
X161643253Y-80041401D01*
X161657868Y-80061107D01*
X161670480Y-80082150D01*
X161680970Y-80104329D01*
X161689235Y-80127428D01*
X161695196Y-80151227D01*
X161698796Y-80175495D01*
X161700000Y-80199999D01*
X161700000Y-80850001D01*
X161698796Y-80874505D01*
X161695196Y-80898773D01*
X161689235Y-80922572D01*
X161680970Y-80945671D01*
X161670480Y-80967850D01*
X161657868Y-80988893D01*
X161643253Y-81008599D01*
X161626777Y-81026777D01*
X161608599Y-81043253D01*
X161588893Y-81057868D01*
X161567850Y-81070480D01*
X161545671Y-81080970D01*
X161522572Y-81089235D01*
X161498773Y-81095196D01*
X161474505Y-81098796D01*
X161450001Y-81100000D01*
X160549999Y-81100000D01*
X160525495Y-81098796D01*
X160501227Y-81095196D01*
X160477428Y-81089235D01*
X160454329Y-81080970D01*
X160432150Y-81070480D01*
X160411107Y-81057868D01*
X160391401Y-81043253D01*
X160373223Y-81026777D01*
X160356747Y-81008599D01*
X160342132Y-80988893D01*
X160329520Y-80967850D01*
X160319030Y-80945671D01*
X160310765Y-80922572D01*
X160304804Y-80898773D01*
X160301204Y-80874505D01*
X160300000Y-80850001D01*
X160300000Y-80199999D01*
X160301204Y-80175495D01*
X160304804Y-80151227D01*
X160310765Y-80127428D01*
X160319030Y-80104329D01*
X160329520Y-80082150D01*
X160342132Y-80061107D01*
X160356747Y-80041401D01*
X160373223Y-80023223D01*
X160391401Y-80006747D01*
X160411107Y-79992132D01*
X160432150Y-79979520D01*
X160454329Y-79969030D01*
X160477428Y-79960765D01*
X160501227Y-79954804D01*
X160525495Y-79951204D01*
X160549999Y-79950000D01*
X161450001Y-79950000D01*
X161474505Y-79951204D01*
X161474505Y-79951204D01*
G37*
D14*
X161000000Y-80525000D03*
D12*
G36*
X161474505Y-77901204D02*
X161498773Y-77904804D01*
X161522572Y-77910765D01*
X161545671Y-77919030D01*
X161567850Y-77929520D01*
X161588893Y-77942132D01*
X161608599Y-77956747D01*
X161626777Y-77973223D01*
X161643253Y-77991401D01*
X161657868Y-78011107D01*
X161670480Y-78032150D01*
X161680970Y-78054329D01*
X161689235Y-78077428D01*
X161695196Y-78101227D01*
X161698796Y-78125495D01*
X161700000Y-78149999D01*
X161700000Y-78800001D01*
X161698796Y-78824505D01*
X161695196Y-78848773D01*
X161689235Y-78872572D01*
X161680970Y-78895671D01*
X161670480Y-78917850D01*
X161657868Y-78938893D01*
X161643253Y-78958599D01*
X161626777Y-78976777D01*
X161608599Y-78993253D01*
X161588893Y-79007868D01*
X161567850Y-79020480D01*
X161545671Y-79030970D01*
X161522572Y-79039235D01*
X161498773Y-79045196D01*
X161474505Y-79048796D01*
X161450001Y-79050000D01*
X160549999Y-79050000D01*
X160525495Y-79048796D01*
X160501227Y-79045196D01*
X160477428Y-79039235D01*
X160454329Y-79030970D01*
X160432150Y-79020480D01*
X160411107Y-79007868D01*
X160391401Y-78993253D01*
X160373223Y-78976777D01*
X160356747Y-78958599D01*
X160342132Y-78938893D01*
X160329520Y-78917850D01*
X160319030Y-78895671D01*
X160310765Y-78872572D01*
X160304804Y-78848773D01*
X160301204Y-78824505D01*
X160300000Y-78800001D01*
X160300000Y-78149999D01*
X160301204Y-78125495D01*
X160304804Y-78101227D01*
X160310765Y-78077428D01*
X160319030Y-78054329D01*
X160329520Y-78032150D01*
X160342132Y-78011107D01*
X160356747Y-77991401D01*
X160373223Y-77973223D01*
X160391401Y-77956747D01*
X160411107Y-77942132D01*
X160432150Y-77929520D01*
X160454329Y-77919030D01*
X160477428Y-77910765D01*
X160501227Y-77904804D01*
X160525495Y-77901204D01*
X160549999Y-77900000D01*
X161450001Y-77900000D01*
X161474505Y-77901204D01*
X161474505Y-77901204D01*
G37*
D14*
X161000000Y-78475000D03*
G04 #@! TD*
D11*
G04 #@! TO.C,Q3*
X157800000Y-90525000D03*
X157800000Y-92425000D03*
X161200000Y-91475000D03*
G04 #@! TD*
D12*
G04 #@! TO.C,C7*
G36*
X148474504Y-82126204D02*
X148498773Y-82129804D01*
X148522571Y-82135765D01*
X148545671Y-82144030D01*
X148567849Y-82154520D01*
X148588893Y-82167133D01*
X148608598Y-82181747D01*
X148626777Y-82198223D01*
X148643253Y-82216402D01*
X148657867Y-82236107D01*
X148670480Y-82257151D01*
X148680970Y-82279329D01*
X148689235Y-82302429D01*
X148695196Y-82326227D01*
X148698796Y-82350496D01*
X148700000Y-82375000D01*
X148700000Y-83625000D01*
X148698796Y-83649504D01*
X148695196Y-83673773D01*
X148689235Y-83697571D01*
X148680970Y-83720671D01*
X148670480Y-83742849D01*
X148657867Y-83763893D01*
X148643253Y-83783598D01*
X148626777Y-83801777D01*
X148608598Y-83818253D01*
X148588893Y-83832867D01*
X148567849Y-83845480D01*
X148545671Y-83855970D01*
X148522571Y-83864235D01*
X148498773Y-83870196D01*
X148474504Y-83873796D01*
X148450000Y-83875000D01*
X147525000Y-83875000D01*
X147500496Y-83873796D01*
X147476227Y-83870196D01*
X147452429Y-83864235D01*
X147429329Y-83855970D01*
X147407151Y-83845480D01*
X147386107Y-83832867D01*
X147366402Y-83818253D01*
X147348223Y-83801777D01*
X147331747Y-83783598D01*
X147317133Y-83763893D01*
X147304520Y-83742849D01*
X147294030Y-83720671D01*
X147285765Y-83697571D01*
X147279804Y-83673773D01*
X147276204Y-83649504D01*
X147275000Y-83625000D01*
X147275000Y-82375000D01*
X147276204Y-82350496D01*
X147279804Y-82326227D01*
X147285765Y-82302429D01*
X147294030Y-82279329D01*
X147304520Y-82257151D01*
X147317133Y-82236107D01*
X147331747Y-82216402D01*
X147348223Y-82198223D01*
X147366402Y-82181747D01*
X147386107Y-82167133D01*
X147407151Y-82154520D01*
X147429329Y-82144030D01*
X147452429Y-82135765D01*
X147476227Y-82129804D01*
X147500496Y-82126204D01*
X147525000Y-82125000D01*
X148450000Y-82125000D01*
X148474504Y-82126204D01*
X148474504Y-82126204D01*
G37*
D13*
X147987500Y-83000000D03*
D12*
G36*
X145499504Y-82126204D02*
X145523773Y-82129804D01*
X145547571Y-82135765D01*
X145570671Y-82144030D01*
X145592849Y-82154520D01*
X145613893Y-82167133D01*
X145633598Y-82181747D01*
X145651777Y-82198223D01*
X145668253Y-82216402D01*
X145682867Y-82236107D01*
X145695480Y-82257151D01*
X145705970Y-82279329D01*
X145714235Y-82302429D01*
X145720196Y-82326227D01*
X145723796Y-82350496D01*
X145725000Y-82375000D01*
X145725000Y-83625000D01*
X145723796Y-83649504D01*
X145720196Y-83673773D01*
X145714235Y-83697571D01*
X145705970Y-83720671D01*
X145695480Y-83742849D01*
X145682867Y-83763893D01*
X145668253Y-83783598D01*
X145651777Y-83801777D01*
X145633598Y-83818253D01*
X145613893Y-83832867D01*
X145592849Y-83845480D01*
X145570671Y-83855970D01*
X145547571Y-83864235D01*
X145523773Y-83870196D01*
X145499504Y-83873796D01*
X145475000Y-83875000D01*
X144550000Y-83875000D01*
X144525496Y-83873796D01*
X144501227Y-83870196D01*
X144477429Y-83864235D01*
X144454329Y-83855970D01*
X144432151Y-83845480D01*
X144411107Y-83832867D01*
X144391402Y-83818253D01*
X144373223Y-83801777D01*
X144356747Y-83783598D01*
X144342133Y-83763893D01*
X144329520Y-83742849D01*
X144319030Y-83720671D01*
X144310765Y-83697571D01*
X144304804Y-83673773D01*
X144301204Y-83649504D01*
X144300000Y-83625000D01*
X144300000Y-82375000D01*
X144301204Y-82350496D01*
X144304804Y-82326227D01*
X144310765Y-82302429D01*
X144319030Y-82279329D01*
X144329520Y-82257151D01*
X144342133Y-82236107D01*
X144356747Y-82216402D01*
X144373223Y-82198223D01*
X144391402Y-82181747D01*
X144411107Y-82167133D01*
X144432151Y-82154520D01*
X144454329Y-82144030D01*
X144477429Y-82135765D01*
X144501227Y-82129804D01*
X144525496Y-82126204D01*
X144550000Y-82125000D01*
X145475000Y-82125000D01*
X145499504Y-82126204D01*
X145499504Y-82126204D01*
G37*
D13*
X145012500Y-83000000D03*
G04 #@! TD*
D12*
G04 #@! TO.C,R6*
G36*
X165424506Y-92976204D02*
X165448774Y-92979804D01*
X165472573Y-92985765D01*
X165495672Y-92994030D01*
X165517851Y-93004520D01*
X165538894Y-93017132D01*
X165558600Y-93031747D01*
X165576778Y-93048223D01*
X165593254Y-93066401D01*
X165607869Y-93086107D01*
X165620481Y-93107150D01*
X165630971Y-93129329D01*
X165639236Y-93152428D01*
X165645197Y-93176227D01*
X165648797Y-93200495D01*
X165650001Y-93224999D01*
X165650001Y-93875001D01*
X165648797Y-93899505D01*
X165645197Y-93923773D01*
X165639236Y-93947572D01*
X165630971Y-93970671D01*
X165620481Y-93992850D01*
X165607869Y-94013893D01*
X165593254Y-94033599D01*
X165576778Y-94051777D01*
X165558600Y-94068253D01*
X165538894Y-94082868D01*
X165517851Y-94095480D01*
X165495672Y-94105970D01*
X165472573Y-94114235D01*
X165448774Y-94120196D01*
X165424506Y-94123796D01*
X165400002Y-94125000D01*
X164500000Y-94125000D01*
X164475496Y-94123796D01*
X164451228Y-94120196D01*
X164427429Y-94114235D01*
X164404330Y-94105970D01*
X164382151Y-94095480D01*
X164361108Y-94082868D01*
X164341402Y-94068253D01*
X164323224Y-94051777D01*
X164306748Y-94033599D01*
X164292133Y-94013893D01*
X164279521Y-93992850D01*
X164269031Y-93970671D01*
X164260766Y-93947572D01*
X164254805Y-93923773D01*
X164251205Y-93899505D01*
X164250001Y-93875001D01*
X164250001Y-93224999D01*
X164251205Y-93200495D01*
X164254805Y-93176227D01*
X164260766Y-93152428D01*
X164269031Y-93129329D01*
X164279521Y-93107150D01*
X164292133Y-93086107D01*
X164306748Y-93066401D01*
X164323224Y-93048223D01*
X164341402Y-93031747D01*
X164361108Y-93017132D01*
X164382151Y-93004520D01*
X164404330Y-92994030D01*
X164427429Y-92985765D01*
X164451228Y-92979804D01*
X164475496Y-92976204D01*
X164500000Y-92975000D01*
X165400002Y-92975000D01*
X165424506Y-92976204D01*
X165424506Y-92976204D01*
G37*
D14*
X164950001Y-93550000D03*
D12*
G36*
X165424506Y-90926204D02*
X165448774Y-90929804D01*
X165472573Y-90935765D01*
X165495672Y-90944030D01*
X165517851Y-90954520D01*
X165538894Y-90967132D01*
X165558600Y-90981747D01*
X165576778Y-90998223D01*
X165593254Y-91016401D01*
X165607869Y-91036107D01*
X165620481Y-91057150D01*
X165630971Y-91079329D01*
X165639236Y-91102428D01*
X165645197Y-91126227D01*
X165648797Y-91150495D01*
X165650001Y-91174999D01*
X165650001Y-91825001D01*
X165648797Y-91849505D01*
X165645197Y-91873773D01*
X165639236Y-91897572D01*
X165630971Y-91920671D01*
X165620481Y-91942850D01*
X165607869Y-91963893D01*
X165593254Y-91983599D01*
X165576778Y-92001777D01*
X165558600Y-92018253D01*
X165538894Y-92032868D01*
X165517851Y-92045480D01*
X165495672Y-92055970D01*
X165472573Y-92064235D01*
X165448774Y-92070196D01*
X165424506Y-92073796D01*
X165400002Y-92075000D01*
X164500000Y-92075000D01*
X164475496Y-92073796D01*
X164451228Y-92070196D01*
X164427429Y-92064235D01*
X164404330Y-92055970D01*
X164382151Y-92045480D01*
X164361108Y-92032868D01*
X164341402Y-92018253D01*
X164323224Y-92001777D01*
X164306748Y-91983599D01*
X164292133Y-91963893D01*
X164279521Y-91942850D01*
X164269031Y-91920671D01*
X164260766Y-91897572D01*
X164254805Y-91873773D01*
X164251205Y-91849505D01*
X164250001Y-91825001D01*
X164250001Y-91174999D01*
X164251205Y-91150495D01*
X164254805Y-91126227D01*
X164260766Y-91102428D01*
X164269031Y-91079329D01*
X164279521Y-91057150D01*
X164292133Y-91036107D01*
X164306748Y-91016401D01*
X164323224Y-90998223D01*
X164341402Y-90981747D01*
X164361108Y-90967132D01*
X164382151Y-90954520D01*
X164404330Y-90944030D01*
X164427429Y-90935765D01*
X164451228Y-90929804D01*
X164475496Y-90926204D01*
X164500000Y-90925000D01*
X165400002Y-90925000D01*
X165424506Y-90926204D01*
X165424506Y-90926204D01*
G37*
D14*
X164950001Y-91500000D03*
G04 #@! TD*
D12*
G04 #@! TO.C,C7*
G36*
X145499504Y-133126204D02*
X145523773Y-133129804D01*
X145547571Y-133135765D01*
X145570671Y-133144030D01*
X145592849Y-133154520D01*
X145613893Y-133167133D01*
X145633598Y-133181747D01*
X145651777Y-133198223D01*
X145668253Y-133216402D01*
X145682867Y-133236107D01*
X145695480Y-133257151D01*
X145705970Y-133279329D01*
X145714235Y-133302429D01*
X145720196Y-133326227D01*
X145723796Y-133350496D01*
X145725000Y-133375000D01*
X145725000Y-134625000D01*
X145723796Y-134649504D01*
X145720196Y-134673773D01*
X145714235Y-134697571D01*
X145705970Y-134720671D01*
X145695480Y-134742849D01*
X145682867Y-134763893D01*
X145668253Y-134783598D01*
X145651777Y-134801777D01*
X145633598Y-134818253D01*
X145613893Y-134832867D01*
X145592849Y-134845480D01*
X145570671Y-134855970D01*
X145547571Y-134864235D01*
X145523773Y-134870196D01*
X145499504Y-134873796D01*
X145475000Y-134875000D01*
X144550000Y-134875000D01*
X144525496Y-134873796D01*
X144501227Y-134870196D01*
X144477429Y-134864235D01*
X144454329Y-134855970D01*
X144432151Y-134845480D01*
X144411107Y-134832867D01*
X144391402Y-134818253D01*
X144373223Y-134801777D01*
X144356747Y-134783598D01*
X144342133Y-134763893D01*
X144329520Y-134742849D01*
X144319030Y-134720671D01*
X144310765Y-134697571D01*
X144304804Y-134673773D01*
X144301204Y-134649504D01*
X144300000Y-134625000D01*
X144300000Y-133375000D01*
X144301204Y-133350496D01*
X144304804Y-133326227D01*
X144310765Y-133302429D01*
X144319030Y-133279329D01*
X144329520Y-133257151D01*
X144342133Y-133236107D01*
X144356747Y-133216402D01*
X144373223Y-133198223D01*
X144391402Y-133181747D01*
X144411107Y-133167133D01*
X144432151Y-133154520D01*
X144454329Y-133144030D01*
X144477429Y-133135765D01*
X144501227Y-133129804D01*
X144525496Y-133126204D01*
X144550000Y-133125000D01*
X145475000Y-133125000D01*
X145499504Y-133126204D01*
X145499504Y-133126204D01*
G37*
D13*
X145012500Y-134000000D03*
D12*
G36*
X148474504Y-133126204D02*
X148498773Y-133129804D01*
X148522571Y-133135765D01*
X148545671Y-133144030D01*
X148567849Y-133154520D01*
X148588893Y-133167133D01*
X148608598Y-133181747D01*
X148626777Y-133198223D01*
X148643253Y-133216402D01*
X148657867Y-133236107D01*
X148670480Y-133257151D01*
X148680970Y-133279329D01*
X148689235Y-133302429D01*
X148695196Y-133326227D01*
X148698796Y-133350496D01*
X148700000Y-133375000D01*
X148700000Y-134625000D01*
X148698796Y-134649504D01*
X148695196Y-134673773D01*
X148689235Y-134697571D01*
X148680970Y-134720671D01*
X148670480Y-134742849D01*
X148657867Y-134763893D01*
X148643253Y-134783598D01*
X148626777Y-134801777D01*
X148608598Y-134818253D01*
X148588893Y-134832867D01*
X148567849Y-134845480D01*
X148545671Y-134855970D01*
X148522571Y-134864235D01*
X148498773Y-134870196D01*
X148474504Y-134873796D01*
X148450000Y-134875000D01*
X147525000Y-134875000D01*
X147500496Y-134873796D01*
X147476227Y-134870196D01*
X147452429Y-134864235D01*
X147429329Y-134855970D01*
X147407151Y-134845480D01*
X147386107Y-134832867D01*
X147366402Y-134818253D01*
X147348223Y-134801777D01*
X147331747Y-134783598D01*
X147317133Y-134763893D01*
X147304520Y-134742849D01*
X147294030Y-134720671D01*
X147285765Y-134697571D01*
X147279804Y-134673773D01*
X147276204Y-134649504D01*
X147275000Y-134625000D01*
X147275000Y-133375000D01*
X147276204Y-133350496D01*
X147279804Y-133326227D01*
X147285765Y-133302429D01*
X147294030Y-133279329D01*
X147304520Y-133257151D01*
X147317133Y-133236107D01*
X147331747Y-133216402D01*
X147348223Y-133198223D01*
X147366402Y-133181747D01*
X147386107Y-133167133D01*
X147407151Y-133154520D01*
X147429329Y-133144030D01*
X147452429Y-133135765D01*
X147476227Y-133129804D01*
X147500496Y-133126204D01*
X147525000Y-133125000D01*
X148450000Y-133125000D01*
X148474504Y-133126204D01*
X148474504Y-133126204D01*
G37*
D13*
X147987500Y-134000000D03*
G04 #@! TD*
D12*
G04 #@! TO.C,C2*
G36*
X155649504Y-109263704D02*
X155673773Y-109267304D01*
X155697571Y-109273265D01*
X155720671Y-109281530D01*
X155742849Y-109292020D01*
X155763893Y-109304633D01*
X155783598Y-109319247D01*
X155801777Y-109335723D01*
X155818253Y-109353902D01*
X155832867Y-109373607D01*
X155845480Y-109394651D01*
X155855970Y-109416829D01*
X155864235Y-109439929D01*
X155870196Y-109463727D01*
X155873796Y-109487996D01*
X155875000Y-109512500D01*
X155875000Y-110437500D01*
X155873796Y-110462004D01*
X155870196Y-110486273D01*
X155864235Y-110510071D01*
X155855970Y-110533171D01*
X155845480Y-110555349D01*
X155832867Y-110576393D01*
X155818253Y-110596098D01*
X155801777Y-110614277D01*
X155783598Y-110630753D01*
X155763893Y-110645367D01*
X155742849Y-110657980D01*
X155720671Y-110668470D01*
X155697571Y-110676735D01*
X155673773Y-110682696D01*
X155649504Y-110686296D01*
X155625000Y-110687500D01*
X154375000Y-110687500D01*
X154350496Y-110686296D01*
X154326227Y-110682696D01*
X154302429Y-110676735D01*
X154279329Y-110668470D01*
X154257151Y-110657980D01*
X154236107Y-110645367D01*
X154216402Y-110630753D01*
X154198223Y-110614277D01*
X154181747Y-110596098D01*
X154167133Y-110576393D01*
X154154520Y-110555349D01*
X154144030Y-110533171D01*
X154135765Y-110510071D01*
X154129804Y-110486273D01*
X154126204Y-110462004D01*
X154125000Y-110437500D01*
X154125000Y-109512500D01*
X154126204Y-109487996D01*
X154129804Y-109463727D01*
X154135765Y-109439929D01*
X154144030Y-109416829D01*
X154154520Y-109394651D01*
X154167133Y-109373607D01*
X154181747Y-109353902D01*
X154198223Y-109335723D01*
X154216402Y-109319247D01*
X154236107Y-109304633D01*
X154257151Y-109292020D01*
X154279329Y-109281530D01*
X154302429Y-109273265D01*
X154326227Y-109267304D01*
X154350496Y-109263704D01*
X154375000Y-109262500D01*
X155625000Y-109262500D01*
X155649504Y-109263704D01*
X155649504Y-109263704D01*
G37*
D13*
X155000000Y-109975000D03*
D12*
G36*
X155649504Y-106288704D02*
X155673773Y-106292304D01*
X155697571Y-106298265D01*
X155720671Y-106306530D01*
X155742849Y-106317020D01*
X155763893Y-106329633D01*
X155783598Y-106344247D01*
X155801777Y-106360723D01*
X155818253Y-106378902D01*
X155832867Y-106398607D01*
X155845480Y-106419651D01*
X155855970Y-106441829D01*
X155864235Y-106464929D01*
X155870196Y-106488727D01*
X155873796Y-106512996D01*
X155875000Y-106537500D01*
X155875000Y-107462500D01*
X155873796Y-107487004D01*
X155870196Y-107511273D01*
X155864235Y-107535071D01*
X155855970Y-107558171D01*
X155845480Y-107580349D01*
X155832867Y-107601393D01*
X155818253Y-107621098D01*
X155801777Y-107639277D01*
X155783598Y-107655753D01*
X155763893Y-107670367D01*
X155742849Y-107682980D01*
X155720671Y-107693470D01*
X155697571Y-107701735D01*
X155673773Y-107707696D01*
X155649504Y-107711296D01*
X155625000Y-107712500D01*
X154375000Y-107712500D01*
X154350496Y-107711296D01*
X154326227Y-107707696D01*
X154302429Y-107701735D01*
X154279329Y-107693470D01*
X154257151Y-107682980D01*
X154236107Y-107670367D01*
X154216402Y-107655753D01*
X154198223Y-107639277D01*
X154181747Y-107621098D01*
X154167133Y-107601393D01*
X154154520Y-107580349D01*
X154144030Y-107558171D01*
X154135765Y-107535071D01*
X154129804Y-107511273D01*
X154126204Y-107487004D01*
X154125000Y-107462500D01*
X154125000Y-106537500D01*
X154126204Y-106512996D01*
X154129804Y-106488727D01*
X154135765Y-106464929D01*
X154144030Y-106441829D01*
X154154520Y-106419651D01*
X154167133Y-106398607D01*
X154181747Y-106378902D01*
X154198223Y-106360723D01*
X154216402Y-106344247D01*
X154236107Y-106329633D01*
X154257151Y-106317020D01*
X154279329Y-106306530D01*
X154302429Y-106298265D01*
X154326227Y-106292304D01*
X154350496Y-106288704D01*
X154375000Y-106287500D01*
X155625000Y-106287500D01*
X155649504Y-106288704D01*
X155649504Y-106288704D01*
G37*
D13*
X155000000Y-107000000D03*
G04 #@! TD*
D12*
G04 #@! TO.C,C3*
G36*
X158499504Y-133101204D02*
X158523773Y-133104804D01*
X158547571Y-133110765D01*
X158570671Y-133119030D01*
X158592849Y-133129520D01*
X158613893Y-133142133D01*
X158633598Y-133156747D01*
X158651777Y-133173223D01*
X158668253Y-133191402D01*
X158682867Y-133211107D01*
X158695480Y-133232151D01*
X158705970Y-133254329D01*
X158714235Y-133277429D01*
X158720196Y-133301227D01*
X158723796Y-133325496D01*
X158725000Y-133350000D01*
X158725000Y-134600000D01*
X158723796Y-134624504D01*
X158720196Y-134648773D01*
X158714235Y-134672571D01*
X158705970Y-134695671D01*
X158695480Y-134717849D01*
X158682867Y-134738893D01*
X158668253Y-134758598D01*
X158651777Y-134776777D01*
X158633598Y-134793253D01*
X158613893Y-134807867D01*
X158592849Y-134820480D01*
X158570671Y-134830970D01*
X158547571Y-134839235D01*
X158523773Y-134845196D01*
X158499504Y-134848796D01*
X158475000Y-134850000D01*
X157550000Y-134850000D01*
X157525496Y-134848796D01*
X157501227Y-134845196D01*
X157477429Y-134839235D01*
X157454329Y-134830970D01*
X157432151Y-134820480D01*
X157411107Y-134807867D01*
X157391402Y-134793253D01*
X157373223Y-134776777D01*
X157356747Y-134758598D01*
X157342133Y-134738893D01*
X157329520Y-134717849D01*
X157319030Y-134695671D01*
X157310765Y-134672571D01*
X157304804Y-134648773D01*
X157301204Y-134624504D01*
X157300000Y-134600000D01*
X157300000Y-133350000D01*
X157301204Y-133325496D01*
X157304804Y-133301227D01*
X157310765Y-133277429D01*
X157319030Y-133254329D01*
X157329520Y-133232151D01*
X157342133Y-133211107D01*
X157356747Y-133191402D01*
X157373223Y-133173223D01*
X157391402Y-133156747D01*
X157411107Y-133142133D01*
X157432151Y-133129520D01*
X157454329Y-133119030D01*
X157477429Y-133110765D01*
X157501227Y-133104804D01*
X157525496Y-133101204D01*
X157550000Y-133100000D01*
X158475000Y-133100000D01*
X158499504Y-133101204D01*
X158499504Y-133101204D01*
G37*
D13*
X158012500Y-133975000D03*
D12*
G36*
X161474504Y-133101204D02*
X161498773Y-133104804D01*
X161522571Y-133110765D01*
X161545671Y-133119030D01*
X161567849Y-133129520D01*
X161588893Y-133142133D01*
X161608598Y-133156747D01*
X161626777Y-133173223D01*
X161643253Y-133191402D01*
X161657867Y-133211107D01*
X161670480Y-133232151D01*
X161680970Y-133254329D01*
X161689235Y-133277429D01*
X161695196Y-133301227D01*
X161698796Y-133325496D01*
X161700000Y-133350000D01*
X161700000Y-134600000D01*
X161698796Y-134624504D01*
X161695196Y-134648773D01*
X161689235Y-134672571D01*
X161680970Y-134695671D01*
X161670480Y-134717849D01*
X161657867Y-134738893D01*
X161643253Y-134758598D01*
X161626777Y-134776777D01*
X161608598Y-134793253D01*
X161588893Y-134807867D01*
X161567849Y-134820480D01*
X161545671Y-134830970D01*
X161522571Y-134839235D01*
X161498773Y-134845196D01*
X161474504Y-134848796D01*
X161450000Y-134850000D01*
X160525000Y-134850000D01*
X160500496Y-134848796D01*
X160476227Y-134845196D01*
X160452429Y-134839235D01*
X160429329Y-134830970D01*
X160407151Y-134820480D01*
X160386107Y-134807867D01*
X160366402Y-134793253D01*
X160348223Y-134776777D01*
X160331747Y-134758598D01*
X160317133Y-134738893D01*
X160304520Y-134717849D01*
X160294030Y-134695671D01*
X160285765Y-134672571D01*
X160279804Y-134648773D01*
X160276204Y-134624504D01*
X160275000Y-134600000D01*
X160275000Y-133350000D01*
X160276204Y-133325496D01*
X160279804Y-133301227D01*
X160285765Y-133277429D01*
X160294030Y-133254329D01*
X160304520Y-133232151D01*
X160317133Y-133211107D01*
X160331747Y-133191402D01*
X160348223Y-133173223D01*
X160366402Y-133156747D01*
X160386107Y-133142133D01*
X160407151Y-133129520D01*
X160429329Y-133119030D01*
X160452429Y-133110765D01*
X160476227Y-133104804D01*
X160500496Y-133101204D01*
X160525000Y-133100000D01*
X161450000Y-133100000D01*
X161474504Y-133101204D01*
X161474504Y-133101204D01*
G37*
D13*
X160987500Y-133975000D03*
G04 #@! TD*
D12*
G04 #@! TO.C,C4*
G36*
X128999504Y-141126204D02*
X129023773Y-141129804D01*
X129047571Y-141135765D01*
X129070671Y-141144030D01*
X129092849Y-141154520D01*
X129113893Y-141167133D01*
X129133598Y-141181747D01*
X129151777Y-141198223D01*
X129168253Y-141216402D01*
X129182867Y-141236107D01*
X129195480Y-141257151D01*
X129205970Y-141279329D01*
X129214235Y-141302429D01*
X129220196Y-141326227D01*
X129223796Y-141350496D01*
X129225000Y-141375000D01*
X129225000Y-142625000D01*
X129223796Y-142649504D01*
X129220196Y-142673773D01*
X129214235Y-142697571D01*
X129205970Y-142720671D01*
X129195480Y-142742849D01*
X129182867Y-142763893D01*
X129168253Y-142783598D01*
X129151777Y-142801777D01*
X129133598Y-142818253D01*
X129113893Y-142832867D01*
X129092849Y-142845480D01*
X129070671Y-142855970D01*
X129047571Y-142864235D01*
X129023773Y-142870196D01*
X128999504Y-142873796D01*
X128975000Y-142875000D01*
X128050000Y-142875000D01*
X128025496Y-142873796D01*
X128001227Y-142870196D01*
X127977429Y-142864235D01*
X127954329Y-142855970D01*
X127932151Y-142845480D01*
X127911107Y-142832867D01*
X127891402Y-142818253D01*
X127873223Y-142801777D01*
X127856747Y-142783598D01*
X127842133Y-142763893D01*
X127829520Y-142742849D01*
X127819030Y-142720671D01*
X127810765Y-142697571D01*
X127804804Y-142673773D01*
X127801204Y-142649504D01*
X127800000Y-142625000D01*
X127800000Y-141375000D01*
X127801204Y-141350496D01*
X127804804Y-141326227D01*
X127810765Y-141302429D01*
X127819030Y-141279329D01*
X127829520Y-141257151D01*
X127842133Y-141236107D01*
X127856747Y-141216402D01*
X127873223Y-141198223D01*
X127891402Y-141181747D01*
X127911107Y-141167133D01*
X127932151Y-141154520D01*
X127954329Y-141144030D01*
X127977429Y-141135765D01*
X128001227Y-141129804D01*
X128025496Y-141126204D01*
X128050000Y-141125000D01*
X128975000Y-141125000D01*
X128999504Y-141126204D01*
X128999504Y-141126204D01*
G37*
D13*
X128512500Y-142000000D03*
D12*
G36*
X131974504Y-141126204D02*
X131998773Y-141129804D01*
X132022571Y-141135765D01*
X132045671Y-141144030D01*
X132067849Y-141154520D01*
X132088893Y-141167133D01*
X132108598Y-141181747D01*
X132126777Y-141198223D01*
X132143253Y-141216402D01*
X132157867Y-141236107D01*
X132170480Y-141257151D01*
X132180970Y-141279329D01*
X132189235Y-141302429D01*
X132195196Y-141326227D01*
X132198796Y-141350496D01*
X132200000Y-141375000D01*
X132200000Y-142625000D01*
X132198796Y-142649504D01*
X132195196Y-142673773D01*
X132189235Y-142697571D01*
X132180970Y-142720671D01*
X132170480Y-142742849D01*
X132157867Y-142763893D01*
X132143253Y-142783598D01*
X132126777Y-142801777D01*
X132108598Y-142818253D01*
X132088893Y-142832867D01*
X132067849Y-142845480D01*
X132045671Y-142855970D01*
X132022571Y-142864235D01*
X131998773Y-142870196D01*
X131974504Y-142873796D01*
X131950000Y-142875000D01*
X131025000Y-142875000D01*
X131000496Y-142873796D01*
X130976227Y-142870196D01*
X130952429Y-142864235D01*
X130929329Y-142855970D01*
X130907151Y-142845480D01*
X130886107Y-142832867D01*
X130866402Y-142818253D01*
X130848223Y-142801777D01*
X130831747Y-142783598D01*
X130817133Y-142763893D01*
X130804520Y-142742849D01*
X130794030Y-142720671D01*
X130785765Y-142697571D01*
X130779804Y-142673773D01*
X130776204Y-142649504D01*
X130775000Y-142625000D01*
X130775000Y-141375000D01*
X130776204Y-141350496D01*
X130779804Y-141326227D01*
X130785765Y-141302429D01*
X130794030Y-141279329D01*
X130804520Y-141257151D01*
X130817133Y-141236107D01*
X130831747Y-141216402D01*
X130848223Y-141198223D01*
X130866402Y-141181747D01*
X130886107Y-141167133D01*
X130907151Y-141154520D01*
X130929329Y-141144030D01*
X130952429Y-141135765D01*
X130976227Y-141129804D01*
X131000496Y-141126204D01*
X131025000Y-141125000D01*
X131950000Y-141125000D01*
X131974504Y-141126204D01*
X131974504Y-141126204D01*
G37*
D13*
X131487500Y-142000000D03*
G04 #@! TD*
D12*
G04 #@! TO.C,C5*
G36*
X128999504Y-137126204D02*
X129023773Y-137129804D01*
X129047571Y-137135765D01*
X129070671Y-137144030D01*
X129092849Y-137154520D01*
X129113893Y-137167133D01*
X129133598Y-137181747D01*
X129151777Y-137198223D01*
X129168253Y-137216402D01*
X129182867Y-137236107D01*
X129195480Y-137257151D01*
X129205970Y-137279329D01*
X129214235Y-137302429D01*
X129220196Y-137326227D01*
X129223796Y-137350496D01*
X129225000Y-137375000D01*
X129225000Y-138625000D01*
X129223796Y-138649504D01*
X129220196Y-138673773D01*
X129214235Y-138697571D01*
X129205970Y-138720671D01*
X129195480Y-138742849D01*
X129182867Y-138763893D01*
X129168253Y-138783598D01*
X129151777Y-138801777D01*
X129133598Y-138818253D01*
X129113893Y-138832867D01*
X129092849Y-138845480D01*
X129070671Y-138855970D01*
X129047571Y-138864235D01*
X129023773Y-138870196D01*
X128999504Y-138873796D01*
X128975000Y-138875000D01*
X128050000Y-138875000D01*
X128025496Y-138873796D01*
X128001227Y-138870196D01*
X127977429Y-138864235D01*
X127954329Y-138855970D01*
X127932151Y-138845480D01*
X127911107Y-138832867D01*
X127891402Y-138818253D01*
X127873223Y-138801777D01*
X127856747Y-138783598D01*
X127842133Y-138763893D01*
X127829520Y-138742849D01*
X127819030Y-138720671D01*
X127810765Y-138697571D01*
X127804804Y-138673773D01*
X127801204Y-138649504D01*
X127800000Y-138625000D01*
X127800000Y-137375000D01*
X127801204Y-137350496D01*
X127804804Y-137326227D01*
X127810765Y-137302429D01*
X127819030Y-137279329D01*
X127829520Y-137257151D01*
X127842133Y-137236107D01*
X127856747Y-137216402D01*
X127873223Y-137198223D01*
X127891402Y-137181747D01*
X127911107Y-137167133D01*
X127932151Y-137154520D01*
X127954329Y-137144030D01*
X127977429Y-137135765D01*
X128001227Y-137129804D01*
X128025496Y-137126204D01*
X128050000Y-137125000D01*
X128975000Y-137125000D01*
X128999504Y-137126204D01*
X128999504Y-137126204D01*
G37*
D13*
X128512500Y-138000000D03*
D12*
G36*
X131974504Y-137126204D02*
X131998773Y-137129804D01*
X132022571Y-137135765D01*
X132045671Y-137144030D01*
X132067849Y-137154520D01*
X132088893Y-137167133D01*
X132108598Y-137181747D01*
X132126777Y-137198223D01*
X132143253Y-137216402D01*
X132157867Y-137236107D01*
X132170480Y-137257151D01*
X132180970Y-137279329D01*
X132189235Y-137302429D01*
X132195196Y-137326227D01*
X132198796Y-137350496D01*
X132200000Y-137375000D01*
X132200000Y-138625000D01*
X132198796Y-138649504D01*
X132195196Y-138673773D01*
X132189235Y-138697571D01*
X132180970Y-138720671D01*
X132170480Y-138742849D01*
X132157867Y-138763893D01*
X132143253Y-138783598D01*
X132126777Y-138801777D01*
X132108598Y-138818253D01*
X132088893Y-138832867D01*
X132067849Y-138845480D01*
X132045671Y-138855970D01*
X132022571Y-138864235D01*
X131998773Y-138870196D01*
X131974504Y-138873796D01*
X131950000Y-138875000D01*
X131025000Y-138875000D01*
X131000496Y-138873796D01*
X130976227Y-138870196D01*
X130952429Y-138864235D01*
X130929329Y-138855970D01*
X130907151Y-138845480D01*
X130886107Y-138832867D01*
X130866402Y-138818253D01*
X130848223Y-138801777D01*
X130831747Y-138783598D01*
X130817133Y-138763893D01*
X130804520Y-138742849D01*
X130794030Y-138720671D01*
X130785765Y-138697571D01*
X130779804Y-138673773D01*
X130776204Y-138649504D01*
X130775000Y-138625000D01*
X130775000Y-137375000D01*
X130776204Y-137350496D01*
X130779804Y-137326227D01*
X130785765Y-137302429D01*
X130794030Y-137279329D01*
X130804520Y-137257151D01*
X130817133Y-137236107D01*
X130831747Y-137216402D01*
X130848223Y-137198223D01*
X130866402Y-137181747D01*
X130886107Y-137167133D01*
X130907151Y-137154520D01*
X130929329Y-137144030D01*
X130952429Y-137135765D01*
X130976227Y-137129804D01*
X131000496Y-137126204D01*
X131025000Y-137125000D01*
X131950000Y-137125000D01*
X131974504Y-137126204D01*
X131974504Y-137126204D01*
G37*
D13*
X131487500Y-138000000D03*
G04 #@! TD*
D12*
G04 #@! TO.C,C6*
G36*
X128999504Y-133126204D02*
X129023773Y-133129804D01*
X129047571Y-133135765D01*
X129070671Y-133144030D01*
X129092849Y-133154520D01*
X129113893Y-133167133D01*
X129133598Y-133181747D01*
X129151777Y-133198223D01*
X129168253Y-133216402D01*
X129182867Y-133236107D01*
X129195480Y-133257151D01*
X129205970Y-133279329D01*
X129214235Y-133302429D01*
X129220196Y-133326227D01*
X129223796Y-133350496D01*
X129225000Y-133375000D01*
X129225000Y-134625000D01*
X129223796Y-134649504D01*
X129220196Y-134673773D01*
X129214235Y-134697571D01*
X129205970Y-134720671D01*
X129195480Y-134742849D01*
X129182867Y-134763893D01*
X129168253Y-134783598D01*
X129151777Y-134801777D01*
X129133598Y-134818253D01*
X129113893Y-134832867D01*
X129092849Y-134845480D01*
X129070671Y-134855970D01*
X129047571Y-134864235D01*
X129023773Y-134870196D01*
X128999504Y-134873796D01*
X128975000Y-134875000D01*
X128050000Y-134875000D01*
X128025496Y-134873796D01*
X128001227Y-134870196D01*
X127977429Y-134864235D01*
X127954329Y-134855970D01*
X127932151Y-134845480D01*
X127911107Y-134832867D01*
X127891402Y-134818253D01*
X127873223Y-134801777D01*
X127856747Y-134783598D01*
X127842133Y-134763893D01*
X127829520Y-134742849D01*
X127819030Y-134720671D01*
X127810765Y-134697571D01*
X127804804Y-134673773D01*
X127801204Y-134649504D01*
X127800000Y-134625000D01*
X127800000Y-133375000D01*
X127801204Y-133350496D01*
X127804804Y-133326227D01*
X127810765Y-133302429D01*
X127819030Y-133279329D01*
X127829520Y-133257151D01*
X127842133Y-133236107D01*
X127856747Y-133216402D01*
X127873223Y-133198223D01*
X127891402Y-133181747D01*
X127911107Y-133167133D01*
X127932151Y-133154520D01*
X127954329Y-133144030D01*
X127977429Y-133135765D01*
X128001227Y-133129804D01*
X128025496Y-133126204D01*
X128050000Y-133125000D01*
X128975000Y-133125000D01*
X128999504Y-133126204D01*
X128999504Y-133126204D01*
G37*
D13*
X128512500Y-134000000D03*
D12*
G36*
X131974504Y-133126204D02*
X131998773Y-133129804D01*
X132022571Y-133135765D01*
X132045671Y-133144030D01*
X132067849Y-133154520D01*
X132088893Y-133167133D01*
X132108598Y-133181747D01*
X132126777Y-133198223D01*
X132143253Y-133216402D01*
X132157867Y-133236107D01*
X132170480Y-133257151D01*
X132180970Y-133279329D01*
X132189235Y-133302429D01*
X132195196Y-133326227D01*
X132198796Y-133350496D01*
X132200000Y-133375000D01*
X132200000Y-134625000D01*
X132198796Y-134649504D01*
X132195196Y-134673773D01*
X132189235Y-134697571D01*
X132180970Y-134720671D01*
X132170480Y-134742849D01*
X132157867Y-134763893D01*
X132143253Y-134783598D01*
X132126777Y-134801777D01*
X132108598Y-134818253D01*
X132088893Y-134832867D01*
X132067849Y-134845480D01*
X132045671Y-134855970D01*
X132022571Y-134864235D01*
X131998773Y-134870196D01*
X131974504Y-134873796D01*
X131950000Y-134875000D01*
X131025000Y-134875000D01*
X131000496Y-134873796D01*
X130976227Y-134870196D01*
X130952429Y-134864235D01*
X130929329Y-134855970D01*
X130907151Y-134845480D01*
X130886107Y-134832867D01*
X130866402Y-134818253D01*
X130848223Y-134801777D01*
X130831747Y-134783598D01*
X130817133Y-134763893D01*
X130804520Y-134742849D01*
X130794030Y-134720671D01*
X130785765Y-134697571D01*
X130779804Y-134673773D01*
X130776204Y-134649504D01*
X130775000Y-134625000D01*
X130775000Y-133375000D01*
X130776204Y-133350496D01*
X130779804Y-133326227D01*
X130785765Y-133302429D01*
X130794030Y-133279329D01*
X130804520Y-133257151D01*
X130817133Y-133236107D01*
X130831747Y-133216402D01*
X130848223Y-133198223D01*
X130866402Y-133181747D01*
X130886107Y-133167133D01*
X130907151Y-133154520D01*
X130929329Y-133144030D01*
X130952429Y-133135765D01*
X130976227Y-133129804D01*
X131000496Y-133126204D01*
X131025000Y-133125000D01*
X131950000Y-133125000D01*
X131974504Y-133126204D01*
X131974504Y-133126204D01*
G37*
D13*
X131487500Y-134000000D03*
G04 #@! TD*
D12*
G04 #@! TO.C,D1*
G36*
X144999504Y-102626204D02*
X145023773Y-102629804D01*
X145047571Y-102635765D01*
X145070671Y-102644030D01*
X145092849Y-102654520D01*
X145113893Y-102667133D01*
X145133598Y-102681747D01*
X145151777Y-102698223D01*
X145168253Y-102716402D01*
X145182867Y-102736107D01*
X145195480Y-102757151D01*
X145205970Y-102779329D01*
X145214235Y-102802429D01*
X145220196Y-102826227D01*
X145223796Y-102850496D01*
X145225000Y-102875000D01*
X145225000Y-104125000D01*
X145223796Y-104149504D01*
X145220196Y-104173773D01*
X145214235Y-104197571D01*
X145205970Y-104220671D01*
X145195480Y-104242849D01*
X145182867Y-104263893D01*
X145168253Y-104283598D01*
X145151777Y-104301777D01*
X145133598Y-104318253D01*
X145113893Y-104332867D01*
X145092849Y-104345480D01*
X145070671Y-104355970D01*
X145047571Y-104364235D01*
X145023773Y-104370196D01*
X144999504Y-104373796D01*
X144975000Y-104375000D01*
X144050000Y-104375000D01*
X144025496Y-104373796D01*
X144001227Y-104370196D01*
X143977429Y-104364235D01*
X143954329Y-104355970D01*
X143932151Y-104345480D01*
X143911107Y-104332867D01*
X143891402Y-104318253D01*
X143873223Y-104301777D01*
X143856747Y-104283598D01*
X143842133Y-104263893D01*
X143829520Y-104242849D01*
X143819030Y-104220671D01*
X143810765Y-104197571D01*
X143804804Y-104173773D01*
X143801204Y-104149504D01*
X143800000Y-104125000D01*
X143800000Y-102875000D01*
X143801204Y-102850496D01*
X143804804Y-102826227D01*
X143810765Y-102802429D01*
X143819030Y-102779329D01*
X143829520Y-102757151D01*
X143842133Y-102736107D01*
X143856747Y-102716402D01*
X143873223Y-102698223D01*
X143891402Y-102681747D01*
X143911107Y-102667133D01*
X143932151Y-102654520D01*
X143954329Y-102644030D01*
X143977429Y-102635765D01*
X144001227Y-102629804D01*
X144025496Y-102626204D01*
X144050000Y-102625000D01*
X144975000Y-102625000D01*
X144999504Y-102626204D01*
X144999504Y-102626204D01*
G37*
D13*
X144512500Y-103500000D03*
D12*
G36*
X147974504Y-102626204D02*
X147998773Y-102629804D01*
X148022571Y-102635765D01*
X148045671Y-102644030D01*
X148067849Y-102654520D01*
X148088893Y-102667133D01*
X148108598Y-102681747D01*
X148126777Y-102698223D01*
X148143253Y-102716402D01*
X148157867Y-102736107D01*
X148170480Y-102757151D01*
X148180970Y-102779329D01*
X148189235Y-102802429D01*
X148195196Y-102826227D01*
X148198796Y-102850496D01*
X148200000Y-102875000D01*
X148200000Y-104125000D01*
X148198796Y-104149504D01*
X148195196Y-104173773D01*
X148189235Y-104197571D01*
X148180970Y-104220671D01*
X148170480Y-104242849D01*
X148157867Y-104263893D01*
X148143253Y-104283598D01*
X148126777Y-104301777D01*
X148108598Y-104318253D01*
X148088893Y-104332867D01*
X148067849Y-104345480D01*
X148045671Y-104355970D01*
X148022571Y-104364235D01*
X147998773Y-104370196D01*
X147974504Y-104373796D01*
X147950000Y-104375000D01*
X147025000Y-104375000D01*
X147000496Y-104373796D01*
X146976227Y-104370196D01*
X146952429Y-104364235D01*
X146929329Y-104355970D01*
X146907151Y-104345480D01*
X146886107Y-104332867D01*
X146866402Y-104318253D01*
X146848223Y-104301777D01*
X146831747Y-104283598D01*
X146817133Y-104263893D01*
X146804520Y-104242849D01*
X146794030Y-104220671D01*
X146785765Y-104197571D01*
X146779804Y-104173773D01*
X146776204Y-104149504D01*
X146775000Y-104125000D01*
X146775000Y-102875000D01*
X146776204Y-102850496D01*
X146779804Y-102826227D01*
X146785765Y-102802429D01*
X146794030Y-102779329D01*
X146804520Y-102757151D01*
X146817133Y-102736107D01*
X146831747Y-102716402D01*
X146848223Y-102698223D01*
X146866402Y-102681747D01*
X146886107Y-102667133D01*
X146907151Y-102654520D01*
X146929329Y-102644030D01*
X146952429Y-102635765D01*
X146976227Y-102629804D01*
X147000496Y-102626204D01*
X147025000Y-102625000D01*
X147950000Y-102625000D01*
X147974504Y-102626204D01*
X147974504Y-102626204D01*
G37*
D13*
X147487500Y-103500000D03*
G04 #@! TD*
D12*
G04 #@! TO.C,D2*
G36*
X138974504Y-102626204D02*
X138998773Y-102629804D01*
X139022571Y-102635765D01*
X139045671Y-102644030D01*
X139067849Y-102654520D01*
X139088893Y-102667133D01*
X139108598Y-102681747D01*
X139126777Y-102698223D01*
X139143253Y-102716402D01*
X139157867Y-102736107D01*
X139170480Y-102757151D01*
X139180970Y-102779329D01*
X139189235Y-102802429D01*
X139195196Y-102826227D01*
X139198796Y-102850496D01*
X139200000Y-102875000D01*
X139200000Y-104125000D01*
X139198796Y-104149504D01*
X139195196Y-104173773D01*
X139189235Y-104197571D01*
X139180970Y-104220671D01*
X139170480Y-104242849D01*
X139157867Y-104263893D01*
X139143253Y-104283598D01*
X139126777Y-104301777D01*
X139108598Y-104318253D01*
X139088893Y-104332867D01*
X139067849Y-104345480D01*
X139045671Y-104355970D01*
X139022571Y-104364235D01*
X138998773Y-104370196D01*
X138974504Y-104373796D01*
X138950000Y-104375000D01*
X138025000Y-104375000D01*
X138000496Y-104373796D01*
X137976227Y-104370196D01*
X137952429Y-104364235D01*
X137929329Y-104355970D01*
X137907151Y-104345480D01*
X137886107Y-104332867D01*
X137866402Y-104318253D01*
X137848223Y-104301777D01*
X137831747Y-104283598D01*
X137817133Y-104263893D01*
X137804520Y-104242849D01*
X137794030Y-104220671D01*
X137785765Y-104197571D01*
X137779804Y-104173773D01*
X137776204Y-104149504D01*
X137775000Y-104125000D01*
X137775000Y-102875000D01*
X137776204Y-102850496D01*
X137779804Y-102826227D01*
X137785765Y-102802429D01*
X137794030Y-102779329D01*
X137804520Y-102757151D01*
X137817133Y-102736107D01*
X137831747Y-102716402D01*
X137848223Y-102698223D01*
X137866402Y-102681747D01*
X137886107Y-102667133D01*
X137907151Y-102654520D01*
X137929329Y-102644030D01*
X137952429Y-102635765D01*
X137976227Y-102629804D01*
X138000496Y-102626204D01*
X138025000Y-102625000D01*
X138950000Y-102625000D01*
X138974504Y-102626204D01*
X138974504Y-102626204D01*
G37*
D13*
X138487500Y-103500000D03*
D12*
G36*
X135999504Y-102626204D02*
X136023773Y-102629804D01*
X136047571Y-102635765D01*
X136070671Y-102644030D01*
X136092849Y-102654520D01*
X136113893Y-102667133D01*
X136133598Y-102681747D01*
X136151777Y-102698223D01*
X136168253Y-102716402D01*
X136182867Y-102736107D01*
X136195480Y-102757151D01*
X136205970Y-102779329D01*
X136214235Y-102802429D01*
X136220196Y-102826227D01*
X136223796Y-102850496D01*
X136225000Y-102875000D01*
X136225000Y-104125000D01*
X136223796Y-104149504D01*
X136220196Y-104173773D01*
X136214235Y-104197571D01*
X136205970Y-104220671D01*
X136195480Y-104242849D01*
X136182867Y-104263893D01*
X136168253Y-104283598D01*
X136151777Y-104301777D01*
X136133598Y-104318253D01*
X136113893Y-104332867D01*
X136092849Y-104345480D01*
X136070671Y-104355970D01*
X136047571Y-104364235D01*
X136023773Y-104370196D01*
X135999504Y-104373796D01*
X135975000Y-104375000D01*
X135050000Y-104375000D01*
X135025496Y-104373796D01*
X135001227Y-104370196D01*
X134977429Y-104364235D01*
X134954329Y-104355970D01*
X134932151Y-104345480D01*
X134911107Y-104332867D01*
X134891402Y-104318253D01*
X134873223Y-104301777D01*
X134856747Y-104283598D01*
X134842133Y-104263893D01*
X134829520Y-104242849D01*
X134819030Y-104220671D01*
X134810765Y-104197571D01*
X134804804Y-104173773D01*
X134801204Y-104149504D01*
X134800000Y-104125000D01*
X134800000Y-102875000D01*
X134801204Y-102850496D01*
X134804804Y-102826227D01*
X134810765Y-102802429D01*
X134819030Y-102779329D01*
X134829520Y-102757151D01*
X134842133Y-102736107D01*
X134856747Y-102716402D01*
X134873223Y-102698223D01*
X134891402Y-102681747D01*
X134911107Y-102667133D01*
X134932151Y-102654520D01*
X134954329Y-102644030D01*
X134977429Y-102635765D01*
X135001227Y-102629804D01*
X135025496Y-102626204D01*
X135050000Y-102625000D01*
X135975000Y-102625000D01*
X135999504Y-102626204D01*
X135999504Y-102626204D01*
G37*
D13*
X135512500Y-103500000D03*
G04 #@! TD*
D12*
G04 #@! TO.C,C1*
G36*
X152149504Y-109263704D02*
X152173773Y-109267304D01*
X152197571Y-109273265D01*
X152220671Y-109281530D01*
X152242849Y-109292020D01*
X152263893Y-109304633D01*
X152283598Y-109319247D01*
X152301777Y-109335723D01*
X152318253Y-109353902D01*
X152332867Y-109373607D01*
X152345480Y-109394651D01*
X152355970Y-109416829D01*
X152364235Y-109439929D01*
X152370196Y-109463727D01*
X152373796Y-109487996D01*
X152375000Y-109512500D01*
X152375000Y-110437500D01*
X152373796Y-110462004D01*
X152370196Y-110486273D01*
X152364235Y-110510071D01*
X152355970Y-110533171D01*
X152345480Y-110555349D01*
X152332867Y-110576393D01*
X152318253Y-110596098D01*
X152301777Y-110614277D01*
X152283598Y-110630753D01*
X152263893Y-110645367D01*
X152242849Y-110657980D01*
X152220671Y-110668470D01*
X152197571Y-110676735D01*
X152173773Y-110682696D01*
X152149504Y-110686296D01*
X152125000Y-110687500D01*
X150875000Y-110687500D01*
X150850496Y-110686296D01*
X150826227Y-110682696D01*
X150802429Y-110676735D01*
X150779329Y-110668470D01*
X150757151Y-110657980D01*
X150736107Y-110645367D01*
X150716402Y-110630753D01*
X150698223Y-110614277D01*
X150681747Y-110596098D01*
X150667133Y-110576393D01*
X150654520Y-110555349D01*
X150644030Y-110533171D01*
X150635765Y-110510071D01*
X150629804Y-110486273D01*
X150626204Y-110462004D01*
X150625000Y-110437500D01*
X150625000Y-109512500D01*
X150626204Y-109487996D01*
X150629804Y-109463727D01*
X150635765Y-109439929D01*
X150644030Y-109416829D01*
X150654520Y-109394651D01*
X150667133Y-109373607D01*
X150681747Y-109353902D01*
X150698223Y-109335723D01*
X150716402Y-109319247D01*
X150736107Y-109304633D01*
X150757151Y-109292020D01*
X150779329Y-109281530D01*
X150802429Y-109273265D01*
X150826227Y-109267304D01*
X150850496Y-109263704D01*
X150875000Y-109262500D01*
X152125000Y-109262500D01*
X152149504Y-109263704D01*
X152149504Y-109263704D01*
G37*
D13*
X151500000Y-109975000D03*
D12*
G36*
X152149504Y-106288704D02*
X152173773Y-106292304D01*
X152197571Y-106298265D01*
X152220671Y-106306530D01*
X152242849Y-106317020D01*
X152263893Y-106329633D01*
X152283598Y-106344247D01*
X152301777Y-106360723D01*
X152318253Y-106378902D01*
X152332867Y-106398607D01*
X152345480Y-106419651D01*
X152355970Y-106441829D01*
X152364235Y-106464929D01*
X152370196Y-106488727D01*
X152373796Y-106512996D01*
X152375000Y-106537500D01*
X152375000Y-107462500D01*
X152373796Y-107487004D01*
X152370196Y-107511273D01*
X152364235Y-107535071D01*
X152355970Y-107558171D01*
X152345480Y-107580349D01*
X152332867Y-107601393D01*
X152318253Y-107621098D01*
X152301777Y-107639277D01*
X152283598Y-107655753D01*
X152263893Y-107670367D01*
X152242849Y-107682980D01*
X152220671Y-107693470D01*
X152197571Y-107701735D01*
X152173773Y-107707696D01*
X152149504Y-107711296D01*
X152125000Y-107712500D01*
X150875000Y-107712500D01*
X150850496Y-107711296D01*
X150826227Y-107707696D01*
X150802429Y-107701735D01*
X150779329Y-107693470D01*
X150757151Y-107682980D01*
X150736107Y-107670367D01*
X150716402Y-107655753D01*
X150698223Y-107639277D01*
X150681747Y-107621098D01*
X150667133Y-107601393D01*
X150654520Y-107580349D01*
X150644030Y-107558171D01*
X150635765Y-107535071D01*
X150629804Y-107511273D01*
X150626204Y-107487004D01*
X150625000Y-107462500D01*
X150625000Y-106537500D01*
X150626204Y-106512996D01*
X150629804Y-106488727D01*
X150635765Y-106464929D01*
X150644030Y-106441829D01*
X150654520Y-106419651D01*
X150667133Y-106398607D01*
X150681747Y-106378902D01*
X150698223Y-106360723D01*
X150716402Y-106344247D01*
X150736107Y-106329633D01*
X150757151Y-106317020D01*
X150779329Y-106306530D01*
X150802429Y-106298265D01*
X150826227Y-106292304D01*
X150850496Y-106288704D01*
X150875000Y-106287500D01*
X152125000Y-106287500D01*
X152149504Y-106288704D01*
X152149504Y-106288704D01*
G37*
D13*
X151500000Y-107000000D03*
G04 #@! TD*
D10*
G04 #@! TO.C,D3*
X135000000Y-138850000D03*
X135000000Y-142150000D03*
G04 #@! TD*
D18*
G04 #@! TO.C,L1*
X134600000Y-133000000D03*
X141000000Y-133000000D03*
G04 #@! TD*
D15*
G04 #@! TO.C,U1*
X132000000Y-107700000D03*
X130100000Y-107700000D03*
X130100000Y-105000000D03*
X131050000Y-105000000D03*
X132000000Y-105000000D03*
G04 #@! TD*
G04 #@! TO.C,U4*
X164950001Y-137025001D03*
X164000001Y-137025001D03*
X165900001Y-137025001D03*
X165900001Y-139725001D03*
X164950001Y-139725001D03*
X164000001Y-139725001D03*
G04 #@! TD*
G04 #@! TO.C,U5*
X140550000Y-139500000D03*
X139600000Y-139500000D03*
X141500000Y-139500000D03*
X141500000Y-142200000D03*
X140550000Y-142200000D03*
X139600000Y-142200000D03*
G04 #@! TD*
G04 #@! TO.C,U6*
X152500000Y-137150000D03*
X151550000Y-137150000D03*
X153450000Y-137150000D03*
X153450000Y-139850000D03*
X152500000Y-139850000D03*
X151550000Y-139850000D03*
G04 #@! TD*
D11*
G04 #@! TO.C,Q2*
X157800000Y-138025000D03*
X161200000Y-137075000D03*
X161200000Y-138975000D03*
G04 #@! TD*
G04 #@! TO.C,Q4*
X144800000Y-138000000D03*
X148200000Y-137050000D03*
X148200000Y-138950000D03*
G04 #@! TD*
D19*
G04 #@! TO.C,Q1*
X146000000Y-108500000D03*
X146950000Y-111900000D03*
X145050000Y-111900000D03*
G04 #@! TD*
D11*
G04 #@! TO.C,Q5*
X148200000Y-142500000D03*
X144800000Y-143450000D03*
X144800000Y-141550000D03*
G04 #@! TD*
G04 #@! TO.C,Q3*
X161200000Y-142475000D03*
X157800000Y-143425000D03*
X157800000Y-141525000D03*
G04 #@! TD*
D12*
G04 #@! TO.C,R2*
G36*
X141974505Y-109976204D02*
X141998773Y-109979804D01*
X142022572Y-109985765D01*
X142045671Y-109994030D01*
X142067850Y-110004520D01*
X142088893Y-110017132D01*
X142108599Y-110031747D01*
X142126777Y-110048223D01*
X142143253Y-110066401D01*
X142157868Y-110086107D01*
X142170480Y-110107150D01*
X142180970Y-110129329D01*
X142189235Y-110152428D01*
X142195196Y-110176227D01*
X142198796Y-110200495D01*
X142200000Y-110224999D01*
X142200000Y-110875001D01*
X142198796Y-110899505D01*
X142195196Y-110923773D01*
X142189235Y-110947572D01*
X142180970Y-110970671D01*
X142170480Y-110992850D01*
X142157868Y-111013893D01*
X142143253Y-111033599D01*
X142126777Y-111051777D01*
X142108599Y-111068253D01*
X142088893Y-111082868D01*
X142067850Y-111095480D01*
X142045671Y-111105970D01*
X142022572Y-111114235D01*
X141998773Y-111120196D01*
X141974505Y-111123796D01*
X141950001Y-111125000D01*
X141049999Y-111125000D01*
X141025495Y-111123796D01*
X141001227Y-111120196D01*
X140977428Y-111114235D01*
X140954329Y-111105970D01*
X140932150Y-111095480D01*
X140911107Y-111082868D01*
X140891401Y-111068253D01*
X140873223Y-111051777D01*
X140856747Y-111033599D01*
X140842132Y-111013893D01*
X140829520Y-110992850D01*
X140819030Y-110970671D01*
X140810765Y-110947572D01*
X140804804Y-110923773D01*
X140801204Y-110899505D01*
X140800000Y-110875001D01*
X140800000Y-110224999D01*
X140801204Y-110200495D01*
X140804804Y-110176227D01*
X140810765Y-110152428D01*
X140819030Y-110129329D01*
X140829520Y-110107150D01*
X140842132Y-110086107D01*
X140856747Y-110066401D01*
X140873223Y-110048223D01*
X140891401Y-110031747D01*
X140911107Y-110017132D01*
X140932150Y-110004520D01*
X140954329Y-109994030D01*
X140977428Y-109985765D01*
X141001227Y-109979804D01*
X141025495Y-109976204D01*
X141049999Y-109975000D01*
X141950001Y-109975000D01*
X141974505Y-109976204D01*
X141974505Y-109976204D01*
G37*
D14*
X141500000Y-110550000D03*
D12*
G36*
X141974505Y-107926204D02*
X141998773Y-107929804D01*
X142022572Y-107935765D01*
X142045671Y-107944030D01*
X142067850Y-107954520D01*
X142088893Y-107967132D01*
X142108599Y-107981747D01*
X142126777Y-107998223D01*
X142143253Y-108016401D01*
X142157868Y-108036107D01*
X142170480Y-108057150D01*
X142180970Y-108079329D01*
X142189235Y-108102428D01*
X142195196Y-108126227D01*
X142198796Y-108150495D01*
X142200000Y-108174999D01*
X142200000Y-108825001D01*
X142198796Y-108849505D01*
X142195196Y-108873773D01*
X142189235Y-108897572D01*
X142180970Y-108920671D01*
X142170480Y-108942850D01*
X142157868Y-108963893D01*
X142143253Y-108983599D01*
X142126777Y-109001777D01*
X142108599Y-109018253D01*
X142088893Y-109032868D01*
X142067850Y-109045480D01*
X142045671Y-109055970D01*
X142022572Y-109064235D01*
X141998773Y-109070196D01*
X141974505Y-109073796D01*
X141950001Y-109075000D01*
X141049999Y-109075000D01*
X141025495Y-109073796D01*
X141001227Y-109070196D01*
X140977428Y-109064235D01*
X140954329Y-109055970D01*
X140932150Y-109045480D01*
X140911107Y-109032868D01*
X140891401Y-109018253D01*
X140873223Y-109001777D01*
X140856747Y-108983599D01*
X140842132Y-108963893D01*
X140829520Y-108942850D01*
X140819030Y-108920671D01*
X140810765Y-108897572D01*
X140804804Y-108873773D01*
X140801204Y-108849505D01*
X140800000Y-108825001D01*
X140800000Y-108174999D01*
X140801204Y-108150495D01*
X140804804Y-108126227D01*
X140810765Y-108102428D01*
X140819030Y-108079329D01*
X140829520Y-108057150D01*
X140842132Y-108036107D01*
X140856747Y-108016401D01*
X140873223Y-107998223D01*
X140891401Y-107981747D01*
X140911107Y-107967132D01*
X140932150Y-107954520D01*
X140954329Y-107944030D01*
X140977428Y-107935765D01*
X141001227Y-107929804D01*
X141025495Y-107926204D01*
X141049999Y-107925000D01*
X141950001Y-107925000D01*
X141974505Y-107926204D01*
X141974505Y-107926204D01*
G37*
D14*
X141500000Y-108500000D03*
G04 #@! TD*
D12*
G04 #@! TO.C,R1*
G36*
X141974505Y-102926204D02*
X141998773Y-102929804D01*
X142022572Y-102935765D01*
X142045671Y-102944030D01*
X142067850Y-102954520D01*
X142088893Y-102967132D01*
X142108599Y-102981747D01*
X142126777Y-102998223D01*
X142143253Y-103016401D01*
X142157868Y-103036107D01*
X142170480Y-103057150D01*
X142180970Y-103079329D01*
X142189235Y-103102428D01*
X142195196Y-103126227D01*
X142198796Y-103150495D01*
X142200000Y-103174999D01*
X142200000Y-103825001D01*
X142198796Y-103849505D01*
X142195196Y-103873773D01*
X142189235Y-103897572D01*
X142180970Y-103920671D01*
X142170480Y-103942850D01*
X142157868Y-103963893D01*
X142143253Y-103983599D01*
X142126777Y-104001777D01*
X142108599Y-104018253D01*
X142088893Y-104032868D01*
X142067850Y-104045480D01*
X142045671Y-104055970D01*
X142022572Y-104064235D01*
X141998773Y-104070196D01*
X141974505Y-104073796D01*
X141950001Y-104075000D01*
X141049999Y-104075000D01*
X141025495Y-104073796D01*
X141001227Y-104070196D01*
X140977428Y-104064235D01*
X140954329Y-104055970D01*
X140932150Y-104045480D01*
X140911107Y-104032868D01*
X140891401Y-104018253D01*
X140873223Y-104001777D01*
X140856747Y-103983599D01*
X140842132Y-103963893D01*
X140829520Y-103942850D01*
X140819030Y-103920671D01*
X140810765Y-103897572D01*
X140804804Y-103873773D01*
X140801204Y-103849505D01*
X140800000Y-103825001D01*
X140800000Y-103174999D01*
X140801204Y-103150495D01*
X140804804Y-103126227D01*
X140810765Y-103102428D01*
X140819030Y-103079329D01*
X140829520Y-103057150D01*
X140842132Y-103036107D01*
X140856747Y-103016401D01*
X140873223Y-102998223D01*
X140891401Y-102981747D01*
X140911107Y-102967132D01*
X140932150Y-102954520D01*
X140954329Y-102944030D01*
X140977428Y-102935765D01*
X141001227Y-102929804D01*
X141025495Y-102926204D01*
X141049999Y-102925000D01*
X141950001Y-102925000D01*
X141974505Y-102926204D01*
X141974505Y-102926204D01*
G37*
D14*
X141500000Y-103500000D03*
D12*
G36*
X141974505Y-104976204D02*
X141998773Y-104979804D01*
X142022572Y-104985765D01*
X142045671Y-104994030D01*
X142067850Y-105004520D01*
X142088893Y-105017132D01*
X142108599Y-105031747D01*
X142126777Y-105048223D01*
X142143253Y-105066401D01*
X142157868Y-105086107D01*
X142170480Y-105107150D01*
X142180970Y-105129329D01*
X142189235Y-105152428D01*
X142195196Y-105176227D01*
X142198796Y-105200495D01*
X142200000Y-105224999D01*
X142200000Y-105875001D01*
X142198796Y-105899505D01*
X142195196Y-105923773D01*
X142189235Y-105947572D01*
X142180970Y-105970671D01*
X142170480Y-105992850D01*
X142157868Y-106013893D01*
X142143253Y-106033599D01*
X142126777Y-106051777D01*
X142108599Y-106068253D01*
X142088893Y-106082868D01*
X142067850Y-106095480D01*
X142045671Y-106105970D01*
X142022572Y-106114235D01*
X141998773Y-106120196D01*
X141974505Y-106123796D01*
X141950001Y-106125000D01*
X141049999Y-106125000D01*
X141025495Y-106123796D01*
X141001227Y-106120196D01*
X140977428Y-106114235D01*
X140954329Y-106105970D01*
X140932150Y-106095480D01*
X140911107Y-106082868D01*
X140891401Y-106068253D01*
X140873223Y-106051777D01*
X140856747Y-106033599D01*
X140842132Y-106013893D01*
X140829520Y-105992850D01*
X140819030Y-105970671D01*
X140810765Y-105947572D01*
X140804804Y-105923773D01*
X140801204Y-105899505D01*
X140800000Y-105875001D01*
X140800000Y-105224999D01*
X140801204Y-105200495D01*
X140804804Y-105176227D01*
X140810765Y-105152428D01*
X140819030Y-105129329D01*
X140829520Y-105107150D01*
X140842132Y-105086107D01*
X140856747Y-105066401D01*
X140873223Y-105048223D01*
X140891401Y-105031747D01*
X140911107Y-105017132D01*
X140932150Y-105004520D01*
X140954329Y-104994030D01*
X140977428Y-104985765D01*
X141001227Y-104979804D01*
X141025495Y-104976204D01*
X141049999Y-104975000D01*
X141950001Y-104975000D01*
X141974505Y-104976204D01*
X141974505Y-104976204D01*
G37*
D14*
X141500000Y-105550000D03*
G04 #@! TD*
D12*
G04 #@! TO.C,R3*
G36*
X134399505Y-111301204D02*
X134423773Y-111304804D01*
X134447572Y-111310765D01*
X134470671Y-111319030D01*
X134492850Y-111329520D01*
X134513893Y-111342132D01*
X134533599Y-111356747D01*
X134551777Y-111373223D01*
X134568253Y-111391401D01*
X134582868Y-111411107D01*
X134595480Y-111432150D01*
X134605970Y-111454329D01*
X134614235Y-111477428D01*
X134620196Y-111501227D01*
X134623796Y-111525495D01*
X134625000Y-111549999D01*
X134625000Y-112450001D01*
X134623796Y-112474505D01*
X134620196Y-112498773D01*
X134614235Y-112522572D01*
X134605970Y-112545671D01*
X134595480Y-112567850D01*
X134582868Y-112588893D01*
X134568253Y-112608599D01*
X134551777Y-112626777D01*
X134533599Y-112643253D01*
X134513893Y-112657868D01*
X134492850Y-112670480D01*
X134470671Y-112680970D01*
X134447572Y-112689235D01*
X134423773Y-112695196D01*
X134399505Y-112698796D01*
X134375001Y-112700000D01*
X133724999Y-112700000D01*
X133700495Y-112698796D01*
X133676227Y-112695196D01*
X133652428Y-112689235D01*
X133629329Y-112680970D01*
X133607150Y-112670480D01*
X133586107Y-112657868D01*
X133566401Y-112643253D01*
X133548223Y-112626777D01*
X133531747Y-112608599D01*
X133517132Y-112588893D01*
X133504520Y-112567850D01*
X133494030Y-112545671D01*
X133485765Y-112522572D01*
X133479804Y-112498773D01*
X133476204Y-112474505D01*
X133475000Y-112450001D01*
X133475000Y-111549999D01*
X133476204Y-111525495D01*
X133479804Y-111501227D01*
X133485765Y-111477428D01*
X133494030Y-111454329D01*
X133504520Y-111432150D01*
X133517132Y-111411107D01*
X133531747Y-111391401D01*
X133548223Y-111373223D01*
X133566401Y-111356747D01*
X133586107Y-111342132D01*
X133607150Y-111329520D01*
X133629329Y-111319030D01*
X133652428Y-111310765D01*
X133676227Y-111304804D01*
X133700495Y-111301204D01*
X133724999Y-111300000D01*
X134375001Y-111300000D01*
X134399505Y-111301204D01*
X134399505Y-111301204D01*
G37*
D14*
X134050000Y-112000000D03*
D12*
G36*
X132349505Y-111301204D02*
X132373773Y-111304804D01*
X132397572Y-111310765D01*
X132420671Y-111319030D01*
X132442850Y-111329520D01*
X132463893Y-111342132D01*
X132483599Y-111356747D01*
X132501777Y-111373223D01*
X132518253Y-111391401D01*
X132532868Y-111411107D01*
X132545480Y-111432150D01*
X132555970Y-111454329D01*
X132564235Y-111477428D01*
X132570196Y-111501227D01*
X132573796Y-111525495D01*
X132575000Y-111549999D01*
X132575000Y-112450001D01*
X132573796Y-112474505D01*
X132570196Y-112498773D01*
X132564235Y-112522572D01*
X132555970Y-112545671D01*
X132545480Y-112567850D01*
X132532868Y-112588893D01*
X132518253Y-112608599D01*
X132501777Y-112626777D01*
X132483599Y-112643253D01*
X132463893Y-112657868D01*
X132442850Y-112670480D01*
X132420671Y-112680970D01*
X132397572Y-112689235D01*
X132373773Y-112695196D01*
X132349505Y-112698796D01*
X132325001Y-112700000D01*
X131674999Y-112700000D01*
X131650495Y-112698796D01*
X131626227Y-112695196D01*
X131602428Y-112689235D01*
X131579329Y-112680970D01*
X131557150Y-112670480D01*
X131536107Y-112657868D01*
X131516401Y-112643253D01*
X131498223Y-112626777D01*
X131481747Y-112608599D01*
X131467132Y-112588893D01*
X131454520Y-112567850D01*
X131444030Y-112545671D01*
X131435765Y-112522572D01*
X131429804Y-112498773D01*
X131426204Y-112474505D01*
X131425000Y-112450001D01*
X131425000Y-111549999D01*
X131426204Y-111525495D01*
X131429804Y-111501227D01*
X131435765Y-111477428D01*
X131444030Y-111454329D01*
X131454520Y-111432150D01*
X131467132Y-111411107D01*
X131481747Y-111391401D01*
X131498223Y-111373223D01*
X131516401Y-111356747D01*
X131536107Y-111342132D01*
X131557150Y-111329520D01*
X131579329Y-111319030D01*
X131602428Y-111310765D01*
X131626227Y-111304804D01*
X131650495Y-111301204D01*
X131674999Y-111300000D01*
X132325001Y-111300000D01*
X132349505Y-111301204D01*
X132349505Y-111301204D01*
G37*
D14*
X132000000Y-112000000D03*
G04 #@! TD*
D12*
G04 #@! TO.C,R4*
G36*
X138874505Y-111301204D02*
X138898773Y-111304804D01*
X138922572Y-111310765D01*
X138945671Y-111319030D01*
X138967850Y-111329520D01*
X138988893Y-111342132D01*
X139008599Y-111356747D01*
X139026777Y-111373223D01*
X139043253Y-111391401D01*
X139057868Y-111411107D01*
X139070480Y-111432150D01*
X139080970Y-111454329D01*
X139089235Y-111477428D01*
X139095196Y-111501227D01*
X139098796Y-111525495D01*
X139100000Y-111549999D01*
X139100000Y-112450001D01*
X139098796Y-112474505D01*
X139095196Y-112498773D01*
X139089235Y-112522572D01*
X139080970Y-112545671D01*
X139070480Y-112567850D01*
X139057868Y-112588893D01*
X139043253Y-112608599D01*
X139026777Y-112626777D01*
X139008599Y-112643253D01*
X138988893Y-112657868D01*
X138967850Y-112670480D01*
X138945671Y-112680970D01*
X138922572Y-112689235D01*
X138898773Y-112695196D01*
X138874505Y-112698796D01*
X138850001Y-112700000D01*
X138199999Y-112700000D01*
X138175495Y-112698796D01*
X138151227Y-112695196D01*
X138127428Y-112689235D01*
X138104329Y-112680970D01*
X138082150Y-112670480D01*
X138061107Y-112657868D01*
X138041401Y-112643253D01*
X138023223Y-112626777D01*
X138006747Y-112608599D01*
X137992132Y-112588893D01*
X137979520Y-112567850D01*
X137969030Y-112545671D01*
X137960765Y-112522572D01*
X137954804Y-112498773D01*
X137951204Y-112474505D01*
X137950000Y-112450001D01*
X137950000Y-111549999D01*
X137951204Y-111525495D01*
X137954804Y-111501227D01*
X137960765Y-111477428D01*
X137969030Y-111454329D01*
X137979520Y-111432150D01*
X137992132Y-111411107D01*
X138006747Y-111391401D01*
X138023223Y-111373223D01*
X138041401Y-111356747D01*
X138061107Y-111342132D01*
X138082150Y-111329520D01*
X138104329Y-111319030D01*
X138127428Y-111310765D01*
X138151227Y-111304804D01*
X138175495Y-111301204D01*
X138199999Y-111300000D01*
X138850001Y-111300000D01*
X138874505Y-111301204D01*
X138874505Y-111301204D01*
G37*
D14*
X138525000Y-112000000D03*
D12*
G36*
X136824505Y-111301204D02*
X136848773Y-111304804D01*
X136872572Y-111310765D01*
X136895671Y-111319030D01*
X136917850Y-111329520D01*
X136938893Y-111342132D01*
X136958599Y-111356747D01*
X136976777Y-111373223D01*
X136993253Y-111391401D01*
X137007868Y-111411107D01*
X137020480Y-111432150D01*
X137030970Y-111454329D01*
X137039235Y-111477428D01*
X137045196Y-111501227D01*
X137048796Y-111525495D01*
X137050000Y-111549999D01*
X137050000Y-112450001D01*
X137048796Y-112474505D01*
X137045196Y-112498773D01*
X137039235Y-112522572D01*
X137030970Y-112545671D01*
X137020480Y-112567850D01*
X137007868Y-112588893D01*
X136993253Y-112608599D01*
X136976777Y-112626777D01*
X136958599Y-112643253D01*
X136938893Y-112657868D01*
X136917850Y-112670480D01*
X136895671Y-112680970D01*
X136872572Y-112689235D01*
X136848773Y-112695196D01*
X136824505Y-112698796D01*
X136800001Y-112700000D01*
X136149999Y-112700000D01*
X136125495Y-112698796D01*
X136101227Y-112695196D01*
X136077428Y-112689235D01*
X136054329Y-112680970D01*
X136032150Y-112670480D01*
X136011107Y-112657868D01*
X135991401Y-112643253D01*
X135973223Y-112626777D01*
X135956747Y-112608599D01*
X135942132Y-112588893D01*
X135929520Y-112567850D01*
X135919030Y-112545671D01*
X135910765Y-112522572D01*
X135904804Y-112498773D01*
X135901204Y-112474505D01*
X135900000Y-112450001D01*
X135900000Y-111549999D01*
X135901204Y-111525495D01*
X135904804Y-111501227D01*
X135910765Y-111477428D01*
X135919030Y-111454329D01*
X135929520Y-111432150D01*
X135942132Y-111411107D01*
X135956747Y-111391401D01*
X135973223Y-111373223D01*
X135991401Y-111356747D01*
X136011107Y-111342132D01*
X136032150Y-111329520D01*
X136054329Y-111319030D01*
X136077428Y-111310765D01*
X136101227Y-111304804D01*
X136125495Y-111301204D01*
X136149999Y-111300000D01*
X136800001Y-111300000D01*
X136824505Y-111301204D01*
X136824505Y-111301204D01*
G37*
D14*
X136475000Y-112000000D03*
G04 #@! TD*
D12*
G04 #@! TO.C,R5*
G36*
X161474505Y-128901204D02*
X161498773Y-128904804D01*
X161522572Y-128910765D01*
X161545671Y-128919030D01*
X161567850Y-128929520D01*
X161588893Y-128942132D01*
X161608599Y-128956747D01*
X161626777Y-128973223D01*
X161643253Y-128991401D01*
X161657868Y-129011107D01*
X161670480Y-129032150D01*
X161680970Y-129054329D01*
X161689235Y-129077428D01*
X161695196Y-129101227D01*
X161698796Y-129125495D01*
X161700000Y-129149999D01*
X161700000Y-129800001D01*
X161698796Y-129824505D01*
X161695196Y-129848773D01*
X161689235Y-129872572D01*
X161680970Y-129895671D01*
X161670480Y-129917850D01*
X161657868Y-129938893D01*
X161643253Y-129958599D01*
X161626777Y-129976777D01*
X161608599Y-129993253D01*
X161588893Y-130007868D01*
X161567850Y-130020480D01*
X161545671Y-130030970D01*
X161522572Y-130039235D01*
X161498773Y-130045196D01*
X161474505Y-130048796D01*
X161450001Y-130050000D01*
X160549999Y-130050000D01*
X160525495Y-130048796D01*
X160501227Y-130045196D01*
X160477428Y-130039235D01*
X160454329Y-130030970D01*
X160432150Y-130020480D01*
X160411107Y-130007868D01*
X160391401Y-129993253D01*
X160373223Y-129976777D01*
X160356747Y-129958599D01*
X160342132Y-129938893D01*
X160329520Y-129917850D01*
X160319030Y-129895671D01*
X160310765Y-129872572D01*
X160304804Y-129848773D01*
X160301204Y-129824505D01*
X160300000Y-129800001D01*
X160300000Y-129149999D01*
X160301204Y-129125495D01*
X160304804Y-129101227D01*
X160310765Y-129077428D01*
X160319030Y-129054329D01*
X160329520Y-129032150D01*
X160342132Y-129011107D01*
X160356747Y-128991401D01*
X160373223Y-128973223D01*
X160391401Y-128956747D01*
X160411107Y-128942132D01*
X160432150Y-128929520D01*
X160454329Y-128919030D01*
X160477428Y-128910765D01*
X160501227Y-128904804D01*
X160525495Y-128901204D01*
X160549999Y-128900000D01*
X161450001Y-128900000D01*
X161474505Y-128901204D01*
X161474505Y-128901204D01*
G37*
D14*
X161000000Y-129475000D03*
D12*
G36*
X161474505Y-130951204D02*
X161498773Y-130954804D01*
X161522572Y-130960765D01*
X161545671Y-130969030D01*
X161567850Y-130979520D01*
X161588893Y-130992132D01*
X161608599Y-131006747D01*
X161626777Y-131023223D01*
X161643253Y-131041401D01*
X161657868Y-131061107D01*
X161670480Y-131082150D01*
X161680970Y-131104329D01*
X161689235Y-131127428D01*
X161695196Y-131151227D01*
X161698796Y-131175495D01*
X161700000Y-131199999D01*
X161700000Y-131850001D01*
X161698796Y-131874505D01*
X161695196Y-131898773D01*
X161689235Y-131922572D01*
X161680970Y-131945671D01*
X161670480Y-131967850D01*
X161657868Y-131988893D01*
X161643253Y-132008599D01*
X161626777Y-132026777D01*
X161608599Y-132043253D01*
X161588893Y-132057868D01*
X161567850Y-132070480D01*
X161545671Y-132080970D01*
X161522572Y-132089235D01*
X161498773Y-132095196D01*
X161474505Y-132098796D01*
X161450001Y-132100000D01*
X160549999Y-132100000D01*
X160525495Y-132098796D01*
X160501227Y-132095196D01*
X160477428Y-132089235D01*
X160454329Y-132080970D01*
X160432150Y-132070480D01*
X160411107Y-132057868D01*
X160391401Y-132043253D01*
X160373223Y-132026777D01*
X160356747Y-132008599D01*
X160342132Y-131988893D01*
X160329520Y-131967850D01*
X160319030Y-131945671D01*
X160310765Y-131922572D01*
X160304804Y-131898773D01*
X160301204Y-131874505D01*
X160300000Y-131850001D01*
X160300000Y-131199999D01*
X160301204Y-131175495D01*
X160304804Y-131151227D01*
X160310765Y-131127428D01*
X160319030Y-131104329D01*
X160329520Y-131082150D01*
X160342132Y-131061107D01*
X160356747Y-131041401D01*
X160373223Y-131023223D01*
X160391401Y-131006747D01*
X160411107Y-130992132D01*
X160432150Y-130979520D01*
X160454329Y-130969030D01*
X160477428Y-130960765D01*
X160501227Y-130954804D01*
X160525495Y-130951204D01*
X160549999Y-130950000D01*
X161450001Y-130950000D01*
X161474505Y-130951204D01*
X161474505Y-130951204D01*
G37*
D14*
X161000000Y-131525000D03*
G04 #@! TD*
D12*
G04 #@! TO.C,R7*
G36*
X143324505Y-145301204D02*
X143348773Y-145304804D01*
X143372572Y-145310765D01*
X143395671Y-145319030D01*
X143417850Y-145329520D01*
X143438893Y-145342132D01*
X143458599Y-145356747D01*
X143476777Y-145373223D01*
X143493253Y-145391401D01*
X143507868Y-145411107D01*
X143520480Y-145432150D01*
X143530970Y-145454329D01*
X143539235Y-145477428D01*
X143545196Y-145501227D01*
X143548796Y-145525495D01*
X143550000Y-145549999D01*
X143550000Y-146450001D01*
X143548796Y-146474505D01*
X143545196Y-146498773D01*
X143539235Y-146522572D01*
X143530970Y-146545671D01*
X143520480Y-146567850D01*
X143507868Y-146588893D01*
X143493253Y-146608599D01*
X143476777Y-146626777D01*
X143458599Y-146643253D01*
X143438893Y-146657868D01*
X143417850Y-146670480D01*
X143395671Y-146680970D01*
X143372572Y-146689235D01*
X143348773Y-146695196D01*
X143324505Y-146698796D01*
X143300001Y-146700000D01*
X142649999Y-146700000D01*
X142625495Y-146698796D01*
X142601227Y-146695196D01*
X142577428Y-146689235D01*
X142554329Y-146680970D01*
X142532150Y-146670480D01*
X142511107Y-146657868D01*
X142491401Y-146643253D01*
X142473223Y-146626777D01*
X142456747Y-146608599D01*
X142442132Y-146588893D01*
X142429520Y-146567850D01*
X142419030Y-146545671D01*
X142410765Y-146522572D01*
X142404804Y-146498773D01*
X142401204Y-146474505D01*
X142400000Y-146450001D01*
X142400000Y-145549999D01*
X142401204Y-145525495D01*
X142404804Y-145501227D01*
X142410765Y-145477428D01*
X142419030Y-145454329D01*
X142429520Y-145432150D01*
X142442132Y-145411107D01*
X142456747Y-145391401D01*
X142473223Y-145373223D01*
X142491401Y-145356747D01*
X142511107Y-145342132D01*
X142532150Y-145329520D01*
X142554329Y-145319030D01*
X142577428Y-145310765D01*
X142601227Y-145304804D01*
X142625495Y-145301204D01*
X142649999Y-145300000D01*
X143300001Y-145300000D01*
X143324505Y-145301204D01*
X143324505Y-145301204D01*
G37*
D14*
X142975000Y-146000000D03*
D12*
G36*
X145374505Y-145301204D02*
X145398773Y-145304804D01*
X145422572Y-145310765D01*
X145445671Y-145319030D01*
X145467850Y-145329520D01*
X145488893Y-145342132D01*
X145508599Y-145356747D01*
X145526777Y-145373223D01*
X145543253Y-145391401D01*
X145557868Y-145411107D01*
X145570480Y-145432150D01*
X145580970Y-145454329D01*
X145589235Y-145477428D01*
X145595196Y-145501227D01*
X145598796Y-145525495D01*
X145600000Y-145549999D01*
X145600000Y-146450001D01*
X145598796Y-146474505D01*
X145595196Y-146498773D01*
X145589235Y-146522572D01*
X145580970Y-146545671D01*
X145570480Y-146567850D01*
X145557868Y-146588893D01*
X145543253Y-146608599D01*
X145526777Y-146626777D01*
X145508599Y-146643253D01*
X145488893Y-146657868D01*
X145467850Y-146670480D01*
X145445671Y-146680970D01*
X145422572Y-146689235D01*
X145398773Y-146695196D01*
X145374505Y-146698796D01*
X145350001Y-146700000D01*
X144699999Y-146700000D01*
X144675495Y-146698796D01*
X144651227Y-146695196D01*
X144627428Y-146689235D01*
X144604329Y-146680970D01*
X144582150Y-146670480D01*
X144561107Y-146657868D01*
X144541401Y-146643253D01*
X144523223Y-146626777D01*
X144506747Y-146608599D01*
X144492132Y-146588893D01*
X144479520Y-146567850D01*
X144469030Y-146545671D01*
X144460765Y-146522572D01*
X144454804Y-146498773D01*
X144451204Y-146474505D01*
X144450000Y-146450001D01*
X144450000Y-145549999D01*
X144451204Y-145525495D01*
X144454804Y-145501227D01*
X144460765Y-145477428D01*
X144469030Y-145454329D01*
X144479520Y-145432150D01*
X144492132Y-145411107D01*
X144506747Y-145391401D01*
X144523223Y-145373223D01*
X144541401Y-145356747D01*
X144561107Y-145342132D01*
X144582150Y-145329520D01*
X144604329Y-145319030D01*
X144627428Y-145310765D01*
X144651227Y-145304804D01*
X144675495Y-145301204D01*
X144699999Y-145300000D01*
X145350001Y-145300000D01*
X145374505Y-145301204D01*
X145374505Y-145301204D01*
G37*
D14*
X145025000Y-146000000D03*
G04 #@! TD*
D12*
G04 #@! TO.C,R8*
G36*
X136799505Y-145301204D02*
X136823773Y-145304804D01*
X136847572Y-145310765D01*
X136870671Y-145319030D01*
X136892850Y-145329520D01*
X136913893Y-145342132D01*
X136933599Y-145356747D01*
X136951777Y-145373223D01*
X136968253Y-145391401D01*
X136982868Y-145411107D01*
X136995480Y-145432150D01*
X137005970Y-145454329D01*
X137014235Y-145477428D01*
X137020196Y-145501227D01*
X137023796Y-145525495D01*
X137025000Y-145549999D01*
X137025000Y-146450001D01*
X137023796Y-146474505D01*
X137020196Y-146498773D01*
X137014235Y-146522572D01*
X137005970Y-146545671D01*
X136995480Y-146567850D01*
X136982868Y-146588893D01*
X136968253Y-146608599D01*
X136951777Y-146626777D01*
X136933599Y-146643253D01*
X136913893Y-146657868D01*
X136892850Y-146670480D01*
X136870671Y-146680970D01*
X136847572Y-146689235D01*
X136823773Y-146695196D01*
X136799505Y-146698796D01*
X136775001Y-146700000D01*
X136124999Y-146700000D01*
X136100495Y-146698796D01*
X136076227Y-146695196D01*
X136052428Y-146689235D01*
X136029329Y-146680970D01*
X136007150Y-146670480D01*
X135986107Y-146657868D01*
X135966401Y-146643253D01*
X135948223Y-146626777D01*
X135931747Y-146608599D01*
X135917132Y-146588893D01*
X135904520Y-146567850D01*
X135894030Y-146545671D01*
X135885765Y-146522572D01*
X135879804Y-146498773D01*
X135876204Y-146474505D01*
X135875000Y-146450001D01*
X135875000Y-145549999D01*
X135876204Y-145525495D01*
X135879804Y-145501227D01*
X135885765Y-145477428D01*
X135894030Y-145454329D01*
X135904520Y-145432150D01*
X135917132Y-145411107D01*
X135931747Y-145391401D01*
X135948223Y-145373223D01*
X135966401Y-145356747D01*
X135986107Y-145342132D01*
X136007150Y-145329520D01*
X136029329Y-145319030D01*
X136052428Y-145310765D01*
X136076227Y-145304804D01*
X136100495Y-145301204D01*
X136124999Y-145300000D01*
X136775001Y-145300000D01*
X136799505Y-145301204D01*
X136799505Y-145301204D01*
G37*
D14*
X136450000Y-146000000D03*
D12*
G36*
X138849505Y-145301204D02*
X138873773Y-145304804D01*
X138897572Y-145310765D01*
X138920671Y-145319030D01*
X138942850Y-145329520D01*
X138963893Y-145342132D01*
X138983599Y-145356747D01*
X139001777Y-145373223D01*
X139018253Y-145391401D01*
X139032868Y-145411107D01*
X139045480Y-145432150D01*
X139055970Y-145454329D01*
X139064235Y-145477428D01*
X139070196Y-145501227D01*
X139073796Y-145525495D01*
X139075000Y-145549999D01*
X139075000Y-146450001D01*
X139073796Y-146474505D01*
X139070196Y-146498773D01*
X139064235Y-146522572D01*
X139055970Y-146545671D01*
X139045480Y-146567850D01*
X139032868Y-146588893D01*
X139018253Y-146608599D01*
X139001777Y-146626777D01*
X138983599Y-146643253D01*
X138963893Y-146657868D01*
X138942850Y-146670480D01*
X138920671Y-146680970D01*
X138897572Y-146689235D01*
X138873773Y-146695196D01*
X138849505Y-146698796D01*
X138825001Y-146700000D01*
X138174999Y-146700000D01*
X138150495Y-146698796D01*
X138126227Y-146695196D01*
X138102428Y-146689235D01*
X138079329Y-146680970D01*
X138057150Y-146670480D01*
X138036107Y-146657868D01*
X138016401Y-146643253D01*
X137998223Y-146626777D01*
X137981747Y-146608599D01*
X137967132Y-146588893D01*
X137954520Y-146567850D01*
X137944030Y-146545671D01*
X137935765Y-146522572D01*
X137929804Y-146498773D01*
X137926204Y-146474505D01*
X137925000Y-146450001D01*
X137925000Y-145549999D01*
X137926204Y-145525495D01*
X137929804Y-145501227D01*
X137935765Y-145477428D01*
X137944030Y-145454329D01*
X137954520Y-145432150D01*
X137967132Y-145411107D01*
X137981747Y-145391401D01*
X137998223Y-145373223D01*
X138016401Y-145356747D01*
X138036107Y-145342132D01*
X138057150Y-145329520D01*
X138079329Y-145319030D01*
X138102428Y-145310765D01*
X138126227Y-145304804D01*
X138150495Y-145301204D01*
X138174999Y-145300000D01*
X138825001Y-145300000D01*
X138849505Y-145301204D01*
X138849505Y-145301204D01*
G37*
D14*
X138500000Y-146000000D03*
G04 #@! TD*
D12*
G04 #@! TO.C,R9*
G36*
X131824505Y-145301204D02*
X131848773Y-145304804D01*
X131872572Y-145310765D01*
X131895671Y-145319030D01*
X131917850Y-145329520D01*
X131938893Y-145342132D01*
X131958599Y-145356747D01*
X131976777Y-145373223D01*
X131993253Y-145391401D01*
X132007868Y-145411107D01*
X132020480Y-145432150D01*
X132030970Y-145454329D01*
X132039235Y-145477428D01*
X132045196Y-145501227D01*
X132048796Y-145525495D01*
X132050000Y-145549999D01*
X132050000Y-146450001D01*
X132048796Y-146474505D01*
X132045196Y-146498773D01*
X132039235Y-146522572D01*
X132030970Y-146545671D01*
X132020480Y-146567850D01*
X132007868Y-146588893D01*
X131993253Y-146608599D01*
X131976777Y-146626777D01*
X131958599Y-146643253D01*
X131938893Y-146657868D01*
X131917850Y-146670480D01*
X131895671Y-146680970D01*
X131872572Y-146689235D01*
X131848773Y-146695196D01*
X131824505Y-146698796D01*
X131800001Y-146700000D01*
X131149999Y-146700000D01*
X131125495Y-146698796D01*
X131101227Y-146695196D01*
X131077428Y-146689235D01*
X131054329Y-146680970D01*
X131032150Y-146670480D01*
X131011107Y-146657868D01*
X130991401Y-146643253D01*
X130973223Y-146626777D01*
X130956747Y-146608599D01*
X130942132Y-146588893D01*
X130929520Y-146567850D01*
X130919030Y-146545671D01*
X130910765Y-146522572D01*
X130904804Y-146498773D01*
X130901204Y-146474505D01*
X130900000Y-146450001D01*
X130900000Y-145549999D01*
X130901204Y-145525495D01*
X130904804Y-145501227D01*
X130910765Y-145477428D01*
X130919030Y-145454329D01*
X130929520Y-145432150D01*
X130942132Y-145411107D01*
X130956747Y-145391401D01*
X130973223Y-145373223D01*
X130991401Y-145356747D01*
X131011107Y-145342132D01*
X131032150Y-145329520D01*
X131054329Y-145319030D01*
X131077428Y-145310765D01*
X131101227Y-145304804D01*
X131125495Y-145301204D01*
X131149999Y-145300000D01*
X131800001Y-145300000D01*
X131824505Y-145301204D01*
X131824505Y-145301204D01*
G37*
D14*
X131475000Y-146000000D03*
D12*
G36*
X133874505Y-145301204D02*
X133898773Y-145304804D01*
X133922572Y-145310765D01*
X133945671Y-145319030D01*
X133967850Y-145329520D01*
X133988893Y-145342132D01*
X134008599Y-145356747D01*
X134026777Y-145373223D01*
X134043253Y-145391401D01*
X134057868Y-145411107D01*
X134070480Y-145432150D01*
X134080970Y-145454329D01*
X134089235Y-145477428D01*
X134095196Y-145501227D01*
X134098796Y-145525495D01*
X134100000Y-145549999D01*
X134100000Y-146450001D01*
X134098796Y-146474505D01*
X134095196Y-146498773D01*
X134089235Y-146522572D01*
X134080970Y-146545671D01*
X134070480Y-146567850D01*
X134057868Y-146588893D01*
X134043253Y-146608599D01*
X134026777Y-146626777D01*
X134008599Y-146643253D01*
X133988893Y-146657868D01*
X133967850Y-146670480D01*
X133945671Y-146680970D01*
X133922572Y-146689235D01*
X133898773Y-146695196D01*
X133874505Y-146698796D01*
X133850001Y-146700000D01*
X133199999Y-146700000D01*
X133175495Y-146698796D01*
X133151227Y-146695196D01*
X133127428Y-146689235D01*
X133104329Y-146680970D01*
X133082150Y-146670480D01*
X133061107Y-146657868D01*
X133041401Y-146643253D01*
X133023223Y-146626777D01*
X133006747Y-146608599D01*
X132992132Y-146588893D01*
X132979520Y-146567850D01*
X132969030Y-146545671D01*
X132960765Y-146522572D01*
X132954804Y-146498773D01*
X132951204Y-146474505D01*
X132950000Y-146450001D01*
X132950000Y-145549999D01*
X132951204Y-145525495D01*
X132954804Y-145501227D01*
X132960765Y-145477428D01*
X132969030Y-145454329D01*
X132979520Y-145432150D01*
X132992132Y-145411107D01*
X133006747Y-145391401D01*
X133023223Y-145373223D01*
X133041401Y-145356747D01*
X133061107Y-145342132D01*
X133082150Y-145329520D01*
X133104329Y-145319030D01*
X133127428Y-145310765D01*
X133151227Y-145304804D01*
X133175495Y-145301204D01*
X133199999Y-145300000D01*
X133850001Y-145300000D01*
X133874505Y-145301204D01*
X133874505Y-145301204D01*
G37*
D14*
X133525000Y-146000000D03*
G04 #@! TD*
D12*
G04 #@! TO.C,R10*
G36*
X148474505Y-128926204D02*
X148498773Y-128929804D01*
X148522572Y-128935765D01*
X148545671Y-128944030D01*
X148567850Y-128954520D01*
X148588893Y-128967132D01*
X148608599Y-128981747D01*
X148626777Y-128998223D01*
X148643253Y-129016401D01*
X148657868Y-129036107D01*
X148670480Y-129057150D01*
X148680970Y-129079329D01*
X148689235Y-129102428D01*
X148695196Y-129126227D01*
X148698796Y-129150495D01*
X148700000Y-129174999D01*
X148700000Y-129825001D01*
X148698796Y-129849505D01*
X148695196Y-129873773D01*
X148689235Y-129897572D01*
X148680970Y-129920671D01*
X148670480Y-129942850D01*
X148657868Y-129963893D01*
X148643253Y-129983599D01*
X148626777Y-130001777D01*
X148608599Y-130018253D01*
X148588893Y-130032868D01*
X148567850Y-130045480D01*
X148545671Y-130055970D01*
X148522572Y-130064235D01*
X148498773Y-130070196D01*
X148474505Y-130073796D01*
X148450001Y-130075000D01*
X147549999Y-130075000D01*
X147525495Y-130073796D01*
X147501227Y-130070196D01*
X147477428Y-130064235D01*
X147454329Y-130055970D01*
X147432150Y-130045480D01*
X147411107Y-130032868D01*
X147391401Y-130018253D01*
X147373223Y-130001777D01*
X147356747Y-129983599D01*
X147342132Y-129963893D01*
X147329520Y-129942850D01*
X147319030Y-129920671D01*
X147310765Y-129897572D01*
X147304804Y-129873773D01*
X147301204Y-129849505D01*
X147300000Y-129825001D01*
X147300000Y-129174999D01*
X147301204Y-129150495D01*
X147304804Y-129126227D01*
X147310765Y-129102428D01*
X147319030Y-129079329D01*
X147329520Y-129057150D01*
X147342132Y-129036107D01*
X147356747Y-129016401D01*
X147373223Y-128998223D01*
X147391401Y-128981747D01*
X147411107Y-128967132D01*
X147432150Y-128954520D01*
X147454329Y-128944030D01*
X147477428Y-128935765D01*
X147501227Y-128929804D01*
X147525495Y-128926204D01*
X147549999Y-128925000D01*
X148450001Y-128925000D01*
X148474505Y-128926204D01*
X148474505Y-128926204D01*
G37*
D14*
X148000000Y-129500000D03*
D12*
G36*
X148474505Y-130976204D02*
X148498773Y-130979804D01*
X148522572Y-130985765D01*
X148545671Y-130994030D01*
X148567850Y-131004520D01*
X148588893Y-131017132D01*
X148608599Y-131031747D01*
X148626777Y-131048223D01*
X148643253Y-131066401D01*
X148657868Y-131086107D01*
X148670480Y-131107150D01*
X148680970Y-131129329D01*
X148689235Y-131152428D01*
X148695196Y-131176227D01*
X148698796Y-131200495D01*
X148700000Y-131224999D01*
X148700000Y-131875001D01*
X148698796Y-131899505D01*
X148695196Y-131923773D01*
X148689235Y-131947572D01*
X148680970Y-131970671D01*
X148670480Y-131992850D01*
X148657868Y-132013893D01*
X148643253Y-132033599D01*
X148626777Y-132051777D01*
X148608599Y-132068253D01*
X148588893Y-132082868D01*
X148567850Y-132095480D01*
X148545671Y-132105970D01*
X148522572Y-132114235D01*
X148498773Y-132120196D01*
X148474505Y-132123796D01*
X148450001Y-132125000D01*
X147549999Y-132125000D01*
X147525495Y-132123796D01*
X147501227Y-132120196D01*
X147477428Y-132114235D01*
X147454329Y-132105970D01*
X147432150Y-132095480D01*
X147411107Y-132082868D01*
X147391401Y-132068253D01*
X147373223Y-132051777D01*
X147356747Y-132033599D01*
X147342132Y-132013893D01*
X147329520Y-131992850D01*
X147319030Y-131970671D01*
X147310765Y-131947572D01*
X147304804Y-131923773D01*
X147301204Y-131899505D01*
X147300000Y-131875001D01*
X147300000Y-131224999D01*
X147301204Y-131200495D01*
X147304804Y-131176227D01*
X147310765Y-131152428D01*
X147319030Y-131129329D01*
X147329520Y-131107150D01*
X147342132Y-131086107D01*
X147356747Y-131066401D01*
X147373223Y-131048223D01*
X147391401Y-131031747D01*
X147411107Y-131017132D01*
X147432150Y-131004520D01*
X147454329Y-130994030D01*
X147477428Y-130985765D01*
X147501227Y-130979804D01*
X147525495Y-130976204D01*
X147549999Y-130975000D01*
X148450001Y-130975000D01*
X148474505Y-130976204D01*
X148474505Y-130976204D01*
G37*
D14*
X148000000Y-131550000D03*
G04 #@! TD*
D12*
G04 #@! TO.C,R11*
G36*
X152974505Y-141926204D02*
X152998773Y-141929804D01*
X153022572Y-141935765D01*
X153045671Y-141944030D01*
X153067850Y-141954520D01*
X153088893Y-141967132D01*
X153108599Y-141981747D01*
X153126777Y-141998223D01*
X153143253Y-142016401D01*
X153157868Y-142036107D01*
X153170480Y-142057150D01*
X153180970Y-142079329D01*
X153189235Y-142102428D01*
X153195196Y-142126227D01*
X153198796Y-142150495D01*
X153200000Y-142174999D01*
X153200000Y-142825001D01*
X153198796Y-142849505D01*
X153195196Y-142873773D01*
X153189235Y-142897572D01*
X153180970Y-142920671D01*
X153170480Y-142942850D01*
X153157868Y-142963893D01*
X153143253Y-142983599D01*
X153126777Y-143001777D01*
X153108599Y-143018253D01*
X153088893Y-143032868D01*
X153067850Y-143045480D01*
X153045671Y-143055970D01*
X153022572Y-143064235D01*
X152998773Y-143070196D01*
X152974505Y-143073796D01*
X152950001Y-143075000D01*
X152049999Y-143075000D01*
X152025495Y-143073796D01*
X152001227Y-143070196D01*
X151977428Y-143064235D01*
X151954329Y-143055970D01*
X151932150Y-143045480D01*
X151911107Y-143032868D01*
X151891401Y-143018253D01*
X151873223Y-143001777D01*
X151856747Y-142983599D01*
X151842132Y-142963893D01*
X151829520Y-142942850D01*
X151819030Y-142920671D01*
X151810765Y-142897572D01*
X151804804Y-142873773D01*
X151801204Y-142849505D01*
X151800000Y-142825001D01*
X151800000Y-142174999D01*
X151801204Y-142150495D01*
X151804804Y-142126227D01*
X151810765Y-142102428D01*
X151819030Y-142079329D01*
X151829520Y-142057150D01*
X151842132Y-142036107D01*
X151856747Y-142016401D01*
X151873223Y-141998223D01*
X151891401Y-141981747D01*
X151911107Y-141967132D01*
X151932150Y-141954520D01*
X151954329Y-141944030D01*
X151977428Y-141935765D01*
X152001227Y-141929804D01*
X152025495Y-141926204D01*
X152049999Y-141925000D01*
X152950001Y-141925000D01*
X152974505Y-141926204D01*
X152974505Y-141926204D01*
G37*
D14*
X152500000Y-142500000D03*
D12*
G36*
X152974505Y-143976204D02*
X152998773Y-143979804D01*
X153022572Y-143985765D01*
X153045671Y-143994030D01*
X153067850Y-144004520D01*
X153088893Y-144017132D01*
X153108599Y-144031747D01*
X153126777Y-144048223D01*
X153143253Y-144066401D01*
X153157868Y-144086107D01*
X153170480Y-144107150D01*
X153180970Y-144129329D01*
X153189235Y-144152428D01*
X153195196Y-144176227D01*
X153198796Y-144200495D01*
X153200000Y-144224999D01*
X153200000Y-144875001D01*
X153198796Y-144899505D01*
X153195196Y-144923773D01*
X153189235Y-144947572D01*
X153180970Y-144970671D01*
X153170480Y-144992850D01*
X153157868Y-145013893D01*
X153143253Y-145033599D01*
X153126777Y-145051777D01*
X153108599Y-145068253D01*
X153088893Y-145082868D01*
X153067850Y-145095480D01*
X153045671Y-145105970D01*
X153022572Y-145114235D01*
X152998773Y-145120196D01*
X152974505Y-145123796D01*
X152950001Y-145125000D01*
X152049999Y-145125000D01*
X152025495Y-145123796D01*
X152001227Y-145120196D01*
X151977428Y-145114235D01*
X151954329Y-145105970D01*
X151932150Y-145095480D01*
X151911107Y-145082868D01*
X151891401Y-145068253D01*
X151873223Y-145051777D01*
X151856747Y-145033599D01*
X151842132Y-145013893D01*
X151829520Y-144992850D01*
X151819030Y-144970671D01*
X151810765Y-144947572D01*
X151804804Y-144923773D01*
X151801204Y-144899505D01*
X151800000Y-144875001D01*
X151800000Y-144224999D01*
X151801204Y-144200495D01*
X151804804Y-144176227D01*
X151810765Y-144152428D01*
X151819030Y-144129329D01*
X151829520Y-144107150D01*
X151842132Y-144086107D01*
X151856747Y-144066401D01*
X151873223Y-144048223D01*
X151891401Y-144031747D01*
X151911107Y-144017132D01*
X151932150Y-144004520D01*
X151954329Y-143994030D01*
X151977428Y-143985765D01*
X152001227Y-143979804D01*
X152025495Y-143976204D01*
X152049999Y-143975000D01*
X152950001Y-143975000D01*
X152974505Y-143976204D01*
X152974505Y-143976204D01*
G37*
D14*
X152500000Y-144550000D03*
G04 #@! TD*
D12*
G04 #@! TO.C,R12*
G36*
X155474505Y-133426204D02*
X155498773Y-133429804D01*
X155522572Y-133435765D01*
X155545671Y-133444030D01*
X155567850Y-133454520D01*
X155588893Y-133467132D01*
X155608599Y-133481747D01*
X155626777Y-133498223D01*
X155643253Y-133516401D01*
X155657868Y-133536107D01*
X155670480Y-133557150D01*
X155680970Y-133579329D01*
X155689235Y-133602428D01*
X155695196Y-133626227D01*
X155698796Y-133650495D01*
X155700000Y-133674999D01*
X155700000Y-134325001D01*
X155698796Y-134349505D01*
X155695196Y-134373773D01*
X155689235Y-134397572D01*
X155680970Y-134420671D01*
X155670480Y-134442850D01*
X155657868Y-134463893D01*
X155643253Y-134483599D01*
X155626777Y-134501777D01*
X155608599Y-134518253D01*
X155588893Y-134532868D01*
X155567850Y-134545480D01*
X155545671Y-134555970D01*
X155522572Y-134564235D01*
X155498773Y-134570196D01*
X155474505Y-134573796D01*
X155450001Y-134575000D01*
X154549999Y-134575000D01*
X154525495Y-134573796D01*
X154501227Y-134570196D01*
X154477428Y-134564235D01*
X154454329Y-134555970D01*
X154432150Y-134545480D01*
X154411107Y-134532868D01*
X154391401Y-134518253D01*
X154373223Y-134501777D01*
X154356747Y-134483599D01*
X154342132Y-134463893D01*
X154329520Y-134442850D01*
X154319030Y-134420671D01*
X154310765Y-134397572D01*
X154304804Y-134373773D01*
X154301204Y-134349505D01*
X154300000Y-134325001D01*
X154300000Y-133674999D01*
X154301204Y-133650495D01*
X154304804Y-133626227D01*
X154310765Y-133602428D01*
X154319030Y-133579329D01*
X154329520Y-133557150D01*
X154342132Y-133536107D01*
X154356747Y-133516401D01*
X154373223Y-133498223D01*
X154391401Y-133481747D01*
X154411107Y-133467132D01*
X154432150Y-133454520D01*
X154454329Y-133444030D01*
X154477428Y-133435765D01*
X154501227Y-133429804D01*
X154525495Y-133426204D01*
X154549999Y-133425000D01*
X155450001Y-133425000D01*
X155474505Y-133426204D01*
X155474505Y-133426204D01*
G37*
D14*
X155000000Y-134000000D03*
D12*
G36*
X155474505Y-131376204D02*
X155498773Y-131379804D01*
X155522572Y-131385765D01*
X155545671Y-131394030D01*
X155567850Y-131404520D01*
X155588893Y-131417132D01*
X155608599Y-131431747D01*
X155626777Y-131448223D01*
X155643253Y-131466401D01*
X155657868Y-131486107D01*
X155670480Y-131507150D01*
X155680970Y-131529329D01*
X155689235Y-131552428D01*
X155695196Y-131576227D01*
X155698796Y-131600495D01*
X155700000Y-131624999D01*
X155700000Y-132275001D01*
X155698796Y-132299505D01*
X155695196Y-132323773D01*
X155689235Y-132347572D01*
X155680970Y-132370671D01*
X155670480Y-132392850D01*
X155657868Y-132413893D01*
X155643253Y-132433599D01*
X155626777Y-132451777D01*
X155608599Y-132468253D01*
X155588893Y-132482868D01*
X155567850Y-132495480D01*
X155545671Y-132505970D01*
X155522572Y-132514235D01*
X155498773Y-132520196D01*
X155474505Y-132523796D01*
X155450001Y-132525000D01*
X154549999Y-132525000D01*
X154525495Y-132523796D01*
X154501227Y-132520196D01*
X154477428Y-132514235D01*
X154454329Y-132505970D01*
X154432150Y-132495480D01*
X154411107Y-132482868D01*
X154391401Y-132468253D01*
X154373223Y-132451777D01*
X154356747Y-132433599D01*
X154342132Y-132413893D01*
X154329520Y-132392850D01*
X154319030Y-132370671D01*
X154310765Y-132347572D01*
X154304804Y-132323773D01*
X154301204Y-132299505D01*
X154300000Y-132275001D01*
X154300000Y-131624999D01*
X154301204Y-131600495D01*
X154304804Y-131576227D01*
X154310765Y-131552428D01*
X154319030Y-131529329D01*
X154329520Y-131507150D01*
X154342132Y-131486107D01*
X154356747Y-131466401D01*
X154373223Y-131448223D01*
X154391401Y-131431747D01*
X154411107Y-131417132D01*
X154432150Y-131404520D01*
X154454329Y-131394030D01*
X154477428Y-131385765D01*
X154501227Y-131379804D01*
X154525495Y-131376204D01*
X154549999Y-131375000D01*
X155450001Y-131375000D01*
X155474505Y-131376204D01*
X155474505Y-131376204D01*
G37*
D14*
X155000000Y-131950000D03*
G04 #@! TD*
D12*
G04 #@! TO.C,R6*
G36*
X165424506Y-141926204D02*
X165448774Y-141929804D01*
X165472573Y-141935765D01*
X165495672Y-141944030D01*
X165517851Y-141954520D01*
X165538894Y-141967132D01*
X165558600Y-141981747D01*
X165576778Y-141998223D01*
X165593254Y-142016401D01*
X165607869Y-142036107D01*
X165620481Y-142057150D01*
X165630971Y-142079329D01*
X165639236Y-142102428D01*
X165645197Y-142126227D01*
X165648797Y-142150495D01*
X165650001Y-142174999D01*
X165650001Y-142825001D01*
X165648797Y-142849505D01*
X165645197Y-142873773D01*
X165639236Y-142897572D01*
X165630971Y-142920671D01*
X165620481Y-142942850D01*
X165607869Y-142963893D01*
X165593254Y-142983599D01*
X165576778Y-143001777D01*
X165558600Y-143018253D01*
X165538894Y-143032868D01*
X165517851Y-143045480D01*
X165495672Y-143055970D01*
X165472573Y-143064235D01*
X165448774Y-143070196D01*
X165424506Y-143073796D01*
X165400002Y-143075000D01*
X164500000Y-143075000D01*
X164475496Y-143073796D01*
X164451228Y-143070196D01*
X164427429Y-143064235D01*
X164404330Y-143055970D01*
X164382151Y-143045480D01*
X164361108Y-143032868D01*
X164341402Y-143018253D01*
X164323224Y-143001777D01*
X164306748Y-142983599D01*
X164292133Y-142963893D01*
X164279521Y-142942850D01*
X164269031Y-142920671D01*
X164260766Y-142897572D01*
X164254805Y-142873773D01*
X164251205Y-142849505D01*
X164250001Y-142825001D01*
X164250001Y-142174999D01*
X164251205Y-142150495D01*
X164254805Y-142126227D01*
X164260766Y-142102428D01*
X164269031Y-142079329D01*
X164279521Y-142057150D01*
X164292133Y-142036107D01*
X164306748Y-142016401D01*
X164323224Y-141998223D01*
X164341402Y-141981747D01*
X164361108Y-141967132D01*
X164382151Y-141954520D01*
X164404330Y-141944030D01*
X164427429Y-141935765D01*
X164451228Y-141929804D01*
X164475496Y-141926204D01*
X164500000Y-141925000D01*
X165400002Y-141925000D01*
X165424506Y-141926204D01*
X165424506Y-141926204D01*
G37*
D14*
X164950001Y-142500000D03*
D12*
G36*
X165424506Y-143976204D02*
X165448774Y-143979804D01*
X165472573Y-143985765D01*
X165495672Y-143994030D01*
X165517851Y-144004520D01*
X165538894Y-144017132D01*
X165558600Y-144031747D01*
X165576778Y-144048223D01*
X165593254Y-144066401D01*
X165607869Y-144086107D01*
X165620481Y-144107150D01*
X165630971Y-144129329D01*
X165639236Y-144152428D01*
X165645197Y-144176227D01*
X165648797Y-144200495D01*
X165650001Y-144224999D01*
X165650001Y-144875001D01*
X165648797Y-144899505D01*
X165645197Y-144923773D01*
X165639236Y-144947572D01*
X165630971Y-144970671D01*
X165620481Y-144992850D01*
X165607869Y-145013893D01*
X165593254Y-145033599D01*
X165576778Y-145051777D01*
X165558600Y-145068253D01*
X165538894Y-145082868D01*
X165517851Y-145095480D01*
X165495672Y-145105970D01*
X165472573Y-145114235D01*
X165448774Y-145120196D01*
X165424506Y-145123796D01*
X165400002Y-145125000D01*
X164500000Y-145125000D01*
X164475496Y-145123796D01*
X164451228Y-145120196D01*
X164427429Y-145114235D01*
X164404330Y-145105970D01*
X164382151Y-145095480D01*
X164361108Y-145082868D01*
X164341402Y-145068253D01*
X164323224Y-145051777D01*
X164306748Y-145033599D01*
X164292133Y-145013893D01*
X164279521Y-144992850D01*
X164269031Y-144970671D01*
X164260766Y-144947572D01*
X164254805Y-144923773D01*
X164251205Y-144899505D01*
X164250001Y-144875001D01*
X164250001Y-144224999D01*
X164251205Y-144200495D01*
X164254805Y-144176227D01*
X164260766Y-144152428D01*
X164269031Y-144129329D01*
X164279521Y-144107150D01*
X164292133Y-144086107D01*
X164306748Y-144066401D01*
X164323224Y-144048223D01*
X164341402Y-144031747D01*
X164361108Y-144017132D01*
X164382151Y-144004520D01*
X164404330Y-143994030D01*
X164427429Y-143985765D01*
X164451228Y-143979804D01*
X164475496Y-143976204D01*
X164500000Y-143975000D01*
X165400002Y-143975000D01*
X165424506Y-143976204D01*
X165424506Y-143976204D01*
G37*
D14*
X164950001Y-144550000D03*
G04 #@! TD*
D17*
G04 #@! TO.C,J1*
X160000000Y-102000000D03*
X160000000Y-107500000D03*
X168900000Y-102000000D03*
X168900000Y-107500000D03*
D16*
X162850000Y-108000000D03*
X163650000Y-108000000D03*
X164450000Y-108000000D03*
X165250000Y-108000000D03*
X166050000Y-108000000D03*
G04 #@! TD*
M02*
