M48
;DRILL file {KiCad 5.0.2+dfsg1-1} date Tue 22 Sep 2020 01:16:48 PM CEST
;FORMAT={3:3/ absolute / metric / suppress leading zeros}
FMAT,2
METRIC,TZ
T1C0.400
T2C0.762
T3C1.000
T4C1.650
T5C3.200
T6C0.800
%
G90
G05
T1
X103000Y-90500
X103000Y-141500
X103500Y-72000
X103500Y-123000
X107500Y-75000
X107500Y-126000
X111000Y-60000
X111000Y-111000
X112800Y-69000
X112800Y-120000
X116500Y-53000
X116500Y-77000
X116500Y-104000
X116500Y-128000
X119000Y-85500
X119000Y-136500
X121000Y-66500
X121000Y-117500
X130500Y-58500
X130500Y-109500
X132500Y-66000
X132500Y-117000
X135500Y-58500
X135500Y-109500
X136000Y-93000
X136000Y-144000
X137500Y-86500
X137500Y-137500
X141000Y-80000
X141000Y-131000
X141500Y-56000
X141500Y-107000
X142500Y-67000
X142500Y-118000
X143500Y-80500
X143500Y-131500
X149000Y-56000
X149000Y-107000
X150000Y-84000
X150000Y-86000
X150000Y-90500
X150000Y-135000
X150000Y-137000
X150000Y-141500
X151500Y-68500
X151500Y-119500
X152500Y-81500
X152500Y-132500
X153000Y-52500
X153000Y-103500
X155500Y-88000
X155500Y-95000
X155500Y-139000
X155500Y-146000
X157500Y-85000
X157500Y-136000
X158500Y-80500
X158500Y-131500
X161500Y-66000
X161500Y-117000
X162000Y-84500
X162000Y-135500
X163000Y-85975
X163000Y-85975
X163000Y-90500
X163000Y-136975
X163000Y-136975
X163000Y-141500
X164500Y-80500
X164500Y-131500
X165500Y-95000
X165500Y-146000
X171000Y-63000
X171000Y-114000
X172500Y-88000
X172500Y-139000
X179500Y-66000
X179500Y-117000
X181500Y-54500
X181500Y-105500
X183000Y-95000
X183000Y-146000
X185000Y-80000
X185000Y-131000
X194000Y-89500
X194000Y-140500
X195500Y-59500
X195500Y-110500
T2
X103750Y-63150
X103750Y-65250
X103750Y-67350
X103750Y-114150
X103750Y-116250
X103750Y-118350
X171500Y-99000
X171500Y-100000
X172500Y-99000
X172500Y-100000
X173500Y-99000
X173500Y-100000
X174500Y-99000
X174500Y-100000
X175500Y-99000
X175500Y-100000
X176500Y-99000
X176500Y-100000
X177500Y-99000
X177500Y-100000
X178500Y-99000
X178500Y-100000
X106500Y-63150
X106500Y-65250
X106500Y-67350
X121500Y-99000
X121500Y-100000
X122500Y-99000
X122500Y-100000
X123500Y-99000
X123500Y-100000
X124500Y-99000
X124500Y-100000
X125500Y-99000
X125500Y-100000
X126500Y-99000
X126500Y-100000
X127500Y-99000
X127500Y-100000
X128500Y-99000
X128500Y-100000
X106500Y-114150
X106500Y-116250
X106500Y-118350
T4
X114000Y-60000
X186000Y-60000
X114000Y-111000
X186000Y-111000
X114000Y-88000
X186000Y-88000
X114000Y-139000
X186000Y-139000
T5
X122200Y-111000
X177800Y-111000
X122200Y-88000
X177800Y-88000
X122200Y-139000
X177800Y-139000
X122200Y-60000
X177800Y-60000
T6
X162250Y-105000
X166650Y-105000
X162250Y-54000
X166650Y-54000
T2
X103919Y-61050G85X103581Y-61050
G05
X103919Y-69450G85X103581Y-69450
G05
X103919Y-112050G85X103581Y-112050
G05
X103919Y-120450G85X103581Y-120450
G05
X106331Y-61050G85X106669Y-61050
G05
X106331Y-69450G85X106669Y-69450
G05
X106331Y-112050G85X106669Y-112050
G05
X106331Y-120450G85X106669Y-120450
G05
T3
X104000Y-131230G85X103000Y-131230
G05
X104000Y-133770G85X103000Y-133770
G05
X104000Y-80230G85X103000Y-80230
G05
X104000Y-82770G85X103000Y-82770
G05
T0
M30
