G04 #@! TF.GenerationSoftware,KiCad,Pcbnew,5.0.2+dfsg1-1*
G04 #@! TF.CreationDate,2020-09-22T13:16:50+02:00*
G04 #@! TF.ProjectId,lipo_power,6c69706f-5f70-46f7-9765-722e6b696361,rev?*
G04 #@! TF.SameCoordinates,Original*
G04 #@! TF.FileFunction,Legend,Bot*
G04 #@! TF.FilePolarity,Positive*
%FSLAX46Y46*%
G04 Gerber Fmt 4.6, Leading zero omitted, Abs format (unit mm)*
G04 Created by KiCad (PCBNEW 5.0.2+dfsg1-1) date Tue 22 Sep 2020 01:16:50 PM CEST*
%MOMM*%
%LPD*%
G01*
G04 APERTURE LIST*
%ADD10C,0.150000*%
%ADD11C,1.250000*%
%ADD12C,1.125000*%
G04 APERTURE END LIST*
D10*
G04 #@! TO.C,U3*
G36*
X111000000Y-78000000D02*
X189000000Y-78000000D01*
X189000000Y-82000000D01*
X111000000Y-82000000D01*
X111000000Y-78000000D01*
G37*
X111000000Y-78000000D02*
X189000000Y-78000000D01*
X189000000Y-82000000D01*
X111000000Y-82000000D01*
X111000000Y-78000000D01*
G36*
X111000000Y-94000000D02*
X189000000Y-94000000D01*
X189000000Y-98000000D01*
X111000000Y-98000000D01*
X111000000Y-94000000D01*
G37*
X111000000Y-94000000D02*
X189000000Y-94000000D01*
X189000000Y-98000000D01*
X111000000Y-98000000D01*
X111000000Y-94000000D01*
G04 #@! TO.C,U2*
G36*
X111000000Y-50000000D02*
X189000000Y-50000000D01*
X189000000Y-54000000D01*
X111000000Y-54000000D01*
X111000000Y-50000000D01*
G37*
X111000000Y-50000000D02*
X189000000Y-50000000D01*
X189000000Y-54000000D01*
X111000000Y-54000000D01*
X111000000Y-50000000D01*
G36*
X111000000Y-66000000D02*
X189000000Y-66000000D01*
X189000000Y-70000000D01*
X111000000Y-70000000D01*
X111000000Y-66000000D01*
G37*
X111000000Y-66000000D02*
X189000000Y-66000000D01*
X189000000Y-70000000D01*
X111000000Y-70000000D01*
X111000000Y-66000000D01*
G36*
X111000000Y-117000000D02*
X189000000Y-117000000D01*
X189000000Y-121000000D01*
X111000000Y-121000000D01*
X111000000Y-117000000D01*
G37*
X111000000Y-117000000D02*
X189000000Y-117000000D01*
X189000000Y-121000000D01*
X111000000Y-121000000D01*
X111000000Y-117000000D01*
G36*
X111000000Y-101000000D02*
X189000000Y-101000000D01*
X189000000Y-105000000D01*
X111000000Y-105000000D01*
X111000000Y-101000000D01*
G37*
X111000000Y-101000000D02*
X189000000Y-101000000D01*
X189000000Y-105000000D01*
X111000000Y-105000000D01*
X111000000Y-101000000D01*
G04 #@! TO.C,U3*
G36*
X111000000Y-145000000D02*
X189000000Y-145000000D01*
X189000000Y-149000000D01*
X111000000Y-149000000D01*
X111000000Y-145000000D01*
G37*
X111000000Y-145000000D02*
X189000000Y-145000000D01*
X189000000Y-149000000D01*
X111000000Y-149000000D01*
X111000000Y-145000000D01*
G36*
X111000000Y-129000000D02*
X189000000Y-129000000D01*
X189000000Y-133000000D01*
X111000000Y-133000000D01*
X111000000Y-129000000D01*
G37*
X111000000Y-129000000D02*
X189000000Y-129000000D01*
X189000000Y-133000000D01*
X111000000Y-133000000D01*
X111000000Y-129000000D01*
D11*
X107904761Y-87857142D02*
X104095238Y-87857142D01*
X106000000Y-89761904D02*
X106000000Y-85952380D01*
X196904761Y-87857142D02*
X193095238Y-87857142D01*
D12*
X170142857Y-90035714D02*
X172285714Y-90035714D01*
X172285714Y-85535714D01*
X168642857Y-90035714D02*
X168642857Y-87035714D01*
X168642857Y-85535714D02*
X168857142Y-85750000D01*
X168642857Y-85964285D01*
X168428571Y-85750000D01*
X168642857Y-85535714D01*
X168642857Y-85964285D01*
X166500000Y-88321428D02*
X163071428Y-88321428D01*
X160928571Y-90035714D02*
X160928571Y-85535714D01*
X159214285Y-85535714D01*
X158785714Y-85750000D01*
X158571428Y-85964285D01*
X158357142Y-86392857D01*
X158357142Y-87035714D01*
X158571428Y-87464285D01*
X158785714Y-87678571D01*
X159214285Y-87892857D01*
X160928571Y-87892857D01*
X155785714Y-90035714D02*
X156214285Y-89821428D01*
X156428571Y-89607142D01*
X156642857Y-89178571D01*
X156642857Y-87892857D01*
X156428571Y-87464285D01*
X156214285Y-87250000D01*
X155785714Y-87035714D01*
X155142857Y-87035714D01*
X154714285Y-87250000D01*
X154500000Y-87464285D01*
X154285714Y-87892857D01*
X154285714Y-89178571D01*
X154500000Y-89607142D01*
X154714285Y-89821428D01*
X155142857Y-90035714D01*
X155785714Y-90035714D01*
X148928571Y-90035714D02*
X148928571Y-85535714D01*
X148928571Y-87250000D02*
X148500000Y-87035714D01*
X147642857Y-87035714D01*
X147214285Y-87250000D01*
X147000000Y-87464285D01*
X146785714Y-87892857D01*
X146785714Y-89178571D01*
X147000000Y-89607142D01*
X147214285Y-89821428D01*
X147642857Y-90035714D01*
X148500000Y-90035714D01*
X148928571Y-89821428D01*
X142928571Y-90035714D02*
X142928571Y-87678571D01*
X143142857Y-87250000D01*
X143571428Y-87035714D01*
X144428571Y-87035714D01*
X144857142Y-87250000D01*
X142928571Y-89821428D02*
X143357142Y-90035714D01*
X144428571Y-90035714D01*
X144857142Y-89821428D01*
X145071428Y-89392857D01*
X145071428Y-88964285D01*
X144857142Y-88535714D01*
X144428571Y-88321428D01*
X143357142Y-88321428D01*
X142928571Y-88107142D01*
X141428571Y-87035714D02*
X139714285Y-87035714D01*
X140785714Y-85535714D02*
X140785714Y-89392857D01*
X140571428Y-89821428D01*
X140142857Y-90035714D01*
X139714285Y-90035714D01*
X138857142Y-87035714D02*
X137142857Y-87035714D01*
X138214285Y-85535714D02*
X138214285Y-89392857D01*
X138000000Y-89821428D01*
X137571428Y-90035714D01*
X137142857Y-90035714D01*
X133928571Y-89821428D02*
X134357142Y-90035714D01*
X135214285Y-90035714D01*
X135642857Y-89821428D01*
X135857142Y-89392857D01*
X135857142Y-87678571D01*
X135642857Y-87250000D01*
X135214285Y-87035714D01*
X134357142Y-87035714D01*
X133928571Y-87250000D01*
X133714285Y-87678571D01*
X133714285Y-88107142D01*
X135857142Y-88535714D01*
X131785714Y-90035714D02*
X131785714Y-87035714D01*
X131785714Y-87892857D02*
X131571428Y-87464285D01*
X131357142Y-87250000D01*
X130928571Y-87035714D01*
X130500000Y-87035714D01*
X129428571Y-87035714D02*
X128357142Y-90035714D01*
X127285714Y-87035714D02*
X128357142Y-90035714D01*
X128785714Y-91107142D01*
X129000000Y-91321428D01*
X129428571Y-91535714D01*
G04 #@! TO.C,U2*
D11*
X107904761Y-59857142D02*
X104095238Y-59857142D01*
X106000000Y-61761904D02*
X106000000Y-57952380D01*
X196904761Y-59857142D02*
X193095238Y-59857142D01*
D12*
X170142857Y-62035714D02*
X172285714Y-62035714D01*
X172285714Y-57535714D01*
X168642857Y-62035714D02*
X168642857Y-59035714D01*
X168642857Y-57535714D02*
X168857142Y-57750000D01*
X168642857Y-57964285D01*
X168428571Y-57750000D01*
X168642857Y-57535714D01*
X168642857Y-57964285D01*
X166500000Y-60321428D02*
X163071428Y-60321428D01*
X160928571Y-62035714D02*
X160928571Y-57535714D01*
X159214285Y-57535714D01*
X158785714Y-57750000D01*
X158571428Y-57964285D01*
X158357142Y-58392857D01*
X158357142Y-59035714D01*
X158571428Y-59464285D01*
X158785714Y-59678571D01*
X159214285Y-59892857D01*
X160928571Y-59892857D01*
X155785714Y-62035714D02*
X156214285Y-61821428D01*
X156428571Y-61607142D01*
X156642857Y-61178571D01*
X156642857Y-59892857D01*
X156428571Y-59464285D01*
X156214285Y-59250000D01*
X155785714Y-59035714D01*
X155142857Y-59035714D01*
X154714285Y-59250000D01*
X154500000Y-59464285D01*
X154285714Y-59892857D01*
X154285714Y-61178571D01*
X154500000Y-61607142D01*
X154714285Y-61821428D01*
X155142857Y-62035714D01*
X155785714Y-62035714D01*
X148928571Y-62035714D02*
X148928571Y-57535714D01*
X148928571Y-59250000D02*
X148500000Y-59035714D01*
X147642857Y-59035714D01*
X147214285Y-59250000D01*
X147000000Y-59464285D01*
X146785714Y-59892857D01*
X146785714Y-61178571D01*
X147000000Y-61607142D01*
X147214285Y-61821428D01*
X147642857Y-62035714D01*
X148500000Y-62035714D01*
X148928571Y-61821428D01*
X142928571Y-62035714D02*
X142928571Y-59678571D01*
X143142857Y-59250000D01*
X143571428Y-59035714D01*
X144428571Y-59035714D01*
X144857142Y-59250000D01*
X142928571Y-61821428D02*
X143357142Y-62035714D01*
X144428571Y-62035714D01*
X144857142Y-61821428D01*
X145071428Y-61392857D01*
X145071428Y-60964285D01*
X144857142Y-60535714D01*
X144428571Y-60321428D01*
X143357142Y-60321428D01*
X142928571Y-60107142D01*
X141428571Y-59035714D02*
X139714285Y-59035714D01*
X140785714Y-57535714D02*
X140785714Y-61392857D01*
X140571428Y-61821428D01*
X140142857Y-62035714D01*
X139714285Y-62035714D01*
X138857142Y-59035714D02*
X137142857Y-59035714D01*
X138214285Y-57535714D02*
X138214285Y-61392857D01*
X138000000Y-61821428D01*
X137571428Y-62035714D01*
X137142857Y-62035714D01*
X133928571Y-61821428D02*
X134357142Y-62035714D01*
X135214285Y-62035714D01*
X135642857Y-61821428D01*
X135857142Y-61392857D01*
X135857142Y-59678571D01*
X135642857Y-59250000D01*
X135214285Y-59035714D01*
X134357142Y-59035714D01*
X133928571Y-59250000D01*
X133714285Y-59678571D01*
X133714285Y-60107142D01*
X135857142Y-60535714D01*
X131785714Y-62035714D02*
X131785714Y-59035714D01*
X131785714Y-59892857D02*
X131571428Y-59464285D01*
X131357142Y-59250000D01*
X130928571Y-59035714D01*
X130500000Y-59035714D01*
X129428571Y-59035714D02*
X128357142Y-62035714D01*
X127285714Y-59035714D02*
X128357142Y-62035714D01*
X128785714Y-63107142D01*
X129000000Y-63321428D01*
X129428571Y-63535714D01*
X170142857Y-113035714D02*
X172285714Y-113035714D01*
X172285714Y-108535714D01*
X168642857Y-113035714D02*
X168642857Y-110035714D01*
X168642857Y-108535714D02*
X168857142Y-108750000D01*
X168642857Y-108964285D01*
X168428571Y-108750000D01*
X168642857Y-108535714D01*
X168642857Y-108964285D01*
X166500000Y-111321428D02*
X163071428Y-111321428D01*
X160928571Y-113035714D02*
X160928571Y-108535714D01*
X159214285Y-108535714D01*
X158785714Y-108750000D01*
X158571428Y-108964285D01*
X158357142Y-109392857D01*
X158357142Y-110035714D01*
X158571428Y-110464285D01*
X158785714Y-110678571D01*
X159214285Y-110892857D01*
X160928571Y-110892857D01*
X155785714Y-113035714D02*
X156214285Y-112821428D01*
X156428571Y-112607142D01*
X156642857Y-112178571D01*
X156642857Y-110892857D01*
X156428571Y-110464285D01*
X156214285Y-110250000D01*
X155785714Y-110035714D01*
X155142857Y-110035714D01*
X154714285Y-110250000D01*
X154500000Y-110464285D01*
X154285714Y-110892857D01*
X154285714Y-112178571D01*
X154500000Y-112607142D01*
X154714285Y-112821428D01*
X155142857Y-113035714D01*
X155785714Y-113035714D01*
X148928571Y-113035714D02*
X148928571Y-108535714D01*
X148928571Y-110250000D02*
X148500000Y-110035714D01*
X147642857Y-110035714D01*
X147214285Y-110250000D01*
X147000000Y-110464285D01*
X146785714Y-110892857D01*
X146785714Y-112178571D01*
X147000000Y-112607142D01*
X147214285Y-112821428D01*
X147642857Y-113035714D01*
X148500000Y-113035714D01*
X148928571Y-112821428D01*
X142928571Y-113035714D02*
X142928571Y-110678571D01*
X143142857Y-110250000D01*
X143571428Y-110035714D01*
X144428571Y-110035714D01*
X144857142Y-110250000D01*
X142928571Y-112821428D02*
X143357142Y-113035714D01*
X144428571Y-113035714D01*
X144857142Y-112821428D01*
X145071428Y-112392857D01*
X145071428Y-111964285D01*
X144857142Y-111535714D01*
X144428571Y-111321428D01*
X143357142Y-111321428D01*
X142928571Y-111107142D01*
X141428571Y-110035714D02*
X139714285Y-110035714D01*
X140785714Y-108535714D02*
X140785714Y-112392857D01*
X140571428Y-112821428D01*
X140142857Y-113035714D01*
X139714285Y-113035714D01*
X138857142Y-110035714D02*
X137142857Y-110035714D01*
X138214285Y-108535714D02*
X138214285Y-112392857D01*
X138000000Y-112821428D01*
X137571428Y-113035714D01*
X137142857Y-113035714D01*
X133928571Y-112821428D02*
X134357142Y-113035714D01*
X135214285Y-113035714D01*
X135642857Y-112821428D01*
X135857142Y-112392857D01*
X135857142Y-110678571D01*
X135642857Y-110250000D01*
X135214285Y-110035714D01*
X134357142Y-110035714D01*
X133928571Y-110250000D01*
X133714285Y-110678571D01*
X133714285Y-111107142D01*
X135857142Y-111535714D01*
X131785714Y-113035714D02*
X131785714Y-110035714D01*
X131785714Y-110892857D02*
X131571428Y-110464285D01*
X131357142Y-110250000D01*
X130928571Y-110035714D01*
X130500000Y-110035714D01*
X129428571Y-110035714D02*
X128357142Y-113035714D01*
X127285714Y-110035714D02*
X128357142Y-113035714D01*
X128785714Y-114107142D01*
X129000000Y-114321428D01*
X129428571Y-114535714D01*
D11*
X196904761Y-110857142D02*
X193095238Y-110857142D01*
X107904761Y-110857142D02*
X104095238Y-110857142D01*
X106000000Y-112761904D02*
X106000000Y-108952380D01*
G04 #@! TO.C,U3*
D12*
X170142857Y-141035714D02*
X172285714Y-141035714D01*
X172285714Y-136535714D01*
X168642857Y-141035714D02*
X168642857Y-138035714D01*
X168642857Y-136535714D02*
X168857142Y-136750000D01*
X168642857Y-136964285D01*
X168428571Y-136750000D01*
X168642857Y-136535714D01*
X168642857Y-136964285D01*
X166500000Y-139321428D02*
X163071428Y-139321428D01*
X160928571Y-141035714D02*
X160928571Y-136535714D01*
X159214285Y-136535714D01*
X158785714Y-136750000D01*
X158571428Y-136964285D01*
X158357142Y-137392857D01*
X158357142Y-138035714D01*
X158571428Y-138464285D01*
X158785714Y-138678571D01*
X159214285Y-138892857D01*
X160928571Y-138892857D01*
X155785714Y-141035714D02*
X156214285Y-140821428D01*
X156428571Y-140607142D01*
X156642857Y-140178571D01*
X156642857Y-138892857D01*
X156428571Y-138464285D01*
X156214285Y-138250000D01*
X155785714Y-138035714D01*
X155142857Y-138035714D01*
X154714285Y-138250000D01*
X154500000Y-138464285D01*
X154285714Y-138892857D01*
X154285714Y-140178571D01*
X154500000Y-140607142D01*
X154714285Y-140821428D01*
X155142857Y-141035714D01*
X155785714Y-141035714D01*
X148928571Y-141035714D02*
X148928571Y-136535714D01*
X148928571Y-138250000D02*
X148500000Y-138035714D01*
X147642857Y-138035714D01*
X147214285Y-138250000D01*
X147000000Y-138464285D01*
X146785714Y-138892857D01*
X146785714Y-140178571D01*
X147000000Y-140607142D01*
X147214285Y-140821428D01*
X147642857Y-141035714D01*
X148500000Y-141035714D01*
X148928571Y-140821428D01*
X142928571Y-141035714D02*
X142928571Y-138678571D01*
X143142857Y-138250000D01*
X143571428Y-138035714D01*
X144428571Y-138035714D01*
X144857142Y-138250000D01*
X142928571Y-140821428D02*
X143357142Y-141035714D01*
X144428571Y-141035714D01*
X144857142Y-140821428D01*
X145071428Y-140392857D01*
X145071428Y-139964285D01*
X144857142Y-139535714D01*
X144428571Y-139321428D01*
X143357142Y-139321428D01*
X142928571Y-139107142D01*
X141428571Y-138035714D02*
X139714285Y-138035714D01*
X140785714Y-136535714D02*
X140785714Y-140392857D01*
X140571428Y-140821428D01*
X140142857Y-141035714D01*
X139714285Y-141035714D01*
X138857142Y-138035714D02*
X137142857Y-138035714D01*
X138214285Y-136535714D02*
X138214285Y-140392857D01*
X138000000Y-140821428D01*
X137571428Y-141035714D01*
X137142857Y-141035714D01*
X133928571Y-140821428D02*
X134357142Y-141035714D01*
X135214285Y-141035714D01*
X135642857Y-140821428D01*
X135857142Y-140392857D01*
X135857142Y-138678571D01*
X135642857Y-138250000D01*
X135214285Y-138035714D01*
X134357142Y-138035714D01*
X133928571Y-138250000D01*
X133714285Y-138678571D01*
X133714285Y-139107142D01*
X135857142Y-139535714D01*
X131785714Y-141035714D02*
X131785714Y-138035714D01*
X131785714Y-138892857D02*
X131571428Y-138464285D01*
X131357142Y-138250000D01*
X130928571Y-138035714D01*
X130500000Y-138035714D01*
X129428571Y-138035714D02*
X128357142Y-141035714D01*
X127285714Y-138035714D02*
X128357142Y-141035714D01*
X128785714Y-142107142D01*
X129000000Y-142321428D01*
X129428571Y-142535714D01*
D11*
X196904761Y-138857142D02*
X193095238Y-138857142D01*
X107904761Y-138857142D02*
X104095238Y-138857142D01*
X106000000Y-140761904D02*
X106000000Y-136952380D01*
G04 #@! TD*
M02*
